<svg width="173" height="200" viewBox="0 0 173 200" fill="none" xmlns="http://www.w3.org/2000/svg">
<path d="M5.30393 68.6987C5.30393 61.4268 11.1038 53.9815 14.2669 47.6552C15.7343 44.7205 18.653 42.6846 20.8916 40.4459C24.044 37.2936 28.1964 35.4499 31.4134 32.5546C34.6283 29.6612 36.478 30.9935 33.8002 26.1734C30.5574 20.3364 27.0118 15.0027 22.1581 10.6344C17.4548 6.40145 4.38228 11.6438 2.72221 17.454C0.513681 25.1839 1.47137 31.2787 8.37276 36.6464C11.3957 38.9976 14.8708 41.5176 18.8945 41.5176C20.5522 41.5176 27.7014 37.7352 26.3473 36.9387C20.533 33.5185 17.6039 27.3576 14.5104 21.7894C13.8438 20.5895 16.4057 27.1919 18.0177 28.8039C19.5489 30.3351 25.3048 37.7863 27.9061 35.1851C29.6533 33.4379 31.9555 31.3676 35.1154 30.9959C38.9728 30.5421 37.7459 25.4092 37.7459 22.4226C37.7459 18.4118 37.9963 14.8039 39.3046 11.0241C39.8954 9.31736 40.7454 7.57223 41.9351 6.25037C42.4824 5.6422 42.913 4.61095 43.0067 3.81479C43.1544 2.55906 44.1692 3.36193 44.7116 2.54829C46.486 -0.113349 44.1151 9.02176 44.809 12.1445C45.524 15.3619 49.0871 17.7269 50.7032 20.4742C54.8624 27.545 54.5711 25.735 62.6862 25.735C69.9617 25.735 75.4868 29.6129 81.1479 34.016C83.3798 35.7519 85.0582 37.9821 87.2856 39.764C88.4771 40.7172 91.9995 47.2656 92.79 47.2656C94.572 47.2656 89.6324 40.3473 89.2827 39.9588C88.4656 39.0509 87.5184 38.1945 86.6523 37.3284C85.8918 36.5678 88.944 36.7035 89.4776 35.7696C92.4746 30.5248 97.8448 23.4045 97.3689 19.5974C97.098 17.4302 93.6778 12.1339 96.6869 15.8953C98.3224 17.9396 100.541 19.6523 102.435 21.5458C104.529 23.6402 106.745 25.6836 108.085 28.3654C108.962 30.1191 109.839 31.8727 110.716 33.6263C111.369 34.9317 110.839 38.0897 111.836 38.8872C113.298 40.0563 112.275 47.0734 112.275 48.9705C112.275 50.3738 109.034 55.5641 108.085 56.6182C105.626 59.3511 106.067 61.6842 101.753 61.6842C99.2311 61.6842 97.5273 56.5501 95.1769 54.6697C92.7244 52.7077 92.3176 48.7845 94.7384 54.2313C96.062 57.2093 98.2457 58.9897 98.2457 61.2458C98.2457 64.7821 99.1225 68.0913 99.1225 71.7675C99.1225 73.5211 99.1225 75.2747 99.1225 77.0284C99.1225 79.4197 97.4958 81.3199 97.3689 83.6044C97.1663 87.2516 93.1756 91.5538 91.0364 94.5158C87.5975 99.2773 84.8989 103.192 80.2711 106.791C79.2296 107.601 76.9408 107.824 76.3255 108.593C75.4124 109.735 78.7819 109.108 79.3456 108.545C82.4432 105.447 82.5526 100.868 85.2884 97.8282C87.1556 95.7536 88.1499 92.657 90.1596 90.424C92.5191 87.8023 93.1157 83.0839 95.4204 80.7791C98.7562 77.4434 96.7621 81.7423 100.876 83.7993C104.301 85.5119 106.776 87.1117 110.911 87.1117C117.229 87.1117 127.103 90.6966 132.441 85.358C135.267 82.5323 135.072 79.5502 135.072 75.7131C135.072 71.3639 130.756 68.9957 127.619 66.5554C121.401 61.7195 114.437 59.9306 106.575 59.9306C102.41 59.9306 100.876 62.4354 100.876 66.5066C100.876 71.4413 99.1756 71.2612 104.383 74.1544C107.884 76.0989 110.569 78.3436 114.905 78.3436C116.702 78.3436 118.577 79.3848 115.782 79.2204C114.402 79.1392 112.246 76.8661 110.959 76.1515C108.35 74.702 105.185 73.8753 102.24 73.034C100.66 72.5826 99.9993 70.5577 99.9993 73.5211C99.9993 75.4294 99.6682 76.6772 98.9277 78.3436C96.0243 84.8761 91.6632 90.242 88.4059 96.7566C87.3655 98.8375 84.9451 103.084 82.2683 103.381C80.5618 103.571 82.4192 106.056 81.3915 107.083C80.493 107.982 77.9807 108.573 76.7639 109.519C72.678 112.697 70.7743 116.692 65.3166 118.677C59.1301 120.926 53.0974 123.061 46.3191 123.061C35.0332 123.061 20.6538 121.31 12.8542 111.711C9.81194 107.967 6.35635 105.657 5.25522 100.702C4.28597 96.3406 3.55031 93.0306 3.55031 88.4269C3.55031 85.3065 3.30461 79.5846 2.2351 76.5899C1.58401 74.7669 1.79669 72.8039 1.79669 70.8907C1.79669 68.8389 2.57258 67.5018 2.47865 67.627C1.11292 69.448 4.7989 62.8433 7.05755 62.561C8.56034 62.3732 8.76634 60.8074 10.5648 60.8074C12.6107 60.8074 14.6566 60.8074 16.7024 60.8074C28.7975 60.8074 39.2464 63.9933 50.0212 69.3806C58.3151 73.5276 64.4177 85.1815 68.2393 93.2493C69.6618 96.2523 78.064 114.293 68.8726 114.293C66.8887 114.293 68.4342 112.128 68.4342 113.854C68.4342 115.086 66.6806 117.04 66.6806 114.731C66.6806 112.248 69.537 106.238 67.7522 104.453C64.5861 101.287 65.9763 95.4379 63.3682 92.1777C63.2762 92.0627 59.6661 81.6839 59.6661 87.5501C59.6661 89.1133 53.8483 89.3108 52.2132 90.6189C48.918 93.2551 56.1589 96.4585 56.1589 91.9341C56.1589 87.8297 50.898 90.3816 50.898 93.6877C50.898 98.4132 57.4021 92.9663 52.6516 92.3725C48.8375 91.8957 55.71 97.7169 56.1589 94.1261C56.2948 93.0385 60.0852 87.4193 59.179 87.1604C56.33 86.3464 57.4797 91.3983 55.7204 91.3983C53.9862 91.3983 60.3339 77.983 60.4455 77.7103C62.4087 72.9114 61.87 74.6928 58.3509 73.9108C56.4741 73.4937 55.6445 70.8147 54.4052 69.5755C49.7408 64.911 40.0633 66.496 34.9206 62.7558C33.3748 61.6316 26.779 60.8628 25.2757 62.3662C22.5029 65.139 23.2956 67.7034 21.5249 70.8907C20.7051 72.3663 21.0865 74.5028 21.0865 76.1515C21.0865 77.7178 20.1933 75.953 18.8945 75.6644C12.5576 74.2562 21.8152 80.8607 21.9633 78.3436C22.181 74.6432 17.5606 76.3382 20.0148 80.974C23.0234 86.6568 26.7336 77.4668 23.2785 77.4668C17.479 77.4668 23.7169 85.1383 23.7169 79.6588C23.7169 76.5833 22.3864 80.1509 22.7914 78.7333C23.3154 76.8993 23.7169 75.4753 23.7169 73.5211C23.7169 70.6379 22.7464 65.5355 24.1553 62.9994C25.1538 61.2021 26.6311 61.6842 28.5394 61.6842C30.4481 61.6842 29.8546 65.3009 29.8546 62.561C29.8546 54.344 32.0022 51.5467 36.8691 45.4632C39.4448 42.2435 39.4995 51.6812 39.4995 52.4777C39.4995 55.6572 39.1633 59.4246 35.1154 59.9306C30.5327 60.5034 32.2164 61.8657 32.485 57.3001C32.6774 54.0299 31.6957 55.8751 32.6799 57.1053C34.1082 58.8907 34.733 57.0973 34.0438 55.5465C31.5103 49.8462 32.8982 59.3957 36.1871 55.7414C38.1838 53.5228 34.6283 53.4609 34.6283 54.6697C34.6283 57.0107 37.7726 53.8918 36.9178 57.7385C36.1041 61.3999 30.827 61.0226 36.3819 62.6097C36.7811 62.7238 39.3093 64.5153 39.4995 64.753C40.8434 66.4329 42.3689 65.2073 43.6887 66.2631C45.9855 68.1005 50.204 67.8792 52.8465 70.2574C54.2529 71.5232 54.6098 71.0638 52.6516 70.2574C51.6995 69.8654 53.5284 70.9935 53.5284 68.2603C53.5284 63.4951 54.02 62.0694 57.4741 58.6154C60.5732 55.5162 63.7901 56.3873 64.0501 60.8074C64.2812 64.7349 65.9911 66.2691 62.1017 69.3806C58.8141 72.0106 54.4052 68.9541 54.4052 65.6298C54.4052 62.4186 54.1013 65.1703 54.8436 66.5066C55.8421 68.3039 57.3194 67.8219 59.2277 67.8219C61.0115 67.8219 56.0476 61.6575 56.1589 63.4378C56.2696 65.2097 58.0166 66.945 59.6661 66.945C61.4687 66.945 62.3419 64.4204 60.5429 64.3146C57.6724 64.1458 60.673 64.8344 61.2249 65.3863C61.9555 66.1169 61.4527 69.4781 60.1045 69.4781C59.489 69.4781 60.9363 66.9913 60.9326 66.9938C60.0844 67.5592 59.0918 69.1741 58.838 70.0626C58.2024 72.2872 61.0855 77.024 62.7349 78.3436C68.5971 83.0333 68.9408 94.3599 72.1363 100.751C72.9261 102.33 76.1909 107.9 74.377 109.714C74.1811 109.91 70.5844 110.739 70.1878 110.785C68.426 110.993 67.1506 112.795 65.8037 113.806C64.4685 114.807 65.6 110.655 65.8037 110.298C66.8321 108.499 69.5515 108.855 68.0445 109.86C67.6695 110.11 79.3455 93.3456 79.8327 101.141C79.9011 102.236 79.708 100.778 80.0275 100.459C80.4839 100.002 81.8774 100.264 82.4631 100.264C84.4031 100.264 85.9511 100.158 87.724 100.946C90.6479 102.245 94.3946 101.837 97.3689 103.089C107.172 107.217 119.394 104.345 126.791 113.854C138.476 128.879 129.811 150.027 129.811 166.901C129.811 169.64 131.358 188.822 127.619 188.822C120.737 188.822 114.066 188.36 107.014 187.945C100.163 187.542 102.63 173.686 102.63 169.093C102.63 166.788 102.63 159.871 102.63 162.176C102.63 163.847 102.88 165.744 102.581 167.388C101.755 171.929 100.407 173.248 96.4921 174.987C93.1439 176.475 88.261 175.669 84.6064 175.669C80.0949 175.669 81.5863 171.507 81.5863 167.778C81.5863 163.694 81.5863 158.378 81.5863 165.537C81.5863 170.23 81.5863 174.922 81.5863 179.615C81.5863 182.174 82.4363 187.089 80.2711 188.822C77.4918 191.045 76.055 191.292 71.7466 191.452C67.2162 191.62 63.6842 195.133 58.9841 194.959C57.0842 194.889 56.2614 193.206 54.4052 193.206C49.64 193.206 49.4419 191.007 52.1645 187.506C54.8258 184.085 53.11 180 52.7003 176.108C52.3729 172.998 52.6516 169.681 52.6516 166.56C52.6516 165.575 51.7748 160.67 51.7748 163.832C51.7748 166.306 52.8837 171.626 50.4109 173.039C48.9305 173.885 49.6496 176.902 47.8292 176.497C45.5665 175.995 44.8376 172.937 43.0067 171.967C38.889 169.787 42.8654 172.94 44.0784 175.669C45.7201 179.363 43.9674 181.733 43.0554 184.925C42.1779 187.996 44.691 192.329 39.9379 192.329C36.2158 192.329 33.8714 193.251 30.5365 194.277C26.4366 195.539 23.3783 194.082 19.3329 194.082C14.6757 194.082 14.072 193.479 14.072 188.822C14.072 178.157 15.8256 167.564 15.8256 156.818C15.8256 150.07 17.5793 143.296 17.5793 136.554C17.5793 133.572 15.6267 121.556 17.7741 118.872C18.5008 117.963 18.9082 126.901 18.2612 129.004C17.0004 133.101 16.7024 138.538 16.7024 142.886C16.7024 157.458 14.9488 172.017 14.9488 186.678C14.9488 190.506 17.4423 194.546 21.1352 195.008C26.4089 195.667 42.1746 197.902 36.8691 197.59C33.5741 197.396 30.1246 194.734 26.8345 193.888C25.2459 193.479 17.6152 189.751 18.4561 189.698C22.1016 189.47 25.5932 190.795 29.1726 191.257C33.1807 191.774 37.316 191.754 41.3505 192.134C41.6014 192.158 47.0071 192.329 44.2732 192.329C37.2762 192.329 30.4138 191.452 23.4246 191.452C18.6899 191.452 13.2419 190.575 20.6481 190.575C24.1318 190.575 27.5436 191.452 31.0724 191.452C33.1147 191.452 23.1355 191.64 24.9834 190.77C27.5627 189.556 30.7768 191.3 33.3618 191.452C35.2208 191.561 26.3797 191.607 24.5937 191.452C22.5547 191.275 31.325 190.575 32.7773 190.575C37.2072 190.575 31.2875 190.575 29.8546 190.575C28.2569 190.575 22.0406 188.182 20.8916 187.263C19.6598 186.277 17.3277 186.863 16.5076 185.314C16.0177 184.389 13.529 182.09 15.3872 183.122C21.4612 186.497 27.4028 188.822 34.677 188.822C40.0454 188.822 43.0067 190.357 43.0067 184.437C43.0067 180.073 44.0301 178.323 46.514 174.598C46.6589 174.38 51.5031 165.372 52.4568 166.219C54.2971 167.855 52.6516 178.704 52.6516 181.417C52.6516 183.334 54.1707 192.492 54.3565 191.842C55.5614 187.625 60.0681 187.321 64.1476 187.117C66.1126 187.018 75.6717 185.191 74.5231 189.211C74.1248 190.605 65.1775 189.698 62.9785 189.698C58.8753 189.698 51.82 189.698 60.348 189.698C66.9404 189.698 86.7173 189.698 80.125 189.698C76.0809 189.698 64.6971 187.794 61.6146 191.647C60.4894 193.053 60.3641 194.219 57.9125 194.082C56.5329 194.006 53.0766 191.623 56.1589 191.452C60.2546 191.224 72.3464 195.11 73.6463 189.26C75.249 182.048 77.4167 174.757 78.1278 167.291C78.21 166.427 79.4837 160.2 79.784 161.251C80.1785 162.632 79.7204 164.764 80.9044 165.83C82.8235 167.557 92.7587 166.024 95.0307 166.024C97.0843 166.024 100.113 166.759 101.558 164.953C103.115 163.007 102.63 164.269 102.63 166.901C102.63 169.299 102.544 171.714 102.63 174.111C102.883 181.214 108.952 185.784 115.587 187.75C117.976 188.458 125.414 190.697 127.667 189.503C130.502 188.003 116.532 185.101 115.733 184.876C114.206 184.446 102.319 183.561 107.647 183.561C108.841 183.561 120.945 184.526 120.945 185.753C120.945 186.496 104.939 184.437 103.166 184.437C99.0726 184.437 98.9608 183.137 103.507 184.243C107.403 185.19 110.912 185.314 114.905 185.314C117.383 185.314 127.522 186.074 120.263 183.366C116.446 181.941 111.614 180.93 107.501 180.93C103.801 180.93 113.771 183.543 115.343 183.999C118.34 184.869 127.18 189.157 127.18 183.122C127.18 176.87 126.839 170.512 127.229 164.271C127.563 158.925 128.898 153.464 129.372 148.05C129.774 143.473 130.336 138.834 131.564 134.411C132.558 130.835 134.978 119.849 132.246 117.118C126.983 111.855 132.213 117.392 134 120.43C137.129 125.75 146.469 124.988 149.539 130.514C151.965 134.881 156.106 137.991 157.869 142.838C159.67 147.792 162.879 148.833 160.694 153.749C159.097 157.343 166.533 169.246 169.949 165.83C174.16 161.618 162.093 151.216 160.109 148.099C155.793 141.315 150.553 131.435 142.963 127.64C134.061 123.189 128.473 115.007 119.728 110.298C114.942 107.722 108.368 106.009 103.117 104.258C99.8913 103.183 86.8472 103.017 86.8472 99.8254C86.8472 92.7241 95.8261 87.0451 94.6897 79.6588C93.7147 73.3214 91.8544 72.9668 93.8616 66.945C95.5221 61.9636 95.6153 58.12 95.6153 52.9161C95.6153 49.8559 96.0958 48.6599 93.8616 46.7784C89.9785 43.5084 89.9599 48.3345 89.4289 50.7241C89.006 52.6268 92.2459 53.3239 94.3 52.8674C96.1533 52.4556 96.4306 48.5321 94.2513 48.5321C86.4466 48.5321 91.5217 56.6689 94.7384 52.9161C96.5562 50.7954 96.3468 42.8648 92.108 45.2197C89.3657 46.7432 90.095 50.5957 92.3029 52.0393C94.9388 53.7628 99.3191 51.6023 95.9075 48.9217C91.3129 45.3117 88.0115 51.2061 91.2312 52.7213C92.7032 53.414 93.8616 49.5434 93.8616 48.5321C93.8616 46.4917 91.6705 45.6653 91.0364 43.9532C88.985 38.4144 83.9233 28.8054 88.1624 23.1533C90.9997 19.3702 94.8686 30.4497 95.9562 32.2624C97.4793 34.8007 96.4921 39.9016 96.4921 42.7354C96.4921 43.2089 95.4124 49.6932 94.7384 49.0192C93.9068 48.1876 97.6525 43.3503 98.0508 42.1995C99.4925 38.0349 100.379 36.3278 103.896 33.4315C104.323 33.08 111.212 26.9681 111.398 30.1191C111.562 32.9095 113.305 35.4182 114.418 37.9616C117.037 43.9474 104.783 50.2857 100.438 50.2857C98.0021 50.2857 95.5665 50.2857 93.131 50.2857C91.7198 50.2857 96.5167 49.1807 96.9792 48.9705C105.248 45.212 113.681 54.4659 117.828 60.2716C120.704 64.2982 121.484 75.8803 113.346 70.9394C106.667 66.8839 100.569 63.0275 95.1281 57.3001C94.7764 56.9299 94.1207 54.6403 94.5436 55.5465C95.0148 56.5561 94.6049 57.7917 94.9333 58.8589C96.1259 62.735 95.9978 67.671 95.5665 71.7675C94.9765 77.3729 89.1128 80.8692 83.7783 80.0485C78.3758 79.2173 80.3899 66.8576 82.4631 63.6327C84.3844 60.644 85.1726 57.2211 87.724 54.6697C88.2196 54.1741 93.0325 49.6912 91.2312 52.2341C88.6996 55.8081 77.9948 59.9306 73.695 59.9306C66.4181 59.9306 64.9269 55.6864 64.9269 49.0192C64.9269 45.8403 64.5993 44.148 68.3855 44.148C72.1984 44.148 77.0083 45.3107 80.5147 46.7784C83.7419 48.1294 86.3307 51.8249 89.2827 53.7929C92.7621 56.1125 87.7359 51.7247 86.8472 50.4805C83.8257 46.2505 76.3255 39.6399 76.3255 34.0647C76.3255 27.8046 80.7535 30.811 82.9015 33.675C85.0095 36.4856 87.9515 38.4653 89.4776 41.5176" stroke="black" stroke-width="3" stroke-linecap="round"/>
</svg>
