<svg width="278" height="159" viewBox="0 0 278 159" fill="none" xmlns="http://www.w3.org/2000/svg">
<path d="M45.0681 14.2751C39.7721 14.2751 32.895 13.0512 28.4349 15.5999C22.5709 18.9507 19.8596 24.7125 18.499 30.8348C16.2942 40.7565 15.9231 49.9252 15.9231 60.6422C15.9231 64.8449 17.3166 72.1765 15.2607 75.8772C14.0777 78.0065 13.8816 81.3663 13.1999 83.7522C12.5728 85.9472 9.93158 87.9352 9.37281 90.4497C6.71517 102.409 16.3725 110.984 27.8461 110.984C46.4984 110.984 72.3862 121.861 90.1105 112.014C101.038 105.943 106.946 90.6031 94.7472 83.8258C83.0013 77.3003 83.4866 69.2399 83.4866 56.6679C83.4866 43.7216 81.5861 33.571 72.226 24.2109C68.1082 20.0931 62.0092 14.8718 56.9911 11.92C52.115 9.05165 48.493 11.3462 43.7434 11.6256C39.2589 11.8894 33.7929 13.0491 29.7596 14.2015C23.4104 16.0156 23.8717 8.56832 23.8717 4.3393C23.8717 -3.25102 33.2676 9.91061 34.1755 11.6256C36.0271 15.1229 45.4199 14.2751 49.0425 14.2751C58.0118 14.2751 53.5028 10.7068 58.9783 6.32646C61.3292 4.44571 67.6799 -0.0596421 70.8277 3.08812C73.7961 6.05656 70.2389 14.6222 70.2389 18.2494C70.2389 24.7842 75.4603 23.8472 80.8371 23.5485C83.2984 23.4118 84.4957 20.899 86.7986 20.899C89.4481 20.899 92.0977 20.899 94.7472 20.899C100.969 20.899 106.008 25.8349 106.008 32.1596C106.008 38.3689 102.57 39.4458 96.7344 39.4458C89.3347 39.4458 87.6402 39.0363 82.4562 33.8523C79.3053 30.7014 76.0826 27.1191 72.1524 24.8733C67.504 22.217 62.2483 21.4645 57.6535 18.9118C54.1006 16.938 49.23 13.44 45.0681 12.9503C41.7319 12.5578 32.8864 9.18304 29.4652 11.92C25.3864 15.183 19.2798 16.2175 15.2607 20.2366C11.8165 23.6808 7.05858 27.1957 3.33772 30.1724C0.499227 32.4432 2.4473 43.1867 6.64966 43.4202C9.00487 43.551 19.759 41.0664 19.8974 43.4202C20.4637 53.0466 43.8138 53.2216 37.1195 41.5066C34.0271 36.095 30.3879 45.2188 38.4443 44.7449C42.2323 44.5221 37.3245 38.6101 37.1195 42.0954C36.9842 44.3955 37.961 44.6386 39.769 44.7449C44.536 45.0254 49.1816 45.7322 53.7528 47.3945C58.2195 49.0188 58.3159 48.4058 58.3159 44.0826C58.3159 40.4334 54.2843 42.6575 55.8135 45.3337C58.5027 50.0397 57.2743 39.9304 56.9911 44.7449C56.6443 50.6409 58.7145 43.6103 57.2855 45.0393C54.217 48.1078 67.9769 48.5971 68.9141 49.0137C73.083 50.8665 80.8371 47.7057 80.8371 53.356C80.8371 57.5385 82.1135 65.5894 84.149 69.2533C87.0809 74.5308 87.6855 79.4206 81.8675 74.1844C77.0896 69.8843 67.16 67.4382 60.9654 67.2661C52.3707 67.0274 43.7311 67.2661 35.1323 67.2661C30.1508 67.2661 24.5704 66.3928 21.2222 70.5781C18.9167 73.4599 15.7407 75.4427 13.5679 78.1587C11.2303 81.0807 15.6743 88.9904 9.29921 89.7873C5.47062 90.2659 5.39127 101.629 7.38565 103.624C10.7169 106.955 16.0072 107.009 20.5598 107.009C27.0073 107.009 30.2498 105.266 35.7947 102.005C41.6846 98.5401 40.8691 90.6353 34.7643 88.7569C29.0235 86.9905 23.5839 92.4229 25.2701 98.3247C26.628 103.077 38.4443 100.304 38.4443 95.7488C38.4443 92.363 38.8625 91.1121 35.1323 91.1121C31.1492 91.1121 31.4434 94.193 35.1323 95.0128C39.9481 96.083 46.0883 95.0864 51.0296 95.0864C53.796 95.0864 82.6111 93.4749 76.5684 87.4321C72.1303 82.9941 64.9398 89.213 64.9398 93.7616C64.9398 99.9352 70.8532 105.07 76.2004 99.7231C80.077 95.8465 76.068 87.1965 71.858 91.4065C70.0984 93.1661 84.8862 93.7616 86.1362 93.7616C90.6491 93.7616 96.9719 94.9239 101.297 93.688C106.232 92.2783 93.2538 83.1182 92.76 82.501C89.1274 77.9602 84.8114 80.9518 84.8114 72.5652C84.8114 67.0811 83.772 61.8048 83.4866 56.6679C83.3053 53.4041 81.8054 44.2278 86.2098 43.4938C91.6556 42.5861 97.6855 44.2165 102.696 41.433C105.319 39.9757 108.506 41.067 111.307 39.7402C115.104 37.9414 119.423 37.4791 123.23 35.7659C129.61 32.8948 136.636 32.375 143.102 29.142C149.971 25.7072 156.948 23.9522 163.636 20.2366C169.444 17.0095 178.841 13.8272 185.494 12.8767C192.418 11.8876 198.947 10.3008 206.102 10.3008C210.469 10.3008 214.559 9.99949 218.614 11.92C221.955 13.5027 222.751 16.8356 225.532 18.8382C237.815 27.6819 239.81 42.2007 239.81 56.0055C239.81 83.3756 238.485 110.91 238.485 138.068C238.485 148.261 227.491 161.247 219.938 149.697C214.195 140.912 219.453 127.268 213.315 119.595C210.429 115.988 198.439 112.991 196.387 117.608C193.93 123.135 196.317 133.033 196.093 139.098C195.932 143.44 194.295 150.955 190.057 153.377C175.235 161.847 175.957 136.623 173.645 126.219C172.613 121.574 174.183 115.36 166.947 114.958C161.685 114.666 156.321 114.958 151.05 114.958C145.089 114.958 139.127 114.958 133.166 114.958C130.383 114.958 126.482 114.114 123.966 112.971C122.489 112.3 118.873 109.806 117.342 109.806C116.198 109.806 114.012 130.569 113.956 131.886C113.621 139.774 110.648 151.351 103.358 154.996C83.7862 164.782 100.166 142.771 89.4481 136.817C82.2798 132.834 82.3953 144.476 78.1875 147.047C70.9217 151.487 64.8508 157.267 61.9958 146.164C59.9618 138.254 64.1709 125.232 60.3031 118.27C56.3702 111.191 61.6616 112.308 67.0005 112.308C76.4776 112.308 92.7767 116.986 97.7648 107.009C99.8299 102.879 103.539 94.2524 99.3103 90.3761C94.5486 86.0112 90.4326 81.8313 85.4738 77.8643C82.3723 75.3832 83.6447 63.4743 82.4562 59.6119C80.9005 54.5557 80.5082 45.001 87.1666 44.7449C94.9692 44.4448 102.839 44.7449 110.645 44.7449C119.254 44.7449 126.52 40.5734 134.49 38.1211C141.507 35.962 147.875 29.539 154.73 26.4925C161.07 23.6746 166.183 23.5485 172.983 23.5485C184.969 23.5485 198.187 20.4461 209.635 16.6303C216.492 14.3445 221.275 9.57122 228.55 13.6127C234.374 16.8486 241.676 17.2253 247.096 20.2366C253.016 23.5255 275.116 32.9039 275.579 40.7706C275.641 41.8321 273.82 48.1927 273.003 45.3337C272.344 43.0267 272.456 36.496 271.016 38.4155C269.641 40.249 276.264 53.3409 272.929 44.6713C271.996 42.2437 271.605 40.1644 271.605 37.6059C271.605 34.9997 272.816 42.6769 273.518 45.1865C275.249 51.3685 271.495 46.7078 270.574 43.7146C269.568 40.4424 266.883 38.8836 263.656 37.0907C258.992 34.4993 254.087 31.202 250.114 27.2285C240.497 17.612 229.473 12.9503 215.964 12.9503" stroke="black" stroke-width="3" stroke-linecap="round"/>
</svg>
