<svg width="243" height="177" viewBox="0 0 243 177" fill="none" xmlns="http://www.w3.org/2000/svg">
<path d="M33.7108 13.5788C24.6624 13.5788 10.6954 10.9843 3.74216 18.3465C0.549997 21.7265 1.91095 25.1576 6.46658 25.1576C8.62435 25.1576 11.3848 25.6633 13.429 25.0062C15.6792 24.283 17.7441 22.0279 20.0887 21.7521C22.7468 21.4394 26.2909 18.2836 28.5647 16.9843C30.155 16.0756 30.9864 15.2751 30.9864 17.6654C30.9864 20.5942 31.7895 22.3999 32.3486 25.1954C33.9526 33.2153 34.2553 39.3691 39.5759 45.6286C43.1288 49.8085 47.4439 53.7091 51.7223 57.1318C53.3877 58.4641 56.3699 61.4103 58.5712 61.8995C61.9085 62.6411 66.688 64.3268 69.6581 66.024C75.2194 69.2019 82.5266 63.7866 85.4749 59.3643C86.9854 57.0985 78.9078 54.4452 76.7719 54.4452C72.5451 54.4452 68.4453 54.1964 64.3606 55.2776C60.6147 56.2692 55.5062 55.9762 55.5062 60.613C55.5062 64.5762 58.2177 68.0488 62.0146 69.4295C67.9797 71.5986 73.5943 69.1258 77.68 65.0401C80.6164 62.1037 82.9596 59.8502 86.4587 57.8507C87.9711 56.9865 87.3347 55.4674 87.556 54.0289C87.9257 51.6264 89.4909 49.6661 90.394 47.6341C92.789 42.2454 91.1704 35.0295 92.1346 29.2442C92.7383 25.6217 94.3293 22.2023 94.3293 18.4979C94.3293 16.2334 94.2422 13.9496 94.3293 11.6868C94.3677 10.6873 96.7658 4.49695 97.5078 4.19468C101.154 2.70932 104.73 2.60747 108.632 2.68111C113.189 2.76707 119.707 4.97575 123.276 7.75156C128.463 11.7858 119.305 14.1458 116.125 15.2816C114.523 15.8537 112.041 16.3032 110.335 16.3032C108.272 16.3032 106.065 13.7241 104.205 12.8977C100.414 11.2127 97.8198 7.10825 93.9887 5.40553C92.4381 4.71637 91.2992 3.79786 89.9021 3.02166C88.205 2.07881 85.1928 2.68111 83.2802 2.68111C73.8471 2.68111 64.8577 3.18767 55.5062 4.57307C47.6345 5.73924 41.0219 2 33.4081 2C27.2224 2 27.5809 4.12694 27.5809 10.1733C27.5809 15.3185 27.0159 16.6787 32.6513 17.7033C35.909 18.2956 39.2823 21.1936 41.5435 23.4548C43.2087 25.12 43.3322 27.4883 44.268 29.547C44.8823 30.8986 46.5742 32.5371 46.6518 34.012C46.6746 34.4437 46.5501 39.8969 47.8627 37.4175C49.1172 35.0478 47.4209 31.4679 46.8032 29.2442C46.2071 27.0983 45.7317 24.3768 44.7599 22.4332C44.5301 21.9736 44.4863 25.3463 44.9491 26.1793C45.7163 27.5603 45.2896 30.5456 45.2896 26.8604C45.2896 23.9356 45.2163 22.478 48.0141 20.7683C51.025 18.9282 55.896 18.182 59.2901 17.3627C62.6653 16.548 66.6728 15.6221 70.15 15.6221C75.2407 15.6221 75.9394 17.7414 75.9394 22.7737C75.9394 24.7445 76.6205 26.5218 76.6205 28.5631C76.6205 31.2373 77.3236 30.7476 78.5125 32.6498C79.6826 34.522 79.3398 27.8323 79.4963 27.0496C80.0447 24.3077 81.7918 21.5251 82.9018 19.0277C83.9627 16.6408 76.2496 11.7114 75.9394 16.9843C75.8402 18.67 77.9738 19.4717 78.5125 21.2223C78.6149 21.5551 78.5337 23.9799 79.0044 23.0386C79.6037 21.8401 80.1895 20.3096 80.5558 19.0277C81.8428 14.523 85.2743 15.6221 89.221 15.6221C90.5789 15.6221 91.5491 14.0583 92.6265 14.2977C94.2121 14.6501 93.6482 17.4919 93.6482 18.6871C93.6482 22.4588 90.9237 24.934 90.9237 28.9037C90.9237 33.1387 93.3281 31.9123 97.2807 32.9903C102.33 34.3674 107.522 34.012 112.719 34.012C115.987 34.012 120.163 32.5305 123.314 31.5524C128.156 30.0499 132.507 26.8961 137.088 24.7792C141.476 22.751 146.084 21.3569 150.331 19.0277C155.255 16.3277 160.429 14.146 165.316 11.3841C169.801 8.84875 175.442 8.30903 180.149 6.08664C185.445 3.5857 187.843 3.08481 193.09 5.70824C197.537 7.93182 201.163 13.935 202.625 18.6871C203.655 22.035 205.03 24.6562 205.69 28.2226C206.72 33.7825 207.892 39.4573 208.604 45.061C209.295 50.5072 209.903 56.4493 209.285 61.9373C208.624 67.8024 206.789 73.5806 206.712 79.4947C206.633 85.563 207.393 91.3404 207.393 97.3549C207.393 110.346 207.393 123.338 207.393 136.329C207.393 139.641 207.44 148.844 202.966 149.838C200.689 150.344 199.571 151.162 196.836 151.162C194.431 151.162 192.388 150.942 190.063 150.519C186.089 149.797 191.01 139.478 193.43 138.94C196.157 138.334 202.131 138.016 202.966 141.021C203.896 144.369 204.499 152.76 200.582 154.719C194.174 157.923 183.876 156.966 183.554 148.286C183.164 137.751 185.354 125.901 182.533 115.745C181.108 110.616 180.83 103.059 180.83 97.6954C180.83 95.3282 180.149 87.5469 180.149 93.9493C180.149 97.4458 177.846 101.079 174.7 102.652C172.978 103.513 171.053 103.807 169.402 104.847C167.382 106.119 165.201 108.253 162.78 108.253C158.212 108.253 153.929 109.615 149.196 109.615C145.573 109.615 150.18 121.717 150.18 124.561C150.18 128.987 150.861 133.674 150.861 137.881C150.861 139.697 150.861 141.513 150.861 143.33C150.861 145.788 152.922 145.032 154.948 145.032C157.65 145.032 164.795 146.356 166.375 143.67C167.203 142.263 168.441 141.147 169.1 139.583C169.981 137.489 169.251 133.693 169.251 131.41C169.251 126.415 169.251 121.421 169.251 116.426C169.251 114.251 168.866 112.612 168.418 110.523C167.468 106.089 167.333 107.611 163.499 105.869C161.151 104.801 155.34 104.991 153.207 106.209C146.519 110.031 138.802 108.209 131.904 111.658C130.045 112.588 129.524 115.893 127.401 117.107C126.172 117.809 124.482 119.272 123.276 120.21C121.919 121.266 120.071 122.543 118.509 123.237C116.319 124.21 114.917 126.755 112.719 127.853C109.438 129.494 102.86 126.025 99.9295 128.156C96.8207 130.417 97.7348 137.206 97.7348 140.416C97.7348 146.32 97.0537 152.161 97.0537 157.973C97.0537 162.253 98.5405 169.466 96.3726 173.26C95.2205 175.276 90.6933 174.18 88.9183 174.358C85.561 174.693 83.4347 174.926 80.026 173.979C78.7505 173.625 75.2583 173.655 75.2583 171.936C75.2583 169.3 75.2583 166.664 75.2583 164.028C75.2583 160.966 76.2377 158.193 76.6583 155.249C77.1464 151.833 77.3016 148.551 77.3016 145.032C77.3016 141.386 76.283 137.926 76.6583 134.172C76.939 131.366 78.6638 129.506 78.6638 126.642C78.6638 117.2 77.1155 108.122 76.6205 98.7171C76.0783 88.4161 64.3807 84.6744 62.2794 75.2189C61.4431 71.4552 60.7045 72.7695 61.2956 76.3162C61.9122 80.0157 62.9984 84.425 62.9984 88.1599C62.9984 95.4251 62.9984 102.69 62.9984 109.955C62.9984 114.146 63.0812 118.279 61.6362 122.253C60.7331 124.736 59.859 127.762 59.6307 130.388C59.3351 133.787 56.8384 144.84 59.5929 147.757C61.7951 150.088 64.5047 151.843 67.7661 151.843C72.574 151.843 73.215 149.854 73.215 145.373C73.215 140.389 73.5641 138.355 68.7878 136.518C66.8583 135.776 65.3829 135.497 63.3389 135.497C61.7211 135.497 59.9372 138.455 59.2901 137.237C58.5725 135.887 58.1352 131.246 58.2306 132.772C58.3326 134.403 59.4938 135.857 59.5929 137.54C59.685 139.107 64.4298 136.888 65.4201 136.859C67.8287 136.788 68.1087 139.383 69.8094 139.583C74.5853 140.145 74.5772 146.073 74.5772 149.8C74.5772 152.882 75.8883 155.689 75.9394 158.806C76.0026 162.661 76.8689 166.431 77.3395 170.195C77.767 173.616 78.4609 173.639 81.691 173.639C83.1434 173.639 85.2014 174.018 86.4965 173.298C89.611 171.568 93.4177 174.532 96.6753 173.601C98.2647 173.147 97.8704 170.085 97.697 168.871C97.3778 166.637 95.4611 166.232 93.9887 165.087C91.2449 162.953 85.4206 164.103 82.0694 164.103C77.8619 164.103 74.5772 167.91 74.5772 162.06C74.5772 157.022 75.6589 152.125 75.9394 147.076C76.311 140.386 77.3016 133.566 77.3016 126.642C77.3016 118.438 77.9827 110.32 77.9827 102.16C77.9827 99.4208 77.888 97.2258 76.9611 94.6304C76.0429 92.0596 77.7106 88.5018 75.8259 86.3815C73.4155 83.6698 71.8741 81.7013 68.7878 79.9866C67.1652 79.0852 65.3767 78.3943 63.6795 77.4514C59.9391 75.3734 57.5495 73.2368 57.5495 68.7484C57.5495 65.902 56.9439 55.8348 62.6957 57.9264C64.1217 58.4449 65.7228 60.804 65.7228 62.2779C65.7228 64.3113 67.0178 63.2995 68.7878 63.2995C70.9378 63.2995 72.7207 61.9373 74.8799 61.9373C78.2815 61.9373 75.334 59.8691 75.334 59.5156C75.334 56.1361 81.3811 55.1263 83.7721 55.1263C88.9616 55.1263 90.51 49.2224 91.4535 45.2124C92.5058 40.7401 92.6708 37.1935 95.5401 33.3309C101.036 25.9321 109.964 27.2009 118.168 27.2009C132.044 27.2009 143.75 20.834 155.326 13.5788C161.813 9.5129 166.907 4.87211 174.548 3.51357C177.074 3.06466 190.907 1.82547 192.409 3.70277C194.986 6.92398 197.766 9.14901 201.603 10.8544C204.111 11.969 205.486 13.6654 206.75 16.114C210.381 23.1505 213.874 31.8065 215.869 39.423C218.451 49.2839 221.136 59.1397 223.058 69.1646C224.277 75.5184 226.393 82.0731 227.107 88.5005C227.2 89.3374 227.826 91.7642 227.826 90.9222C227.826 87.4484 226.116 83.7199 225.858 80.1758C225.652 77.3408 225.783 74.4663 225.783 71.6242C225.783 70.3487 226.306 73.7232 226.464 74.1972C228.27 79.6168 231.591 85.4259 231.913 91.2249C232.016 93.0903 230.013 88.0004 229.226 86.3058C228.906 85.6153 225.765 78.5008 227.826 78.2839C231.243 77.9242 236.227 82.1366 235.999 85.776C235.967 86.2854 226.16 74.3987 228.961 75.3324C233.954 76.9968 232.064 80.7238 230.626 75.3324C229.949 72.7924 237.167 75.7801 237.816 76.0892C238.381 76.3588 242.699 79.666 240.918 77.7163C239.714 76.3967 237.957 73.0308 235.999 72.835C234.369 72.672 232.481 72.293 230.929 71.7755C229.738 71.3787 227.932 71.2607 227.145 72.835" stroke="black" stroke-width="3" stroke-linecap="round"/>
</svg>
