<svg width="232" height="167" viewBox="0 0 232 167" fill="none" xmlns="http://www.w3.org/2000/svg">
<path d="M123.666 19.6969C126.076 17.5277 129.716 16.2844 132.52 14.7007C137.797 11.7203 143.707 9.72185 149.532 8.12345C156.025 6.34181 162.477 4.41345 169.074 3.06403C171.664 2.53426 174.252 2.05214 176.916 2.05214C179.498 2.05214 182.114 1.93483 184.695 2.05214C187.287 2.16996 189.213 4.57014 191.146 6.03644C194.208 8.35916 198.13 9.8466 200.253 13.1829C201.619 15.3298 201.037 18.7945 203.352 19.8234C206.595 21.265 209.094 19.8256 212.332 18.5585C216.502 16.9271 220.481 15.7126 224.981 15.7126C228.17 15.7126 229.534 14.8596 229.534 18.2423C229.534 20.1859 229.573 21.4045 227.194 21.4045C221.214 21.4045 215.205 21.9736 209.17 21.9736C207.274 21.9736 206.198 21.5059 206.198 23.6812C206.198 25.5977 205.703 28.5569 204.775 30.2268C202.487 34.3452 202.048 39.8248 199.937 44.1719C196.232 51.7985 191.109 59.8299 185.138 65.8009C182.929 68.0101 180.539 70.0524 177.739 71.4928C175.912 72.432 172.745 73.0391 171.478 74.6233C170.741 75.5441 166.949 74.8693 165.786 75.1925C163.399 75.8555 158.741 76.0754 156.679 74.3387C155.574 73.4088 154.012 72.5515 156.11 71.6193C158.62 70.5033 161.247 69.5487 163.794 68.3307C169.378 65.6599 176.727 61.8166 183.146 61.8166C188.699 61.8166 183.648 67.3645 181.596 69.3425C176.112 74.6312 165.227 78.3368 157.532 77.153C154.753 76.7255 154.95 75.1938 152.884 73.7063C148.886 70.8273 144.431 67.2899 141.753 63.0815C139.396 59.3769 135.876 56.4561 133.342 52.8362C131.857 50.7151 130.397 47.772 128.789 45.8794C127.239 44.0559 124.56 36.7725 121.674 36.7725C117.154 36.7725 112.456 36.2719 107.792 36.2033C106.162 36.1793 96.9488 34.4681 101.183 31.0806C102.522 30.0098 105.436 30.0493 107.16 29.6576C110.859 28.8168 115.274 28.2347 119.081 28.2347C121.679 28.2347 124.233 27.6655 126.765 27.6655C128.971 27.6655 124.539 27.0963 123.792 27.0963C121.579 27.0963 121.389 27.0584 121.389 24.8196C121.389 23.2656 121.143 21.4783 121.421 19.9499C121.575 19.1033 123.927 13.9228 124.204 14.8904C124.996 17.6626 125.815 19.6071 127.524 21.9736C130.417 25.9791 134.464 27.9583 137.326 32.0925C139.943 35.872 145.66 36.1989 147.034 41.0097C149.037 48.0198 143.944 39.0335 142.323 37.9108C139.804 36.1672 133.3 29.5219 140.457 31.1122C142.501 31.5664 145.436 33.769 145.833 35.9503C146.048 37.1354 144.796 40.8507 144.726 38.48C144.66 36.2324 144.594 33.8982 144.726 31.6498C144.781 30.7171 152.589 30.0659 153.548 29.9422C158.517 29.3011 163.006 28.8039 168.062 28.8039C173.672 28.8039 179.027 26.6811 184.569 26.5271C187.111 26.4565 186.37 27.3924 185.012 29.3731C183.341 31.8097 182.577 33.2434 180.3 35.0649C177.754 37.1014 178.615 32.1952 179.193 30.543C180.108 27.9285 182.32 26.935 184.537 25.6417C184.729 25.53 186.951 21.9151 187.383 23.4282C188.305 26.654 193.811 25.3888 196.522 25.3888C198.055 25.3888 204.367 24.3796 205.502 25.5152C205.73 25.7435 204.211 26.7699 204.048 27.0963C203.646 27.8996 204.096 28.8303 203.637 29.6576C202.611 31.5034 202.082 33.9442 201.36 35.9503C200.37 38.6995 198.736 40.9442 197.439 43.5395C196.521 45.375 196.511 47.4135 195.383 49.1681C192.352 53.8841 190.346 58.221 186.656 62.702C184.7 65.0774 181.814 70.176 178.592 70.892C176.664 71.3206 175.246 71.0216 174.924 68.9315C174.794 68.0827 173.844 63.2547 176.474 65.3582C177.57 66.2353 177.169 67.9347 177.169 69.216C177.169 71.158 177.169 64.6504 177.169 68.9315C177.169 72.0407 175.003 72.3515 173.185 74.6233C172.249 75.7938 163.554 77.9458 163.509 77.1846C163.418 75.641 162.397 68.0987 163.794 69.216C164.918 70.1157 165.216 72.73 165.216 74.0541C165.216 78.3194 161.815 72.4801 163.509 73.3268C164.271 73.7081 163.759 74.8557 164.647 74.9079C165.4 74.9522 166.17 74.9079 166.924 74.9079C168.407 74.9079 169.675 75.5718 169.77 77.1846C170.017 81.3874 170.339 85.8363 170.339 89.9913C170.339 106.034 170.339 122.077 170.339 138.119C170.339 143.194 169.439 149.301 170.624 154.278C170.87 155.314 172.089 158.578 170.624 158.578C166.604 158.578 162.721 160.855 158.955 160.855C154.762 160.855 158.835 156.305 160.378 155.448C161.077 155.06 168.632 151.99 168.632 154.025C168.632 156.262 156.679 157.875 156.679 155.037C156.679 150.61 156.679 146.183 156.679 141.756C156.679 135.79 156.679 129.824 156.679 123.858C156.679 121.778 157.722 115.889 155.256 115.889C151.37 115.889 147.656 116.458 143.872 116.458C142.565 116.458 138.737 116.005 139.951 116.49C141.012 116.914 141.311 120.552 141.311 121.581C141.311 128.018 143.018 134.386 143.018 140.933C143.018 145.677 143.018 150.42 143.018 155.163C143.018 156.871 143.018 158.578 143.018 160.286C143.018 162.616 142.718 162.562 140.457 162.562C138.918 162.562 127.778 164.294 127.65 161.993C127.533 159.881 127.928 154.594 130.212 154.594C132.773 154.594 135.334 154.594 137.896 154.594C138.864 154.594 139.302 154.935 139.002 155.985C138.826 156.602 136.818 156.273 136.315 156.428C135.165 156.782 126.59 157.636 126.512 156.301C126.286 152.46 125.373 148.44 125.373 144.633C125.373 138.547 126.991 132.542 127.081 126.451C127.121 123.728 126.224 122.269 125.943 119.874C125.804 118.691 129.517 119.399 131.034 119.02C132.459 118.664 133.943 117.764 135.366 117.628C135.602 117.606 138.629 117.835 137.579 118.134C135.997 118.587 133.094 118.347 131.603 117.881C127.257 116.523 123.685 117.597 119.682 117.597C113.73 117.597 108.07 118.735 102.132 118.735C96.4083 118.735 90.6848 118.735 84.9613 118.735C83.6329 118.735 80.6032 117.327 79.3959 118.293C78.6566 118.884 78.1746 121.209 78.8268 122.024C80.0218 123.518 79.4476 126.157 79.9651 127.969C81.1619 132.157 80.977 137.409 80.977 141.787C80.977 146.815 80.977 151.843 80.977 156.871C80.977 158.507 80.4968 159.823 80.4078 161.424C80.2942 163.47 79.7399 164.27 77.8149 164.27C73.6408 164.27 69.4668 164.27 65.2928 164.27C62.4392 164.27 63.9414 163.419 64.439 161.677C64.7211 160.69 63.895 157.541 65.609 157.44C67.9142 157.304 70.1052 158.009 72.4392 158.009C74.2896 158.009 76.3135 159.235 77.8465 158.009C79.3926 156.772 79.2695 155.87 79.2695 153.93C79.2695 150.869 79.8386 147.979 79.8386 144.918C79.8386 142.409 79.8386 139.9 79.8386 137.392C79.8386 135.527 80.5217 131.94 79.7122 130.119C78.5097 127.413 79.9203 120.019 77.3089 119.273C74.1295 118.364 71.1481 119.304 67.8857 119.304C67.1055 119.304 63.8088 119.743 63.4587 120.443C62.8108 121.739 64.1783 124.171 64.439 125.344C65.289 129.169 64.4706 134.468 64.4706 138.34C64.4706 142.24 64.4706 146.14 64.4706 150.04C64.4706 151.558 64.4706 153.076 64.4706 154.594C64.4706 156.743 64.4706 151.259 64.4706 150.578C64.4706 146.594 64.0494 142.631 63.9014 138.783C63.6344 131.84 63.9014 124.832 63.9014 117.881C63.9014 116.911 63.8613 113.52 62.1939 115.605C60.7221 117.444 61.7671 117.078 63.3323 118.735C65.2103 120.724 54.2253 118.834 54.2253 120.727C54.2253 132.301 54.2253 143.874 54.2253 155.448C54.2253 157.754 54.8397 163.021 52.9604 164.713C51.886 165.68 48.1103 163.742 46.9524 163.701C44.9243 163.628 42.8781 163.701 40.8494 163.701C38.4286 163.701 38.2881 163.688 38.2881 161.171C38.2881 159.795 37.7484 157.44 39.7111 157.44C42.2724 157.44 44.8337 157.44 47.3951 157.44C48.544 157.44 49.6929 157.44 50.8418 157.44C51.4767 157.44 54.0594 158.493 52.5177 158.578C49.4398 158.749 46.3006 158.578 43.221 158.578C41.091 158.578 38.0494 159.981 36.2959 158.578C34.9158 157.474 34.8702 151.699 35.5686 150.04C36.4893 147.854 36.4349 144.367 36.707 142.009C37.2858 136.993 37.1042 131.594 38.1616 126.704C39.5009 120.51 38.2881 112.595 38.2881 106.245C38.2881 101.492 37.7189 96.6095 37.7189 91.9835C37.7189 89.3365 37.7189 86.4918 37.7189 83.7303C37.7189 76.0463 37.7189 68.3623 37.7189 60.6783C37.7189 59.2912 37.296 57.0804 38.1616 55.9983C39.9266 53.792 35.7131 54.8946 35.1576 55.018C34.0178 55.2713 32.5399 56.7503 31.7425 57.5477C30.0595 59.2307 30.4505 59.9565 29.6238 61.8166C26.6873 68.4237 24.9542 76.7096 19.7579 82.0543C17.569 84.3058 15.6162 85.9512 15.5207 89.3905C15.4291 92.6861 16.0898 95.8399 16.0898 99.0667C16.0898 101.044 16.659 102.822 16.659 104.853C16.659 107.251 16.6993 112.507 15.078 114.308C13.4464 116.121 13.7713 118.794 13.8131 121.012C13.8915 125.167 15.5207 129.228 15.5207 133.502C15.5207 136.506 15.718 137.416 17.2598 139.922C18.122 141.323 21.6611 149.414 18.0504 145.803C16.7596 144.512 14.5797 142.943 13.8131 141.218C13.5151 140.547 13.2439 139.49 13.2439 140.775C13.2439 144.011 13.2439 147.247 13.2439 150.483C13.2439 153.861 12.6747 143.743 12.6747 140.364C12.6747 135.741 8.96383 142.541 8.75368 144.222C8.10683 149.397 8.41294 142.677 10.1134 140.459C10.4737 139.989 13.6818 137.66 11.4731 138.151C8.75163 138.756 6.78897 141.404 4.51641 142.831C1.09876 144.977 3.97669 137.622 5.84451 137.518C5.97259 137.511 8.07888 137.397 7.29909 137.076C5.40225 136.295 3.48494 139.678 2.42939 140.68C1.4457 141.615 2.44462 138.71 2.55588 138.53C3.79712 136.525 5.64311 135.847 7.93152 135.811C8.62658 135.8 14.5775 136.336 14.6985 135.368C14.7474 134.977 12.5851 135.418 12.3901 135.526C10.2265 136.728 9.82881 136.452 9.82881 134.072C9.82881 131.608 9.8636 129.422 10.2715 127.02C11.3275 120.801 12.6747 114.481 12.6747 108.174C12.6747 100.824 12.1726 92.8535 14.6353 85.8173C15.4295 83.548 16.7849 81.5994 17.7974 79.4298C19.7055 75.3409 22.2832 70.9272 24.6276 67.0658C27.8805 61.7082 33.0092 56.5567 38.5094 53.5951C39.6331 52.99 41.1769 53.3054 42.3989 53.2472C45.5928 53.0951 48.7107 52.7097 51.9169 52.7097C54.1866 52.7097 56.7337 52.7203 58.7788 51.6978C63.9135 49.1304 70.1174 47.62 75.8227 47.0494C77.9839 46.8333 80.1124 47.2172 82.2419 46.7332C86.9017 45.6742 91.9251 46.6491 96.4715 45.4367C99.9622 44.5059 103.99 45.7826 107.476 45.8794C109.641 45.9396 111.635 45.3102 113.705 45.3102C116.764 45.3102 120.203 44.1719 123.097 44.1719" stroke="black" stroke-width="3" stroke-linecap="round"/>
</svg>
