<svg width="221" height="140" viewBox="0 0 221 140" fill="none" xmlns="http://www.w3.org/2000/svg">
<path d="M25.169 9.7172C18.6798 9.7172 12.0728 9.35706 5.59034 9.7172C1.44582 9.94745 1.97556 15.9239 2.07623 18.6419C2.17791 21.3874 15.6856 17.7872 17.2483 16.7454C18.5187 15.8985 19.1512 13.4077 20.6508 13.2313C22.3178 13.0352 21.6549 9.73279 21.6549 14.2354C21.6549 24.6056 26.1244 34.0806 27.1492 44.3285C27.5752 48.5888 29.2448 51.463 32.4482 54.1736C34.2649 55.7107 35.9466 57.8514 38.2214 58.6638C41.6447 59.8864 45.5235 59.4994 49.1542 59.4169C53.9957 59.3068 60.8461 57.6049 62.8203 52.7791C63.3521 51.479 64.2705 49.6146 64.2705 48.1773C64.2705 47.9117 62.5258 47.5746 62.2067 47.48C59.1704 46.5804 55.8773 45.7664 52.7799 44.9699C50.3965 44.357 48.1417 43.5242 45.7517 42.9619C42.6532 42.2328 38.444 42.7527 35.3209 42.8503C33.9421 42.8934 29.9906 44.0498 29.2967 45.3604C28.22 47.3941 28.1811 51.0288 28.1811 53.3927C28.1811 58.6186 40.5119 60.2431 43.9946 61.146C46.8073 61.8752 49.651 61.927 52.5289 61.927C54.324 61.927 56.7084 59.9369 58.4137 59.3053C64.3472 57.1077 64.9961 54.0107 66.4459 48.3725C67.1911 45.4747 66.5841 42.9539 67.2269 40.0613C67.681 38.0175 68.3424 35.929 68.3424 33.814C68.3424 27.2911 69.9152 21.1031 70.8246 14.7374C71.4099 10.6408 75.309 15.3293 76.6536 15.7135C79.0584 16.4006 85.2449 19.235 87.1681 16.2434C88.5524 14.09 89.4272 13.3701 89.4272 10.7212C89.4272 8.81575 90.0455 5.99289 87.4191 5.70107C84.3606 5.36123 78.5409 3.83137 75.8727 6.20308C73.1597 8.61466 71.479 9.40669 67.8404 9.21518C65.4566 9.08972 63.5432 6.93381 61.3142 6.31464C58.7199 5.594 56.7342 3.65377 54.1744 2.80052C51.4494 1.89219 47.9723 3.08126 45.1381 2.57741C42.4192 2.09405 39.7264 2.18695 36.9664 2.18695C35.3281 2.18695 32.3959 1.63035 30.9422 2.43796C29.6509 3.15532 28.575 4.28151 27.4281 5.19905C24.8927 7.22733 23.0598 9.19167 24.667 12.0042C25.6186 13.6694 26.8161 14.3319 28.4042 15.2394C29.551 15.8947 30.3348 18.3483 30.6912 19.5065C31.0343 20.6218 31.6952 25.5017 31.6952 22.0166C31.6952 20.7046 30.7248 19.7155 31.8068 18.363C34.7758 14.6518 33.0722 23.3543 32.0857 20.148C30.6179 15.3776 36.0683 16.2434 39.4765 16.2434C46.807 16.2434 53.7583 18.7535 61.0353 18.7535C63.1129 18.7535 62.2387 20.5724 61.0632 21.4867C59.6869 22.5571 57.3455 22.4991 56.1825 23.6621C55.3195 24.5251 53.7031 25.4113 53.784 26.7858C53.893 28.64 56.0451 25.0868 56.1825 24.7777C56.6694 23.6821 59.0327 14.7429 61.4258 17.1359C64.1415 19.8516 66.961 14.6262 69.8485 13.3429C73.1645 11.8691 77.1199 13.3779 78.8848 16.4665C84.0647 25.5314 92.9732 30.2999 103.456 30.2999C111.638 30.2999 119.498 28.2137 127.58 27.3157C136.057 26.3738 144.484 25.9119 153.072 25.7817C155.407 25.7464 163.457 23.157 165.622 24.8893C169.571 28.0485 169.351 35.315 170.14 39.9498C171.283 46.6633 171.165 53.658 172.148 60.4209C172.749 64.5519 171.363 69.1602 172.371 73.1944C173.373 77.1986 175.758 80.8243 177.28 84.6293C178.751 88.3061 180.865 91.7369 182.328 95.3947C184.135 99.9125 183.803 104.824 184.336 109.619C184.882 114.532 186.404 119.666 185.814 124.679C185.661 125.985 173.739 127.189 171.758 127.189C170.398 127.189 167.24 127.914 167.24 126.185C167.24 124.027 168.48 121.871 169.276 119.882C170.246 117.456 173.369 116.118 175.746 115.643C176.809 115.43 181.39 114.254 182.3 115.392C182.424 115.546 183.987 116.075 182.802 116.145C181.547 116.219 180.265 116.145 179.009 116.145C175.833 116.145 172.383 115.777 169.22 116.173C166.668 116.492 164.049 118.599 161.494 118.599C160.902 118.599 162.498 117.373 162.61 117.149C162.735 116.9 162.637 115.161 163.224 115.894C164.028 116.899 165.859 116.301 166.738 117.4C167.052 117.792 167.302 119.321 167.24 118.822C167.018 117.051 165.884 114.737 165.12 113.133C162.633 107.91 160.198 102.642 158.315 97.1797C157.263 94.1277 154.886 91.696 153.797 88.6454C152.474 84.9423 152.444 81.3174 151.649 77.7405C151.462 76.8969 151.175 76.3982 151.175 75.4814C151.175 74.8744 151.105 76.2284 151.426 76.4854C153.231 77.9291 151.492 78.652 150.422 79.2465C148.663 80.2238 145.625 80.1251 143.617 80.7526C140.842 81.6198 137.778 81.496 135.111 82.9001C133.084 83.9666 130.477 83.6551 128.194 84.5177C127.524 84.771 124.171 85.405 124.847 86.2748C125.602 87.2448 125.85 88.3623 126.186 89.5379C128.548 97.8055 129.589 106.479 129.589 115.141C129.589 117.543 128.238 125.869 129.979 127.803C131.597 129.601 136.833 128.813 138.904 128.221C140.719 127.702 140.633 126.833 140.633 124.93C140.633 123.745 141.143 121.49 139.908 121.137C136.754 120.236 133.057 120.161 129.589 120.161C125.481 120.161 131.406 120.161 132.601 120.161C134.878 120.161 136.962 119.914 139.127 119.659C140.158 119.538 140.131 103.725 140.131 102.088C140.131 96.9752 140.131 91.862 140.131 86.7489C140.131 85.1243 140.455 83.2304 139.629 81.7845C138.994 80.6739 135.092 82.3933 134.358 82.7885C131.975 84.0716 128.444 84.8117 125.795 85.2428C122.267 85.8173 117.853 87.0278 114.277 87.0278C108.635 87.0278 103.942 90.4816 98.8539 92.4384C94.8044 93.9959 91.4797 97.8536 89.5387 101.586C88.4842 103.614 86.7594 105.599 86.0246 107.722C85.2454 109.973 83.8781 113.292 82.3989 115.141C79.0962 119.269 77.0269 126.139 75.3707 131.205C74.6797 133.319 74.6696 136.225 72.247 136.225C68.4361 136.225 64.6549 137.229 60.8122 137.229C59.9997 137.229 57.0429 137.997 57.326 137.006C57.994 134.668 58.3918 131.945 59.083 129.476C60.77 123.451 61.8939 117.17 63.5733 111.125C65.3901 104.584 68.3424 97.1834 68.3424 90.2909C68.3424 85.3184 66.4056 80.8886 64.3263 76.4854C62.3887 72.3822 60.7645 67.547 59.9197 63.1541C59.7473 62.2578 57.437 54.9829 57.4096 55.0103C56.808 55.6119 57.2981 58.8036 57.2981 59.6679C57.2981 74.0388 51.8172 87.8107 48.3733 101.586C47.3262 105.775 45.4788 110.515 45.2497 114.639C45.1993 115.546 44.6313 119.428 44.1341 120.049C43.1324 121.301 44.2685 123.247 43.6321 124.679C42.9859 126.133 41.9655 128.668 41.7356 130.201C41.6762 130.597 40.7218 133.96 41.122 133.604C44.1187 130.94 46.6378 133.715 50.0188 133.715C52.0794 133.715 53.2819 134.285 53.2819 131.958C53.2819 130.012 53.663 129.197 51.497 129.197C49.7 129.197 42.7936 129.134 43.2695 127.468C43.2774 127.44 47.9568 127.691 48.7638 127.691C50.9332 127.691 50.8748 124.192 51.2739 122.197C52.1542 117.795 53.794 113.535 55.1785 109.228C57.5925 101.718 59.0663 93.5874 62.5971 86.5258C63.5062 84.7077 64.3054 82.8304 65.2188 81.0036C65.8956 79.65 67.1111 79.6873 67.3384 81.5056C67.5473 83.1764 68.8445 84.5072 68.8445 86.5258C68.8445 91.1 69.4682 95.3023 68.956 99.9687C68.1983 106.873 65.7644 113.313 64.2984 119.91C63.7697 122.289 62.3189 124.55 61.7883 126.938C61.3801 128.775 60.5354 129.699 62.5693 129.699C64.9432 129.699 71.6273 130.786 73.4742 129.309C73.831 129.023 74.6484 128.794 75.0918 128.667C75.5246 128.544 75.5418 126.648 75.7611 126.185C76.5982 124.418 77.6298 122.906 78.2712 121.053C79.1207 118.599 81.3023 117.049 82.2874 114.75C83.67 111.524 85.7794 108.041 87.6701 105.1C90.1457 101.25 92.4837 98.0277 95.7024 94.8091C100.906 89.6053 107.086 87.386 113.775 84.7687C117.487 83.3163 121.717 82.8274 125.572 81.7566C128.396 80.9722 131.269 81.3438 134.107 80.7526C138.684 79.799 143.334 80.3051 147.661 78.382C151.877 76.5082 153.334 89.2947 154.299 91.5459C156.641 97.011 158.224 102.875 160.1 108.503C161.622 113.07 165.412 117.45 165.734 122.281C166.001 126.292 167.787 126.687 171.033 126.687C175.111 126.687 180.004 128.311 184.029 127.161C185.287 126.802 184.81 124.379 184.81 123.424C184.81 121.356 184.81 119.145 184.81 116.898C184.81 110.118 184.81 103.078 184.81 96.3151C184.81 94.354 183.727 93.1307 182.495 91.7691C180.216 89.2495 178.142 86.8261 176.025 84.2388C174.139 81.9331 172.977 78.6899 171.535 76.0671C169.57 72.4946 169.765 70.768 170.14 66.5009C170.87 58.1975 171.995 47.6976 169.638 39.4478C168.611 35.851 167.55 32.0736 166.766 28.5428C165.777 24.0954 170.359 29.1497 171.758 30.0489C177.41 33.6822 182.124 39.434 185.814 44.9699C188.437 48.9044 191.552 52.2218 193.958 56.2932C194.882 57.8572 197.519 61.04 196.468 62.931C194.888 65.7753 192.874 70.1769 194.349 73.4733C196.281 77.7934 196.478 77.1547 200.652 78.4935C202.269 79.0123 205.1 79.8732 206.007 81.5056C207.124 83.5165 208.02 85.0767 208.517 87.2509C209.049 89.5793 209.911 96.6676 209.911 94.2791C209.911 91.8807 210.568 90.0399 207.68 90.0399C205.739 90.0399 205.413 100.526 204.919 102.256C204.094 105.143 206.422 96.4398 207.15 93.5261C207.194 93.3507 207.443 90.263 207.513 90.263C208.205 90.263 207.895 93.2216 207.903 93.554C207.951 95.4404 210.928 107.889 212.31 107.889C213.295 107.889 211.693 101.724 211.529 101.084C210.786 98.1959 210.077 95.0288 209.911 92.048C209.863 91.1894 209.133 90.0838 209.465 91.8248C209.918 94.2013 212.137 95.062 213.872 96.3151C215.311 97.355 215.727 97.5173 214.429 95.6736C213.015 93.6643 210.403 92.0899 208.768 90.1515C205.911 86.7658 209.188 88.8014 210.971 89.5658C213.507 90.6528 216.004 91.6553 218.445 92.9404C219.055 93.2611 217.43 91.9949 217.163 91.8248C216.037 91.1088 208.084 87.256 209.186 87.0557C211.16 86.6967 217.133 88.0318 215.127 88.0318C212.366 88.0318 209.117 83.724 207.401 82.0076C205.318 79.9248 201.782 76.9875 198.588 76.9875C194.287 76.9875 193.345 75.3162 193.345 71.2421C193.345 70.0615 193.345 68.8808 193.345 67.7001C193.345 66.7651 194.866 65.6725 195.353 64.8275C198.306 59.7018 195.48 54.0406 192.341 49.4881C190.927 47.4379 188.701 46.0979 186.818 44.5516C184.793 42.8877 183.414 40.5186 181.296 38.9457C178.826 37.1111 174.324 34.5742 171.284 33.814C168.937 33.2273 166.978 31.7118 166.71 29.2959C166.492 27.339 165.816 25.722 163.726 25.7817C162.48 25.8173 162.356 26.7858 161.188 26.7858C157.599 26.7858 153.795 27.1544 150.227 26.7579C149.104 26.6331 146.139 26.2521 145.653 25.2797" stroke="black" stroke-width="3" stroke-linecap="round"/>
</svg>
