<svg width="227" height="176" viewBox="0 0 227 176" fill="none" xmlns="http://www.w3.org/2000/svg">
<path d="M21.7875 17.0107C16.7428 14.9613 2.37177 3.81202 2.37177 15.7972C2.37177 23.8674 8.90007 23.4827 15.1358 23.4827C16.7388 23.4827 20.1696 23.5707 20.1696 21.4602C20.1696 20.347 20.8806 19.9851 21.6078 19.2579C21.8945 18.9712 21.7684 21.5066 22.192 22.2692C24.0231 25.5651 23.607 30.7473 24.1696 34.404C24.7909 38.4425 25.8368 42.31 27.046 46.1793C28.237 49.9905 26.5773 64.4043 32.3044 64.7412C38.0035 65.0764 43.3315 66.543 47.6752 70.4041C50.5028 72.9175 57.0838 79.5125 60.9786 75.6176C64.04 72.5562 69.4209 68.9609 71.5405 65.1457C72.9676 62.5768 74.0216 60.2871 76.7989 58.8985C78.4937 58.0511 81.5716 56.5174 81.6528 54.4041C81.8558 49.1259 81.1267 44.0327 80.4394 38.8085C79.7416 33.5054 75.8455 19.2492 82.0124 16.6062C84.4582 15.558 98.7819 5.68486 92.1697 5.68486C87.0479 5.68486 82.3238 7.02544 77.6079 7.30285C75.5055 7.42651 74.639 9.74685 73.1584 10.8984C71.8871 11.8872 62.4656 9.77572 60.664 9.32532C51.329 6.99157 41.4806 7.30285 31.8999 7.30285C27.9589 7.30285 17.7426 7.40145 17.7426 12.1568C17.7426 14.5838 17.7426 17.0107 17.7426 19.4377C17.7426 23.2199 19.952 22.0067 21.6078 23.6624C22.3208 24.3755 23.67 26.7186 23.8999 26.7186C28.1103 26.7186 28.6878 29.9124 30.3269 33.1905C32.1125 36.7618 31.4366 46.1344 36.3494 46.1344C38.5859 46.1344 40.3943 45.0959 40.3943 42.4939C40.3943 39.3495 37.4595 39.8862 35.1359 38.8535C31.3578 37.1744 31.3938 30.4456 27.001 29.1905C25.4647 28.7516 21.1636 26.9937 20.9785 29.9546C20.9416 30.5451 20.9427 29.1456 22.192 29.1456C24.1702 29.1456 26.322 28.8948 28.2595 29.3254C31.6868 30.087 34.457 30.0397 36.9786 32.5613C39.1563 34.739 39.5977 33.1627 42.1921 32.2018C45.6549 30.9193 50.0183 28.6266 52.9337 26.3591C54.4531 25.1773 58.3448 25.9096 60.2146 25.9096C60.9382 25.9096 66.1215 26.7634 66.2371 27.1681C66.9582 29.6919 64.2712 34.1287 63.4506 36.4265C62.5084 39.0645 61.7795 41.689 65.473 39.8422C67.921 38.6183 70.5204 38.9065 70.327 35.6175C70.1111 31.9473 61.9232 30.7514 65.473 26.3141C65.9044 25.7749 71.0978 25.1477 71.945 25.1006C74.3549 24.9668 76.8117 25.1006 79.2259 25.1006C83.6015 25.1006 82.4618 34.169 82.4618 37.2355C82.4618 41.9972 81.6528 46.8611 81.6528 51.3928C81.6528 53.594 80.8418 56.6513 78.0124 56.6513C74.5218 56.6513 75.3748 57.9939 73.1135 59.9322C72.0553 60.8392 72.2954 62.3142 70.7315 62.3142C69.458 62.3142 68.1846 62.3142 66.9112 62.3142C62.4468 62.3142 57.9824 62.3142 53.5179 62.3142C48.0722 62.3142 44.0295 62.9697 38.9561 64.9209C32.0924 67.5608 42.8791 73.2163 45.6528 74.4491C49.5671 76.1887 54.1818 76.8606 58.1921 75.0783C61.9528 73.4069 63.4448 70.268 65.473 66.7187C67.7337 62.7625 64.6224 64.0607 67.4955 66.3592C69.2497 67.7625 69.7355 69.8249 70.7315 71.6176C74.9783 79.2619 78.1254 87.786 77.6079 97.1008C77.3557 101.64 74.134 106.773 72.7539 111.258C71.5024 115.326 69.6246 119.343 68.2596 123.438C66.8997 127.517 65.6939 131.916 64.2595 135.932C62.2339 141.604 59.8101 148.506 59.8101 154.539C59.8101 156.109 58.8937 161.011 61.0236 161.011C63.1848 161.011 66.1863 161.558 68.2596 160.966C69.7783 160.532 69.518 156.573 69.518 155.348C69.518 151.821 67.0277 152.112 64.0348 152.112C60.0739 152.112 63.2585 152.921 65.473 152.921C69.5021 152.921 69.1679 152.685 70.1472 148.876C71.8039 142.433 74.5557 136.521 76.0348 129.865C77.1178 124.992 77.968 119.954 80.0349 115.303C80.5456 114.154 82.1474 107.977 83.9 107.977C84.1359 107.977 84.8331 110.861 84.9337 111.213C85.1813 112.08 86.3903 112.291 86.5068 113.281C87.1275 118.557 88.1248 123.273 88.1248 128.831C88.1248 134.623 88.9338 140.467 88.9338 146.045C88.9338 151.431 88.5272 159.287 90.7315 164.247C91.5768 166.149 90.5333 169.91 93.3832 169.91C95.945 169.91 98.5068 169.91 101.069 169.91C107.758 169.91 107.474 164.622 105.878 159.034C105.489 157.675 92.4928 158.47 90.5517 158.584C86.56 158.819 100.009 160.718 102.507 157.595C104.843 154.675 104.305 146.657 104.305 142.809C104.305 138.216 102.452 128.265 104.709 124.202C111.487 112.002 128.968 110.702 140.709 104.831C146.067 102.152 152.389 98.2548 158.057 96.921C161.54 96.1017 169.838 92.8666 171.631 89.8199C173.612 86.4516 173.069 92.1555 173.069 93.4603C173.069 96.157 173.069 98.8536 173.069 101.55C173.069 112.713 175.496 123.999 175.496 135.123C175.496 141.046 176.779 146.417 177.114 152.112C177.435 157.581 185.327 147.135 186.013 146.449C186.701 145.761 191.255 140.493 189.608 140.022C187.873 139.527 184.135 139.631 182.372 140.022C180.21 140.503 176.822 146.844 178.552 145.46C180.718 143.728 183.068 139.977 186.013 139.977C191.292 139.977 190.058 135.812 190.058 131.483C190.058 124.442 189.346 117.7 188.485 110.809C187.454 102.564 187.631 93.2375 187.631 84.9659C187.631 73.8134 187.217 63.5538 182.147 53.4153C181.513 52.1471 180.855 48.4798 179.945 47.7524C179.133 47.1025 179.504 44.811 179.541 43.8872C179.621 41.8798 181.189 44.4864 181.968 44.876C184.184 45.9844 187.118 45.2487 189.249 46.3142C191.005 47.1922 192.952 48.5202 194.507 49.7299C197.977 52.429 202.202 55.6504 205.024 59.1232C207.756 62.4857 211.248 64.7997 212.53 68.9659C213.405 71.8125 211.401 70.2362 211.136 70.8985C210.509 72.4655 211.091 75.4516 211.091 77.0558C211.091 80.921 211.091 84.7862 211.091 88.6513C211.091 89.5955 211.091 92.449 211.091 89.7749C211.091 86.7187 211.091 77.5502 211.091 80.6064C211.091 83.8486 211.454 85.3976 214.148 87.3929C215.567 88.4442 218.408 93.0013 217.159 91.7525C216.173 90.7665 215.943 89.0873 214.956 88.0221C213.412 86.3544 212.178 84.2771 209.968 83.3929C209.123 83.0549 211.819 83.7682 212.53 84.3367C214.926 86.2541 224.608 87.1842 224.844 91.4379C225.048 95.1148 220.738 92.1222 219.541 91.4379C216.619 89.7682 214.743 85.987 211.541 84.1569C208.548 82.4467 214.327 87.3016 214.327 88.6064C214.327 91.9574 211.9 98.3237 211.9 91.0334C211.9 88.1313 211.314 82.583 211.091 88.3817C211.019 90.2516 209.983 92.0805 209.473 93.8648C209.318 94.4072 207.125 97.6208 207.046 96.2918C206.687 90.1901 211.091 87.3399 211.091 81.73C211.091 77.4342 212.815 58.2416 207.406 56.6962C200.554 54.7384 195.004 50.707 188.26 48.3816C184.435 47.0627 180.452 44.9837 176.754 43.3029C174.693 42.3659 170.895 42.4844 168.619 42.1344C159.655 40.7553 149.341 42.0894 140.35 42.0894C129.522 42.0894 119.303 44.8184 108.799 46.7636C103.874 47.6757 98.706 47.2831 93.9675 48.7411C90.7815 49.7214 87.4613 50.8005 84.0798 50.9883C83.3826 51.0271 78.9092 51.7973 80.3944 51.7973C85.8484 51.7973 90.838 51.2547 96.2147 50.1793C110.387 47.3449 124.836 42.9618 139.316 42.1344C146.463 41.726 153.729 40.4715 160.889 40.4715C163.211 40.4715 167.332 39.7112 169.428 40.876C176.745 44.9408 175.71 52.4004 180.35 57.9097C182.165 60.0652 183.152 63.7227 183.99 66.4041C187.263 76.8784 186.822 88.271 186.822 99.1233C186.822 107.408 186.822 115.693 186.822 123.977C186.822 129.216 186.094 135.103 188.26 139.977C188.658 140.874 188.997 147.574 188.44 147.887C186.386 149.042 183.273 149.304 181.159 148.247C167.088 141.212 169.833 118.278 169.833 104.786C169.833 101.625 169.833 98.4641 169.833 95.303C169.833 93.6275 171.342 88.4505 168.844 90.4491C167.237 91.7345 162.565 92.8244 160.484 93.8648C156.411 95.9014 151.402 96.6271 147.541 98.8986C146.726 99.3774 149.353 103.03 149.563 103.977C150.803 109.555 151.71 115.935 151.99 121.685C152.168 125.342 152.035 129.034 152.035 132.696C152.035 135.75 152.649 136.591 154.282 133.505C155.322 131.541 157.211 132.293 158.507 130.674C159.536 129.387 160.475 126.789 160.08 125.011C159.423 122.053 143.686 126.224 157.249 126.224C160.355 126.224 159.441 123.454 158.687 121.191C157.345 117.167 157.858 113.223 157.698 109.056C157.588 106.191 156.889 103.348 156.889 100.337C156.889 97.0537 154.818 97.9098 152.035 97.9098C144.746 97.9098 137.243 103.176 130.192 105.191C123.242 107.176 117.153 110.883 111.585 115.258C109.592 116.824 103.496 118.139 103.496 120.606C103.496 124.441 101.748 128.165 103.316 131.887C105.128 136.192 105.114 142.395 105.114 147.078C105.114 154.783 105.923 162.547 105.923 170.314C105.923 174.145 105.489 173.955 101.878 173.955C99.494 173.955 97.4274 173.384 95.4057 173.146C92.7133 172.829 92.9787 171.023 92.9787 168.696C92.9787 161.59 93.6695 154.062 92.7989 146.989C92.2275 142.346 92.1697 137.826 92.1697 133.146C92.1697 126.57 90.7354 120.219 88.5742 114.045C87.4165 110.737 87.9943 106.735 84.4843 105.955C82.7771 105.575 81.1275 102.22 80.7989 100.741C80.2713 98.3671 82.1817 103.728 82.4169 104.786C83.3482 108.977 82.6344 116.072 80.8438 119.753C79.4045 122.711 76.7307 124.833 75.2259 127.842C73.4194 131.455 71.9484 135.398 70.5067 139.168C68.6017 144.151 68.709 148.44 68.709 153.73C68.709 158.307 68.2005 159.585 63.855 161.82C61.6288 162.965 56.5741 165.329 56.5741 161.416C56.5741 158.101 58.4734 157.248 60.2146 154.539C61.9001 151.917 64.4935 152.112 67.2708 152.112C73.3386 152.112 65.1096 152.185 63.2258 152.112C58.5156 151.931 62.3245 126.876 64.2595 123.393C68.1329 116.421 69.8497 107.975 73.1584 100.696C79.5037 86.7367 67.6033 76.262 67.091 62.9434C66.9745 59.9149 66.5596 58.3633 64.2146 59.0333C62.2793 59.5862 59.4968 60.6253 57.7876 61.9547C56.4748 62.9757 55.4389 67.9771 57.7876 67.9771C58.6884 67.9771 60.5826 68.7472 60.6191 67.7974C60.6505 66.9798 61.202 62.6541 60.1696 62.3591C57.0532 61.4687 57.4447 64.6424 55.7651 64.7412C52.8205 64.9144 49.8147 64.7412 46.8662 64.7412C42.8718 64.7412 44.5389 66.272 47.6752 67.1681C52.1721 68.4529 49.1044 64.7412 45.6528 64.7412C41.235 64.7412 32.7457 69.3092 30.0572 63.9322C28.9813 61.7804 26.9598 59.4373 25.6527 57.64C23.9668 55.3218 22.6763 50.6257 22.5965 47.7524C22.5035 44.4038 22.5965 41.0348 22.5965 37.6849C22.5965 33.7486 25.0235 29.9333 25.0235 25.9096C25.0235 23.0231 25.1207 21.9862 23.4055 19.8422C20.225 15.8666 20.0956 21.7744 18.9561 15.3928C18.2082 11.2046 14.7988 -2.69721 8.0347 4.06688C5.70033 6.40125 8.97008 8.67545 4.79874 8.92083C3.17568 9.0163 3.83941 14.9131 4.79874 15.3928" stroke="black" stroke-width="3" stroke-linecap="round"/>
</svg>
