<svg width="157" height="116" viewBox="0 0 157 116" fill="none" xmlns="http://www.w3.org/2000/svg">
<path d="M101.881 29.382C101.678 29.382 101.474 29.382 96.7495 29.382C92.0245 29.382 82.7837 29.382 77.211 29.2805C70.0082 29.1492 67.7302 28.5635 65.7408 28.0527C64.3713 27.701 62.2282 27.3388 58.9464 27.1295C55.6646 26.9203 51.2981 26.9203 47.424 27.2757C43.5498 27.6311 40.3003 28.3419 37.5601 29.0635C30.0702 31.0359 29.2625 31.9453 26.5161 33.3685C24.051 34.6459 19.5048 37.2288 15.6276 39.7044C8.5214 44.2416 5.15903 47.4296 4.44205 48.3512C3.89963 49.0485 3.71891 50.7037 3.87123 52.8054C4.00042 54.588 5.46059 55.5318 5.82062 57.9843C6.71631 64.0858 5.36212 65.3787 5.40982 66.765C5.42985 67.3474 6.99302 67.2312 8.37621 67.1804C9.26422 67.1478 9.87018 66.7204 10.3825 66.2604C12.1193 64.701 10.5933 60.2645 10.5902 54.5856C10.589 52.346 13.3443 50.2206 15.0998 48.5159C15.389 48.2351 15.7137 48.0543 16.023 47.9497C16.3322 47.845 16.6369 47.845 16.7938 48.4543C17.639 51.7356 16.2368 53.0701 15.6199 54.5579C14.9592 56.1511 13.9782 57.3781 11.9334 61.2138C10.9166 63.1212 10.2887 65.2711 9.41783 67.2681C8.78096 68.7287 7.01764 73.5486 4.40358 80.4661C2.27734 86.0927 2.18033 87.8421 1.61874 90.3515C1.17452 92.3365 1.05408 95.0181 1.00023 100.802C0.958164 105.32 6.6853 110.509 7.76693 111.795C8.67465 112.874 10.1748 112.976 11.4072 113.336C12.6961 113.713 14.3782 113.9 15.8168 114.26C16.2185 114.36 16.7353 114.312 16.9969 114.058C17.2585 113.804 17.2585 113.296 17.1061 112.933C16.5693 111.654 14.5998 111.444 13.212 110.572C11.6552 109.593 10.901 108.471 10.3887 107.188C10.0475 106.334 9.46399 105.597 9.3609 104.83C9.31279 104.471 9.46091 104.163 9.66554 103.905C10.5511 102.786 12.8335 101.197 14.8921 99.3938C16.0595 98.3713 17.5569 96.9844 19.094 95.7043C20.1284 94.8428 23.382 91.3655 28.2009 86.6497C31.3467 83.5712 32.3304 81.7001 33.3582 80.2646C35.1806 77.7193 36.4354 75.3426 38.3294 72.2701C39.8397 69.8199 40.8419 66.4373 41.5158 63.4447C41.6518 62.8407 41.5681 62.117 41.5681 62.0554C41.5681 61.5077 41.7712 63.5355 42.2312 64.0986C43.1235 65.1909 45.2484 65.2803 47.6624 65.8957C49.6153 66.3936 51.3043 66.7142 54.3261 67.5359C57.2257 68.3243 60.2219 69.7914 62.4852 70.5622C64.5945 71.2806 67.2994 71.7423 70.5812 72.4593C75.9708 73.6368 79.1034 74.001 81.9114 74.2564C90.3569 75.0246 92.643 73.0778 96.5818 71.4439C99.1021 70.3983 100.336 69.5945 102.335 68.2621C103.824 67.2689 105.662 64.988 107.561 63.1401C108.122 62.594 107.937 62.917 107.781 63.2263C107.029 64.7231 105.887 66.8127 104.705 68.2005C103.496 69.6214 102.908 71.2254 101.681 74.8564C100.442 78.5194 100.139 80.66 99.9836 89.9653C99.8807 96.1273 99.9297 103.536 100.442 104.971C101.263 107.271 101.979 108.459 103.567 110.764C104.207 111.693 104.647 112.463 105.261 112.975C106.333 113.87 108.029 113.592 109.312 113.747C114.023 114.318 121.165 113.7 120.91 113.086C120.362 111.768 118.811 111.136 117.068 109.753C115.721 108.684 114.3 108.262 112.912 107.851C111.402 107.404 110.195 106.724 108.606 106.262C106.727 105.716 105.376 104.573 104.095 103.6C103.569 103.201 103.524 102.729 103.675 102.317C104.336 100.507 106.183 99.6523 107.67 97.0905C109.046 94.7227 109.469 93.3933 110.391 91.3947C111.485 89.0214 112.854 85.4973 114.491 81.8108C115.444 79.6652 116.337 76.4812 117.213 74.0594C118.443 70.6573 120.239 65.4957 120.394 64.1587C120.543 62.8837 120.959 61.2923 121.521 58.7274C122.035 56.3764 122.19 53.9071 122.496 52.4146C122.826 50.8051 123.316 49.1867 123.879 47.7481C124.744 45.5399 127.003 44.4663 130.638 39.9644C131.405 39.015 131.723 38.8228 132.083 38.9212C133.884 39.4138 135.003 40.6629 136.902 41.1245C138.581 41.5327 139.724 42.4046 140.956 43.2262C142.189 44.0478 143.416 44.6632 144.904 45.0233C146.162 45.3276 148.432 45.3833 150.137 44.7202C151.505 44.1878 152.032 42.5154 153.214 41.3876C154.409 40.2466 155.011 38.6197 155.371 36.3672C155.795 33.7149 153.688 31.4499 152.657 29.1835C152.007 27.7551 149.392 25.1971 146.304 22.7722C144.619 21.4486 141.496 21.6891 138.314 21.486C137.347 21.4242 137.773 20.8767 138.134 20.6167C138.75 20.1741 139.318 19.7443 139.676 18.9766C139.978 18.3296 140.038 14.8485 139.987 9.9266C139.939 5.29319 139.73 1.06896 139.628 1.68286C139.396 3.08953 138.093 4.14305 136.916 6.23861C133.909 11.5926 133.988 13.0668 133.322 14.6054C132.617 16.2326 131.631 17.8857 130.86 19.2227C130.687 19.5226 130.603 19.8366 130.398 20.0443C130.194 20.252 129.889 20.3536 129.681 20.2536C129.222 20.0326 129.064 19.2304 128.604 18.7181C127.769 17.7876 125.79 18.1011 123.072 17.9457C121.538 17.858 120.35 17.1779 118.351 16.5117C116.928 16.0375 115.328 15.1286 113.682 14.0008C112.28 13.0408 112.552 10.2112 111.526 8.51417C110.789 7.29463 109.684 5.79857 107.99 4.46154C106.213 3.05837 104.25 1.79825 102.859 1.02126C102.63 0.893076 102.398 1.3736 102.344 1.68286C102.124 2.94647 103.518 4.14305 104.339 5.63087C105.622 7.95301 106.7 11.7314 107.161 13.0684C107.693 14.6079 108.749 16.3471 109.009 17.6841C109.13 18.305 109.164 18.9166 108.858 19.4289C108.257 20.4341 107.321 21.3752 106.499 22.6076C105.678 23.84 105.062 25.0678 104.396 26.351C103.678 27.7352 103.524 29.0681 103.012 30.3005C102.342 31.9105 100.767 37.5427 99.4728 41.0183C98.999 42.2908 97.5788 42.8169 95.5294 43.7385C93.9561 44.4461 92.6553 44.6632 89.1781 44.5648C84.5343 44.4333 82.5006 42.103 81.1159 41.183C78.842 39.6721 78.9065 37.4934 78.6496 35.1856C78.4483 33.3779 75.4231 33.1792 73.6815 32.8192C73.0766 32.6942 72.2537 32.7669 71.7336 32.9192C70.3019 33.3386 70.2904 35.2225 69.5227 36.4549C68.5066 38.0859 66.4994 38.8166 65.2162 39.4828C63.8025 40.2168 62.499 40.6629 60.0481 41.0229C55.8235 41.6435 52.649 40.8722 51.8828 40.2598C49.8091 38.6025 49.0641 35.6594 48.084 32.673C47.8151 31.8537 47.7225 29.4035 47.4178 26.1217C46.9214 20.7735 34.5952 25.0709 34.186 25.7356C33.2472 27.2602 32.1397 29.1666 31.1596 30.6083C30.4194 31.697 29.881 33.6777 28.9548 36.501C28.3509 38.3419 27.8255 40.146 27.4654 42.14C26.9503 44.993 27.7178 47.2265 28.3317 47.7896C29.4035 48.7728 30.7919 48.9713 32.0243 49.3821C33.3484 49.8235 34.7922 50.4052 36.28 50.9714C37.9303 51.5995 39.9187 52.5593 42.4297 53.3809C44.6131 54.0953 45.5654 54.1009 46.0777 54.4071C46.5892 54.7127 46.4916 55.738 46.3393 56.6596C46.0595 58.3525 44.036 59.0213 42.8036 59.5367C40.9883 60.296 37.377 60.2522 34.1937 61.5338C32.6657 62.149 30.8103 62.917 29.3148 63.894C28.0855 64.6971 27.8255 66.3019 27.1085 68.5559C26.62 70.0916 26.1823 73.4594 26.7438 75.8427C27.0976 77.3441 27.9239 79.1214 28.3347 80.4584C28.4378 80.7677 28.5394 81.0723 28.5917 81.7878C28.644 82.5032 28.644 83.6202 28.644 84.7711" stroke="black" stroke-width="2" stroke-linecap="round"/>
</svg>
