<svg width="140" height="126" viewBox="0 0 140 126" fill="none" xmlns="http://www.w3.org/2000/svg">
<path d="M31.8067 44.7523C32.3869 44.9448 33.5502 45.7203 34.7178 46.4506C35.7754 47.1121 37.0488 47.4696 38.4584 47.7159C39.7033 47.9335 40.8389 48.4434 42.2486 48.8326C43.5457 49.1907 44.632 49.2218 50.7939 49.3676C56.6657 49.5065 68.1164 49.4171 74.1587 49.369C80.4912 49.3186 81.8455 49.1256 83.5933 49.0775C84.5817 49.0503 86.4082 48.834 88.7406 48.5935C89.565 48.5085 89.5336 47.8719 89.3412 47.6241C88.5388 46.5906 86.9155 46.8923 85.7479 46.5031C84.5802 46.1139 83.4169 45.7261 82.2974 44.9987C81.0177 44.1673 80.4023 42.4258 80.1559 40.5321C79.8973 38.5442 80.2973 36.0117 81.1239 34.844C81.9811 33.633 83.4053 33.2886 84.5729 32.8002C85.793 32.29 87.1954 32.0232 88.6051 31.634C89.8369 31.2939 90.9856 30.857 92.3952 30.7098C96.8659 30.2429 104.688 30.6588 105.856 31.048C107.111 31.4662 108.671 31.6326 109.938 31.9227C111.202 32.2123 112.56 32.4081 113.728 32.7973C114.896 33.1865 116.251 33.5743 118.098 33.9635C120.024 34.3693 121.598 34.4489 123.008 34.8382C124.487 35.2465 126.263 35.3236 127.383 35.809C127.669 35.9333 127.82 36.2915 127.823 36.5846C127.836 37.8883 126.467 38.9155 125.689 40.0832C124.91 41.2508 124.135 42.4141 123.066 43.0497C121.482 43.9922 118.7 44.6532 116.509 45.5264C115.205 46.0462 114.03 46.2101 113.155 46.4506C112.786 46.552 112.858 47.1722 113.098 47.42C114.152 48.5061 120.386 47.3763 124.416 47.0862C125.923 46.9778 128.007 46.5016 129.568 46.2597C129.956 46.1996 130.438 46.2101 130.734 46.3544C131.03 46.4987 131.126 46.7874 131.128 47.0804C131.134 48.2835 130.45 49.4113 130.109 50.6271C129.725 51.9929 129.575 53.2015 129.186 54.3691C129.088 54.6621 128.992 54.9508 128.798 55.1957C128.604 55.4406 128.316 55.633 128.023 55.684C125.636 56.0996 121.902 55.3473 116.136 55.2963C114.606 55.2827 113.546 55.5397 112.38 55.2511C111.455 55.0223 111.791 53.5018 111.355 52.9682C111.136 52.7008 110.823 52.5309 110.433 52.6242C108.519 53.0831 107.038 54.6592 105.669 55.0543C104.579 55.3691 105.662 52.0528 106.151 50.2976C106.581 48.7516 107.12 47.1897 107.608 45.9229C108.051 44.7745 108.578 43.592 109.114 42.4243C109.723 41.0985 110.426 39.8018 110.623 38.7304C111.099 36.1394 102.668 38.5307 98.5571 39.3033C91.9762 40.5401 87.7873 41.933 87.4942 42.1269C86.6992 42.653 89.7202 42.7115 93.1532 42.9535C95.415 43.1129 99.5571 43.003 102.891 42.8106C111.45 42.3166 112.753 41.3529 114.213 40.8674C114.548 40.7562 114.7 40.3849 114.655 40.0919C114.194 37.1027 106.84 38.0467 103.301 37.5627C102.279 37.423 101.312 37.4636 100.961 37.5598C100.134 37.7863 102.648 39.0146 104.589 40.035C105.455 40.49 106.149 40.8631 106.394 41.2027C107.569 42.8323 100.146 41.1604 95.2845 39.7041C92.9441 39.0031 91.5803 38.4374 89.5905 37.8061C89.0589 37.6375 88.5715 37.5627 88.3718 37.6575C86.295 38.6428 92.4462 42.2246 92.8836 41.9374C93.9352 41.2468 92.936 39.4111 92.6459 38.5394C92.277 37.4307 91.2888 36.3032 90.2217 35.3805C89.7683 34.9884 89.3471 34.9388 89.1007 35.0335C88.8543 35.1283 88.7581 35.4169 88.7567 35.758C88.7501 37.293 89.6269 39.3936 90.4054 41.4418C90.9166 42.7867 91.6678 43.8719 92.6401 45.2815C93.0352 45.8543 93.2247 46.4987 93.3719 47.0323C93.705 48.2393 90.2275 47.9594 87.7945 48.2014C87.0198 48.2784 85.9592 48.2509 85.4621 48.3953C84.965 48.5396 85.0613 48.8282 85.1589 49.1212C85.5482 50.2889 86.5132 51.6446 87.1517 53.1038C88.0121 55.0702 87.6852 56.7934 87.8325 58.8852C87.9254 60.2065 87.5919 61.3649 87.2027 62.5325C86.8135 63.7002 86.4257 64.8635 86.0365 66.0311C85.6473 67.1988 85.0671 68.3621 84.9169 72.5779C84.8274 75.0921 85.4519 76.4264 85.9359 78.9512C86.2684 80.6856 86.4228 81.7763 86.4243 82.2617C86.4283 83.6112 82.8396 83.3303 80.6997 83.6728C76.7735 84.3013 74.478 84.6947 72.5348 84.9367C71.2854 85.0923 70.1018 85.0825 66.4866 85.2764C63.3554 85.4443 57.5797 85.4703 54.3654 85.4717C49.8763 85.4737 48.53 84.7939 47.2632 84.4046C46.0544 84.0332 44.9323 83.1437 43.7646 82.6072C42.5578 82.0528 41.2412 81.5868 39.6363 81.1976C37.6788 80.7229 35.8942 80.7122 34.4846 80.5649C33.2277 80.4336 32.1041 79.8375 30.502 79.4964C28.1665 78.9991 25.2176 79.1553 23.308 78.8652C22.5651 78.7523 21.7045 78.5722 20.9756 78.3316C19.5384 77.8574 21.0193 74.8928 21.7934 71.7805C22.279 69.8279 22.6695 68.6653 23.3007 66.9656C23.8901 65.3783 24.6112 63.4232 25.5835 61.4742C26.2299 60.1786 26.6521 58.7526 27.0923 57.5368C27.5753 56.203 27.6258 54.9624 27.967 53.7467C28.3502 52.3808 28.5005 51.1723 28.8897 49.7626C29.2624 48.4129 29.9583 47.0906 30.2994 45.6328C30.3891 45.2494 30.3489 44.8573 30.397 44.5147C30.4451 44.1721 30.5414 43.8835 30.5909 44.4564C30.9177 48.2342 30.3489 49.6037 30.1069 51.0629C29.7558 53.1804 29.5734 54.5601 28.846 56.9391C28.1759 59.1305 26.9553 60.3911 25.5923 61.5121C23.8645 62.9331 23.2584 64.2804 22.722 65.1594C21.6792 66.8682 21.8007 59.9188 20.2482 57.8313C19.2803 56.5299 17.9172 55.738 16.1184 54.6694C14.2467 53.5576 12.2786 53.0149 9.90105 53.012C8.331 53.01 6.93744 55.0441 5.57153 56.168C4.37572 57.1519 3.72455 58.4494 2.99422 59.6651C2.17059 61.0362 1.87613 62.5311 1.24492 64.6667C1.09956 65.1585 1.00147 65.4466 1.00002 65.7396C0.998559 66.0326 1.09477 66.3212 1.28865 66.5661C2.14246 67.6446 3.81202 67.6857 5.5103 68.365C8.16273 69.426 9.83545 69.2426 11.5366 69.4846C12.0686 69.5602 12.7451 69.5341 13.0921 69.2455C13.439 68.9568 13.439 68.3796 13.3428 67.9379C13.0364 66.5311 12.3719 65.7469 11.9361 65.2614C11.5302 64.8095 10.4331 64.8693 9.4127 65.0617C9.02284 65.1352 9.06576 65.639 9.21007 65.9335C9.35439 66.2279 9.64303 66.4204 9.93603 66.4714C11.1105 66.6759 12.0746 66.1317 12.7539 66.4218C13.9712 66.9417 14.1154 68.8461 15.4259 70.935C16.5401 72.711 17.614 73.61 19.2627 75.3578C20.8738 77.0658 22.1797 77.4993 23.7322 77.9395C25.4032 78.4134 26.8474 77.8929 27.3809 77.8914C27.6435 77.8907 27.8183 78.2748 27.8693 78.6159C28.081 80.0316 27.241 81.96 26.4159 86.9601C26.0223 89.3456 25.2993 92.0651 24.7628 94.2605C24.353 95.9377 22.9727 98.7649 21.8969 101.5C21.0516 103.649 20.0514 106.164 19.563 107.431C19.1203 108.58 18.9785 111.109 19.3648 113.743C19.7981 116.698 20.9202 117.926 21.3575 118.805C21.8632 119.821 22.8619 116.771 23.6404 115.361C24.4423 113.909 25.2934 112.398 26.4086 109.246C27.1392 107.182 27.6259 105.401 28.0151 103.653C28.5983 101.034 29.1827 97.5346 29.4247 95.7314C29.6649 93.9412 29.7658 88.9164 30.1521 85.6714C30.3319 84.1618 32.97 85.0825 33.5516 85.3245C33.8538 85.4502 34.1333 85.6627 34.2819 86.1948C34.9761 88.6789 33.9467 90.1292 33.6055 92.6541C33.475 93.6203 33.4598 94.313 33.314 94.4617C32.0548 95.7461 34.04 91.1147 35.0094 89.8027C35.7043 88.8621 36.0808 87.9047 36.4205 87.6598C37.3914 86.9597 37.247 90.8989 37.3942 93.2386C37.4311 93.824 37.5386 94.4966 37.5881 98.0186C37.6377 101.541 37.6377 107.89 37.5415 111.45C37.4023 116.598 36.3782 118.118 35.5998 119.627C34.8391 121.101 33.7542 122.783 32.4423 124.197C31.5181 125.193 34.4248 121.436 36.5079 119.063C39.0738 116.14 41.1334 114.048 42.9177 111.926C47.0254 107.039 50.1714 103.552 50.6569 102.825C51.0432 102.246 51.1452 101.608 51.291 98.2358C51.4242 95.1551 51.3406 89.2837 51.2924 86.116C51.2443 82.9483 51.1481 82.6597 51.0986 83.5212C51.049 84.3828 51.049 86.4032 50.7123 89.8974C50.3755 93.3917 49.702 98.2985 49.3551 101.067C48.7659 105.768 48.4251 108.689 48.1831 111.017C48.0532 112.267 48.1335 114.485 48.3259 115.385C48.5183 116.284 48.9032 115.803 49.1977 115.363C49.4921 114.923 49.6845 114.538 51.3231 112.03C52.9616 109.523 56.0403 104.905 57.7226 102.285C60.1526 98.5014 60.571 97.2372 61.1541 95.3946C61.39 94.6492 61.2533 93.4646 61.2533 96.6702C61.2533 99.8758 61.2533 107.476 61.2052 111.536C61.1536 115.887 61.0579 116.471 61.3961 116.956C62.3527 118.329 65.1309 117.64 66.6411 117.882C68.5207 118.183 69.8948 118.415 74.4532 118.37C75.3555 118.361 75.4401 117.937 75.4897 117.163C75.7385 113.278 76.0232 111.138 76.6063 105.823C77.0061 102.179 76.7054 95.4238 76.7535 91.81C76.8147 87.2193 77.3818 85.0971 77.8702 82.8069C78.1951 81.283 78.5509 80.0328 78.841 79.6436C79.5022 78.7565 81.2653 80.5139 82.9665 80.9512C85.1752 81.519 86.1283 82.3565 87.0526 82.8492C88.5095 83.6259 86.7173 79.8433 86.6662 73.0108C86.6481 70.5832 87.3937 69.537 87.8295 69.1478C88.6906 68.3789 90.4958 70.4029 94.0337 72.7295C100.293 76.8454 102.648 76.9162 105.605 77.8885C107.939 78.6558 112.053 78.8637 116.148 78.1392C119.872 77.4802 123.324 74.6071 126.308 72.6989C129.748 70.4996 130.636 69.1493 132.868 67.5487C134.872 66.1117 136.368 65.0676 137.635 64.2891C137.935 64.1048 138.217 63.9014 138.173 63.6098C137.933 62.013 135.896 61.8605 134.002 60.792C132.524 59.9579 131.523 58.945 130.355 58.2147C129.298 57.5532 127.639 57.5805 124.581 58.2088C122.929 58.5483 120.359 59.5194 117.397 60.2963C116.263 60.5937 115.878 60.6885 109.619 60.738C103.359 60.7876 91.2363 60.7876 84.7989 60.6914C77.9712 60.5893 77.2914 60.0121 76.7098 59.6243C75.4959 58.8151 74.8599 57.875 74.5698 57.3896C73.9219 56.3054 69.1601 56.7059 66.5055 57.3342C64.5946 57.7865 62.5361 63.4757 61.2066 66.0311C60.8961 66.628 60.574 67.295 60.4282 68.1667C60.0888 70.1963 61.6381 71.7616 62.6585 73.0283C63.6313 74.236 65.0376 75.5517 67.6572 77.7383C69.1538 78.9876 70.8686 79.3477 72.9022 79.6888C78.3755 80.6069 79.6151 79.062 80.7828 78.5255C81.0801 78.3889 81.3644 78.1873 81.6093 78.2325C81.8542 78.2777 82.0466 78.5663 82.0977 78.8594C82.3022 80.0339 81.0845 80.9979 80.2069 82.1145C79.1301 83.4847 78.3614 84.9805 77.583 86.1481C76.8563 87.2381 75.5451 87.5111 74.2331 88.1904C72.0622 89.3145 69.8132 89.8435 68.4502 90.2327C65.4582 91.0871 61.2591 90.1409 59.8013 89.0724C58.184 87.8868 56.6934 86.2574 55.4266 84.7487C54.3839 83.5068 53.1948 82.1757 52.4601 80.909C51.751 79.6863 51.6321 77.9016 51.3901 76.3433C51.0608 74.2223 51.049 72.4613 50.807 70.3198C50.5441 67.9933 50.2735 66.432 50.1262 64.8751C49.9827 63.3576 49.1073 62.2512 47.8478 61.1316C46.6267 60.0462 39.836 60.2045 34.833 60.4465C29.6646 60.6965 28.897 61.7555 27.7293 62.4859C27.1948 62.8202 26.3693 62.8285 25.6404 62.636C25.337 62.5559 25.3926 62.0588 25.5369 61.7162C26.1081 60.3603 26.9436 59.3357 28.9801 57.2001C30.4607 55.6474 32.384 54.6709 33.8402 53.8429C37.1208 51.9777 41.3054 50.1052 44.0445 49.4667C45.8517 49.0454 48.7924 49.1256 50.8493 48.8836C52.4989 48.6895 54.4368 48.1576 56.2911 47.6693C57.8681 47.254 59.2066 46.4083 60.3742 45.6299C61.4995 44.8798 62.7052 44.5599 64.3568 44.5089C66.0422 44.4568 68.1455 45.0439 69.4604 45.2859C71.3365 45.6311 74.0698 46.111 80.8586 46.2582C83.2248 46.3095 84.5715 46.6941 86.1764 46.7451C87.0725 46.7736 83.137 43.3179 81.2799 39.9097C80.533 38.5391 79.7376 35.9592 78.7609 32.3614C76.5492 24.2148 75.8308 19.0026 75.7827 18.1309C75.5742 14.3532 76.5013 8.32604 78.9781 5.16126C81.9797 1.32579 86.7027 1.41046 91.0993 1.11891C94.2398 0.910658 99.2481 1.01979 102.355 1.116C106.527 1.24524 109.63 2.565 112.836 4.16707C115.813 5.65507 118.1 8.01116 119.412 9.03305C121.315 10.5158 122.374 11.8013 123.641 13.211C124.725 14.4171 126.065 16.746 127.093 18.5084C127.784 19.694 128.211 21.3234 128.842 22.6382C129.481 23.9704 129.668 25.2126 129.816 27.3482C129.91 28.7188 129.575 29.8774 129.186 31.0451C128.797 32.2128 128.409 33.376 127.924 34.4956C127.664 35.0931 126.951 35.4198 126.612 35.6647C125.568 36.4174 125.593 32.3265 124.766 30.7142C123.996 29.2124 122.683 27.755 120.447 25.0348C118.605 22.7947 117.528 21.5333 116.409 20.2184C115.859 19.5731 115.485 18.8073 114.807 18.3699C112.564 16.9231 108.689 20.647 104.336 23.2082C101.632 24.7993 96.8224 27.5917 94.1037 29.1252C89.2376 31.8701 84.3091 33.86 81.9111 34.4985C81.4844 34.6121 80.9912 34.5481 80.551 34.3557C79.6283 33.9524 79.137 32.997 77.0655 30.1048C75.241 27.5575 71.6266 22.9794 69.456 20.3598C66.7715 17.12 65.7256 16.4749 65.386 16.1819C65.1026 15.9374 68.6995 20.8044 74.4313 27.0232C77.5932 30.4536 79.9067 31.2419 81.8469 31.7273C82.5336 31.8991 83.3936 32.2098 86.6298 33.032C89.866 33.8542 95.4463 35.2011 98.7058 35.9431C102.735 36.7813 104.202 37.0729 105.511 37.4126C106.146 37.5598 106.723 37.656 107.318 37.7551" stroke="black" stroke-width="2" stroke-linecap="round"/>
</svg>
