<svg width="130" height="116" viewBox="0 0 130 116" fill="none" xmlns="http://www.w3.org/2000/svg">
<path d="M95.5095 11.5326C94.2528 11.5326 83.3544 8.49491 87.447 13.6106C88.5221 14.9545 89.1258 16.4573 90.273 17.8912C91.794 19.7924 95.642 19.0134 90.6471 19.0134C88.4377 19.0134 87.2807 17.3029 87.2807 15.273C87.2807 12.0267 88.52 11.7299 91.0211 10.6183C93.0881 9.69966 95.8098 10.8817 96.9641 12.6132C98.0074 14.1782 94.7615 9.2991 94.7615 7.41823C94.7615 -2.79455 110.032 3.91856 114.585 7.45978C116.432 8.89638 118.225 10.1675 119.282 12.2807C120.749 15.2155 119.886 16.2827 122.274 18.4315C125.677 21.494 128.425 21.8888 128.425 27.6162C128.425 33.2666 123.372 33.0449 120.03 36.0528C119.063 36.9225 116.181 35.471 114.585 35.471C111.847 35.471 110.657 35.3224 108.601 36.9671C106.509 38.6409 107.83 40.4559 106.564 42.0374C105.274 43.6505 105.114 44.2736 103.905 46.692C102.079 50.3429 98.919 52.7362 97.0057 56.0845C95.9559 57.9217 94.5167 59.9121 93.0991 61.4873C91.8363 62.8904 92.5173 66.4891 92.5173 68.3862C92.5173 72.6918 91.7692 77.5485 91.7692 82.2255C91.7692 84.5168 90.273 86.3087 90.273 88.5841C90.273 91.1193 91.0211 93.4224 91.0211 96.0648C91.0211 98.2791 91.4594 101.012 90.9795 103.172C90.7079 104.394 88.8348 109.14 87.6132 109.489C86.6555 109.762 82.5381 110.225 82.6261 110.112C83.5983 108.862 82.2661 105.02 81.4624 104.127C78.6004 100.947 81.2962 94.0062 81.2962 90.4543C81.2962 85.6092 82.3323 81.5121 82.0442 76.615C81.8197 72.7983 78.4669 68.1846 77.5974 64.2718C77.1944 62.4587 77.376 59.9327 76.2259 58.495C75.4088 57.4737 76.7704 55.3134 75.8934 54.339C74.6188 52.9228 74.5635 55.973 74.5635 56.417C74.5635 61.5729 67.4437 60.2672 64.8386 63.5237C63.4355 65.2774 54.4582 66.1419 52.1213 66.1419C47.2588 66.1419 42.3964 66.1419 37.5339 66.1419C35.2939 66.1419 33.0518 65.5042 31.1753 65.3939C29.7163 65.308 31.3013 67.7399 31.1753 69.8823C30.9768 73.2556 25.3037 77.2069 23.6946 80.0228C19.0852 88.0892 22.1984 99.4924 22.1984 108.408C22.1984 109.343 21.4487 113.975 20.7023 114.019C17.2464 114.222 16.4036 113.504 16.2138 110.278C16.1422 109.061 14.3879 106.693 14.0112 105.374C13.334 103.004 13.1288 100.416 12.4319 97.9766C11.7852 95.713 10.9773 94.2098 10.9773 91.5764C10.9773 89.0661 10.6457 87.0899 9.64741 84.8438C9.00089 83.3891 10.9773 80.9155 10.9773 79.2332C10.9773 76.7396 10.9773 74.2461 10.9773 71.7525C10.9773 69.3975 10.8391 66.9961 10.9773 64.6458C11.1422 61.8435 12.1782 63.3662 10.6033 60.5314C9.55761 58.6492 9.05257 55.8812 7.81879 54.339C6.61182 52.8303 7.16087 50.3373 5.90704 48.77C4.10176 46.5134 4.24466 37.9951 4.24466 35.0969C4.24466 30.732 7.04856 27.2433 10.063 24.8317C12.6223 22.7842 19.1816 22.7537 22.5724 22.7537C27.1883 22.7537 32.3065 22.0056 37.1599 22.0056C46.9225 22.0056 56.3819 20.5095 66.3347 20.5095C71.1972 20.5095 76.0596 20.5095 80.9221 20.5095C83.2771 20.5095 85.6785 20.6478 88.0288 20.5095C89.3229 20.4334 88.9623 19.0263 88.7769 20.5095C88.7057 21.0793 87.1455 21.9696 86.5327 22.0056C79.5347 22.4173 81.9219 26.361 80.5065 31.315C80.0583 32.8837 78.3782 34.6067 76.8077 35.3047C75.645 35.8215 74.2301 35.1204 73.0674 35.6372C71.8569 36.1752 71.4397 36.9671 70.0751 36.9671C66.9036 36.9671 76.3272 27.9902 67.4568 27.9902C64.5496 27.9902 57.0782 27.2491 56.6098 23.5018C56.4873 22.5221 44.4477 22.0056 42.7704 22.0056C35.1879 22.0056 41.5356 28.539 36.4118 30.8163C35.394 31.2686 30.3727 31.4754 29.6791 30.6085C28.9709 29.7232 25.6949 26.7984 24.7751 26.5356C21.0949 25.4842 16.3489 24.2499 12.4735 24.2499C4.91415 24.2499 14.5298 40.0693 19.9542 40.7075C22.413 40.9967 24.4783 42.2036 27.0609 42.2036C28.9008 42.2036 32.919 41.3869 33.4611 43.2842C34.0744 45.4308 35.123 47.2648 32.6714 48.3544C30.4367 49.3477 28.3148 49.0417 26.5206 47.6064C24.7386 46.1808 23.7028 46.9078 22.9049 44.1153C22.8086 43.7782 20.8152 41.755 22.5309 42.2452C23.6598 42.5677 23.6946 43.8998 23.6946 44.8219C23.6946 48.1113 23.3163 48.386 19.9542 48.1882C18.4884 48.102 18.2653 43.9562 16.2138 43.6998C14.0443 43.4286 9.79779 38.193 7.65255 36.9671C2.46613 34.0034 4.24466 43.358 4.24466 46.692C4.24466 56.4692 5.74081 66.1339 5.74081 75.8669C5.74081 80.0193 2.00044 82.8475 2.00044 86.7139C2.00044 91.1807 1.92726 95.9002 3.66283 99.8052C4.62503 101.97 4.52024 103.986 5.74081 106.122C6.50004 107.451 10.2944 105.29 11.3098 105C13.7398 104.306 11.3513 100.629 13.2215 99.639C14.6392 98.8885 19.2047 98.3062 19.9542 99.8052" stroke="black" stroke-width="3" stroke-linecap="round"/>
</svg>
