<svg width="95" height="100" viewBox="0 0 95 100" fill="none" xmlns="http://www.w3.org/2000/svg">
<path d="M71.9776 4.31725C71.2145 4.31725 69.6818 4.10016 68.1474 3.71532C66.878 3.39697 65.7314 3.76795 65.0752 3.98668C64.419 4.20541 63.8664 4.64288 63.4833 5.29908C62.7383 6.57481 62.8797 8.25772 62.4406 9.57505C61.9777 10.9636 61.8929 12.5337 61.4538 13.851C61.0027 15.2044 60.0312 16.4807 59.426 17.7981C59.1091 18.4878 58.8208 19.3325 58.9293 20.3176C59.0207 21.1468 59.6957 21.7468 60.1875 22.3487C61.1054 23.4724 62.7613 23.2828 64.0786 23.7219C65.432 24.1731 66.7083 24.9274 69.3907 24.9307C71.1178 24.9328 73.6025 22.0987 75.2093 20.1104C76.0938 19.0158 75.9247 17.4807 76.252 16.1633C76.5868 14.8157 77.1285 13.5336 77.5134 12.162C77.7351 11.3716 77.4608 10.57 77.4591 9.96811C77.4583 9.67186 77.8916 9.47473 78.2222 9.47144C79.6931 9.4568 80.8519 10.7838 82.115 11.6045C82.7665 12.0278 82.9406 12.8659 83.2679 13.4136C83.9478 14.5513 87.3054 14.1849 89.4055 13.5846C90.7987 13.1864 92.0352 11.889 92.6437 10.3003C92.86 9.7358 92.6997 8.83004 92.5368 8.32844C92.0786 6.91657 89.6407 6.94861 88.0997 6.29406C86.6425 5.67509 85.47 4.97509 84.1526 4.64781C82.1114 4.14069 79.2205 4.10016 77.9032 3.66105C76.5858 3.22194 75.2734 2.78447 73.0828 2.61837C70.6632 2.4349 68.0372 2.7779 66.0143 3.27457C61.2672 4.4401 59.8141 2.56739 57.4114 2.07072C53.5795 1.27863 50.6011 2.34043 50.0534 2.99663C49.5826 3.56074 49.611 4.31396 49.7196 4.97016C49.9631 6.44235 51.9069 7.05387 53.2242 7.87782C54.4527 8.64621 55.8539 9.13923 57.5512 9.52407C59.3035 9.92139 60.791 9.47144 61.393 9.46979C62.0491 9.468 62.3271 10.5635 62.656 11.2739C62.8244 11.6376 62.7678 12.0929 62.605 12.4251C61.939 13.7842 60.472 14.6191 59.5905 16.6386C59.1304 17.6927 59.4786 19.7371 59.6415 20.7978C59.8337 22.0504 61.1167 22.2961 62.1084 23.1167C62.6327 23.5506 61.1265 24.2696 60.4703 24.6528C57.905 26.1509 52.9068 25.2564 46.1294 25.3139C43.6784 25.3347 42.3813 24.8222 40.9012 24.4373C38.812 23.8942 36.7962 23.7236 35.1434 23.3963C33.7813 23.1266 32.2966 22.5197 30.6504 22.1349C28.2926 21.5837 26.922 22.7368 25.6047 23.0641C23.5635 23.5712 20.6725 23.6118 19.0822 24.3239C17.7132 24.9369 16.3966 25.8024 14.8062 26.9536C13.4785 27.9147 12.4495 29.0916 11.4595 30.2971C10.4911 31.4761 10.0352 32.9268 9.21129 34.2441C8.46503 35.4372 8.2788 36.8738 7.94823 38.1912C7.49239 40.0077 7.94988 42.4655 7.51077 43.7828C7.07166 45.1002 6.63419 46.4126 5.92208 47.7299C5.23301 49.0046 4.44358 50.3596 3.83672 51.6227C3.71504 51.8759 4.21333 52.116 4.48963 52.0651C5.7937 51.8244 5.96977 49.7149 7.17527 48.7249C7.78472 48.2243 8.4926 47.9552 9.04025 47.6279C10.178 46.948 10.0287 45.11 10.4135 43.7927C10.7907 42.5014 11.3443 41.163 11.8377 39.8456C12.3824 38.3914 13.4264 37.6501 14.0283 37.484C14.2992 37.4093 14.5217 37.8606 14.525 38.1912C14.5392 39.6171 13.5415 40.8209 13.1024 42.1382C12.6633 43.4556 12.2258 44.768 12.0597 47.7233C11.9597 49.5032 11.568 51.0175 11.1289 53.1538C10.775 54.8757 10.2523 56.6091 9.81321 57.9264C9.3741 59.2438 8.93664 60.5562 8.17025 62.7468C7.503 64.654 6.96311 66.1478 6.19673 67.4651C5.42951 68.7839 4.7725 70.0949 3.94855 71.4122C3.2023 72.6053 3.23315 81.64 3.83343 86.8715C3.91452 87.5782 4.54554 88.0803 5.20174 88.4092C5.51371 88.5656 5.85794 88.521 6.07996 88.3582C7.406 87.3858 6.73945 84.5806 7.45156 83.2632C8.12077 82.0253 8.38405 80.6335 8.82316 79.3162C9.26227 77.9988 9.69973 76.6864 9.86584 74.8231C10.0045 73.2672 10.3576 71.5355 10.7424 70.1064C11.0876 68.8245 11.3443 67.4767 11.8377 66.1593C12.3432 64.8097 14.081 64.4045 15.3983 63.7993C16.7846 63.1624 17.6991 61.7732 18.6891 60.5677C19.694 59.3442 20.4423 57.9379 21.3205 56.6206C22.1668 55.3512 22.9618 54.208 24.2249 53.0025C24.5365 52.705 24.7183 52.3463 24.9929 52.1243C26.6845 50.7568 30.1981 51.899 31.7884 52.0651C33.2064 52.2132 34.4741 52.8857 35.7914 53.3248C37.1087 53.7639 38.6382 53.9843 40.1216 54.3116C44.6556 55.3119 52.2358 54.4251 53.5531 53.713C54.8278 53.0239 55.8572 52.4515 56.5134 52.1226C56.8254 51.9662 57.1696 52.0108 57.4459 52.1736C58.7221 52.9256 59.4721 54.4185 60.3536 55.8953C61.7372 58.2134 61.2285 59.8983 61.5064 61.2699C61.8316 62.8747 62.11 64.8256 62.383 66.5327C62.6357 68.113 62.7679 69.437 63.0409 71.1885C63.5827 74.6649 63.4257 77.5351 63.6987 79.6352C63.8698 80.9517 64.3006 82.2649 64.7397 83.8553C64.938 84.5734 65.0703 86.0969 65.2331 87.9602C65.2931 88.6465 65.7216 88.7381 66.3235 88.794C66.9254 88.8499 67.7938 88.8499 68.4039 88.6871C69.0141 88.5243 69.3397 88.1987 69.5074 87.3254C69.9395 85.076 69.7837 83.2616 69.9482 80.326C70.0942 77.7195 70.0041 72.8315 69.9498 70.1524C69.8956 67.4734 69.787 67.1477 69.7311 63.6694C69.6752 60.1911 69.6752 53.5699 69.7295 49.8876C69.805 44.764 70.5501 43.4654 70.7162 41.3291C70.8351 39.8 71.3198 33.3215 71.6471 29.3202C71.7837 27.6499 72.1947 25.7037 72.7424 24.4406C73.4637 22.7771 74.2735 20.658 75.0448 19.5068C75.8445 18.3132 76.6878 17.1517 77.2387 15.8344C77.7745 14.5534 78.1153 13.2047 77.8472 10.6852C77.6022 8.38228 73.7439 9.9089 71.8263 10.0717C71.0873 10.1345 70.8856 10.5602 70.9366 10.7822C71.0488 11.2706 72.0829 11.2246 72.5779 11.1703C72.8869 11.1364 71.3264 10.8957 70.1768 11.0042C69.6691 11.0522 69.3529 11.3298 69.1308 11.6045C68.9088 11.8791 68.8003 12.2048 68.8529 12.5353C68.9055 12.8659 69.1226 13.1915 69.5601 13.3593C69.9975 13.527 70.6488 13.527 71.0928 13.3642C71.5369 13.2014 71.754 12.8758 71.703 12.5995C71.652 12.3232 71.3264 12.1061 71.1586 12.1571C70.9909 12.2081 70.9909 12.5337 71.1537 12.7557C71.3165 12.9777 71.6421 13.0863 71.9727 13.0879C72.3033 13.0896 72.6289 12.981 72.9052 12.7623C73.4812 12.3063 73.7308 11.5568 74.0581 10.9549C74.409 10.3094 75.5892 10.2378 76.7388 10.3464C78.4025 10.5035 79.5362 11.7706 80.8536 12.4827C82.1283 13.1718 83.4833 13.7441 87.5307 13.7474C89.5191 13.749 90.7196 12.6521 91.9826 11.8314C93.2468 11.0101 93.4628 9.25764 93.5779 7.3943C93.6779 5.77571 91.7195 4.86983 90.3479 3.99162C88.8587 3.03812 87.4435 2.78447 85.9634 2.5641C83.6727 2.22304 82.1808 1.79771 79.5066 1.41287C71.4064 0.247152 70.0107 1.90297 67.3283 2.06907C65.4972 2.18247 63.7612 2.7779 62.6067 3.71039C61.6021 4.52177 62.11 7.15255 62.2728 9.50926C62.3857 11.1428 64.4092 11.1128 64.9568 11.6045C65.2196 11.8404 65.2874 12.2048 65.0177 12.3725C64.748 12.5403 64.0967 12.5403 63.924 12.4317C63.7513 12.3232 64.077 12.1061 64.4618 11.9943C64.8466 11.8824 65.2808 11.8824 65.3417 11.991C65.4025 12.0995 65.0769 12.3166 64.8006 12.2656C64.5243 12.2146 64.3072 11.889 64.2496 11.5584C63.9664 9.93191 64.6295 7.94196 64.5786 6.13289C64.5348 4.57895 62.4455 4.10016 61.1282 3.66105C59.8108 3.22194 58.4985 2.56739 57.1811 2.07072C55.9389 1.60237 54.3343 1.46879 50.8297 1.51977C49.3073 1.54192 49.3939 3.98175 49.3364 5.84508C49.2897 7.35576 51.1372 8.80373 52.5664 9.63261C53.9097 10.4117 55.1961 11.1128 56.7864 11.5519C58.1762 11.9356 59.1464 12.2114 59.6398 12.6455C61.5343 14.3126 59.4786 18.0004 59.8602 20.1005C59.9959 20.8474 60.4654 21.9606 60.3569 23.4391C60.3115 24.0571 60.0312 24.3749 59.7566 24.6511C58.0266 26.3915 53.8936 25.1511 51.976 24.439C50.3127 23.8213 48.9597 23.5065 47.4253 23.1217C44.9715 22.5062 43.151 22.5197 41.3419 21.8619C38.2971 20.7547 36.3555 22.079 34.8145 22.4063C33.486 22.6884 32.1848 22.9539 25.4074 23.12C22.9425 23.1804 21.008 24.1578 19.3552 24.7087C18.0379 25.1478 16.7255 25.8024 15.4082 26.4076C13.997 27.0559 12.7784 28.1048 10.9694 29.8563C9.64942 31.1343 8.71955 32.5979 8.22288 34.4037C7.21791 38.0575 8.49588 40.8077 8.76889 42.9589C8.8314 43.4515 8.82481 44.1035 8.66199 44.5476C8.11238 46.0465 6.52894 46.8533 5.48461 47.9503C4.46631 49.0199 3.12789 50.0307 2.57695 51.348C1.76542 53.2884 2.0293 56.2802 2.13455 57.4347C2.15946 57.7079 2.78582 57.6024 3.11803 57.4396C4.41885 56.8021 4.65409 54.9777 5.2593 53.6603C5.88479 52.2989 6.62761 51.0306 7.77884 49.7133C8.84152 48.4973 9.5879 47.0836 10.1388 45.7662C10.6746 44.4852 11.2325 43.1365 11.8377 41.8192C12.1546 41.1294 12.7686 40.6104 13.3162 40.4443C13.5342 40.3782 13.6468 40.8209 13.5942 41.2057C13.3636 42.892 12.5548 44.3272 12.3887 50.3974C12.2818 54.3017 11.8969 59.1286 11.4035 60.8834C10.5423 63.9465 9.9234 65.9241 9.48429 68.2842C9.20101 69.8067 8.60772 71.2987 7.94988 72.2937C7.10543 73.5709 8.60114 69.4502 9.09781 68.1329C9.56615 66.8907 9.69973 65.5031 9.86584 63.9128C9.94172 63.1863 10.1405 62.3225 10.0319 61.7173C9.76214 60.2129 8.06171 65.1545 7.23776 66.8073C6.52669 68.2337 5.43034 69.7659 4.49785 71.0833C3.52659 72.4554 2.79897 74.1472 1.97503 76.2342C0.843392 79.1005 2.02272 83.9096 2.68221 85.1726C3.35284 86.457 3.99625 87.8566 4.65573 88.8483C5.42719 90.0084 6.0816 86.5541 6.24771 85.2367C6.52329 83.0512 6.73945 79.9757 7.17856 78.6583C7.6297 77.3049 8.16696 76.0286 8.82152 74.7113C9.50042 73.3449 10.2457 72.0816 10.5237 70.4912C10.7691 69.0868 11.3443 67.8056 11.7835 66.2152C11.9817 65.4972 12.3311 64.842 12.8228 64.2943C13.7159 63.2997 15.3966 63.4178 16.6597 62.431C18.0527 61.3427 19.0148 59.9115 20.3321 59.1944C21.5979 58.5054 21.8698 56.9512 22.5819 55.6339C22.9202 55.0081 23.1855 54.3165 23.4601 53.986C24.1111 53.2025 22.5342 56.2802 21.9833 57.5975C21.4475 58.8786 21.1067 60.2272 20.6676 61.5446C20.2285 62.8619 19.5739 64.1743 19.296 65.4916C19.0128 66.834 18.4753 68.1213 18.0362 69.4387C17.5971 70.756 17.3768 72.0684 17.0495 73.3857C16.722 74.7038 16.5018 76.0154 16.3357 77.6058C16.1876 79.0238 15.5151 80.5085 15.1302 82.1005C14.6256 84.1879 14.7454 85.7712 14.9082 87.0327C14.9806 87.5933 16.1663 86.5541 18.6283 86.0558C20.3343 85.7105 19.5674 82.2781 20.0607 80.9608C20.5862 79.5577 20.9949 78.3311 21.2679 76.9052C21.6203 75.0648 21.8698 73.7262 22.0359 71.8628C22.1673 70.389 22.8566 69.1213 23.0227 67.8039C23.1986 66.4089 24.3893 65.1742 25.5406 64.1299C26.6858 63.091 26.6918 61.2272 26.9697 59.9098C27.253 58.5675 28.0075 57.2801 28.94 55.9628C30.5283 53.719 35.4608 54.5369 36.7782 53.986C38.0592 53.4502 39.0822 53.1094 39.7384 52.8347C40.9791 52.3155 42.8023 53.3265 44.3433 53.6538C45.6719 53.9359 46.9731 54.2014 48.2904 54.9135C50.4313 56.0708 54.2093 55.0829 55.5267 54.3165C55.8701 54.1167 56.1829 53.8791 56.5134 53.7672C56.844 53.6554 57.1696 53.6554 57.4459 53.8182C58.7424 54.5822 58.709 57.0433 58.8751 59.4033C59.0216 61.4847 60.4588 64.0625 61.3946 65.4916C62.2039 66.7276 61.9982 68.4503 62.1643 69.7676C62.4264 71.8463 62.656 74.6998 62.8221 76.5631C62.9628 78.1416 63.4257 81.3703 63.753 83.5823C63.9713 85.0582 64.6295 86.5409 65.7232 87.7497C66.6812 88.8085 68.3529 88.521 69.3397 88.3582C70.6561 88.141 70.2212 85.3502 70.3873 81.464C70.4668 79.6052 70.9909 78.3311 71.5912 76.4134C72.1765 74.5435 72.1947 72.5223 72.2523 66.7251C72.2746 64.4802 71.6487 63.2007 71.3757 61.7205C70.9862 59.6086 70.9909 57.6156 70.7179 55.5286C70.6184 54.7683 70.662 53.5699 70.662 53.5518C70.662 50.601 70.333 61.51 70.06 67.0556C69.6515 75.3543 69.8956 81.2815 69.7311 82.209C69.2605 84.8632 69.3463 86.5376 69.4005 87.855C69.4394 88.7988 70.0041 85.2384 70.2771 82.2929C71.1592 72.7755 70.662 71.4237 70.9892 70.1064C72.2254 65.1306 71.1027 55.9644 70.7179 54.9727C70.0803 53.3297 71.6487 68.0358 71.5944 70.113C71.5682 71.1176 71.2113 68.3516 71.0468 64.7088C70.6328 55.5394 70.8823 49.0538 70.7179 48.2891C70.6248 47.8563 70.662 47.3072 70.6077 47.1905C69.5484 44.9114 70.5501 54.7408 70.7162 56.6634C70.9205 59.0272 71.208 61.214 71.4283 63.3503C71.5998 65.0127 72.744 65.8222 72.9628 66.1527C73.649 67.1899 73.0762 63.2007 72.9101 60.7371C72.6704 57.1822 72.4184 52.3463 71.9793 51.029C71.4829 49.5399 71.4316 47.7414 71.3198 45.4932C71.2305 43.6979 71.8658 50.1359 72.2506 52.4959C72.4911 53.9706 72.6355 55.9447 72.9085 57.5975C73.1248 58.9073 73.5104 60.2272 73.6765 62.0906C73.8079 63.5644 74.2801 65.2663 74.6074 66.8073C74.9777 68.5508 75.155 70.7527 75.5382 79.5513C75.6145 81.3042 76.3523 81.2848 76.7947 81.1762C77.2371 81.0677 77.5627 80.8506 77.7305 80.5759C78.4036 79.4739 78.4442 78.0021 78.6103 75.8658C78.7292 74.3367 79.2139 68.0753 79.4869 63.9687C79.6475 61.5525 79.8717 59.5891 79.2715 57.9363C78.7911 56.6136 78.1219 55.3066 77.5709 53.9893C77.0352 52.7082 76.9115 50.4912 76.6385 48.7265C76.4355 47.4146 76.0365 46.0968 75.6517 44.7795C75.2794 43.5052 75.0498 42.1497 74.6106 40.5594C74.2066 39.096 73.8459 37.1107 73.568 35.1881C73.2722 33.1425 72.9644 31.6243 72.6914 29.927C72.1762 26.7243 73.7275 25.3748 74.0597 23.2384C74.1381 22.7345 74.3853 22.4145 74.3344 22.301C73.9068 21.3494 71.9842 22.625 70.6669 23.0641C69.077 23.5941 67.0504 23.1776 65.7331 22.7385C64.4446 22.309 63.1034 21.9737 61.786 21.1498C61.4724 20.9536 61.1298 20.8751 60.9621 20.6564C60.2276 19.6987 61.1232 17.7043 61.2861 15.9512C61.3496 15.2669 61.7745 15.0664 62.0508 15.1174C63.4239 15.3707 64.077 17.2504 65.0686 17.7471C65.3597 17.8929 64.0868 17.5859 63.7563 17.3113C63.5065 17.1038 64.7381 17.5826 65.0686 17.6385C66.2636 17.8407 63.1001 16.3788 62.4981 16.3771C61.1278 16.3734 61.018 19.0003 60.9571 21.1399C60.9186 22.4951 63.4191 22.2961 70.4695 22.3536C72.3071 22.3686 72.9611 21.8619 73.6173 21.4244C74.2735 20.987 74.7176 20.4377 74.882 19.7272C74.9697 19.3483 74.9379 18.9082 74.7751 18.576C74.1074 17.2136 72.3131 16.9281 70.7771 16.9791C70.4073 16.9913 70.2278 17.4675 70.3873 17.6353C70.5468 17.803 71.0895 17.803 70.8807 17.803C70.6718 17.803 69.6949 17.803 69.3545 17.8573C69.193 17.883 70.3265 18.1319 71.1504 17.9691C71.3832 17.9231 70.9975 17.4807 70.5041 17.3129C70.0107 17.1452 69.3594 17.1452 68.9697 17.308C68.5799 17.4708 68.4713 17.7964 69.338 17.9642C70.2048 18.1319 72.05 18.1319 73.0006 18.7832C73.9512 19.4345 73.9512 20.737 73.7883 21.5165C73.5614 22.603 72.6388 22.9539 71.9283 23.3371C70.4864 24.1148 69.0239 23.5065 67.7066 23.1217C67.3848 23.0276 67.0504 23.0657 67.0455 22.9572C67.0405 22.8487 67.3662 22.6316 67.3711 22.4112C67.399 21.164 64.9683 21.4211 64.1427 21.4211C62.5458 21.4211 67.0372 22.2961 68.9006 22.5164C69.729 22.6144 70.6554 23.0657 71.6964 23.2286C73.0359 23.438 72.6355 26.3418 72.6355 27.8269C72.6355 28.0094 72.6355 27.0325 72.4727 26.4207C72.3098 25.8089 71.9842 25.5919 71.6536 25.48C70.4018 25.0565 68.8068 26.026 67.3234 26.299C66.516 26.4476 65.84 25.7037 64.3664 24.8222C62.8222 23.8984 61.2351 24.3847 60.8519 23.7285C60.4932 23.1142 60.4654 22.4112 60.4654 22.4063C60.4654 22.0856 60.4654 23.7039 60.3026 24.2614C60.1398 24.8189 59.8141 24.9274 59.4836 25.0376C57.0806 25.8386 53.2357 25.1511 51.5928 24.3847C48.074 22.7433 44.5785 22.1908 42.1675 21.3159C39.7077 20.4232 34.0826 19.02 27.7805 17.3754C25.5034 16.7812 25.0603 16.8162 24.6739 16.9248C23.92 17.1365 23.3006 17.5826 23.0243 17.8014C21.0013 19.4029 30.1915 18.7832 31.8443 19.446C33.1049 19.9515 34.4741 20.2107 35.8457 20.9245C36.2642 21.1423 36.6647 21.6316 36.6713 21.9639C36.6995 23.3915 34.1583 22.9539 25.4156 23.1743C22.2459 23.2542 20.7844 24.7038 19.0279 26.0754C17.2804 27.44 16.0676 28.6508 11.0944 32.7508C7.11602 36.0306 5.87109 36.9857 4.66231 37.9182C3.57244 38.7589 3.6739 40.492 3.28906 41.8093C2.9168 43.0836 2.90423 44.6561 2.52268 46.0853C2.13622 47.5328 1.37146 48.715 1.20535 50.0323C0.75408 53.6112 1.14779 59.5694 1.42244 60.7782C1.55311 61.3533 2.57202 61.2206 3.22821 61.112C3.95094 60.9925 4.65409 60.1286 5.3662 59.3079C6.45846 58.0492 6.0816 55.7473 6.46644 53.9366C6.89007 51.9434 6.85128 50.3728 7.12428 49.0012C7.43671 47.4315 7.9433 46.0968 8.87579 44.8337C9.80807 43.571 11.4496 43.2418 12.6584 43.0197C17.8093 42.0737 12.6666 57.9248 12.3344 59.2964C11.9289 60.9705 11.2391 62.4179 10.527 63.847C9.89936 65.1066 9.59448 66.4767 9.04683 68.2842C8.27485 70.8319 7.62095 72.0684 7.45485 73.6587C7.30674 75.0767 6.63419 76.3444 6.19508 77.6617C5.75597 78.979 5.31851 80.2914 5.64085 84.176C5.71087 85.0198 6.94338 84.9029 7.6078 84.6858C9.68289 84.0078 9.69974 81.9492 10.3576 78.7274C11.8194 71.5681 10.7983 68.3647 11.5072 66.3254C12.648 63.0432 15.8374 60.5693 16.7699 59.3063C17.7924 57.9212 19.6726 57.1683 20.9899 56.2901C21.3205 56.0697 21.6461 55.8526 21.6511 55.9578C21.8251 59.6696 16.6137 64.8256 16.0627 66.4784C15.844 67.1346 15.6236 67.7957 15.4591 72.0881C15.3073 76.0524 15.4032 83.653 15.6203 87.5672C15.8374 91.4813 16.2716 91.4813 16.6581 91.3728C17.4119 91.161 18.0313 90.6064 18.579 90.1146C19.6776 89.1281 19.3503 79.3968 19.6776 74.0534C19.7624 72.6674 20.7712 71.4237 21.3222 70.1064C21.8579 68.8253 22.1987 67.4767 22.6921 66.1051C23.3315 64.3276 24.3893 62.8718 26.6326 60.4624C27.406 59.6317 27.7904 58.9214 27.9565 58.6451C29.1249 56.7016 26.2576 63.9506 25.9846 65.6002C25.6063 67.886 25.2709 70.0949 24.9979 71.4122C24.7066 72.8177 24.3959 74.5879 23.9568 76.0714C23.4881 77.6549 23.2973 78.9757 22.6428 80.2931C21.9383 81.7109 20.6725 83.1399 19.6825 84.842C18.8629 86.2511 18.1464 87.2021 17.709 87.5326C16.6441 88.3372 16.7189 83.6069 16.4459 81.4015C16.1484 78.9984 15.844 77.4561 15.8407 70.2396C15.8394 67.3962 16.8275 66.4866 16.8291 65.9389C16.8307 65.3946 15.3013 65.4966 13.9872 65.6051C12.3144 65.7433 11.6798 67.7924 11.1832 69.164C10.6015 70.7704 10.5812 72.8315 10.4151 81.7979C10.3434 85.6685 9.9234 88.7315 9.70302 90.3778C9.31791 93.2547 8.93664 95.4218 8.49753 96.7391C8.2788 97.3953 8.16696 98.0564 8.00415 98.5498C7.93089 98.7718 7.5157 98.7176 7.29368 98.5548C6.26569 97.8009 6.52236 96.0928 5.92208 94.6669C5.18245 92.91 5.31851 91.4879 4.93367 90.1163C4.50132 88.5753 4.54883 86.9948 4.27583 85.4029C3.89455 83.1795 3.89099 80.5348 3.61799 78.2242C3.38807 76.2782 3.56207 82.7419 3.77916 94.4186C3.85306 98.3939 4.43042 98.3887 4.8169 98.2801C6.44308 97.8234 7.28545 95.7639 8.05513 93.6325C9.90332 88.5144 8.49588 85.7976 8.76889 82.8356C9.39413 76.0521 9.15373 73.6275 9.86091 70.8284C11.462 64.491 12.8771 62.9836 14.0283 61.2272C15.2298 59.3941 16.4952 57.609 17.8636 56.2374C19.748 54.3484 21.3172 53.5501 22.9076 52.7262C24.2394 52.0361 25.5932 51.4648 26.9105 51.2428C28.4708 50.9798 31.0599 52.3397 33.1058 53.0485C34.5302 53.5421 34.5859 55.6223 34.9724 56.8311C35.0562 57.0934 35.4608 57.1617 35.7914 57.2176C36.122 57.2735 36.4476 57.2735 36.7239 57.1107C38.061 56.3228 39.079 55.0829 40.1792 54.8609C40.6032 54.7753 39.9638 55.9546 39.9621 56.5565C39.9613 56.8527 40.3946 57.0499 40.7252 57.1074C41.0558 57.165 41.3814 57.0564 41.6034 56.8377C42.5476 55.9075 42.5918 54.6455 43.0836 54.2063C44.0381 53.354 45.2232 55.2934 46.3169 56.0664C47.6342 55.5204 51.3346 55.3 53.5548 54.3182C53.7751 53.9876 53.9922 53.662 54.5448 53.3265" stroke="black" stroke-width="2" stroke-linecap="round"/>
</svg>
