<svg width="145" height="80" viewBox="0 0 145 80" fill="none" xmlns="http://www.w3.org/2000/svg">
<path d="M44.4444 73.4338C39.6519 73.4338 30.607 72.7656 30.5513 71.586C30.5107 70.7252 30.2695 66.2755 30.2138 59.8648C30.191 57.2355 29.932 52.2188 29.9877 44.9643C30.0179 41.0309 30.4923 39.0159 30.4956 37.104C30.4985 35.4897 29.3718 34.291 28.6411 32.9393C27.9544 31.6691 27.7957 30.5751 27.4598 30.1246C27.3088 29.9219 26.9013 30.1195 26.7292 29.8985C26.2397 29.2698 26.6684 28.2127 26.7258 27.8735C26.9446 26.5799 24.5388 30.2275 22.7383 32.1394C21.6301 33.3162 21.6093 34.9525 21.3832 39.1054C21.2723 41.1427 19.8139 42.3774 18.798 43.7291C17.822 45.0277 16.7764 46.4273 16.0963 47.779C15.456 49.0518 15.1969 50.4773 15.0265 53.2296C14.9156 55.0197 14.4072 56.775 14.0714 58.2414C13.7563 59.6171 12.2742 60.6022 11.4288 62.0096C10.9723 62.7694 11.0322 66.7615 10.9208 71.77C10.8862 73.3294 10.5867 72.8803 10.4163 72.4281C10.0844 71.5476 10.0197 68.6211 10.0197 66.3008C10.0197 66.1709 10.0197 69.2151 9.96403 70.4824C9.90834 71.7497 9.79697 71.4156 9.73959 70.2968C9.46829 65.0065 10.2425 63.4304 10.3015 60.8975C10.3265 59.828 8.89923 64.5307 8.33392 66.3413C7.9093 67.7014 7.43449 68.7055 7.15268 68.989C5.15693 70.9967 10.688 62.3032 11.6481 60.9515C11.868 60.642 11.9299 60.2782 11.8203 60.1618C10.9213 59.2075 9.01397 62.1749 6.54181 64.7062C5.15995 66.121 3.61403 66.7919 2.65216 67.2458C1.32253 67.8733 5.62551 66.1236 7.31299 64.9458C7.8053 64.6022 8.21073 64.1054 8.1618 63.8202C7.82687 61.8685 3.28328 64.2067 1.58736 64.6572C1.24182 64.749 0.914058 64.8817 1.02037 64.939C2.5017 65.7385 4.49827 64.4362 5.96469 63.9856C6.30646 63.8806 6.638 63.7612 6.64306 63.7595C6.97212 63.6498 5.63563 64.0953 5.35214 64.264C4.92298 64.5195 6.64137 64.21 7.31468 63.9299C8.67999 63.3619 9.56072 61.4054 10.3555 59.939C11.028 58.6983 11.9299 57.5782 12.3805 56.2266C12.8311 54.8749 13.2799 53.5283 13.6748 51.8982C14.3281 49.2013 14.8527 47.7908 15.418 46.4392C15.9828 45.0887 16.6549 43.7409 17.1611 42.3892C17.7003 40.9495 18.5651 39.6909 19.1304 38.3392C19.7099 36.9537 19.6924 35.3035 20.1429 33.9518C20.6058 32.5631 21.3798 31.2535 22.502 30.2376C23.7064 29.1474 25.2003 28.4388 26.2162 27.2019C27.2472 25.9465 27.7923 24.5036 27.9627 19.2302C28.0335 17.0408 28.8048 15.7287 29.6468 14.4327C30.4896 13.1356 32.2877 13.1367 33.6394 12.6861C36.5246 11.7244 41.066 12.2356 44.9135 12.0668C48.4239 11.9129 55.1092 12.0095 58.7188 12.0651C63.46 12.1383 65.0249 12.5697 67.0482 12.7401C69.327 12.9321 72.2136 13.5822 74.4748 14.0327C76.3808 14.4125 78.1873 14.5947 80.435 14.7651C82.587 14.9283 84.8224 15.2697 87.4094 15.4401C89.2312 15.5601 91.0121 15.9447 99.9271 16.1151C105.062 16.2133 110.59 16.1742 111.208 15.6696C111.825 15.1652 111.944 14.0412 112.111 12.973C112.326 11.5986 118.201 12.0095 121.389 12.6811C123.041 13.0293 123.864 15.0402 124.99 16.1117C126.013 17.0856 126.227 18.7526 127.128 20.1043C128.016 21.4365 129.264 22.4651 130.501 23.7611C131.799 25.1213 133.537 26.2923 134.888 26.9133C136.285 27.5551 137.587 28.0945 138.938 28.8252C140.205 29.5098 141.299 30.457 142.371 31.5235C142.936 32.0859 143.442 32.5934 143.555 33.2667C143.611 33.6012 143.446 33.94 143.221 34.1678C142.232 35.1722 140.638 35.5195 139.286 35.97C137.934 36.4206 136.588 36.8694 135.236 37.32C133.501 37.8984 131.188 37.8819 129.725 38.2768C127.868 38.7778 124.681 38.6717 122.411 38.2802C120.896 38.0189 119.713 37.0989 118.417 36.2569C117.079 35.3879 116 34.399 114.649 33.6683C113.378 32.9816 111.95 32.7115 110.263 32.2609C105.712 31.0459 98.1131 32.1445 96.7614 32.6507C95.3217 33.1899 94.2858 34.2775 93.1603 35.349C92.0628 36.3939 91.4711 37.9899 91.0206 39.3416C90.57 40.6933 90.1211 42.0399 89.6706 43.3916C89.22 44.7432 88.7712 46.0899 88.3206 47.4415C87.87 48.7932 87.1984 50.1398 86.6331 51.5472C86.0015 53.1195 85.7337 54.5273 85.3388 55.9346C84.8952 57.5157 84.7212 58.9147 84.2706 60.3221C83.754 61.9359 83.594 63.9704 83.3138 66.3903C82.9866 69.2171 83.5906 71.2941 84.2639 71.6873C85.5478 72.437 86.9622 72.9816 88.3138 73.7679C89.0133 74.1749 89.6655 74.6691 90.2274 75.1736C90.4971 75.4157 90.5666 75.7895 90.4569 76.1287C90.2088 76.896 89.3348 77.369 88.6615 77.7622C87.0722 78.6903 84.6132 78.3815 79.9001 78.3849C78.8664 78.3856 78.5383 78.0508 78.2548 77.769C77.1577 76.6784 77.1815 72.6778 76.9014 67.9478C76.4863 60.9382 76.9554 55.8874 77.1241 55.047C77.6017 52.6688 77.519 48.6008 77.7991 45.7102C77.9901 43.7395 78.4168 42.3909 78.8116 40.0875C78.9173 39.4711 78.869 38.9079 78.869 39.0666C78.869 41.371 78.086 42.9376 77.8008 44.6842C77.5516 46.2103 77.2963 47.7773 77.1258 55.9076C77.0345 60.2628 76.6213 64.3147 76.4508 66.7868C76.3388 68.4123 75.8315 73.5013 74.657 76.3565C74.4596 76.8366 73.4826 76.4713 73.0269 76.3042C72.2351 76.0139 71.8963 75.1247 71.5031 74.4514C69.966 71.8191 70.8838 66.6906 70.489 65.1719C69.9065 62.9317 69.6486 59.7315 69.3634 57.2407C69.1559 55.4284 68.8589 53.8658 68.6327 45.511C68.5529 42.5604 67.8464 41.0409 67.6759 38.8489C67.6361 38.3361 67.5089 38.0034 67.006 37.8313C64.5019 36.9742 63.0134 38.2194 61.2719 38.6143C57.9172 39.375 52.254 39.0092 49.2841 40.1837C47.2301 40.9959 48.8318 43.9501 48.5517 46.4189C47.7891 53.14 47.8193 55.425 47.5392 56.9471C47.242 58.5622 47.1443 60.5955 46.8642 62.7369C46.396 66.3165 46.4693 68.2465 46.6364 70.2141C46.7284 71.2978 48.5956 71.4088 50.121 72.1361C50.4819 72.3082 50.6273 72.7521 50.6864 73.0913C50.7454 73.4304 50.634 73.7646 49.9641 73.9367C46.582 74.8056 41.7849 73.7713 39.3836 72.7639C38.0698 72.2127 38.7069 62.7149 38.4268 56.9083C38.1986 52.1774 38.0319 46.1506 37.7518 42.3335C37.6322 40.7035 38.2547 39.3534 38.5365 36.3767C38.6974 34.6769 39.7194 33.7274 39.5523 32.8279C39.2929 31.4314 37.2489 30.916 36.6836 29.5643C36.1339 28.2499 35.7842 26.4206 35.3893 24.4479C35.0007 22.5065 34.9945 19.5694 35.7218 17.4701C35.9828 16.7168 37.0161 16.623 38.2462 16.4543C40.5691 16.1356 42.3046 16.731 42.8092 17.3486C43.7672 18.5213 44.3296 19.7651 44.5557 22.2373C44.6434 23.1959 45.2307 23.8185 45.5665 24.4918C46.314 25.9904 48.7069 25.8468 50.6745 25.6798C52.512 25.5237 52.9898 23.1536 54.2824 21.4661C55.6658 19.66 56.4795 18.4286 57.0414 17.1327C57.6524 15.7234 59.9624 16.1742 61.8744 16.1708C62.7303 16.1693 63.3408 17.0685 63.9027 17.7418C65.1597 19.248 64.1339 22.1276 63.6277 23.4793C63.0885 24.9189 60.8872 27.2913 59.2419 29.161C58.1779 30.3701 56.601 31.0173 55.1936 31.9184C53.6656 32.8967 51.9908 33.3797 49.4089 33.8894C43.8792 34.9808 42.4261 33.3865 41.0745 32.8802C39.5423 32.3064 36.0339 31.9217 33.6495 31.5303C32.1903 31.2907 32.0717 29.2285 31.2854 27.8769C30.4493 26.4398 30.0468 24.8411 29.5962 23.4894C29.1121 22.0371 28.9195 18.0034 29.9269 15.5009C30.4741 14.1417 32.6252 14.4867 35.6576 14.3162C37.3958 14.2186 38.9229 13.4742 41.5655 13.3038C43.4656 13.1812 48.5618 12.6844 51.9199 13.3004C53.6025 13.609 54.9 14.4799 55.9715 15.7725C57.2467 17.3107 58.8352 18.6379 60.4704 20.3844C61.5562 21.5442 61.8794 23.1401 62.33 24.4918C62.7929 25.8805 63.5669 27.19 64.3533 28.5417C65.1584 29.9256 66.7124 30.6798 69.4647 32.0854C71.0636 32.9021 72.4498 33.4945 74.0816 33.6649C75.751 33.8393 81.0762 34.2842 84.2639 33.9484C85.8656 33.7797 87.2997 32.1512 88.5956 31.1944C89.2371 30.7209 89.4428 29.9001 89.6115 28.7813C89.9114 26.7932 89.0006 24.8411 87.8211 23.7729C86.5282 22.6021 84.9507 22.0264 83.3189 21.461C81.8205 20.9419 80.2257 20.5616 78.8184 20.1111C77.1021 19.5616 75.5008 19.2116 66.5858 19.0412C64.697 19.0051 64.3634 18.8741 64.1913 18.594C64.0192 18.3139 64.0192 17.8684 64.409 17.2491C65.3802 15.706 66.7158 14.8242 67.4447 14.4867C68.9412 13.7939 71.5386 14.0344 73.464 14.6504C74.1592 14.8728 74.7043 15.381 75.1532 16.0543C75.602 16.7277 75.8315 18.1856 75.6645 20.0959C75.4595 22.4392 73.3611 23.4776 72.1241 24.5491C70.7665 25.7252 69.6486 26.8526 68.6918 28.427C67.107 31.0348 67.0566 35.7152 68.3442 38.5536C69.0359 40.0784 78.6733 39.6842 83.9264 39.2927C85.5154 39.1742 86.6247 37.5512 87.9207 36.3143C89.1436 35.147 89.2166 33.0557 89.6672 31.5893C90.1083 30.1537 90.2291 28.5535 90.3996 26.6416C90.5344 25.1294 91.2416 23.8286 92.0837 22.5326C92.9265 21.2355 94.7246 21.0139 96.0763 20.3929C96.784 20.0677 97.4279 19.5491 98.1569 19.2116C98.5301 19.0389 98.9973 19.0969 99.2825 19.2639C100.433 19.9381 100.354 21.7901 100.805 23.1418C101.255 24.4935 101.927 25.8401 103.108 26.9116C104.289 27.9832 105.524 28.7695 107.156 28.94C107.902 29.0178 109.011 29.2218 110.248 29.0547C112.619 28.7344 111.154 22.9308 111.66 21.1286C112.171 19.3093 112.956 18.2025 112.789 17.3031C112.719 16.9284 112.288 16.8492 112.171 16.9588C111.339 17.7431 113.064 19.4276 114.411 20.6122C115.757 21.7969 117.678 20.5616 118.295 20.0571C119.543 19.0381 120.152 17.4161 120.214 14.4394C120.228 13.79 119.713 13.5889 119.763 13.5299C120.664 12.4797 122.399 14.9322 123.751 15.6629C125.103 16.3935 125.781 17.9629 126.453 19.4293C127.105 20.8526 128.137 22.1276 129.153 23.4793C130.115 24.7592 131.512 25.6173 132.863 26.2383C134.311 26.9035 135.562 27.9798 136.913 28.8809C138.265 29.782 139.612 30.457 140.963 31.2434C141.663 31.6503 142.315 32.1445 142.877 32.6491C143.147 32.8912 143.216 33.265 143.106 33.4928C142.211 35.3522 137.938 33.724 136.53 33.2734C134.814 32.724 132.767 32.5967 131.13 32.2609C129.389 31.9037 127.59 31.699 126.124 31.2484C124.688 30.8074 123.088 30.4638 121.736 29.8985C120.25 29.277 118.697 29.6706 118.024 29.7837C117.689 29.8399 117.35 29.674 117.791 29.6166C121.026 29.1952 122.845 29.8968 124.426 30.2326C125.895 30.5446 127.462 30.7945 128.813 31.2451C130.165 31.6956 131.512 32.1445 132.975 32.5394C134.831 33.0404 136.237 33.157 137.868 33.3274C139.323 33.4794 140.401 33.9467 141.132 33.7797C142.432 33.4824 141.981 31.3649 141.814 30.4098C141.539 28.8389 139.288 28.4388 137.936 27.8735C136.585 27.3087 135.238 26.6366 133.886 26.1303C132.394 25.5714 131.188 24.1661 130.172 22.8144C129.231 21.563 128.933 20.1161 127.867 17.9241C127.052 16.2498 125.673 15.0537 124.492 14.2622C123.267 13.4417 122.075 12.5764 118.763 12.4583C116.794 12.3881 116.108 14.3686 115.938 14.9305C115.789 15.4225 117.782 15.3844 119.358 15.1617C119.867 15.0899 119.598 14.4934 119.094 14.2639C118.589 14.0344 117.809 14.0344 117.575 14.0901C117.386 14.135 118.464 14.3719 118.972 14.3162C119.289 14.2815 117.911 14.0344 117.458 14.0344C117.452 14.0344 117.897 14.0344 117.96 14.0901C118.022 14.1458 117.688 14.2572 117.683 14.3702C117.632 15.5109 120.931 14.3719 122.62 14.3162C123.087 14.3008 122.75 14.1492 122.411 14.0361C121.059 13.5856 119.713 12.9139 117.693 12.4043C116.715 12.1575 115.015 12.347 114.099 12.1799C113.182 12.0128 113.071 11.6787 112.958 11.3395C112.507 9.98785 112.058 8.64124 111.777 7.00944C111.478 5.28137 109.25 4.59128 107.899 3.57542C106.647 2.63488 104.309 2.11406 102.163 1.54875C97.6081 0.349159 90.0131 1.43231 88.5501 1.82718C88.1116 1.94554 87.5427 1.88456 87.4229 1.94025C86.5383 2.35138 89.6621 3.00505 90.3979 4.24197C91.5327 6.14988 90.7961 9.30273 90.8484 12.2795C90.8793 14.0366 93.3746 14.2572 94.7263 14.7077C96.0779 15.1583 97.6473 15.3844 99.4479 15.6645C102.459 16.133 104.728 16.0594 106.819 16.6753C108.341 17.1239 109.129 18.7526 110.251 19.7128C110.54 19.9596 110.924 19.9946 111.152 19.7736C111.761 19.1826 111.606 16.5285 111.439 13.5484C111.378 12.4507 110.938 12.239 109.819 12.1242C104.55 11.5838 101.616 12.347 99.5727 11.6196C97.5726 10.9078 99.3415 6.95038 99.8461 6.38845C101.63 4.40203 106.537 6.15726 108.224 7.05501C109.276 7.61449 110.027 8.40837 110.813 8.74418C111.377 9.30273 111.606 10.3152 111.718 11.4948C111.829 12.0061 112.052 12.3402 112.281 13.0219" stroke="black" stroke-width="2" stroke-linecap="round"/>
</svg>
