<svg width="215" height="146" viewBox="0 0 215 146" fill="none" xmlns="http://www.w3.org/2000/svg">
<path d="M190.98 50.5788C185.74 50.5788 180.621 48.6317 175.455 47.9047C165.234 46.4662 155.174 45.8424 144.852 45.8991C131.18 45.9742 111.17 46.9471 103.403 60.7552C100.302 66.2688 100.729 73.2298 100.729 79.3252C100.729 85.9686 100.734 92.2639 104.74 97.8953C115.257 112.68 136.867 113.42 153.468 113.42C172.463 113.42 195.424 109.268 206.356 91.6557C211.525 83.327 213.041 76.3012 213.041 66.6233C213.041 61.1995 215.018 50.3789 209.03 47.3847C201.965 43.8522 194.768 47.9047 187.488 47.9047C183.588 47.9047 180.077 49.9103 176.272 49.9103C171.58 49.9103 166.888 49.9103 162.196 49.9103C152.63 49.9103 142.988 49.98 133.45 50.6159C128.311 50.9585 123.441 53.1351 118.259 53.2529C115.286 53.3205 112.656 52.5843 109.569 52.5843C107.503 52.5843 108.647 51.9688 108.751 50.4302C109.275 42.7572 114.91 33.7796 118.334 27.0691C119.727 24.3378 120.602 21.3763 122.159 18.7497C123.432 16.6017 124.557 11.9954 126.467 10.4675C126.891 10.1281 127.282 7.3866 128.436 8.87044C129.359 10.0574 129.727 12.2391 130.441 13.5872C132.753 17.9499 135.031 22.3414 137.424 26.6606C141.671 34.3289 145.928 41.6173 150.497 49.0932C151.396 50.565 151.914 50.1811 153.245 49.576C157.519 47.6334 163.418 48.5732 167.953 48.5732C172.504 48.5732 176.979 50.5788 181.62 50.5788C182.802 50.5788 182.264 47.639 182.289 46.939C182.567 39.1463 187.942 31.8381 191.24 24.9892C194.273 18.6898 195.468 11.5179 198.63 5.19357C198.809 4.83582 200.041 1.23404 200.302 2.14808C201.234 5.41104 200.256 9.93108 200.487 13.2901C201.162 23.0702 201.676 32.7571 201.676 42.5565C201.676 44.3675 200.7 48.5732 203.013 48.5732C204.31 48.5732 209.903 47.7379 210.887 48.7218C212.433 50.2676 211.704 54.9825 211.704 56.8926C211.704 60.1134 211.697 63.1432 210.998 66.289C210.259 69.6165 194.727 71.7173 191.648 70.4859C189.071 69.455 186.323 68.6442 183.626 67.9604C182.174 67.5922 174.318 64.4922 173.227 65.5834C171.542 67.2684 173.404 73.9132 174.267 75.6855C175.612 78.4502 178.875 77.1508 180.618 75.5369C182.546 73.7517 187.353 68.7578 186.226 65.6577C185.807 64.5076 182.848 64.1328 181.992 64.9891C179.032 67.949 185.631 75.3198 185.631 69.8916C185.631 68.6059 184.518 62.0018 181.992 62.7236C181.172 62.9577 179.806 69.2257 179.652 70.2259C179.385 71.9618 181.411 71.3075 181.583 69.9288C182.035 66.3176 177.157 65.2525 174.415 66.1033C168.179 68.0387 180.277 73.4301 179.466 71.9715C179.035 71.1951 174.645 67.969 173.747 68.7774C171.702 70.6174 177.357 74.9757 178.538 75.6112C180.241 76.5282 176.272 64.423 176.272 72.9C176.272 75.3866 177.863 74.3954 178.612 72.5657C179.107 71.3546 180.065 69.0117 179.318 67.7375C179.096 67.3599 176.569 66.5948 176.569 66.7719C176.569 68.1426 181.877 67.9604 180.506 67.9604C179.508 67.9604 175.901 68.1402 175.901 69.8174C175.901 70.6398 178.66 69.0944 176.124 70.6344C173.755 72.0727 170.979 72.64 168.25 72.64C163.803 72.64 158.543 73.4815 154.211 72.4914C150.73 71.6958 148.172 70.6344 144.554 70.6344C143.061 70.6344 137.445 70.6344 141.843 70.6344C143.08 70.6344 143.247 69.1039 142.438 68.2946C139.801 65.6581 132.698 66.1514 129.624 67.4404C128.03 68.1087 124.939 71.1201 126.43 73.16C128.067 75.4005 133.036 75.3141 135.492 75.3141C136.548 75.3141 138.166 75.2917 138.166 73.8285C138.166 69.9385 130.608 71.303 128.25 71.303C119.12 71.303 135.079 76.7216 137.795 75.9455C139.52 75.4526 134.269 71.3223 133.895 71.0058C130.986 68.5441 134.091 72.4395 135.195 73.2342C143.427 79.161 140.35 69.3717 136.198 69.3717C133.788 69.3717 133.001 73.5253 133.858 75.2398C134.44 76.4041 138.227 76.544 138.686 75.1655C139.907 71.5046 137.025 66.1864 132.967 66.2519C126.759 66.352 124.495 77.936 123.756 82.3707C123.481 84.0208 122.828 92.4451 126.95 89.0559C132.132 84.7952 134.34 72.401 133.115 66.1033C132.69 63.918 130.504 61.8635 130.85 65.3234C131.052 67.3456 132.348 69.4529 134.49 69.9288C135.726 70.2034 135.904 68.1798 135.084 67.9975C132.779 67.4852 132.248 71.1224 132.967 72.64C135.566 78.1276 138.761 68.8412 139.355 68.926C140.763 69.1271 138.835 71.738 138.835 73.16C138.835 74.8384 138.93 71.2999 138.315 72.12C138.246 72.2116 144.838 77.8431 142.995 76.5026C138.383 73.149 137.316 78.5492 136.866 82.5936C136.576 85.2064 138.803 85.018 140.952 85.7133C144.549 86.8771 146.728 88.9185 149.828 90.6901C150.572 91.1149 150.23 92.6456 151.128 93.3642C151.333 93.5283 149.137 94.6872 148.714 94.8498C148.035 95.111 144.127 97.639 143.663 97.2268C142.623 96.3021 144.179 95.1525 144.852 94.8498C148.786 93.0795 152.961 91.9651 156.885 90.0216C160.829 88.0681 166.008 84.0049 170.59 84.0049C173.098 84.0049 177.64 87.4392 178.946 89.7245C181.097 93.4887 183.322 96.3921 178.909 98.3781C170.651 102.094 161.564 101.386 152.725 101.386C150.295 101.386 139.917 102.227 139.503 98.7124C139.372 97.5967 138.568 96.9179 138.018 96.0383C137.004 94.416 137.084 96.2026 137.795 96.5582C138.272 96.7965 147.374 97.8561 144.183 98.0438C142.672 98.1327 141.086 98.0835 139.578 98.0438C133.737 97.8901 127.994 96.4668 122.308 95.2583C106.42 91.8821 90.6205 88.1486 74.8054 84.4506C66.5496 82.5201 58.3284 80.3846 49.9958 78.8053C49.108 78.637 44.4148 78.4177 44.0162 77.0225C43.7032 75.9271 46.3804 77.3419 46.616 77.6168C48.454 79.761 54.9506 76.197 56.6067 75.277C60.684 73.0118 63.5755 70.0549 64.9632 65.5834C65.4424 64.0394 65.966 62.3903 65.966 60.7552C65.966 60.357 65.5731 59.9266 65.7432 59.9752C69.6603 61.0944 72.7876 61.9573 75.9567 58.4153C81.3164 52.4251 80.5314 41.6917 79.0022 34.3857C78.6706 32.8013 76.4492 30.2189 77.4794 31.0431C77.7243 31.239 78.7925 31.3147 78.4822 30.746C77.2343 28.4581 72.8471 27.7725 70.6457 27.3291C67.2757 26.6502 58.4578 24.2895 55.4182 27.3291C55.1005 27.6468 57.3096 28.2732 57.7952 27.1805C59.4255 23.5124 48.8445 23.1694 47.3588 23.1694C46.5505 23.1694 42.3214 22.9798 44.9447 24.1722C45.079 24.2332 47.0596 24.7224 46.9503 24.3579C46.5592 23.0544 41.4119 21.817 40.4508 21.4238C37.195 20.0919 25.9834 14.0112 22.3264 16.8556C21.0801 17.8249 25.6355 21.9414 26.2261 22.5009C27.9684 24.1515 23.0338 24.5969 21.8436 25.1749C17.9414 27.0703 14.5226 29.554 13.4499 34.0143C12.8735 36.4108 11.136 41.967 14.3413 43.0765C16.754 43.9116 15.662 42.4598 13.6727 43.6707C9.15979 46.4177 -5.20117 65.2863 6.46756 65.2863C10.8425 65.2863 8.01058 74.3033 7.80461 77.0968C7.33018 83.5312 6.99879 89.9926 7.17322 96.4468C7.19596 97.2879 6.91583 103.075 8.17601 103.615C8.61111 103.801 10.9185 98.2761 8.43599 104.172C5.68652 110.702 4.28146 120.041 7.58177 126.642C9.46717 130.413 14.3157 132.697 18.4267 131.099C19.0251 130.866 19.9694 129.65 20.6551 129.91C23.6547 131.048 26.6809 135.379 29.1973 137.338C30.6461 138.466 42.7233 147.222 44.4248 143.355C44.9645 142.128 44.098 140.581 45.3904 139.641C47.932 137.792 55.3102 139.856 58.4637 139.047C61.7631 138.2 64.1198 135.781 66.1889 133.216C67.03 132.173 67.9716 128.273 67.9716 129.613C67.9716 133.318 72.2827 135.125 75.6224 134.664C81.5635 133.845 78.3711 124.554 76.6624 121.516C74.9076 118.397 73.837 118.343 77.3309 118.731C82.1858 119.27 79.8811 105.418 79.6336 102.872C79.5597 102.112 78.5431 91.812 75.6967 93.4385C74.362 94.2012 75.3253 97.556 75.3253 91.0986C75.3253 85.1298 76.1177 64.8653 66.486 74.497C64.8239 76.1591 56.2094 71.303 53.4127 71.303C49.4626 71.303 46.0708 73.3085 42.4935 73.3085C37.1376 73.3085 30.9884 74.1392 25.8547 72.3057C22.985 71.2808 22.1937 68.6076 20.2094 66.6233C19.2053 65.6192 17.3561 65.8498 16.644 65.1377C15.5766 64.0703 17.4777 63.0575 17.6839 62.3151C19.0857 57.2684 18.9797 49.9277 21.8436 45.3792C25.4851 39.5955 27.5668 50.5394 29.0487 53.1043C33.4104 60.6533 34.4122 46.8264 35.5483 43.6707C36.7196 40.417 37.2196 44.1906 37.2196 45.602C37.2196 49.5884 37.2196 53.5747 37.2196 57.5611C37.2196 58.1179 36.7189 62.3259 37.591 62.575C39.8887 63.2315 42.193 63.2807 44.5733 63.2807C49.0585 63.2807 51.4515 55.7754 51.2585 51.9158C51.0835 48.4144 43.3107 46.1753 41.565 49.2789C41.2159 49.8995 37.5603 56.6451 39.5965 57.2269C40.8161 57.5753 43.8126 58.6529 44.5733 59.6038C45.6948 61.0057 49.6119 60.4085 51.2585 60.6437C54.7347 61.1404 55.5433 61.8112 57.9438 59.2696C60.3658 56.705 62.4328 55.7278 62.6234 51.9158C62.7368 49.6477 60.6043 45.9642 58.3152 48.9075C57.7718 49.6061 55.1609 54.8931 56.3096 55.2213C58.7175 55.9093 59.288 57.1118 56.6067 58.4525C54.392 59.5599 56.1544 59.3206 56.4581 60.3838C56.9492 62.1025 56.279 65.666 55.4182 67.2918C54.7919 68.4749 53.5246 68.0621 52.7441 68.7774C49.9468 71.3417 47.4047 75.1282 45.0933 78.1367C39.9699 84.8052 36.2546 92.5123 32.02 99.7523C30.5889 102.199 28.0816 105.232 27.8603 108.22C27.5961 111.787 26.0838 115.865 23.5149 118.434C22.8992 119.049 21.8436 121.059 21.8436 119.028C21.8436 115.248 21.4041 111.184 22.215 107.477C22.4691 106.316 24.915 98.7884 27.1917 102.204C28.2453 103.784 31.4482 113.712 34.3969 113.123C35.894 112.823 37.0304 99.6547 37.2196 98.341C37.5484 96.0578 37.2561 92.7416 38.2224 90.6158C38.2803 90.4883 39.4281 94.2582 39.5594 94.8127C41.128 101.436 40.7672 108.003 41.6021 114.683C41.9947 117.824 41.8508 121.442 45.6132 121.442C48.4037 121.442 51.4159 122.374 52.9298 119.585C55.0244 115.727 57.6955 106.084 55.084 102.166C53.8759 100.354 50.5509 99.5785 48.5102 100.198C46.2065 100.897 45.3877 106.51 44.6847 108.443C42.946 113.225 46.9549 113.597 48.5102 117.097C50.0784 120.625 51.1007 120.406 54.6011 121.962C57.8473 123.405 61.9459 120.742 64.629 119.437C67.0335 118.267 67.9259 117.397 67.9716 114.608C68.0212 111.579 68.7733 107.368 67.9344 104.432C67.6668 103.495 63.1102 104.061 62.4006 104.061C60.1939 104.061 61.4319 109.425 61.6206 110.709C61.9405 112.884 61.1293 116.59 62.3263 118.471C64.1562 121.347 66.2361 123.718 68.6401 126.122" stroke="black" stroke-width="3" stroke-linecap="round"/>
</svg>
