<svg width="249" height="235" viewBox="0 0 249 235" fill="none" xmlns="http://www.w3.org/2000/svg">
<path d="M246.947 222.775C244.814 222.775 244.813 220.345 243.062 219.444C241.174 218.473 238.741 218.936 236.71 218.458C232.013 217.352 227.517 219.736 223.018 220.554C219.23 221.243 215.535 220.836 211.732 221.14C209.435 221.324 206.553 222.715 204.455 223.638C199.361 225.879 193.689 228.325 187.988 228.325C185.574 228.325 183.251 228.17 180.896 227.647C178.349 227.081 177.91 225.988 175.9 224.872C171.341 222.339 169.972 216.846 166.464 213.339C160.785 207.659 159.804 198.141 159.804 190.458C159.804 185.599 159.333 179.731 160.636 175.04C162.438 168.555 164.229 161.553 164.768 154.811C165.243 148.881 163.134 143.561 163.134 137.728C163.134 131.837 165.972 126.299 168.993 121.447C170.267 119.401 170.178 116.332 170.782 113.984C171.425 111.484 172.57 109.214 172.57 106.553C172.57 103.541 177.01 101.612 177.01 98.7203C177.01 95.8416 178.898 92.6092 180.217 90.1169C182.583 85.6494 188.395 82.2431 189.191 77.0732C189.481 75.1841 189.222 73.0945 189.222 71.1835C189.222 66.9241 188.675 65.9228 191.319 62.3643C192.222 61.148 191.58 58.4097 191.319 56.9371C190.873 54.4302 190.887 52.0206 190.887 49.4747C190.887 45.046 190.887 40.9769 190.887 36.5543C190.887 34.5877 193.375 34.174 194.217 32.6998C194.811 31.6606 193.169 30.4146 193.169 29.1228C193.169 27.3474 198.378 29.4306 199.213 29.6161C202.368 30.3173 204.794 29.6161 207.97 29.6161C210.745 29.6161 211.166 30.2999 213.644 29.0611C215.575 28.0955 217.927 27.8312 219.75 26.7175C223.316 24.5383 224.655 20.0117 226.688 16.8499C228.274 14.3818 226.613 7.6217 223.758 6.73563C220.571 5.74643 216.718 5.46281 213.397 5.87221C209.31 6.37618 203.913 6.50231 200.076 8.24661C198.988 8.7411 198.212 9.28592 196.992 9.63424C196.147 9.87569 195.184 10.3943 194.556 11.0219C194.297 11.2816 194.217 12.4376 194.217 12.0703C194.217 10.8979 197.24 9.07919 196.067 9.07919C193.994 9.07919 192.77 10.3579 190.887 11.2994C187.195 13.1456 182.658 11.0063 180.464 7.96908C177.909 4.43181 173.734 1.21141 168.931 2.17186C164.65 3.02806 161.385 6.46154 157.399 8.21577C155.315 9.13236 153.438 10.5129 151.447 11.6078C148.393 13.2878 145.951 14.6297 142.351 14.6297C140.289 14.6297 138.309 13.0488 136.245 12.5328C133.534 11.855 131.901 10.1103 128.844 9.75758C124.805 9.29154 122.269 9.55484 119.007 11.8236C117.036 13.1951 114.686 13.2444 114.32 15.9865C113.967 18.6371 113.788 20.0656 115.523 22.4005C117.591 25.1845 124.818 26.5488 128.166 27.2726C129.752 27.6155 131.142 26.8409 132.73 26.8409C134.999 26.8409 137.078 26.7706 139.267 27.3959C140.729 27.8136 141.924 27.7136 143.399 27.9818C144.677 28.2141 145.968 31.1154 146.76 32.0831C148.797 34.5731 148.703 36.6259 148.703 39.7304C148.703 46.6947 149.33 53.4599 146.483 59.8665C145.411 62.2785 144.65 63.4049 144.817 66.2497C145.038 70.0065 150.799 68.4699 152.835 68.4699C155.178 68.4699 157.522 68.4699 159.866 68.4699C160.898 68.4699 161.91 67.9765 162.857 67.9765C163.525 67.9765 163.875 68.8503 164.522 68.9941C165.505 69.2126 166.961 69.1824 167.698 68.5932C169.607 67.066 172.57 67.0456 172.57 64.0294C172.57 59.9688 167.371 57.0203 164.244 55.457C160.512 53.5907 155.563 53.0603 151.478 53.5143C147.739 53.9297 148.888 58.7287 153.143 56.9371C155.808 55.8152 159.577 57.3688 162.302 57.3688C164.05 57.3688 166.708 59.7622 164.244 61.1308C162.926 61.8629 161.346 62.2706 159.927 62.796C156.443 64.0863 161.531 62.6434 161.531 61.9326C161.531 61.8175 158.212 63.193 158.139 65.0162C158.087 66.2989 157.483 64.1357 158.971 63.4744C160.947 62.5961 164.294 62.1696 163.658 59.3115C163.156 57.0524 157.558 55.8785 155.795 56.382C154.443 56.7684 146.484 56.8179 147.716 59.589C148.582 61.5386 150.981 59.7781 151.91 60.8225C151.979 60.9009 151.52 63.9428 150.923 63.1969C150.586 62.7751 148.753 61.3158 149.844 61.3158C150.714 61.3158 154.504 62.3643 151.601 62.3643C148.646 62.3643 148.935 59.3243 147.593 57.6463C146.195 55.8996 145.206 60.6563 144.817 61.5317C143.833 63.7461 143.535 68.2639 147.038 68.4699C149.131 68.593 153.143 68.0188 153.143 70.9368C153.143 73.8139 158.414 71.8002 160.359 71.8002C163.017 71.8002 166.128 70.6885 168.685 70.0117C170.464 69.5406 172.052 68.1739 173.68 67.3598C175.347 66.5261 176.381 65.4023 177.812 64.5845C180.109 63.2722 183.331 59.6491 184.103 57.1221C184.744 55.0227 185.462 53.2329 186.446 51.2632C187.187 49.7825 188.667 47.8782 188.667 46.2369C188.667 45.8411 189.017 41.7269 189.499 41.9198C190.521 42.3285 191.442 45.2313 191.442 46.2677C191.442 47.7507 190.887 49.1293 190.887 50.7082C190.887 52.4699 190.092 52.6279 189.345 54.0385C186.538 59.3411 182.645 63.0937 178.953 67.6065C176.389 70.741 168.117 77.6734 163.689 75.8089C161.973 75.0864 159.591 76.4352 158.015 75.2539C156.883 74.4046 155.633 74.0204 154.253 74.0204C152.322 74.0204 152.707 75.2493 153.976 76.5181C155.176 77.7186 155.571 79.532 156.72 80.681C158.969 82.9296 161.368 84.8787 162.456 88.0201C163.087 89.8429 163.844 91.2284 164.676 92.8922C165.228 93.9954 165.049 95.4504 165.632 96.5001C166.9 98.7823 167.575 101.663 167.575 104.271C167.575 106.357 168.503 111.303 167.02 112.874C161.247 118.987 152.736 121.71 146.236 127.028C145.48 127.646 141.963 129.998 142.135 130.944C142.461 132.738 144.845 132.928 146.174 132.856C150.161 132.641 153.696 128.926 156.227 126.165C161.245 120.69 167.893 117.59 171.46 110.654C173.308 107.061 175.785 102.343 175.9 98.196C175.98 95.3228 175.9 92.4363 175.9 89.5619C175.9 88.3527 174.79 84.899 174.79 86.1082C174.79 90.0046 174.501 94.1981 170.658 95.945C169.289 96.5672 173.178 96.1694 173.958 95.3899C174.923 94.4251 175.612 92.8307 176.455 91.6588C178.031 89.4703 181.925 88.6774 182.53 85.954C182.778 84.8371 182.006 82.8104 182.006 81.5136C182.006 79.941 182.006 78.3683 182.006 76.7957C182.006 74.2582 183.849 72.0415 184.658 69.7033C185.41 67.531 188.882 65.4781 188.081 62.6726C187.278 59.8642 187.001 68.4476 187.001 71.3685C187.001 73.6934 186.074 75.1201 185.46 77.2274C185.126 78.3714 186.857 76.5725 187.001 76.364C187.256 75.997 187.549 74.6219 187.834 75.1922C190.237 79.9972 183.227 84.6919 181.883 88.5751C181.689 89.1331 180.587 90.0492 180.587 90.5486C180.587 90.7754 181.702 90.6147 181.883 90.7953C182.513 91.4261 182.006 94.5045 182.006 95.3591C182.006 98.2685 180.643 100.717 180.341 103.438C179.868 107.691 174.996 114.209 171.46 116.482C170.24 117.266 170.228 118.401 168.931 119.226C167.802 119.945 165.947 120.7 165.354 122.032C164.806 123.267 163.481 123.684 162.857 124.808C161.936 126.465 160.518 127.939 159.372 129.526C154.129 136.786 149.839 146.802 148.734 155.644C147.944 161.963 147.44 171.778 154.007 174.763C156.47 175.882 160.914 174.508 160.914 171.494C160.914 170.397 160.629 173.677 160.328 174.732C160.151 175.353 156.466 175.147 155.918 174.917C152.461 173.461 151.356 172.945 149.258 169.613C146.97 165.979 144.262 162.199 144.262 157.803C144.262 155.227 143.354 152.616 143.985 150.094C144.521 147.95 145.658 145.549 145.897 143.402C146.122 141.378 146.689 138.725 147.87 137.019C148.544 136.046 148.532 134.986 149.042 133.966C149.592 132.865 150.638 132.247 151.046 131.068C151.462 129.866 153.452 126.836 153.452 128.107C153.452 128.784 151.943 130.181 151.601 130.759C150.696 132.292 149.752 134.045 149.011 135.662C147.825 138.25 146.665 141.439 145.928 144.204C144.867 148.179 143.936 143.702 143.584 142.292C143.205 140.775 142.305 138.687 141.61 137.296C140.569 135.215 143.641 141.63 143.707 143.957C143.829 148.201 143.093 152.81 143.738 157.001C144.29 160.588 146.655 163.431 147.593 166.714C148.801 170.942 148.148 174.336 148.148 178.802C148.148 189.962 148.703 201.003 148.703 212.167C148.703 215.042 149.527 220.594 151.478 222.775C153.709 225.268 154.62 228.71 157.892 230.237C160.985 231.681 163.718 232.503 166.742 230.823C170.306 228.843 170.35 227.75 170.35 223.885C170.35 221.768 168.021 219.651 167.544 217.502C167.315 216.472 166.538 215.512 165.909 214.726C165.577 214.31 164.172 215.735 163.689 215.991C160.459 217.701 156.753 218.692 153.143 219.568C151.548 219.954 156.868 220.165 158.139 219.136C159.411 218.106 161.728 218.014 162.826 216.916C163.657 216.085 163.531 218.873 163.72 219.722C163.997 220.968 165.282 222.035 165.354 223.33C165.471 225.434 164.603 231.608 165.385 229.651C165.953 228.231 166.566 227.861 165.909 226.382C165.357 225.139 164.799 223.563 164.799 222.189C164.799 218.001 163.263 214.446 158.94 216.669C156.374 217.989 149.775 219.825 148.579 216.237C146.894 211.18 148.148 206.424 148.148 201.189C148.148 195.291 145.928 189.802 145.928 183.921C145.928 178.693 148.703 174.361 148.703 169.058C148.703 163.71 143.707 161.897 143.707 156.723C143.707 153.944 142.708 148.702 143.831 146.177C144.599 144.448 145.581 143.059 146.051 141.182C146.494 139.408 146.404 137.549 147.315 135.909C147.949 134.767 148.5 133.395 148.117 132.054C147.821 131.018 145.347 132.239 144.817 132.239C144.654 132.239 139.588 129.623 139.39 129.402C138.507 128.421 141.026 126.907 141.364 126.195C141.774 125.329 141.987 123.306 142.042 122.31C142.116 120.982 143.152 119.859 143.152 118.425C143.152 117.114 142.623 114.29 143.461 113.213C143.975 112.552 144.937 113.102 145.588 112.812C146.182 112.549 147.014 110.677 147.562 110.13C149.139 108.553 150.033 106.325 151.478 104.795C153.871 102.261 153.698 98.8248 153.698 95.3899C153.698 91.894 151.811 90.4181 150.615 87.3417C149.431 84.2977 148.819 82.2503 145.928 80.8044C144.518 80.0997 142.042 77.3233 142.042 75.6856C142.042 74.4028 141.312 72.4782 141.61 71.3685C142.449 68.2532 141.487 73.2381 141.487 74.0204C141.487 79.7908 146.187 80.5181 148.949 84.5356C149.553 85.4137 150.923 85.9526 150.923 87.095C150.923 89.3792 151.968 91.6743 152.033 94.0023C152.133 97.583 154.804 103.184 152.28 106.429C151.184 107.838 149.436 108.394 148.394 110.099C147.055 112.29 144.62 114.216 142.165 114.971C138.552 116.083 139.159 119.702 138.033 122.742C137.48 124.237 136.492 125.657 136.492 127.305C136.492 128.619 137.047 129.62 137.047 130.913C137.047 134.85 137.161 138.328 138.033 142.169C139.228 147.423 141.487 152.941 141.487 158.358C141.487 161.46 140.985 162.734 139.544 165.327C138.88 166.523 138.786 167.896 137.602 168.657C136.206 169.554 136.23 171.317 135.382 172.697C134.09 174.795 133.997 179.237 133.747 181.732C133.268 186.526 135.033 191.225 133.84 196.132C132.689 200.862 131.35 204.496 132.483 209.453C133.259 212.85 134.826 216.201 134.826 219.753C134.826 222.642 135.818 227.327 133.963 229.713C130.549 234.102 131.847 226.201 131.064 224.44C130.725 223.676 129.57 218.531 128.166 220.678C126.845 222.697 128.721 226.686 128.721 229.158C128.721 230.742 128.579 230.933 127.333 231.902C125.495 233.332 125.302 232.012 123.725 231.224C122.095 230.409 118.686 231.595 118.144 229.158C117.616 226.783 116.626 224.57 115.955 222.22C115.227 219.675 116.323 221.553 117.651 222.466C119.657 223.846 123.267 223.6 124.404 221.233C124.849 220.306 131.285 217.075 126.809 219.444C124.043 220.909 119.648 223.266 117.373 219.691C115.495 216.74 118.314 214.199 119.562 211.951C120.877 209.584 122.06 205.528 122.06 202.793C122.06 195.649 124.835 188.637 124.835 181.454C124.835 180.054 125.969 176.166 125.267 175.163C125.226 175.105 129.187 175.12 130.078 174.917C131.971 174.484 134.548 173.653 135.937 172.265C137.424 170.777 132.073 173.934 130.139 174.763C128.253 175.571 122.476 175.658 120.703 174.207C119.355 173.104 118.73 172.282 118.73 175.04C118.73 177.297 118.81 179.569 118.73 181.824C118.46 189.375 117.701 197.173 115.677 204.458C114.737 207.844 113.734 211.476 113.734 215.004C113.734 217.914 115.4 220.777 115.4 223.638C115.4 224.723 115.218 225.968 115.43 227.03C115.693 228.341 115.955 224.39 115.955 223.052C115.955 218.907 115.4 214.794 115.4 210.625C115.4 207.558 115.165 204.401 115.43 201.343C115.764 197.51 117.065 194.156 117.065 190.15C117.065 184.703 117.262 177.82 118.761 172.573C119.61 169.601 119.27 165.233 120.95 162.397C122.455 159.858 122.452 155.779 122.615 152.838C122.926 147.239 124.977 143.992 121.228 138.992C119.467 136.645 121.442 131.624 121.505 128.847C121.552 126.791 122.035 125.64 119.84 125.64C117.977 125.64 117.887 123.351 116.448 124.869C109.004 132.727 114.859 120.318 113.488 119.535C111.969 118.667 112.568 118.53 110.682 118.949C109.534 119.204 107.808 119.28 106.95 119.966C105.562 121.077 102.089 119.508 100.413 120.213C97.7739 121.324 94.8554 120.286 92.8583 118.733C91.0102 117.296 87.8751 117.688 85.7042 116.482C83.3109 115.152 78.8551 112.659 78.7661 109.544C78.7074 107.489 78.9609 105.361 78.7661 103.315C78.5119 100.646 75.1507 102.662 73.894 103.315C73.2133 103.668 69.7644 105.123 72.4138 104.24C74.3002 103.611 75.9991 103.268 77.8718 102.852C78.7112 102.666 77.245 98.0881 76.9776 97.456C76.6046 96.5744 72.6431 95.2156 71.7971 94.8041C68.8142 93.3529 65.346 94.7482 62.6079 96.2225C60.221 97.5078 59.8083 100.867 58.3525 102.883C56.4851 105.469 54.7203 108.297 53.2953 111.147C52.4566 112.825 52.1532 114.542 51.291 116.266C49.6171 119.614 47.225 122.656 45.8021 126.134C44.8007 128.582 44.8268 131.914 44.3528 134.521C43.7865 137.636 42.7761 140.771 42.6876 143.957C42.5882 147.537 42.5413 151.744 41.1458 155.058C39.2232 159.624 42.6876 162.868 42.6876 167.269C42.6876 169.891 43.7977 172.402 43.7977 175.04C43.7977 178.067 44.0943 180.452 44.7845 183.366C45.416 186.032 45.476 188.971 45.8946 191.692C46.2997 194.325 47.2795 196.853 47.6523 199.462C47.9342 201.436 49.1444 203.238 49.6258 205.26C50.0515 207.048 50.1399 208.766 51.3218 210.286C53.6503 213.28 55.0197 216.419 57.119 219.568C58.6203 221.82 63.5968 224.188 66.4316 223.206C69.9141 222.001 71.1357 220.932 72.6605 217.502C73.9603 214.577 71.618 212.452 69.8852 210.286C69.4371 209.726 68.8038 208.137 67.9734 208.374C67.4987 208.51 67.3051 209.258 66.7399 209.484C65.0341 210.167 63.3847 210.977 61.6828 211.674C59.2221 212.68 56.4763 212.974 54.2204 214.449C52.7575 215.405 54.9775 214.924 55.5772 214.757C57.5924 214.196 59.9287 213.531 61.7753 212.537C62.2078 212.304 64.8702 211.092 65.1673 211.211C66.7966 211.863 66.8284 215.179 67.2333 216.546C67.5805 217.717 68.3847 219.301 69.2068 220.123C70.5107 221.427 67.303 216.838 67.11 215.004C66.9224 213.222 66.1058 211.558 65.5682 209.885C64.9321 207.906 66.9232 207.565 67.0791 205.537C67.3348 202.214 64.9148 199.878 64.3347 196.687C63.6796 193.084 60.8268 190.351 60.0176 186.82C59.1681 183.113 58.0338 179.438 57.2424 175.718C56.8682 173.96 55.5184 169.822 56.2864 168.133C57.8805 164.626 56.9624 160.221 57.6432 156.477C58.0062 154.481 57.7086 152.578 58.26 150.556C59.2957 146.758 61.0381 143.026 62.7929 139.517C67.2891 130.524 77.4622 127.016 80.863 117.191C81.0236 116.727 82.0309 113.026 82.0964 114.663C82.1558 116.148 82.2645 117.63 81.6647 118.98C80.3939 121.839 78.2563 125.977 75.9291 128.138C74.3877 129.569 72.3693 130.838 71.242 132.609C70.463 133.834 69.3698 135.625 68.2509 136.464C66.9067 137.472 66.8927 139.992 66.4932 141.49C65.9546 143.51 64.62 146.175 63.533 147.966C62.4669 149.722 61.6745 151.876 61.5594 153.948C61.4636 155.673 60.0739 156.772 59.8943 158.388C59.8074 159.171 59.4006 159.279 58.7842 159.622C58.3138 159.883 57.7276 161.329 57.6741 160.794C57.4167 158.22 57.3246 154.822 57.9516 152.314C61.0435 139.946 68.7716 128.419 77.656 119.535C78.7064 118.484 80.3752 117.302 80.9863 115.927C81.0969 115.678 82.9154 112.888 83.1757 113.799C83.843 116.135 82.6515 119.515 82.6515 121.971C82.6515 124.052 83.1192 126.898 83.8849 128.847C84.5444 130.526 86.8724 131.843 88.6337 131.068C90.5694 130.216 89.535 125.587 89.1888 124.099C88.6724 121.878 86.8003 119.963 85.8584 117.87C85.5821 117.256 84.9506 115.42 85.4267 115.896C86.1169 116.586 85.9568 118.882 86.321 119.812C87.285 122.276 89.9382 126.75 92.8891 126.75C96.8427 126.75 97.0122 122.997 99.8581 121.323C102.332 119.868 103.711 119.658 106.519 120.059C107.151 120.149 109.602 120.197 109.818 120.953C110.581 123.625 110.984 125.406 112.624 127.737C115.404 131.688 114.845 136.061 114.845 140.75C114.845 145.548 115.4 150.225 115.4 155.058C115.4 158.721 110.466 172.59 118.607 172.265C119.77 172.218 117.332 169.18 117.743 167.948C118.597 165.386 119.84 163.69 119.84 160.855C119.84 158.35 118.256 156.496 118.175 154.071C118.097 151.723 119.285 149.891 119.285 147.812C119.285 145.532 117.916 144.388 117.651 142.261C117.315 139.575 117.62 136.667 117.62 133.966C117.62 131 117.603 127.425 116.941 124.53C116.531 122.735 115.156 121.664 114.814 119.781C113.984 115.216 107.406 120.334 106.55 116.482C105.64 112.389 103.297 107.565 103.188 103.438C103.09 99.7142 102.018 96.2078 102.078 92.4605C102.147 88.2125 103.159 83.5645 103.743 79.3242C104.297 75.3099 106.992 71.9204 107.66 67.9148C108.226 64.5178 110.005 60.6546 111.206 57.3688C112.456 53.9483 114.617 51.9171 116.818 49.1664C118.731 46.775 119.73 44.9144 122.615 43.6158C126.121 42.0382 120.693 49.0962 120.087 49.8756C116.664 54.2759 112.756 59.3443 112.624 65.2629C112.498 70.9403 112.624 76.6364 112.624 82.3154C112.624 86.9511 112.624 91.5868 112.624 96.2225C112.624 99.7113 113.633 104.095 110.959 106.769C109.498 108.23 107.115 109.639 105.964 111.332C104.694 113.199 106.152 114.11 105.532 110.777C105.086 108.378 106.403 106.943 107.074 104.764C108.315 100.731 107.033 94.3731 110.682 91.5354C113.701 89.1867 110.848 81.7817 110.959 77.9058C111.03 75.4332 112.069 73.1784 112.069 70.5667C112.069 68.3695 112.7 66.1847 113.179 64.0294C114.161 59.6118 116.432 52.9513 120.21 50.1531C124.609 46.8949 128.429 45.4685 134.025 45.1576C137.594 44.9594 141.151 44.6026 144.817 44.6026C145.402 44.6026 148.606 44.1753 148.364 44.0784C146.923 43.502 145.485 43.7287 144.016 43.4616C141.843 43.0666 141.395 40.9945 138.989 42.6599C136.958 44.0663 133.744 43.6195 131.373 44.1709C129.961 44.4992 129.525 45.1576 131.311 45.1576C133.616 45.1576 135.829 44.6874 138.033 44.0475C140.66 43.285 141.639 42.8748 144.262 43.9242C147.816 45.3455 149.258 40.7025 149.258 38.2195C149.258 35.0937 146.467 30.8842 144.386 28.6294C143.334 27.4901 143.353 24.5126 143.831 23.0789C144.145 22.1372 146.415 18.8673 147.068 18.2684C150.236 15.3645 151.78 11.2195 155.333 8.55497C158.037 6.52661 167.907 3.91109 164.553 4.3304C163.128 4.50845 161.62 6.50937 160.359 7.16734C158.494 8.14031 156.91 8.89069 155.24 10.1893C153.348 11.661 150.691 12.5263 148.949 14.0747C148.051 14.8733 147.268 16.2204 145.928 16.2949C143.985 16.4028 145.999 16.6667 145.064 19.0701C144.031 21.7255 142.129 23.662 140.069 21.0128C139.539 20.3322 138.517 18.694 137.848 18.2684C136.533 17.4316 134.644 16.9568 133.716 15.6165C131.094 11.8291 128.578 13.6415 124.866 14.1055C123.071 14.3299 116.911 18.5151 120.95 18.5151C127.545 18.5151 132.139 22.0808 138.434 23.4797C139.256 23.6623 141.243 23.9385 141.456 24.8982C141.688 25.943 139.067 26.5215 140.932 26.255C141.977 26.1057 144.262 25.2484 144.262 27.1184C144.262 28.8529 144.87 27.9282 143.029 29.0611C140.307 30.7362 136.128 31.1381 133.038 31.713C128.823 32.4971 125.387 31.658 121.814 29.6161C120.244 28.7193 119.693 26.9931 119.007 25.4841C118.43 24.2142 119.775 25.4763 120.179 25.7925C122.121 27.312 123.889 28.5663 126.254 29.3695C131.404 31.1186 135.426 30.3802 140.593 29.5853C141.807 29.3986 142.26 27.5986 143.985 27.9818C145.615 28.3441 146.077 31.6371 146.513 32.9465C147.691 36.4799 148.703 39.0431 148.703 42.9374C148.703 45.2604 148.703 49.9064 148.703 49.9064C148.703 49.9064 148.761 46.75 148.271 45.281C147.482 42.9129 145.224 43.4925 143.152 43.4925C140.359 43.4925 137.523 43.3593 134.734 43.5233C131.786 43.6967 129.057 45.7127 126.192 45.7127C123.332 45.7127 120.531 46.5329 117.681 46.792C115.299 47.0085 113.377 45.8892 111.083 45.7127C109.633 45.6012 107.508 45.4403 106.087 45.0343C105.081 44.7468 103.599 44.6263 103.99 43.2458C104.537 41.3153 105.523 38.2756 106.765 36.6777C108.087 34.9781 104.964 40.5895 104.114 42.5674C102.66 45.9468 106.717 46.0994 103.867 44.0475C102.02 42.7176 101.031 42.458 98.748 41.9507C93.7417 40.8382 88.6483 39.0521 83.5149 39.0521C80.2896 39.0521 76.9131 38.2634 73.7398 38.5278C70.5705 38.7919 68.02 39.1926 64.8898 38.497C61.9976 37.8543 58.6584 38.0851 55.8856 37.2635C50.0913 35.5467 42.4118 39.4526 36.7054 40.5939C32.2597 41.483 26.3842 45.3657 23.5075 48.7655C21.8866 50.6811 19.4091 51.9407 18.5428 54.3469C17.5259 57.1715 15.5617 59.2581 14.3799 61.9326C12.0432 67.2208 7.73216 70.8967 7.19507 77.0732C6.73497 82.3644 6.67762 87.6884 6.02329 92.923C5.6819 95.6542 4.94402 98.1307 4.94402 100.94C4.94402 102.285 4.65213 103.655 3.71057 104.672C0.397172 108.25 2.4997 113.907 4.94402 117.438C6.01454 118.984 7.49407 117.834 7.04089 120.213C6.64457 122.294 5.57694 124.386 5.28322 126.442C5.22642 126.84 10.2981 123.114 11.0188 122.618C12.9303 121.304 13.9153 119.194 15.7367 117.87C18.9972 115.498 19.3481 110.931 18.142 107.447C16.7419 103.402 12.5146 100.545 11.2963 96.7159C10.0326 92.7443 8.10281 84.3645 11.0496 80.681C12.646 78.6855 13.9261 75.817 15.0583 73.4653C16.123 71.254 17.6681 68.8507 18.3886 66.558C19.9097 61.7182 25.9282 57.4292 29.6439 54.2852C31.3409 52.8492 32.7239 50.9947 34.8861 50.184C37.4844 49.2096 39.9444 48.6598 42.4409 47.3778C44.5798 46.2795 47.2859 45.3661 49.2249 44.0475C51.0974 42.7742 52.6357 41.3655 54.8988 40.4397C58.7835 38.8505 63.2613 38.497 67.4183 38.497C68.2277 38.497 72.9386 38.2356 70.1628 38.5278C67.4172 38.8168 64.7763 39.9976 62.3612 41.2723C60.6948 42.1517 58.4339 45.0592 56.564 45.1576C53.7543 45.3055 52.3335 47.1435 50.1809 48.7346C47.3479 50.8286 40.9589 53.1908 40.4674 57.3688C40.3018 58.7769 38.7377 60.0056 38.0005 61.1308C36.6684 63.1641 35.5318 64.6474 34.6702 66.9281C33.4168 70.246 33.2517 75.9047 33.2517 79.5401C33.2517 83.8533 32.2761 87.8079 33.2209 92.0596C33.8824 95.0363 34.0211 98.3286 33.1284 101.341C32.3708 103.898 31.6507 106.39 30.9082 108.989C29.5245 113.832 26.9862 120.1 23.8158 123.975C19.1141 129.722 15.7908 138.843 14.2566 146.054C12.8136 152.836 11.9748 160.922 13.5782 167.794C16.3278 179.578 14.9224 191.139 10.3712 202.608C8.43963 207.475 8.09154 214.567 9.9395 219.568C11.0363 222.536 11.8881 225.793 13.2698 228.634C14.661 231.493 15.3389 230.722 18.2036 231.131C22.1208 231.691 20.502 224.307 21.3181 221.695C21.431 221.334 22.1607 217.912 22.9524 218.704C24.2596 220.011 23.8158 223.82 23.8158 225.55C23.8158 228.149 24.3887 227.978 26.1594 229.559C28.9878 232.084 30.2379 228.87 30.4456 225.858C30.7591 221.313 30.6919 216.476 30.4456 211.92C30.2243 207.825 28.737 203.857 28.8113 199.771C28.958 191.701 28.8113 183.781 28.8113 175.718C28.8113 172.406 28.6211 168.8 29.613 165.604C30.5306 162.648 31.8318 161.182 33.2517 158.697C34.1619 157.104 35.8432 155.771 36.8287 153.979C38.0082 151.834 38.8023 149.506 38.8023 147.041C38.8023 142.294 41.8712 139.92 44.6612 136.31C46.3149 134.17 47.2523 131.622 49.2249 129.649C51.0604 127.814 53.6391 127.033 55.7005 125.517C57.6181 124.107 60.0346 123.963 62.1145 122.865C64.224 121.752 65.028 119.368 66.5241 117.623C67.376 116.629 69.0155 115.767 69.3302 114.508C69.8163 112.564 71.1131 109.318 73.0922 108.557C73.8449 108.268 76.5783 108.199 76.9776 107.755C78.02 106.597 76.4069 103.785 75.4358 103.161C68.7437 98.8587 61.898 105.933 57.6741 110.654C56.9101 111.508 55.8861 112.984 55.3305 113.984C54.6479 115.213 53.1484 115.845 52.3702 117.068C51.2673 118.801 50.4945 120.444 49.8417 122.403C49.3964 123.738 45.7056 129.915 49.78 126.504C51.7115 124.887 53.1787 121.825 54.7755 119.843C56.9052 117.199 59.7343 115.299 61.8678 112.751C63.7938 110.45 66.0426 108.164 66.9866 105.227C67.6378 103.201 69.3302 101.142 69.3302 98.9669C69.3302 98.0862 69.3302 95.1333 69.3302 95.2049C69.3302 97.1074 69.5991 99.3942 68.5284 101.095C68.045 101.863 67.7198 101.952 67.665 102.883C67.6449 103.225 66.7678 103.747 67.11 103.747C68.7825 103.747 70.7817 102.883 72.6605 102.883C74.3773 102.883 78.8881 102.689 78.1802 105.874C77.8262 107.467 70.9955 109.39 69.3302 110.222C66.0433 111.866 64.2509 116.332 60.5727 117.746C57.2799 119.013 54.5846 121.429 51.5376 123.143C47.513 125.406 46.5884 130.877 44.3836 134.552C43.6467 135.78 40.6156 146.593 43.9211 144.512C46.7814 142.711 49.2477 141.628 51.2601 138.715C52.5145 136.899 54.0769 133.283 56.2864 132.301C58.691 131.232 54.9263 134.336 54.0971 135.323C51.7878 138.072 49.1463 140.066 46.2646 142.169C44.994 143.096 42.8874 143.091 42.2559 144.512C41.7611 145.625 42.6876 146.244 42.6876 147.287C42.6876 148.398 42.6876 149.508 42.6876 150.618C42.6876 152.191 41.3714 152.588 41.0533 153.701C40.6284 155.189 42.3431 156.424 42.6876 157.803C43.1571 159.681 44.6 159.746 45.7713 160.917C48.7315 163.877 49.755 170.762 49.9033 174.917C50.1013 180.46 50.5131 186.758 51.4451 192.247C52.0931 196.062 52.6015 199.871 51.5376 203.594C50.9799 205.547 47.8371 198.891 47.5598 197.921C46.56 194.421 47.1281 190.311 47.1281 186.665C47.1281 184.27 47.4695 181.554 46.8197 179.234C46.1838 176.963 45.2334 174.653 44.9387 172.296C44.71 170.466 45.2835 168.473 44.5995 166.714C43.8591 164.81 42.9176 162.98 42.0092 161.164C40.6615 158.468 41.2688 155.72 40.5908 152.838C39.5312 148.335 42.1326 145.038 42.1326 140.904C42.1326 139.422 43.3371 137.896 41.5467 139.239C39.6253 140.68 39.079 143.93 38.5247 146.146C38.0026 148.235 37.369 149.311 36.3045 151.204C35.4024 152.807 35.4079 154.571 34.7935 156.292C33.2833 160.52 30.8695 163.162 30.4456 167.824C29.5847 177.295 29.8701 186.846 28.9347 196.317C28.395 201.781 28.2791 208.042 29.4897 213.339C30.4914 217.721 30.9032 222.242 29.9214 226.66C29.8006 227.204 29.1747 231.039 28.5029 231.039C27.3148 231.039 25.5968 229.301 24.6176 228.757C22.4194 227.536 23.4053 220.175 22.3974 217.872C21.3239 215.418 17.4824 218.209 16.2918 218.889C13.8858 220.264 11.6047 223.125 11.6047 218.334C11.6047 215.738 15.116 213.365 16.0451 210.81C17.4829 206.856 18.8204 203.009 18.8204 198.784C18.8204 195.761 19.2191 192.501 18.3886 189.595C17.8406 187.677 18.489 185.825 17.5869 183.921C16.9033 182.478 16.6001 180.81 16.6001 179.203C16.6001 176.254 17.8602 172.603 18.5428 169.736C19.6539 165.07 19.8386 160.141 19.9305 155.367C20.038 149.777 20.7525 145.541 23.6925 140.75C25.8787 137.187 28.8113 133.012 28.8113 128.693C28.8113 126.997 29.8287 118.425 27.5779 118.425C25.9663 118.425 25.1727 120.125 23.8158 120.768C22.3131 121.48 20.2097 121.414 19.0979 122.896C17.0312 125.652 15.7373 128.723 13.2698 131.191C10.3862 134.074 10.4946 140.01 10.4946 143.957C10.4946 145.798 10.5913 147.67 10.4946 149.508C10.3918 151.46 10.6193 151.133 11.2963 153.085C12.9103 157.737 12.2111 152.547 12.0364 150.494C11.7661 147.318 10.2707 142.994 11.3271 139.825C12.9558 134.939 14.0329 130.227 17.2169 126.134C18.6561 124.283 19.158 123.021 20.763 121.416C22.4978 119.681 26.036 118.369 26.036 115.649C26.036 112.537 23.8158 111.89 23.8158 108.465C23.8158 105.636 24.5487 104.355 25.6968 101.804C26.6378 99.7129 25.9552 96.6976 26.036 94.434C26.1138 92.2573 27.6588 90.5261 28.1329 88.4518C28.7327 85.8278 28.546 81.8915 28.1329 79.2626C27.6651 76.2857 25.9787 74.708 26.036 71.5535C26.0795 69.1638 26.4389 66.7838 26.5911 64.3995C26.6712 63.144 27.8118 62.9753 28.5029 62.0868C31.6479 58.0432 34.3803 53.1398 38.8639 50.3998C41.3983 48.851 43.377 47.1181 45.9871 45.7127C48.6152 44.2975 46.5638 44.6785 45.8946 45.7127C42.8595 50.4033 35.8209 52.6063 33.6834 58.0472C32.9817 59.8335 31.138 60.8957 31.0315 62.9193C30.9138 65.1564 30.4765 67.2915 30.4765 69.5491C30.4765 70.5478 30.6587 73.5859 31.3707 74.2979C32.072 74.9993 33.7005 77.2155 33.3751 76.1173C32.3899 72.7924 29.4928 67.5607 30.754 64.0294C31.3333 62.4075 30.7997 61.486 32.1416 60.1441C33.7671 58.5186 35.8394 56.0359 36.5204 53.8226C36.8578 52.726 38.1325 49.9175 37.1063 50.4306C34.9815 51.493 32.952 51.0809 30.9082 53.0517C26.8099 57.0037 21.7433 61.0254 18.512 65.7254C17.1058 67.7708 16.8569 69.321 16.0451 71.5535C15.4364 73.2275 14.0336 75.0215 13.8249 76.7957C13.6786 78.0393 12.0432 79.1709 11.728 80.5577C11.2167 82.8072 11.0496 84.9261 11.0496 87.2183C11.0496 90.3558 10.6142 92.1219 9.10692 94.8349C7.49718 97.7324 5.85986 101.579 8.82939 104.548C10.9007 106.62 13.2698 107.467 13.2698 110.901C13.2698 112.374 11.6047 112.798 11.6047 114.262C11.6047 115.575 11.1596 116.649 10.217 117.592C9.46012 118.349 7.2766 120.694 8.08932 119.997C9.54653 118.748 11.5043 116.445 11.6047 114.539C12.0275 106.505 12.8257 98.038 11.5738 89.9011C11.1224 86.9671 10.434 79.8778 12.4681 77.104C16.6838 71.3553 19.8171 65.2508 24.3709 59.7124C30.2385 52.576 39.0703 48.8952 46.8197 44.3251C54.1766 39.9864 62.3921 37.0785 71.1187 37.0785C71.8195 37.0785 73.6919 37.4911 74.2023 38.0653C74.3662 38.2497 70.6789 39.4679 70.3786 39.6071C67.899 40.7571 65.2256 41.9852 62.6695 42.9374C57.6924 44.7917 64.0971 44.7497 66.0615 44.2942C69.5918 43.4756 71.224 43.963 74.5723 44.5717C77.4736 45.0993 80.06 44.6806 82.8981 45.7127C85.6416 46.7103 88.1497 47.7895 90.7306 49.043C94.819 51.0288 100.984 52.2676 105.532 52.3733C110.444 52.4876 112.441 51.5025 116.726 49.5981C117.595 49.2118 112.769 49.043 112.038 49.043C109.612 49.043 106.685 48.115 104.299 47.5012C99.6992 46.3185 95.1853 44.7307 90.7306 43.2458C88.3001 42.4356 85.8452 41.4627 83.4224 40.7172C82.8302 40.535 78.7536 38.9 81.0788 39.9463C86.3318 42.3101 91.9018 43.6772 97.0828 46.2677C102.479 48.9658 107.4 49.043 113.303 49.043C116.89 49.043 116.286 49.5386 116.633 46.2677C116.922 43.5472 117.355 43.3442 115.153 44.6026C113.902 45.3173 116.324 46.9571 116.479 47.6554C117.006 50.0267 121.748 46.4566 123.17 46.2986C126.787 45.8967 129.447 45.8614 133.038 44.6643C135.017 44.0046 138.129 44.3213 140.254 44.7259C143.463 45.3372 146.596 43.7509 149.751 45.9594C150.481 46.4701 149.852 46.9099 149.073 46.5761C148.953 46.5247 149.309 47.288 149.227 47.6554C149.099 48.2293 148.574 49.5275 148.148 49.9064C146.933 50.9859 145.102 48.5481 146.359 51.9416C146.695 52.8487 147.495 54.4046 148.271 55.0252C149.014 55.6197 150.967 55.1609 151.601 54.7169C152.021 54.4235 155.781 55.1093 156.782 54.8711C161.276 53.8012 162.643 54.2324 166.033 57.4921C168.791 60.1447 171.575 59.5512 170.936 64.0294C170.311 68.4002 175.55 66.1068 177.319 64.3378C178.921 62.7358 180.753 62.05 182.222 59.9282C183.742 57.7323 184.992 54.8618 186.323 52.5583C188.437 48.8996 189.91 43.5909 191.164 39.5763C191.896 37.2349 193.662 33.6739 193.662 31.2813C193.662 28.3481 193.491 26.1484 192.429 23.3872C191.85 21.8823 191.182 20.0204 190.332 18.6384C189.365 17.0681 189.574 14.8705 188.142 13.7971C187.221 13.1064 187.605 11.2994 186.169 11.2994C184.352 11.2994 184.384 10.587 182.839 12.132C180.052 14.9182 183.842 20.9747 186.446 22.2771C187.894 23.0007 189.047 23.17 189.9 24.6207C190.131 25.0135 191.039 25.1794 190.763 25.7308C190.564 26.1295 189.741 26.558 189.345 26.1625C189.21 26.0278 184.361 19.8481 183.702 22.1538C182.704 25.648 176.404 23.4621 174.235 27.1492C172.184 30.6371 170.905 33.5563 170.905 37.6644C170.905 41.945 182.154 41.2852 183.548 38.497C184.53 36.5328 183.058 32.7798 185.891 32.9465C186.671 32.9923 187.824 34.3057 188.543 32.9465C189.144 31.8111 188.741 28.9885 188.112 27.9818C186.52 25.4349 187.822 28.2124 188.081 29.8937C188.42 32.1003 187.038 31.8872 185.861 31.0038C183.659 29.3528 178.824 28.4072 177.134 31.2813C176.487 32.3814 175.283 32.3918 174.667 33.5015C174.178 34.3819 172.228 36.8986 172.293 36.7702C173.465 34.4251 177.389 30.0072 180.341 30.1712C182.194 30.2741 181.451 34.9372 181.451 36.2768C181.451 37.2587 179.87 39.6005 178.676 38.9287C178.131 38.6222 179.169 35.0503 179.508 34.3033C180.134 32.9258 179.45 30.6437 178.429 32.9773C178.015 33.9238 178.121 34.9922 178.121 35.9993C178.121 36.2736 178.125 37.6764 178.182 37.6336C179.32 36.7801 180.649 37.9031 181.698 36.5543C182.68 35.2916 182.007 33.5015 184.226 33.5015C187.808 33.5015 185.388 29.3499 187.556 28.0743C189.327 27.0331 193.678 24.8432 194.217 22.9555C195.04 20.0769 198.677 18.2232 200.292 15.8015C201.446 14.0699 202.903 12.5895 204.763 11.6078C207.122 10.3631 212.95 9.00199 215.587 10.4668C217.837 11.7171 223.873 13.1978 221.137 16.5416C218.784 19.4179 215.88 22.0275 213.212 24.4973C208.788 28.5937 203.301 27.951 197.609 27.951C193.646 27.951 199.485 24.3228 200.539 23.8189C204.172 22.0814 208.201 20.9538 211.547 18.7618C215.939 15.8846 220.442 16.5462 223.203 11.2994C225.308 7.2995 211.38 9.45038 209.697 9.6034C203.282 10.1866 197.565 12.7801 191.319 13.9513C189.857 14.2254 185.974 12.1682 184.226 11.7311C180.986 10.9211 177.917 9.58294 174.636 8.80166C170.9 7.91209 167.53 6.54508 163.566 6.88981C163.153 6.92568 160.771 7.56112 162.702 7.35235C165.569 7.04247 169.719 5.32053 172.508 6.33476C175.761 7.51755 179.983 5.29035 182.839 6.64312C183.484 6.94885 186.933 8.98569 187.001 9.63424C187.352 12.9603 188.059 15.8935 189.777 18.9468C193.123 24.8956 192.94 30.9953 191.164 37.3869C189.45 43.5586 189.222 49.7584 189.222 56.2587C189.222 58.5274 188.667 61.2099 188.667 63.7519C188.667 64.692 188.386 67.1733 188.944 64.8312C189.353 63.1118 190.089 57.3859 188.667 56.382C187.3 55.4172 185.823 57.9727 184.781 58.4789C182.74 59.4703 180.939 59.0121 179.354 61.0075C176.797 64.2273 175.08 65.3762 171.152 66.8047C168.013 67.9462 164.953 68.3199 162.302 70.3817C160.6 71.7051 156.359 72.3552 154.253 72.3552C150.134 72.3552 150.352 68.7043 147.346 67.1131C144.963 65.8515 142.87 65.0261 141.61 68.3465C140.681 70.7964 140.432 74.4337 141.549 76.8265C142.335 78.5103 143.356 80.3952 144.91 81.4828C146.151 82.3517 148.228 82.569 148.949 84.0114C149.762 85.6364 150.466 87.3362 150.8 89.1302C151.164 91.0885 150.923 93.2444 150.923 95.2358C150.923 98.4365 151.937 101.414 150.892 104.548C150.114 106.883 147.37 108.579 146.267 110.87C145.19 113.107 141.943 114.668 141.518 117.006C140.795 120.982 140.539 124.509 139.39 128.416C138.848 130.259 137.043 131.129 136.615 133.534C136.009 136.944 135.871 141.042 135.937 144.512C136.003 148.008 137.985 148.497 139.144 151.296C140.019 153.411 141.111 156.42 141.456 158.666C142.114 162.94 136.912 170.659 133.716 172.789C131.223 174.451 128.283 174.736 125.421 174.516C122.329 174.278 123.221 171.797 123.17 169.366C123.066 164.349 119.242 159.679 119.963 154.626C120.737 149.213 118.584 143.308 118.175 137.79C117.813 132.91 117.839 127.046 115.43 122.68C114.726 121.404 113.508 120.25 112.964 118.918C112.367 117.46 112.92 115.883 112.501 114.416C111.619 111.329 107.974 112.823 105.779 112.196C103.109 111.433 103.037 113.898 100.536 113.984C95.3487 114.163 90.3586 116.452 85.7659 112.566C84.1108 111.165 83.7394 109.328 81.8497 108.125C80.4074 107.208 79.2585 105.409 78.6427 103.87C77.245 100.376 69.3346 101.774 66.5549 102.667C64.6479 103.28 63.2973 103.795 61.2819 104.055C58.6439 104.395 57.3248 106.696 55.7931 108.588C54.0127 110.787 51.1384 113.75 48.8241 115.341C44.0522 118.622 40.9193 115.297 37.2604 112.319C34.6111 110.163 35.2138 106.173 32.45 103.87C28.8857 100.9 28.6947 98.3541 30.2298 94.1873C31.581 90.5197 33.2517 88.0551 33.2517 84.0114C33.2517 81.9819 33.8643 78.2883 32.6967 81.7911" stroke="black" stroke-width="3" stroke-linecap="round"/>
</svg>
