<svg width="285" height="227" viewBox="0 0 285 227" fill="none" xmlns="http://www.w3.org/2000/svg">
<path d="M190.694 4.70571C196.052 4.70571 204.194 4.17822 207.309 9.6287C210.543 15.2886 212.681 15.7824 219.078 15.7824C223.784 15.7824 227.323 11.9014 232.232 11.6287C237.548 11.3333 241.835 10.2441 247.462 10.2441C250.818 10.2441 256.435 8.02832 258.539 5.398C260.302 3.19439 270.185 1.93652 273.077 1.93652C280.549 1.93652 280.284 2.92997 282.154 9.47486C284.37 17.2293 280.498 15.6798 276.539 20.6285C274.403 23.298 269.267 23.8236 266.539 26.5515C263.886 29.2042 257.838 30.8099 254.385 31.013C246.721 31.4638 244.205 48.5063 241.232 53.8587C236.878 61.695 237.568 78.7157 223.924 79.4737C215.429 79.9456 206.388 66.5924 205.924 58.7048C205.439 50.456 216.992 36.6261 203.848 33.7052C197.96 32.3969 182.86 26.6066 182.386 18.5516C182.033 12.5395 182.173 8.9839 188.617 7.55182C195.679 5.98241 193.296 7.61811 198.309 11.6287C204.953 16.9437 218.742 15.7824 227.386 15.7824C235.398 15.7824 249.785 16.9981 255.462 11.321C258.46 8.32291 263.568 7.126 267.462 6.01338C270.847 5.04629 280.337 6.05192 273 10.2441C265.924 14.2877 254.706 22.1314 247.155 16.0901C245.16 14.4942 236.516 12.2675 234.693 14.0902C229.62 19.1633 235.224 16.0898 236.385 15.4748C250.228 8.14626 250.231 16.3401 250.231 28.9361C250.231 32.0338 245.799 36.061 243.616 38.2436C240.417 41.4428 234.436 38.2753 230.539 41.782C224.487 47.2289 229.82 47.0655 234.309 43.4743C239.365 39.4295 234.588 33.5424 230.847 40.0897C226.376 47.9149 234.366 42.571 237.001 39.9359C240.358 36.5789 234.781 36.5513 232.924 36.5513C228.761 36.5513 230.119 38.5187 227.386 40.7051C225.454 42.2504 224.278 42.6039 222.232 41.0128C221.395 40.3616 220.016 45.4392 218.693 45.6281C216.969 45.8745 221 43.0138 222.232 41.782C223.37 40.6439 225.01 38.035 226.693 37.9359C231.277 37.6663 236.129 39.3205 241.232 39.3205C245.979 39.3205 245.482 48.1045 242.616 50.3973C240.251 52.2895 236.223 59.9692 234.693 62.8586C233.6 64.9242 230.132 75.6263 227.77 71.1661C224.513 65.0137 224.966 62.4161 217.001 62.8586C215.372 62.9491 210.219 67.7288 211.771 69.4739C212.858 70.6969 217.269 67.263 218.386 66.7047C221.904 64.9456 230.325 64.5886 234.232 65.7047C237.09 66.5214 233.559 76.5892 228.847 75.243C227.749 74.9292 228.182 73.3751 227.77 72.5507C226.898 70.8058 226.239 72.8661 227.001 73.6276C228.91 75.5361 231.413 70.7031 232.232 69.7816C236.395 65.0975 234.231 58.283 238.078 53.4741C242.626 47.7884 238.568 47.9982 240.616 55.1664C241.997 60.0003 244.693 61.9382 244.693 67.7047C244.693 75.782 245.185 89.3259 238.462 94.7042C228.485 102.686 229.463 114.771 229.463 126.55C229.463 137.857 229.463 149.165 229.463 160.472C229.463 171.496 233.151 184.297 223.924 193.01C219.128 197.54 212.782 193.383 210.386 188.857C207.595 183.584 209.788 180.244 210.078 175.011C210.421 168.834 218.141 178.086 221.155 174.318C221.617 173.74 226.026 170.857 225.847 170.857C224.017 170.857 222.269 172.925 221.155 174.318C220.038 175.715 217.152 175.217 217.001 177.78C216.832 180.654 218.386 183.087 218.386 186.087C218.386 188.856 218.386 191.626 218.386 194.395C218.386 195.619 219.704 190.056 219.77 188.857C220.182 181.446 219.413 181.092 213.617 177.78C209.309 175.318 206.226 168.906 203.848 164.626C198.117 154.311 204.54 142.125 204.54 131.396C204.54 126.287 206.25 121.005 205.924 115.473C205.617 110.247 195.148 113.173 193.155 115.165C188.306 120.015 189.309 136.868 189.309 143.857C189.309 154.71 187.324 164.199 187.925 175.011C188.392 183.423 199.204 204.946 181.002 196.856C176.094 194.675 173.087 193.994 170.617 189.549C169.105 186.826 168.54 177.172 168.54 174.318C168.54 170.602 164.612 166.383 164.387 162.549C164.004 156.05 160.233 149.575 160.233 143.165C160.233 132.07 158.604 122.904 161.694 112.089C163.173 106.914 159.182 111.319 154.002 111.319C148.464 111.319 142.926 111.319 137.387 111.319C126.183 111.319 115.704 113.485 104.849 114.089C101.194 114.292 97.7795 121.843 94.3878 123.781C91.2771 125.558 84.8051 131.942 84.0034 135.55C82.8094 140.923 78.9583 146.871 81.6188 152.857C83.3677 156.792 86.6316 164.034 89.311 167.011C95.6001 173.999 99.8678 187.468 93.4648 195.472C85.1503 205.865 79.9266 188.957 79.9266 182.626C79.9266 180.793 78.1391 177.805 78.542 177.78C81.2866 177.608 84.0987 177.78 86.8495 177.78C93.1595 177.78 94.2347 172.425 87.9264 177.472C84.2267 180.432 80.9963 181.87 82.7727 188.087C84.2539 193.272 88.1182 194.395 93.0802 194.395C101.131 194.395 92.3077 190.999 91.0802 186.703C90.714 185.421 87.2253 173.502 85.4649 175.703C81.9199 180.134 77.9026 179.761 74.0805 176.703C71.93 174.982 70.7067 175.168 69.1575 172.241C68.2296 170.489 68.1628 166.883 67.1575 165.626C64.6857 162.536 64.127 156.15 63.3884 152.088C62.5058 147.234 59.9599 138.952 62.6191 134.165C64.7914 130.255 66.9203 125.644 67.4652 121.011C67.6828 119.162 69.0884 115.975 69.9267 114.089C71.988 109.451 66.2522 112.617 64.696 112.704C62.0491 112.851 60.6476 114.089 57.7731 114.089C52.7413 114.089 53.6193 115.931 53.6193 120.704C53.6193 127.473 53.6193 134.242 53.6193 141.011C53.6193 154.947 56.3885 168.61 56.3885 182.626C56.3885 193.297 60.8028 203.663 61.9268 213.779C62.0498 214.886 67.1368 230.269 61.3115 222.779C59.6495 220.642 55.565 209.779 52.927 209.779C51.622 209.779 52.2347 217.616 52.2347 218.625C52.2347 222.187 50.9261 217.031 50.0809 216.548C45.1344 213.722 43.3419 209.113 39.0042 205.395C34.2863 201.351 31.6966 188.242 31.4658 182.241C31.2192 175.828 30.0812 169.039 30.0812 162.242C30.0812 151.565 28.4874 130.619 35.3119 122.088C38.2936 118.361 35.4293 111.939 37.6965 107.858C39.7905 104.089 39.7734 96.9719 39.7734 92.6273C39.7734 86.9227 37.7761 82.095 35.6196 77.243C33.097 71.5671 34.235 64.1823 34.235 58.0894C34.235 53.6265 35.6329 43.974 39.7734 41.782C44.7389 39.1532 49.9201 39.8877 55.0039 37.6282C65.0385 33.1684 74.5043 32.3976 86.0034 32.3976C89.917 32.3976 97.1355 32.4879 100.695 34.0898C107.313 37.0676 118.525 36.6924 123.926 41.0128C127.732 44.058 134.845 41.2865 139.156 45.1666C141.551 47.3215 147.434 51.5991 150.541 51.7819C161.234 52.4109 171.137 55.9356 181.771 55.9356C187.387 55.9356 194.12 56.9755 198.694 52.8588C205.008 47.1758 195.023 56.1459 193.463 57.0125C183.778 62.3932 174.006 58.7048 163.694 58.7048C160.906 58.7048 155.751 67.1214 154.771 70.5508C153.636 74.5244 147.307 81.9506 144.387 85.7044C141.24 89.7502 139.464 96.6377 139.464 101.627C139.464 104.206 138.354 117.928 138.079 112.704C137.674 105.005 135.364 98.8159 138.772 91.3197C140.269 88.0263 139.896 84.3021 141.618 80.8583C143.583 76.9283 146.85 72.8628 149.233 69.0893C152.689 63.6181 157.208 57.8512 161.618 53.1664C162.873 51.833 153.875 54.7551 151.618 57.0125C151.382 57.248 138.994 58.6008 145.002 61.7817C147.928 63.3305 150.319 61.8493 150.541 65.6278C150.714 68.5781 152.539 68.9818 150.848 72.5507C148.026 78.5086 147.586 89.2126 141.541 93.2427C138.494 95.2743 133.114 98.9711 131.156 102.396C128.311 107.376 123.828 107.166 118.695 107.166C113.148 107.166 111.86 102.181 107.618 99.9349C102.268 97.1024 96.3329 96.0888 90.311 96.0888C86.4111 96.0888 78.5011 97.6499 75.0805 99.5503C70.9582 101.84 63.3114 102.927 63.3114 109.242C63.3114 113.907 66.179 107.703 66.7729 106.396C69.7903 99.7582 69.9328 98.8756 75.7728 94.7042C81.8268 90.3799 94.1756 88.3547 101.003 90.8581C106.097 92.7258 112.837 96.9405 113.157 103.012C113.345 106.582 109.816 106.594 107.618 104.396C102.048 98.8261 97.7425 91.935 88.9264 91.935C80.7977 91.935 81.9159 98.6511 76.4651 103.012C73.1751 105.644 74.4868 111.319 68.8498 111.319C64.0477 111.319 59.4236 113.541 56.0808 116.55C53.2057 119.138 42.5366 119.621 39.7734 116.858C33.9279 111.012 39.0605 104.76 41.9272 98.858C42.2846 98.122 46.7844 88.3857 45.8502 88.012C42.7084 86.7553 40.9563 97.4843 40.4657 98.858C39.6816 101.053 38.475 105.781 41.8503 105.781C47.8313 105.781 57.709 107.736 63.1576 105.012C65.4241 103.878 69.4709 98.8542 64.3883 102.243C60.4986 104.836 57.1699 108.55 52.2347 108.55C45.568 108.55 45.5887 101.973 42.2349 97.7811C38.8722 93.5778 42.0686 85.751 39.0811 82.166C35.0913 77.3782 37.2998 66.0283 38.4657 60.7817C39.964 54.0393 45.3094 50.083 51.6193 48.9357C56.8698 47.9811 65.4642 44.7968 69.619 41.3974C71.7131 39.684 76.5886 35.8316 79.2343 35.2437C80.8932 34.875 83.5075 33.7897 81.6188 32.0899C78.7976 29.5507 72.5471 31.5489 69.619 33.0129C61.3831 37.1309 49.9042 44.2856 45.0041 52.0895C43.0826 55.1497 24.5429 80.0812 24.5429 70.3969C24.5429 61.8539 29.079 49.4662 37.6965 47.5512C47.4388 45.3862 57.5174 41.9049 67.1575 39.0128C69.5898 38.2832 79.1668 36.5513 71.9267 36.5513C65.2672 36.5513 58.0857 39.8425 52.5424 43.4743C43.403 49.4622 40.0072 56.0501 32.8504 63.6278C25.7615 71.1337 39.8559 52.7854 42.5426 50.3973C48.896 44.7497 56.9691 42.0707 64.6191 38.6282C65.8469 38.0757 74.3866 35.1667 70.9267 35.1667C68.1575 35.1667 65.3883 35.1667 62.6191 35.1667C46.549 35.1667 31.492 35.7559 19.6199 47.6281C11.3418 55.9062 11.3016 68.97 5.85085 78.7814C-0.478895 90.175 2.39977 105.482 5.08164 117.55C6.67096 124.702 13.91 145.475 8.23543 151.78C7.35275 152.761 4.86641 156.334 5.23548 157.626C5.64406 159.056 10.2654 154.92 7.92774 159.011C5.81525 162.708 6.36635 169.331 10.0046 172.241C11.9653 173.81 22.0463 177.082 17.9276 171.934C15.432 168.814 13.3566 161.89 16.543 158.703C20.664 154.582 26.5021 149.902 28.3889 144.242C30.4754 137.982 23.4367 138.52 20.0814 135.165C13.0606 128.144 14.8507 114.756 14.8507 105.089C14.8507 100.494 16.2353 95.708 16.2353 90.5504C16.2353 84.8691 15.2533 78.2117 17.3122 72.8584C18.7714 69.0644 23.748 66.0979 25.8505 62.2432C27.2633 59.6532 29.0358 56.1919 30.8504 53.8587C36.4898 46.6082 41.7108 46.2771 48.5425 41.3974C51.4462 39.3233 40.689 40.5224 37.9272 42.782C35.2609 44.9636 33.0235 49.6802 30.8504 52.4741C26.4765 58.0978 20.4928 62.3828 16.2353 67.7047C12.1395 72.8244 11.4396 79.8215 9.62002 86.089C8.35189 90.457 8.30944 94.9519 6.85084 99.1657C5.90949 101.885 3.93113 105.721 3.77397 108.55C3.43899 114.58 5.36955 118.846 6.62007 124.473C7.68396 129.26 10.1832 142.719 12.0046 138.165C14.0032 133.169 12.0815 123.755 12.0815 118.242C12.0815 110.235 6.99545 102.846 6.54315 94.7042C6.32455 90.7693 5.063 87.0045 5.15856 82.7044C5.28049 77.2176 7.34789 72.231 7.92774 67.0124C8.7822 59.3222 18.2595 55.0382 23.1583 50.3973C36.478 37.7786 56.6902 39.7062 73.619 36.6283C77.57 35.9099 86.1847 35.43 89.311 38.2436C92.5113 41.1239 99.0154 44.8589 103.465 44.8589C110.938 44.8589 118.432 47.6281 126.31 47.6281C133.884 47.6281 136.067 49.316 142.849 51.7819C156.574 56.7731 169.812 50.3973 183.079 50.3973C187.396 50.3973 197.551 48.3919 200.078 53.1664C204.358 61.2493 195.641 61.183 190.694 61.474C186.994 61.6916 179.413 69.6372 177.54 72.5507C171.84 81.4179 162.483 86.4183 158.771 96.935C158.65 97.2777 151.458 117.627 155.771 117.627C157.18 117.627 159.752 111.454 162.694 114.396C164.206 115.908 161.71 119.35 161.618 121.011C161.297 126.773 155.02 131.775 154.695 137.627C154.508 140.987 150.3 155.761 154.695 158.088C158.073 159.877 166.721 159.78 170.617 159.78C173.095 159.78 176.467 160.384 178.848 159.703C181.382 158.979 182.524 155.394 184.54 154.242C189.676 151.307 192.079 140.297 192.079 134.857C192.079 131.3 191.514 128.855 190.386 125.473C188.713 120.452 191.38 111.846 187.925 107.781C181.676 100.429 183.506 129.427 183.848 132.165C184.723 139.169 186.54 144.864 186.54 152.165C186.54 155.84 175.051 154.242 172.002 154.242C169.167 154.242 165.677 154.776 162.925 154.088C161.284 153.677 152.331 144.168 152.002 145.319C150.842 149.381 160.842 161.428 162.694 165.318C166.324 172.942 170.321 184.604 171.31 193.01C171.854 197.639 179.623 198.549 183.079 198.549C188.201 198.549 190.326 185.685 187.156 184.78C184.465 184.011 186.052 180.683 183.771 180.549C180.896 180.38 178.463 181.934 175.463 181.934C164.032 181.934 172.598 183.318 179.31 183.318C180.885 183.318 187.064 180.62 184.848 178.087C184.422 177.6 179.379 181.87 178.233 181.934C172.214 182.268 176.953 191.221 178.54 194.395C180.382 198.078 186.54 204.762 186.54 196.395C186.54 189.985 186.022 184.448 185.079 178.318C183.004 164.833 179.617 151.244 179.617 137.55C179.617 133.524 181.491 104.239 187.156 105.858C191.661 107.145 194.391 112.485 200.078 112.704C204.981 112.892 209.092 110.305 212.54 106.858C215.349 104.048 219.721 102.292 222.847 99.1657C224.809 97.2042 228.078 90.496 228.078 90.5504" stroke="black" stroke-width="3" stroke-linecap="round"/>
</svg>
