<svg width="190" height="133" viewBox="0 0 190 133" fill="none" xmlns="http://www.w3.org/2000/svg">
<path d="M40.3613 78.7258C40.3613 88.27 38.9465 97.1237 38.9465 106.707C38.9465 112.332 33.0484 128.243 42.4834 128.243C49.5448 128.243 50.2646 118.35 50.2646 111.973C50.2646 102.725 52.5981 94.7292 53.0941 85.7996C53.2892 82.2887 54.5089 71.8298 54.5089 75.346C54.5089 79.5664 55.3398 84.8396 57.024 88.6291C58.0575 90.9543 58.7532 98.2551 58.7532 100.733C58.7532 105.007 61.6325 112.487 63.7049 116.217C65.8575 120.092 68.427 135.447 73.6082 126.12C77.677 118.797 74.7349 109.904 74.3156 102.777C74.0786 98.7466 69.4892 81.5953 74.3156 79.0402C77.1235 77.5537 83.1835 78.7258 86.3411 78.7258C90.8865 78.7258 94.6048 77.311 99.074 77.311C107.091 77.311 115.108 77.311 123.125 77.311C131.694 77.311 132.871 87.392 129.806 94.2882C126.753 101.158 126.662 109.411 126.662 116.924C126.662 120.933 126.662 124.941 126.662 128.95C126.662 134.388 135.261 129.347 137.194 128.243C143.119 124.857 142.224 109.95 142.224 104.192C142.224 100.183 142.224 96.1745 142.224 92.166C142.224 84.3856 143.533 89.5695 145.761 93.5808C149.214 99.796 149.085 110.659 150.634 117.632C151.135 119.884 152.425 127.911 153.857 129.343C155.845 131.331 164.685 129.982 164.861 126.828C165.062 123.212 165.567 118.333 164.782 114.802C164.02 111.373 159.569 108.549 159.202 105.606C158.302 98.4118 153.543 92.9596 153.543 85.0922C153.543 78.1854 150.09 69.9417 152.206 62.5346C152.65 60.9815 171.442 63.8219 174.764 62.063C181.556 58.467 179.008 47.8165 179.008 41.2345C179.008 39.0247 177.771 31.0749 179.323 29.5234C181.968 26.8781 187.497 29.5135 187.497 23.5499C187.497 22.1815 190.367 -1.66512 184.982 2.64281C182.82 4.37194 182.601 9.20585 181.916 11.603C181.247 13.9445 178.855 17.7304 176.886 19.3056C170.893 24.1005 163.211 10.5777 160.538 19.9344C159.357 24.0676 156.078 23.7823 152.128 23.5499C148.013 23.3079 149.298 16.3084 149.298 13.6465C149.298 8.08009 136.565 0.477891 136.565 9.40225C136.565 17.2926 140.189 23.8527 142.303 31.2525C143.316 34.799 149.487 33.2979 152.128 33.4533C154.54 33.5951 154.957 41.2859 154.957 43.3566C154.957 50.5049 137.987 43.9222 134.522 41.9419C121.494 34.4977 105.312 34.868 89.8781 34.868C81.2037 34.868 74.0238 36.7332 65.827 37.6976C61.7576 38.1763 48.7752 42.0352 46.0203 45.4788C44.3434 47.5749 39.3847 46.9247 38.9465 50.4305C38.6513 52.7917 34.9049 56.909 32.58 57.4257C25.7371 58.9463 17.4751 50.4718 13.7951 45.8718C9.96881 41.0889 9.23641 30.9436 9.23641 24.9647C9.23641 19.8076 5.35918 23.4448 3.57735 25.6721C1.50575 28.2615 1.50575 16.0087 3.57735 18.5982C8.61701 24.8978 19.1398 26.0896 19.1398 15.7687C19.1398 9.41291 13.1877 13.1536 10.9656 15.3757C8.9013 17.44 7.82164 26.4692 7.82164 23.5499C7.82164 21.6691 9.1443 11.3486 5.77809 12.3104C3.17172 13.0551 8.90864 19.5074 9.5508 20.7204C10.6028 22.7074 12.7801 29.7607 9.94379 29.1304C2.53554 27.4841 8.10749 29.4342 9.15781 34.1606C10.6425 40.8419 16.5136 49.7832 22.5981 53.26C25.5945 54.9722 31.3391 54.1171 31.8727 58.919C32.2588 62.394 33.6015 68.4679 35.0166 71.6519C36.6063 75.2289 35.146 79.2805 37.5317 82.2627C40.6865 86.2062 34.8632 79.5814 33.9948 78.0184C28.0463 67.3111 38.3967 65.0266 46.0203 64.5781C50.7295 64.3011 46.768 57.5043 50.972 57.5043C54.9728 57.5043 57.499 58.919 61.5827 58.919C66.6449 58.919 68.9261 59.4745 70.1499 53.9674C70.7359 51.3306 77.275 45.1582 75.023 43.3566C72.9419 41.6917 67.5218 39.1123 71.4861 39.1123C75.4946 39.1123 79.5031 39.1123 83.5116 39.1123C86.5777 39.1123 91.2928 34.8374 91.2928 40.8415C91.2928 46.3957 91.2928 51.95 91.2928 57.5043C91.2928 61.9881 85.6338 61.5615 85.6338 65.2855C85.6338 69.6046 92.467 67.5613 92.7076 71.6519C92.9585 75.9177 93.5703 79.6612 99.074 76.6036C101.693 75.1485 108.27 75.2733 108.27 70.9445C108.27 66.3532 110.712 63.7052 108.584 58.919C105.892 52.8616 111.213 53.26 115.344 53.26C122.111 53.26 132.321 65.9027 132.321 51.1378C132.321 46.7757 136.565 43.5678 136.565 49.0157C136.565 53.4958 136.565 57.9759 136.565 62.456C136.565 70.2749 145.642 71.8495 150.399 67.0932C152.595 64.8972 153.061 61.9969 154.957 59.6264C155.42 59.0476 161.671 61.7486 163.446 61.7486C166.945 61.7486 172.366 62.7664 175.471 61.0412C180.917 58.016 170.153 59.4983 168.398 58.1331C165.051 55.5303 165.758 51.957 163.131 49.3301C161.232 47.4302 165.616 54.1349 166.354 56.7183C167.066 59.2097 174.237 60.2316 175.864 58.6047C178.368 56.1013 174.764 50.0903 174.764 47.6009C174.764 41.3328 176.478 26.193 165.647 29.2876C165.628 29.293 160.616 38.5281 160.616 36.2828C160.616 29.6597 163.446 32.6378 163.446 37.6976" stroke="black" stroke-width="3" stroke-linecap="round"/>
</svg>
