<svg width="110" height="109" viewBox="0 0 110 109" fill="none" xmlns="http://www.w3.org/2000/svg">
<path d="M71.5603 68.336C71.5603 71.5956 71.3432 78.1971 70.5768 79.5144C69.8096 80.8332 69.3697 82.1441 68.549 83.4072C68.3368 83.7339 67.9488 83.9006 67.5639 84.0124C67.1791 84.1242 66.7449 84.1242 66.4127 83.9614C64.9129 83.2264 64.0017 81.1705 62.8472 79.8532C61.96 78.8409 62.3505 77.0064 62.9508 75.5772C63.5636 74.1184 63.7715 72.2897 64.1053 71.0266C64.9324 67.8976 55.4498 70.0925 52.2214 69.9264C51.1626 69.8719 49.5358 69.6517 47.508 69.8145C46.767 69.874 46.6741 70.303 46.6182 70.8506C46.3723 73.2596 46.0163 74.579 45.7417 75.8963C45.4122 77.4763 43.9375 78.3089 42.6202 78.8599C41.3672 79.3839 39.9905 79.6246 38.6731 80.1755C37.4201 80.6996 36.0434 80.7232 33.963 80.4535C31.1755 80.0921 28.5967 79.4141 26.832 78.8089C26.114 78.5626 25.5147 77.9866 25.0213 77.4406C23.9909 76.3003 25.9455 74.5921 26.4965 73.2748C27.5154 70.8386 26.61 66.698 26.0623 65.4892C24.1674 61.3067 13.3479 64.6127 12.0305 63.7344C10.6611 62.8214 9.61791 61.4353 8.68542 60.0637C7.39494 58.1655 6.11161 56.1725 4.62982 54.0362C3.4137 52.2829 2.59874 49.923 2.15963 48.0597C1.79886 46.5288 1.61197 44.9892 1.44587 43.1259C1.29767 41.4635 0.95413 39.2923 1.00511 35.24C1.03455 32.9006 3.13817 32.0495 4.45549 31.4443C5.95119 30.7571 7.41414 29.747 9.00447 28.8688C10.9364 27.8019 13.5518 26.6749 15.254 26.2358C16.7505 25.8497 18.2685 25.3592 19.8589 25.1931C22.2122 24.9473 25.5048 25.1356 27.0951 25.5747C28.6855 26.0138 30.4386 26.4512 31.7559 26.8903C33.0733 27.3295 34.3857 27.984 35.703 28.8622C37.0203 29.7404 38.1156 30.8325 39.0481 32.1498C40.0194 33.5219 40.747 34.7795 41.0249 36.3699C41.3066 37.9813 41.6285 41.0159 41.0282 43.0042C40.8226 43.6852 40.6417 44.4301 40.8046 45.1964C40.8814 45.5583 41.293 45.7457 41.6236 45.8033C43.5696 46.1422 46.2268 45.4234 47.5441 45.203C48.9518 44.9675 50.1739 44.2195 51.4912 43.9416C52.8336 43.6584 54.1209 43.121 63.5429 42.9548C69.5894 42.8482 80.1188 42.792 85.597 42.8989C91.0752 43.0058 91.1837 43.3315 91.2939 43.662C91.733 44.9794 92.3876 46.2917 92.9928 47.6091C93.6183 48.9705 94.144 50.2388 94.5831 51.5561C95.0222 52.8735 95.2426 59.8301 94.8035 63.6193C94.6909 64.5912 96.7754 64.0568 97.2129 64.713C98.0911 66.0303 98.966 67.3427 99.5712 68.66C100.197 70.0215 101.157 71.5068 101.874 73.482C102.166 74.2881 103.781 80.2298 105.809 89.1074C106.94 94.0584 107.189 96.4983 107.467 98.9175C107.748 101.364 108.399 103.958 108.672 105.608C108.745 106.044 108.728 106.59 108.566 106.978C108.403 107.366 108.077 107.583 107.801 107.532C106.497 107.291 106.755 104.531 106.482 102.823C106.352 102.013 105.775 101.123 104.73 99.9174C103.584 98.5943 102.92 97.2877 101.88 95.6973C101.004 94.3561 100.4 92.7946 99.8492 91.0924C99.3816 89.648 99.3015 88.0779 99.0811 77.4784C99.0128 74.1941 97.7687 72.9475 97.1635 71.6302C96.5152 70.2191 95.6834 69.0005 94.4253 67.4101C93.9226 66.7747 93.6013 66.1454 92.8908 65.7622C90.6988 64.58 87.138 65.1587 85.1086 64.7196C83.308 64.33 81.5464 64.1719 80.1172 64.0058C78.1428 63.7763 75.5139 63.9482 74.1966 64.4416C72.7935 64.9671 71.5669 65.5928 68.7299 65.9777C59.8001 67.189 58.4101 66.9085 57.0927 67.0746C54.8003 67.3637 51.5027 67.5664 50.1311 67.9512C48.5902 68.3835 47.2267 68.5531 43.5066 68.8278C42.7124 68.8864 42.51 69.3162 42.5067 69.6468C42.4999 70.3369 42.9442 71.6154 42.8356 73.2583C42.7186 75.0294 40.6483 75.6776 39.058 77.0475C37.8848 78.0581 36.3723 78.2037 35.0007 78.4767C33.4311 78.7891 32.0964 79.0786 30.6705 79.4634C28.8614 79.9517 25.3206 79.8483 22.6119 79.1395C21.7109 78.9037 21.2387 77.7695 20.7453 76.8946C19.9355 75.4585 21.6696 73.9343 22.5478 72.6169C23.426 71.2996 24.7351 69.7701 26.1643 68.6682C26.7888 68.1867 27.3731 67.6815 27.5392 67.1338C27.8802 66.0095 24.9719 66.1454 23.2698 65.4333C21.9231 64.8699 20.5841 64.5008 19.2125 64.0617C17.6397 63.5582 16.3082 63.1851 14.5534 61.5455C13.3668 60.4367 12.4729 59.021 11.0438 58.197C9.70239 57.4237 7.65096 56.7185 6.10997 56.1676C3.19224 55.1244 5.55245 46.6404 6.15766 44.9876C6.67283 43.5807 7.30888 42.1408 8.021 40.7116C8.64861 39.452 9.17058 38.0819 10.1031 36.8731C10.9438 35.7832 12.894 36.1018 14.4859 35.8288C14.9753 35.7448 15.6306 35.7729 16.0204 35.9357C17.3272 36.4816 17.2883 38.6147 17.5614 40.6409C17.6854 41.5618 17.6173 43.0881 17.5087 44.0337C17.4002 44.9794 17.1831 45.305 16.5828 45.4727C15.9825 45.6405 15.0056 45.6405 14.4481 45.4777C13.8906 45.3149 13.782 44.9892 13.6719 44.6587C12.9049 42.3577 13.5584 39.0654 14.0501 38.4634C15.0039 37.2959 17.4923 37.4175 19.2569 36.8172C20.5892 36.364 21.8867 35.8847 23.477 35.7186C24.895 35.5705 26.3797 35.115 27.7497 35.2778C29.158 35.4452 29.0177 37.7398 28.9667 41.1869C28.9557 41.9285 28.4782 42.1276 28.1477 42.2937C27.8171 42.4598 27.4915 42.5684 26.9981 42.2986C24.5461 40.9582 24.3075 39.0686 23.9227 37.697C23.8176 37.3226 23.8668 36.878 24.0296 36.6001C24.6629 35.519 26.4916 35.8847 31.3579 35.7186C33.4366 35.6476 34.4975 35.115 35.2639 35.2778C36.7479 35.5931 36.6947 41.4303 35.9859 44.5945C35.6563 46.0656 33.4121 45.8576 32.0947 46.2967C30.6793 46.7685 29.1361 47.1733 26.7876 47.5581C20.3323 48.6159 18.9395 48.706 17.6222 49.6385C16.8963 50.1524 16.3049 50.8999 15.7029 51.5561C15.148 52.1611 14.9859 53.6333 15.1487 55.3864C15.3251 57.286 17.9396 57.6987 19.2569 58.4108C20.4949 59.0801 27.0968 59.1262 31.0981 58.799C31.4454 58.7706 31.7543 58.5802 32.0306 58.3615C33.9941 56.8071 32.3135 52.0084 32.0355 50.5792C31.7736 49.2325 30.9978 47.9495 30.3383 46.6322C29.9566 45.8698 29.0242 45.4234 27.4981 45.0945C24.7307 44.4981 22.5544 45.3083 22.0067 45.9645C21.0891 47.064 19.9263 48.0482 18.7175 48.9807C18.1749 49.3993 18.2751 50.4592 18.3837 51.4443C18.4335 51.8971 18.7093 52.2123 18.9839 52.4886C19.5317 53.0397 20.7881 53.2057 22.158 53.0429C23.5663 52.8755 23.426 50.5809 23.9194 49.2636C24.4249 47.9139 26.3797 47.7258 27.8089 47.2867C29.1072 46.8878 30.4386 46.7391 32.0289 46.573C33.4218 46.4275 34.7146 46.0812 36.3049 45.6421C37.7947 45.2308 40.0793 44.9826 42.1087 44.8198C47.3691 44.3978 42.0693 29.8589 41.8489 28.5415C41.546 26.7311 41.5167 24.379 42.2831 21.4763C42.8563 19.305 43.1613 17.8006 43.8191 15.5524C44.3011 13.9051 44.2599 11.2288 44.5329 7.88529C44.7855 4.79171 44.3717 2.55512 43.88 1.9532C42.868 0.714506 39.4576 0.907231 37.3575 1.28878C35.8296 1.56636 34.7277 2.98601 31.2264 6.42981C29.3037 8.32088 28.1493 9.99861 26.6133 12.7928C25.7345 14.3912 25.0772 16.1363 24.745 17.9486C24.173 21.0693 24.0871 22.9416 23.9227 23.7064C23.7159 24.6678 23.8668 19.0604 23.704 9.57759C23.6473 6.27827 23.2155 6.06471 22.8849 5.84433C21.6155 4.99803 20.2552 4.63719 18.9379 4.19809C18.2817 3.97935 17.1864 3.86752 15.8723 3.97606C15.3095 4.02256 14.9925 4.3017 14.7705 4.63062C13.8575 5.9832 13.565 7.47907 11.3217 12.6711C9.70467 16.4138 9.50608 18.7676 8.79396 20.9089C8.06801 23.0918 7.86147 26.0039 7.69537 27.5992C7.64109 27.984 7.53255 28.4182 7.47663 29.076C7.42072 29.7339 7.42072 30.6022 7.42072 31.4969" stroke="black" stroke-width="2" stroke-linecap="round"/>
</svg>
