<svg width="152" height="184" viewBox="0 0 152 184" fill="none" xmlns="http://www.w3.org/2000/svg">
<path d="M90.0476 6.73811C93.4995 5.75183 97.2339 2.22834 100.782 2.04158C102.56 1.94803 104.369 2.04158 106.15 2.04158C109.482 2.04158 112.487 3.17685 115.692 3.90528C117.957 4.41998 119.878 6.24768 121.917 6.70083C124.825 7.34717 124.949 10.0928 128.626 10.0928C132.673 10.0928 136.219 8.75091 140.368 8.75091C143.047 8.75091 146.883 8.18477 148.941 10.2419C150.023 11.3246 150.517 13.3307 150.432 14.7893C150.333 16.4701 148.622 16.7155 147.748 17.8085C147.113 18.6014 144.393 18.6286 143.387 18.8522C142.408 19.0698 139.972 20.9302 139.175 21.6477C137.549 23.1106 135.694 24.8245 134.329 26.5306C129.971 31.9779 132.416 44.2625 133.807 50.3487C134.872 55.008 136.05 59.9961 136.342 64.8111C136.507 67.535 138.355 70.4399 138.355 73.1605C138.355 89.1475 137.684 104.702 137.684 120.648C137.684 124.237 137.027 128.879 138.504 132.203C139.224 133.823 139.354 135.39 139.846 137.048C140.347 138.739 141.709 141.552 141.709 143.273C141.709 152.99 150.432 161.311 150.432 171.117C150.432 178.104 138.185 176.484 133.323 176.484C131.757 176.484 130.192 176.484 128.626 176.484C126.127 176.484 126.55 174.047 125.756 172.459C124.27 169.487 124.309 166.499 122.588 163.401C121.231 160.959 120.872 157.355 120.277 154.679C119.821 152.626 119.865 150.363 119.233 148.342C118.645 146.461 117.631 144.062 117.556 142.117C117.378 137.507 114.872 133.365 114.872 128.848C114.872 125.634 112.885 123.43 112.226 120.461C111.612 117.7 106.745 118.784 104.473 118.784C101.389 118.784 99.4118 119.185 97.2787 121.319C94.9875 123.61 95.3705 126.868 94.7068 129.854C94.2683 131.828 92.4042 137.308 91.2403 138.763C89.4926 140.947 88.1905 147.515 88.0348 150.318C87.7814 154.878 86.3567 159.714 85.3883 164.072C84.6942 167.195 84.6801 170.95 84.6801 174.173C84.6801 179.374 83.6408 180.983 78.4926 181.181C75.0357 181.314 71.504 181.852 67.9068 181.852C66.835 181.852 64.1747 181.684 63.3593 181.032C62.1781 180.087 62.5793 177.992 61.5329 177.155C60.2611 176.138 61.1974 169.446 61.1974 167.762C61.1974 164.308 61.1974 160.854 61.1974 157.4C61.1974 153.598 61.1974 149.796 61.1974 145.994C61.1974 142.936 60.0186 139.834 59.8556 136.899C59.7758 135.463 56.2845 126.862 55.83 126.835C52.7244 126.652 49.5795 128.669 46.7351 129.482C43.9689 130.272 41.1104 130.19 38.0503 130.19C35.901 130.19 36.3729 131.372 36.3729 133.209C36.3729 135.843 35.702 138.163 35.702 140.776C35.702 149.772 35.0672 157.239 30.3345 164.929C28.2769 168.273 27.5228 171.671 25.7871 175.142C23.1176 180.481 20.3715 179.839 14.5676 179.839C11.9685 179.839 3.1211 180.998 2.19262 176.82C1.39636 173.236 3.31452 170.379 3.49721 167.091C3.8689 160.401 4.83907 152.786 4.83907 145.957C4.83907 139.049 5.51001 132.015 5.51001 124.971C5.51001 120.499 6.85187 116.37 6.85187 111.776C6.85187 108.038 8.19374 104.542 8.19374 101.004C8.19374 97.4117 10.5623 93.6285 10.2065 90.6047C9.8273 87.3813 8.86467 84.618 8.86467 81.2117C8.86467 79.6462 8.86467 78.0806 8.86467 76.5151C8.86467 71.6697 11.871 67.6833 12.8903 63.0965C13.3732 60.9232 17.0241 50.3487 19.2641 50.3487C20.3928 50.3487 21.491 47.5731 22.6188 46.6959C23.9121 45.69 26.549 44.3728 28.1726 44.3104C31.3747 44.1872 35.6036 45.1532 38.6839 44.2731C41.8666 43.3637 41.7056 40.5906 42.9332 38.272C43.4211 37.3503 44.684 35.7155 45.766 35.5882C48.4437 35.2732 47.1838 33.5244 47.1078 32.2336C46.855 27.9358 43.8444 28.2773 41.4422 25.1888C39.5368 22.739 37.7148 21.3033 37.7148 17.8085C37.7148 15.3608 36.1449 11.9073 40.3985 11.4346C44.1356 11.0194 47.1799 9.42184 51.1334 9.42184C55.1539 9.42184 57.2418 10.4966 60.862 12.1056C64.2208 13.5984 65.9443 14.3522 69.9196 14.1184C72.4158 13.9715 75.8022 11.9538 78.3062 11.3974C79.8219 11.0605 80.7474 9.73665 82.3318 9.38457C83.8978 9.03658 85.8391 8.95997 87.3638 8.41544C89.4195 7.68128 91.6921 7.94558 93.7004 7.37177C95.3306 6.90601 97.8083 7.24193 99.4406 6.58901C102.574 5.33578 106.68 4.05438 110.176 4.05438C112.188 4.05438 114.201 4.05438 116.214 4.05438C118.141 4.05438 120.112 7.20234 121.246 8.71363C122.349 10.1845 122.56 11.9112 122.923 13.8202C123.412 16.3852 124.936 18.6453 125.644 21.1259C126.679 24.7467 128.291 26.7575 128.291 30.8917C128.291 37.0303 129.239 44.8594 126.8 50.3487C125.687 52.8516 125.24 57.0091 124.936 59.7418C124.694 61.9181 123.675 67.8869 121.246 68.4267C114.281 69.9745 108.786 68.6361 103.317 73.0114C101.616 74.3723 96.9396 75.0513 94.7441 75.1733C91.2076 75.3697 90.6463 72.5671 88.7057 70.1413C86.7288 67.6702 84.2006 64.5304 84.0092 61.0837C83.9226 59.5259 82.84 57.9418 82.6673 56.3871C82.3766 53.7712 79.9837 54.8057 78.3435 54.3371C77.8619 54.1995 74.9165 51.1727 74.6161 50.6469C73.0294 47.8703 71.2118 45.4926 69.2486 42.9685C68.3721 41.8415 67.8499 40.7781 66.5649 40.1357C66.0431 39.8748 64.8259 39.7202 64.5521 39.2411C63.0142 36.5498 60.7628 34.9037 58.5137 32.9045C56.3118 30.9472 50.6232 31.059 47.7788 30.8917C45.2922 30.7454 50.4386 22.6727 51.4689 21.8714C55.8519 18.4624 60.8711 17.1708 65.894 14.9384C66.5094 14.6649 69.8737 14.1184 69.2486 14.1184C68.1421 14.1184 65.7595 14.9983 64.9248 15.833C61.8596 18.8983 60.5265 23.3646 60.5265 27.537C60.5265 31.6392 62.8095 37.8196 67.0867 39.4647C69.1932 40.2749 69.3532 36.876 70.0687 35.5882C70.8065 34.2601 72.9968 32.6113 74.2806 31.8981C77.3931 30.1689 81.1139 29.4323 84.3446 31.2272C86.7886 32.5849 90.6755 36.9301 85.351 36.9301C83.3495 36.9301 67.7305 39.5002 67.2731 37.8992C66.9782 36.8669 67.8924 36.9704 68.5777 36.9301C69.4915 36.8763 69.1615 35.844 69.6214 35.2528C70.8668 33.6514 72.3168 32.006 74.0943 31.4135C78.4707 29.9547 81.7147 28.8789 86.3574 28.8789C90.8117 28.8789 86.7628 31.6396 87.4011 33.8736C88.115 36.3724 93.5087 35.5882 95.415 35.5882C98.2915 35.5882 100.985 33.0006 102.944 31.0408C103.889 30.0958 108.61 24.5497 109.803 24.8906C110.405 25.0626 110.164 26.0243 110.996 26.3443C112.703 27.0009 114.505 27.7264 116.139 28.5434C118.551 29.7492 118.243 30.729 117.22 32.569C115.841 35.0512 112.121 35.6716 110.325 33.4263C109.869 32.8572 108.671 23.4011 105.814 28.5434C105.188 29.6717 112.352 28.0738 113.679 29.4007C115.593 31.3148 118.237 31.8706 120.09 33.7245C122.602 36.2357 122.836 39.3873 123.557 42.633C123.943 44.3706 123.965 50.6453 125.272 51.6906C127.759 53.681 123.34 61.3229 122.401 63.0965C122.111 63.6457 120.404 65.8387 120.24 64.4383C119.952 61.9955 117.513 63.623 116.214 63.7674C114.801 63.9244 112.859 65.5297 112.859 63.0965C112.859 61.161 114.419 60.825 114.835 59.3691C115.376 57.4765 114.975 46.9118 113.008 48.485C110.938 50.1415 108.834 52.6372 108.834 55.3807C108.834 58.667 103.542 57.0908 101.789 58.0645C98.3993 59.9476 94.811 57.2893 91.5385 60.5618C88.0386 64.0618 93.9629 63.7674 96.086 63.7674C100.041 63.7674 101.453 66.8061 101.453 70.1413C101.453 72.7773 97.9696 74.5023 95.8623 74.5023C92.1758 74.5023 103.376 74.3238 106.821 73.0114C108.344 72.4312 111.359 71.9068 112.859 71.8186C113.775 71.7647 118.923 71.8186 115.878 71.8186C113.134 71.8186 106.119 70.5384 104.808 73.1605" stroke="black" stroke-width="3" stroke-linecap="round"/>
</svg>
