<svg width="144" height="141" viewBox="0 0 144 141" fill="none" xmlns="http://www.w3.org/2000/svg">
<path d="M32.8302 44.712C31.0138 44.712 27.0683 44.4332 25.2329 44.1502C21.5651 43.5846 15.9416 44.0023 14.2498 45.1999C13.3176 45.8598 12.6974 46.8199 12.2053 47.6627C11.7446 48.4516 11.7089 49.7727 11.8483 51.2491C12.0744 53.6434 14.8011 55.2642 16.6999 57.1672C18.1045 58.5749 20.149 58.652 22.3984 59.0027C26.8587 59.6979 28.5975 58.3732 30.2893 57.8093C31.9811 57.2454 33.6666 56.6835 34.8684 54.9284C35.9275 53.3815 36.066 51.2005 35.8611 48.1738C35.6453 44.9862 31.9938 44.9993 31.0708 43.7299C30.1899 42.5184 34.5114 44.5684 47.0722 44.7817C51.0402 44.8491 52.6757 46.2581 54.3675 46.822C55.2103 47.1029 56.0593 47.2466 56.7627 47.4557C59.0455 48.1343 57.6096 53.1521 57.2632 55.1945C56.9195 57.2212 54.8047 58.3648 53.1129 59.0724C50.4938 60.1677 46.3562 58.9393 44.7341 57.7417C43.1124 56.5444 42.4108 54.4362 41.4223 52.3262C40.5305 50.4225 41.5575 48.5181 42.189 47.745C43.4139 46.2456 45.4945 46.4017 48.1642 45.7005C52.9421 44.4455 54.7878 46.6805 56.976 46.8242C57.1699 46.8369 55.3877 46.8241 54.5302 46.615C52.4413 46.1057 52.1266 43.4532 50.6481 42.112C49.155 40.7576 48.8823 33.5093 48.1114 29.0886C47.9545 28.1886 47.0575 27.2574 46.0035 26.3429C45.2176 25.6609 44.1005 25.7029 43.1162 25.912C42.6515 26.0107 42.4108 26.5393 42.2672 27.3123C42.1235 28.0854 42.1235 29.2006 42.3326 29.9145C42.5417 30.6284 42.9599 30.9072 43.3845 31.0508C43.809 31.1944 44.2272 31.1944 44.582 30.9853C46.221 30.0195 46.3478 27.8235 46.4893 26.2711C46.6268 24.7622 43.3993 25.4241 39.6038 25.2108C34.5494 24.9267 27.6217 25.2763 27.3408 26.119C27.0599 26.9617 26.9162 28.0896 27.1253 29.3548C27.2241 29.9521 27.7526 30.3411 28.456 30.5566C29.1593 30.772 30.1351 30.772 30.7772 30.5629C31.4193 30.3538 31.6981 29.9356 31.8417 29.5111C32.3914 27.8862 32.5472 26.552 32.6887 25.7092C32.759 25.2906 32.5514 24.8665 31.5735 24.6511C26.6163 23.559 24.6732 24.8581 22.9856 24.7187C22.2627 24.6589 21.8556 24.3005 21.6402 22.8325C20.5854 15.6455 21.8471 13.3259 21.0762 11.3468C20.4202 9.66273 19.5998 7.9695 18.0517 6.69801C16.4804 5.40752 14.6744 4.72528 12.9826 4.16134C12.558 4.01983 12.1398 3.88043 11.785 4.01772C10.1437 4.65273 10.1629 7.10776 9.17862 8.79957C8.1933 10.4932 7.90712 14.1285 8.25773 16.8256C8.47751 18.5164 9.03077 20.2029 9.94532 21.8947C10.3798 22.6984 10.5811 23.5866 10.7226 24.4293C10.7929 24.848 10.5853 25.272 10.3044 25.5572C9.10975 26.7698 7.07071 26.8266 5.4486 27.8805C3.77459 28.9682 2.98164 30.7636 2.06709 32.4554C1.63265 33.259 1.43134 34.1472 1.22013 38.1961C0.675143 48.6435 1.28772 56.2527 1.49893 57.5157C1.96564 60.3067 2.82957 62.3018 4.17077 64.1372C5.55274 66.0285 7.19744 67.5145 9.86717 70.2582C12.0047 72.4549 14.235 73.2933 15.9269 74.2078C18.0732 75.3681 21.9739 75.2618 24.933 75.6884C28.5208 76.2058 30.7096 77.0951 32.4711 77.3084C34.5308 77.5579 36.4799 77.94 42.1721 78.0139C47.1504 78.0785 53.3769 72.7441 55.2124 70.9784C55.9722 70.2474 56.9042 69.7787 57.6075 69.1472C59.0823 67.823 58.4545 64.9969 58.6678 59.0977C58.771 56.2453 59.2993 54.0138 59.7936 52.2523C60.3863 50.1398 60.2878 47.8211 60.6384 44.8007C61.525 37.1636 60.2878 34.5907 59.9372 32.468C59.6593 30.7859 59.1642 29.0908 58.9508 27.3989C58.0928 20.5941 58.3193 8.39193 57.7554 6.70012C57.1968 5.02436 55.2272 4.02406 53.5353 3.24679C51.6745 2.39188 49.4568 1.48951 47.6214 1.13256C47.1991 1.05043 46.7787 0.923457 46.4238 1.06074C44.7011 1.72728 44.1005 4.15078 42.6917 5.8426C41.2013 7.63247 40.2987 10.4872 39.9417 12.179C39.3577 14.9471 39.8678 19.2145 40.0811 21.0499C40.1814 21.9124 40.4338 22.8811 40.6429 23.8654C41.4124 27.4874 50.42 24.0217 52.2554 23.1008C52.6792 22.8881 53.0981 22.6108 53.453 22.258C57.0347 18.6976 54.2345 9.23256 53.8141 8.45952C53.3634 7.63059 51.4296 7.53863 49.3195 7.67803C47.045 7.8283 46.2126 10.4872 45.505 12.179C43.8223 16.2024 45.3593 23.1641 45.9211 24.0069C46.2042 24.4314 46.483 24.8496 45.0932 25.065C37.1531 26.2959 35.3732 24.3005 27.721 23.9435C23.2658 23.7357 18.4762 23.312 16.7844 22.3277C15.9089 21.8184 15.0926 21.1999 14.3892 20.5683C11.9029 18.3359 13.2635 12.1938 12.7671 10.2907C12.6627 9.89044 12.1398 9.79438 11.8547 10.0014C11.1469 10.5151 11.1471 11.7587 11.145 12.2529C11.1388 13.6993 12.8326 10.0774 13.4641 9.37407C14.0521 8.71922 15.5023 8.80591 16.8393 9.01501C19.3827 9.41279 17.9017 15.1338 18.1847 16.8256C18.4967 18.6908 19.3126 20.7605 19.1711 22.6002C19.1175 23.2973 20.5756 23.3078 24.9034 23.519C36.1879 24.0697 44.2314 23.7302 45.0742 24.0111C45.4987 24.1526 45.9169 24.292 46.2717 24.5729C48.2759 26.1596 47.4714 30.3411 48.0354 32.0329C48.6148 33.7711 49.5836 35.4102 50.0778 37.1717C50.6382 39.169 51.5521 40.9018 52.5405 42.5936C53.4059 44.0746 53.6642 45.9709 55.2124 47.1726C56.64 48.2809 58.8685 48.0914 60.5582 47.4641C63.9921 46.1893 61.8339 42.1859 62.3281 40.285C62.4886 39.6678 62.3999 38.815 62.6787 38.3144C62.9575 37.8138 63.5151 37.6744 67.845 37.6026C72.1748 37.5308 80.2601 37.5308 84.6343 37.6005C90.2965 37.6907 91.9612 38.6545 94.9076 38.4475C102.929 37.884 104.634 39.0769 106.465 39.5711C108.789 40.1982 110.548 40.3442 112.59 40.9081C114.339 41.3909 116.318 41.6114 118.154 42.1754C119.858 42.6991 121.531 43.0223 123.223 43.4426C125.179 43.9287 127.027 44.0066 128.009 44.7754C133.297 48.915 133.925 58.0776 134.632 59.913C135.338 61.7433 136.181 63.7127 136.394 65.4742C136.876 69.4568 137.026 75.1182 137.239 79.7416C137.844 92.8595 138.014 94.8285 138.504 96.9428C139.226 100.059 139.56 102.01 140.124 103.845C140.676 105.642 140.827 107.645 141.391 122.518C141.607 128.216 142.373 131.571 142.73 133.837C142.865 134.695 143.083 136.366 142.874 138.336C142.795 139.078 142.247 139.192 141.752 139.263C139.582 139.579 137.6 138.212 135.908 137.578C134.073 136.891 133.232 134.697 132.174 133.005C131.187 131.427 130.693 129.907 130.482 122.58C130.287 115.813 130.41 102.846 130.271 95.9585C130.105 87.7616 128.864 86.1181 128.3 84.4263C127.49 81.9942 127.597 78.9327 127.105 78.5778C125.654 77.5315 127.031 82.5782 127.451 84.4136C127.849 86.152 128.856 87.7909 129.494 90.2494C129.793 91.4046 129.565 93.3923 129.356 94.4673C129.147 95.5424 128.729 95.6818 128.305 95.6142C127.88 95.5466 127.462 95.2678 127.177 94.9151C126.892 94.5624 126.752 94.1442 126.889 93.8591C127.193 93.2291 128.573 93.2909 129.629 92.2454C133.689 88.2258 129.565 84.572 129.215 82.4578C128.706 79.3898 128.442 77.6696 127.388 76.1172C127.133 75.742 126.617 75.6927 126.053 75.6209C125.489 75.549 124.792 75.549 124.015 77.5703C120.091 87.7732 120.703 92.4122 119.924 96.3746C118.902 101.567 117.738 102.998 117.387 104.69C117.041 106.359 116.893 112.807 117.313 117.642C117.479 119.554 118.439 121.162 119.003 122.854C119.567 124.546 120.129 126.232 120.063 131.78C120.049 133.012 119.436 133.413 119.011 133.698C117.489 134.72 115.913 134.689 114.719 134.34C111.466 133.39 111.122 130.05 109.437 127.237C108.104 125.013 107.321 123.013 106.826 121.108C106.31 119.118 106.332 112.08 106.822 107.381C107.162 104.121 108.723 102.314 109.287 100.058C109.818 97.9333 110.413 96.2563 110.626 94.4948C110.932 91.9708 112.102 89.2187 113.017 87.0327C113.791 85.1817 114.493 82.0459 115.271 79.429C115.837 77.5237 116.749 75.1435 117.664 71.969C117.85 71.3208 118.016 70.9108 117.879 70.556C117.244 68.9147 112.559 69.2127 109.3 68.8621C105.508 68.4541 103.248 68.3678 101.269 67.9475C99.5632 67.5851 97.8921 67.2442 96.1306 66.6105C93.7005 65.7364 91.1333 66.1121 86.2859 66.3254C81.1527 66.5513 73.535 67.2357 71.6299 67.6624C69.4712 68.1458 67.8999 69.069 66.3475 70.123C64.8849 71.1159 65.3569 73.4285 65.0063 75.1203C64.5163 77.4845 64.0896 80.8885 63.3884 85.3155C62.6687 89.8593 62.8224 92.7079 62.402 95.3249C62.0278 97.6547 61.6987 100.464 61.4854 103.909C61.3382 106.285 60.7102 108.769 60.3596 112.839C59.8801 118.405 60.1484 122.434 59.7978 123.277C59.4233 124.177 58.6023 124.829 57.7596 125.321C56.9707 125.782 54.5344 125.818 51.3683 125.678C48.5863 125.556 47.4799 122.447 46.7723 120.335C45.956 117.898 46.069 114.708 46.0648 107.4C46.0629 104.166 47.4714 102.314 48.1051 100.269C49.0024 97.3739 49.5836 95.4115 50.1475 93.6499C50.8876 91.3381 51.6957 89.0751 52.2596 87.0327C52.5143 86.1104 52.6842 83.4568 52.5448 79.8683C52.4739 78.0449 51.4211 77.243 50.5784 76.5396C49.8539 75.935 48.6078 75.9715 47.4123 76.1806C45.5358 76.5088 45.3678 79.9 44.6602 81.8791C44.0598 83.5583 43.5344 85.2564 43.3211 87.0179C43.052 89.2403 42.546 91.1703 42.1953 93.35C41.5116 97.6009 41.4223 99.6188 41.209 103.064C41.0719 105.278 40.5775 107.501 40.0135 109.406C39.187 112.199 39.3102 115.671 39.0272 122.622C38.9472 124.585 37.9035 125.53 37.0608 126.584C36.2841 127.556 35.369 128.069 34.3171 128.28C33.6919 128.406 32.8471 128.352 32.2768 128.143C30.2602 127.404 30.0168 124.28 29.8035 122.024C29.6959 120.886 29.3114 119.629 29.1002 114.809C28.5901 103.17 29.1678 94.9848 29.379 94.0027C29.8849 91.6499 30.152 89.9199 30.3653 87.8775C30.5555 86.0564 31.4193 84.4284 31.6326 82.7366C31.7412 81.8751 31.9853 80.069 31.7762 77.8175C31.5658 75.5513 29.3156 74.2902 28.3271 72.459C28.0507 71.9469 28.1835 71.1981 28.3229 70.6299C28.4623 70.0617 28.7411 69.6435 29.7211 69.4281C34.272 68.4277 35.3605 70.7587 36.2033 71.1812C36.6039 71.382 37.046 71.3248 37.4008 71.1157C39.2088 70.0503 39.8678 67.5314 40.9217 65.9093C41.9766 64.2858 44.3666 64.566 45.9845 64.7751C48.0626 65.0437 48.3163 67.9369 49.3005 72.083C49.6373 73.5016 50.1496 74.6957 49.9405 76.0327C49.802 76.9181 48.4641 76.9557 47.5517 77.1669C45.5496 77.6304 42.5671 76.3939 39.8868 76.3939C37.9323 76.3939 44.0836 75.6927 45.919 75.1984C47.5653 74.7551 49.2963 74.1466 50.9184 72.949C53.3999 71.117 55.6369 68.089 56.0614 67.8757C57.6127 67.0962 53.115 70.1927 51.0726 71.6712C50.1713 72.3236 49.5878 73.0103 49.3069 73.853C49.1654 74.2775 49.026 74.6957 49.7208 74.9112C50.4157 75.1266 51.9491 75.1266 52.8088 75.3357C53.955 75.6145 53.9514 78.2061 54.1605 80.8822C54.2298 81.7683 54.7878 81.6066 55.0033 80.9075C56.0922 77.3738 56.3424 75.9757 56.9739 75.2724C57.2769 74.9349 57.7448 74.8478 58.1693 74.9851C62.0855 76.2515 58.8854 85.6788 58.3193 87.3009C57.5826 89.412 53.5459 88.6442 51.4232 87.943C50.9977 87.8024 50.5805 87.7994 50.2953 88.0085C50.0102 88.2176 49.8708 88.6358 49.8687 89.0603C49.8666 89.4848 50.006 89.903 50.7748 90.1185C51.5436 90.3339 52.9376 90.3339 53.7951 90.1248C56.0884 89.5656 57.0436 86.963 57.8905 85.4106C58.7434 83.8474 61.5466 85.4 63.5891 85.7569C67.978 86.524 65.2133 71.3332 66.1975 69.6414C66.7069 68.766 67.186 67.9496 67.1184 66.8978C66.9182 63.782 64.7993 62.4623 64.0917 60.7008C63.3012 58.7328 63.2448 54.7404 64.2248 51.9693C64.9946 49.7925 68.1618 49.6459 69.9972 48.5181C71.9317 47.3293 74.4982 45.9877 77.4552 44.7162C78.7286 44.1686 80.6909 43.8672 82.8728 44.0763C85.659 44.3433 84.7885 51.5891 85.0694 53.999C85.1682 54.8471 84.649 55.6908 84.2287 56.3942C83.3555 57.8554 80.7163 57.3848 79.0963 57.5939C78.5544 57.6638 78.7309 58.2212 79.0118 58.576C80.2489 60.1386 84.3407 59.9193 86.8942 59.4293C88.9703 59.0309 90.6939 57.8072 92.7364 57.3172C94.6691 56.8535 95.7673 55.9781 96.61 55.976C97.6194 55.9735 98.023 57.3805 98.3039 58.2233C98.5849 59.066 98.7285 59.9151 98.5194 60.6881C98.0227 62.5245 95.3575 63.2903 94.8548 64.773C94.2687 66.5018 98.2976 66.1121 99.9894 66.676C102.031 67.3566 104.913 67.3793 107.099 68.2939C108.95 69.0683 110.692 69.2127 111.745 69.0733C112.257 69.0057 112.66 68.6551 112.945 68.0932C114.556 64.9185 113.235 61.195 112.25 59.5032C111.243 57.7711 109.019 56.8272 107.183 55.6993C105.476 54.6501 104.228 52.7465 103.447 50.8456C102.887 49.4844 103.654 48.0956 104.216 47.2529C104.778 46.4102 105.483 45.8399 106.326 45.559C109.15 44.6176 113.505 45.4133 115.266 45.6266C117.624 45.9121 119.841 46.6805 121.394 47.7345C124.5 49.8432 122.38 56.6793 123.223 56.8208C124.065 56.9622 124.775 56.1217 125.407 55.5578C125.691 55.3036 126.178 55.5514 126.463 55.8324C127.675 57.027 127.732 59.066 127.667 60.969C127.609 62.6375 123.947 62.0314 121.968 62.8721C120.124 63.6555 119.292 65.8248 118.796 68.4988C118.44 70.4172 115.913 70.0575 115.625 70.0575C115.355 70.0575 117.011 70.0575 117.655 69.8484C119.555 69.2317 119.85 66.129 120.34 64.1499C120.454 63.6896 120.83 63.3072 121.182 63.0917C122.598 62.2273 124.767 62.4539 126.742 62.1033C127.301 62.0039 128.003 62.0314 128.501 61.8223C130.464 60.999 129.988 57.5368 129.779 55.7774C129.66 54.7807 128.163 54.8502 127.388 54.6411C125.924 54.2463 128.577 51.4793 128.512 47.0523C128.491 45.6911 127.035 45.2781 126.192 44.7859C124.203 43.6243 121.125 44.0108 119.083 43.0962C117.325 42.309 115.634 41.1974 113.942 40.3505C111.876 39.3162 110.142 37.818 106.917 36.8296C97.8794 34.0596 95.7799 37.8096 94.0881 38.3735C92.1758 39.011 89.866 39.0769 88.2439 40.1308C86.4582 41.291 86.4782 44.4163 86.1972 46.746C85.9757 48.583 88.9958 51.0315 91.1882 52.6642C92.078 53.3268 93.3721 53.1605 94.4261 53.0211C95.423 52.8893 96.3291 51.7581 97.2437 50.6344C98.6673 48.8853 98.306 46.8326 98.0969 45.3562C97.7038 42.5805 94.0902 41.4762 92.3984 40.2111C90.863 39.0628 88.5987 39.3641 86.9069 39.0811C85.0418 38.7691 83.5296 37.6744 81.8378 37.1105C81.4133 36.969 80.9951 36.8296 80.5705 36.7578C80.146 36.686 79.7278 36.686 79.2969 36.686" stroke="black" stroke-width="2" stroke-linecap="round"/>
</svg>
