<svg width="193" height="173" viewBox="0 0 193 173" fill="none" xmlns="http://www.w3.org/2000/svg">
<path d="M21.8698 12.4269C16.662 12.4269 10.5052 14.7184 5.30155 13.2316C2.28601 12.37 0.322786 2.2019 5.25421 2.2019C9.36728 2.2019 14.4999 4.07207 18.0354 6.03627C20.6646 7.49694 21.1267 8.16647 24.426 8.16647C26.8783 8.16647 29.1202 5.42544 31.6214 4.71081C36.6441 3.27577 39.0466 2.82129 43.3612 6.27296C46.2502 8.58421 53.9518 10.4761 57.6572 8.8292C60.689 7.48173 68.1548 1.24369 71.4799 4.5688C72.5798 5.66868 72.9366 10.7227 70.8645 10.7227C68.8189 10.7227 66.2437 11.3518 64.6632 12.6162C61.0802 15.4826 58.5093 18.9817 58.5093 23.93C58.5093 28.3008 51.1903 34.4222 53.4441 26.5336C54.4938 22.8599 56.8063 35.6026 53.8229 37.9893C52.0156 39.4351 51.9252 42.172 50.6512 43.7645C49.4676 45.2441 49.8187 49.0318 48.7104 49.9185C47.5259 50.8661 48.2843 55.6724 48.2843 57.1612C48.2843 58.6316 46.6003 63.0349 45.5387 64.2145C42.3988 67.7033 35.4471 65.7542 31.2427 67.6228C25.7835 70.0491 22.7219 59.7988 22.7219 55.883C22.7219 49.8353 31.0514 49.9185 35.5031 49.9185C38.0329 49.9185 39.6135 49.731 41.2783 51.812C42.4896 53.3261 45.14 54.7277 45.6807 57.1612C47.0524 63.3338 40.4138 63.6639 36.7812 65.682C32.2151 68.2187 25.2781 67.5464 25.2781 61.4216C25.2781 56.2442 18.5734 53.6797 15.9052 50.3445C14.5758 48.6827 12.0766 47.0259 10.3667 45.6581C8.38613 44.0736 9.08857 41.1812 9.08857 38.8414C9.08857 33.4449 9.08857 28.0484 9.08857 22.6519C9.08857 20.0071 13.3819 17.0482 14.1537 20.5217C14.779 23.3355 16.0816 25.6178 15.9052 28.6164C15.774 30.8475 10.3543 29.4766 9.98799 26.9123C9.88404 26.1846 9.55064 23.4206 10.13 22.8412C11.2143 21.7569 13.2796 23.1067 13.349 24.356C13.428 25.7783 13.256 26.2233 12.5442 27.291C12.4444 27.4407 12.4969 24.7378 12.4969 26.0602C12.4969 28.7777 12.3633 31.0011 11.6922 33.3502C11.0153 35.7191 12.5654 38.7557 10.9821 40.7349C8.48308 43.8587 13.8951 45.4886 15.0531 46.9362C17.3448 49.8008 26.1302 52.2446 26.1302 46.9362C26.1302 43.8313 29.775 48.2143 31.2427 48.2143C35.7834 48.2143 34.5036 48.0914 35.5504 44.4273C36.2437 42.0007 37.7862 48.2989 38.0593 48.6403C39.0701 49.9038 41.9527 51.1586 43.3612 52.2854C45.1793 53.7399 45.5027 52.4747 47.8583 52.4747C50.7884 52.4747 49.9885 48.4826 49.9885 46.5101C49.9885 40.7606 54.7916 36.395 59.5507 33.5396C69.3002 27.6899 77.3096 26.0602 88.5215 26.0602C91.7283 26.0602 94.729 25.3734 97.705 25.2081C100.097 25.0752 103.667 25.9667 105.8 24.7821C108.367 23.3557 113.624 24.356 116.451 24.356C121.137 24.356 125.824 24.356 130.51 24.356C138.318 24.356 145.766 20.2345 153.138 18.3915C160.956 16.4369 170.13 11.5748 178.227 11.5748C179.302 11.5748 185.116 10.9779 185.422 12.0482C186.213 14.8177 184.559 16.5507 182.724 18.2021C178.341 22.1468 174.581 28.4492 172.878 34.581C169.699 46.0227 171.476 54.8949 174.203 66.108C175.732 72.3925 176.949 79.2955 176.949 85.7059C176.949 91.5751 177.924 97.1748 180.783 102.321C181.984 104.483 182.003 107.581 183.765 109.564C185.422 111.428 184.896 115.752 186.748 117.233C188.327 118.497 188.878 124.603 188.878 126.606C188.878 129.9 190.582 133.116 190.582 136.405C190.582 139.892 190.582 143.379 190.582 146.866C190.582 147.95 190.262 154.31 190.156 154.204C188.731 152.779 182.562 154.091 184.239 152.973C185.325 152.249 184.928 150.533 185.659 149.801C186.257 149.203 186.652 152.369 186.132 152.831C185.649 153.261 179.716 152.216 179.505 151.742C179.422 151.556 178.064 148.287 178.653 148.287C179.482 148.287 179.478 151.682 179.694 152.168C181.457 156.135 180.357 151.517 180.357 149.186C180.357 146.415 178.802 143.782 178.653 141.091C178.362 135.851 175.814 131.443 175.244 126.606C174.617 121.27 169.705 116.484 167.576 111.694C165.208 106.367 161.852 102.057 159.055 97.1617C154.486 89.1667 150.876 74.8175 138.179 81.8715C135.91 83.1323 132.962 83.7642 130.51 84.8538C128.818 85.6058 126.616 88.0566 124.972 88.2621C123.529 88.4425 120.669 91.1825 119.433 92.1438C117.216 93.8679 114.417 95.3422 112.38 96.9723C108.703 99.9134 103.23 101.043 98.5571 101.043C95.219 101.043 93.4446 101.858 93.4446 98.0611C93.4446 95.3628 93.4446 92.6646 93.4446 89.9663C93.4446 88.869 91.651 82.4713 91.0778 84.1911C90.2238 86.7528 92.1333 88.9647 92.6399 91.2444C93.7335 96.1656 96.853 100.327 96.853 105.73C96.853 111.092 97.705 116.994 97.705 122.771C97.705 128.685 94.9014 135.565 92.5926 140.76C90.0886 146.394 88.3322 152.003 88.3322 158.133C88.3322 161.182 88.9073 164.72 87.6694 167.506C87.3084 168.318 86.8986 169.754 86.6753 170.535C86.3596 171.64 87.3218 166.042 87.4327 165.044C89.1286 149.782 87.813 168.689 86.1546 169.163C82.5748 170.185 77.4865 168.802 74.2255 170.251C73.7239 170.474 78.912 170.962 78.0598 167.979C76.8426 163.719 75.0189 157.626 77.0657 153.02C79.0333 148.593 80.6634 141.232 80.6634 136.641C80.6634 123.863 80.9297 111.868 75.7403 100.191C75.0494 98.6368 74.6989 94.2482 74.6989 98.4871C74.6989 100.889 74.0881 104.231 74.7462 106.535C75.1475 107.939 76.889 107.105 76.2137 106.345C75.673 105.737 73.7828 107.008 72.9947 107.008C70.7561 107.008 68.6146 108.929 66.5567 109.517C52.3598 113.573 47.7758 96.8901 42.7458 87.8361C40.8282 84.3843 37.433 79.319 37.2073 75.4809C37.0854 73.41 36.7712 70.8717 35.0771 69.5163C34.2349 68.8426 34.5198 73.8257 35.3138 74.8182C36.2506 75.9893 36.9177 80.3555 37.2546 81.8715C37.7488 84.0952 39.0611 86.2557 39.9529 88.2621C41.2193 91.1116 42.3275 90.5783 41.4203 93.7533C40.756 96.0784 38.9114 98.3665 38.9114 101.043C38.9114 106.049 37.6873 110.659 38.8641 115.955C40.4407 123.05 46.2192 129.084 49.1364 135.647C51.8886 141.84 59.5357 146.775 61.0182 153.446C61.4552 155.413 62.2723 158.576 63.4324 160.026C65.2857 162.343 64.2228 166.075 67.0301 161.162C67.8664 159.699 71.0491 158.133 72.5686 158.133C75.7764 158.133 73.1304 153.156 72.1426 152.168C67.0222 147.048 64.3466 139.952 62.107 133.233C61.1002 130.213 61.3295 126.399 59.7874 123.624C58.4953 121.298 56.9558 116.536 56.8051 113.825C56.6729 111.445 54.4659 108.166 55.1483 105.777C55.5534 104.359 59.335 107.808 60.2135 107.86C65.0383 108.144 71.2989 106.584 75.9296 107.907C76.2347 107.995 77.2053 110.018 77.2551 110.416C77.3702 111.337 78.9053 111.593 79.622 112.31C81.3379 114.026 80.6634 117.031 80.6634 119.363C80.6634 124.818 81.0162 130.344 79.8587 135.553C78.7265 140.648 81.1949 146.687 79.764 151.695C79.2131 153.623 76.9137 154.77 76.4503 156.855C75.9232 159.227 76.268 162.519 76.403 164.949C76.4423 165.656 77.7392 167.411 78.5332 167.411C79.3908 167.411 78.7884 164.312 79.0066 163.766C79.3514 162.904 79.9886 166.452 80.0007 166.464C80.5381 167.002 82.303 167.752 82.3676 166.654C82.6757 161.416 81.3201 168.961 83.5984 168.31C86.1035 167.595 85.7759 164.333 85.7759 162.393C85.7759 158.319 86.968 153.154 89.847 150.275C91.9296 148.192 93.4446 140.122 93.4446 137.257C93.4446 134.661 95.1488 133.21 95.1488 130.866C95.1488 127.985 96.0009 125.588 96.0009 122.771C96.0009 117.375 96.0009 111.978 96.0009 106.582C96.0009 103.824 95.1506 101.215 97.8944 103.41C100.414 105.426 103.39 103.818 105.8 102.748C107.904 101.812 116.695 93.4525 113.232 99.3392C111.887 101.625 111.126 103.917 110.534 106.582C109.758 110.071 112.801 112.926 113.043 116.191C113.275 119.327 115.599 122.205 115.599 125.328C115.599 128.31 115.599 131.292 115.599 134.275C115.599 141.488 113.394 147.691 113.043 154.724C112.936 156.855 112.67 160.682 111.149 162.204C108.654 164.699 111.704 160.567 112.616 159.837C113.42 159.194 114.747 152.222 114.747 155.577C114.747 156.535 114.704 163.086 115.599 161.967C118.288 158.606 112.322 162.393 116.451 162.393C118.642 162.393 121.563 164.999 121.563 161.115C121.563 160.622 121.363 159.345 121.753 159.648C123.869 161.294 123.267 153.499 123.267 152.594C123.267 146.244 122.915 139.766 123.267 133.422C123.605 127.342 123.46 118.717 126.013 112.972C128.057 108.375 128.945 101.615 131.978 97.8244C133.397 96.0506 135.197 93.6375 135.197 91.2444C135.197 90.122 135.641 83.8545 135.197 87.41C135.008 88.9195 134.586 85.2276 135.859 83.8124C138.374 81.0187 143.019 74.4237 143.67 70.8418C144.134 68.2896 143.717 65.2951 143.717 62.6997C143.717 59.8624 142.359 66.0446 142.061 67.3861C141.516 69.8365 139.457 71.834 139.457 74.6288C139.457 78.0872 136.799 79.017 135.197 81.0194C131.871 85.1762 125.602 88.2942 121.185 90.8184C119.74 91.6437 117.494 93.3486 116.451 94.6527C115.23 96.1782 112.147 96.6476 110.676 97.8244C109.54 98.7325 104.812 99.3392 103.244 99.3392C99.5939 99.3392 99.7374 99.4844 97.5157 101.706C94.2469 104.975 95.1488 111.97 95.1488 116.381C95.1488 121.729 94.2967 126.676 94.2967 131.718C94.2967 136.398 92.7981 141.231 91.7878 145.778C90.8595 149.955 88.3322 154.98 88.3322 159.411C88.3322 160.717 87.4129 165.705 85.7759 165.802C82.4727 165.996 79.8113 164.778 79.8113 161.115C79.8113 155.719 79.8113 150.322 79.8113 144.926C79.8113 138.127 81.2603 131.472 81.5155 125.091C81.7258 119.833 81.3566 107.86 74.6989 107.86C69.6884 107.86 65.4389 109.995 60.8762 106.345C59.0289 104.867 55.0687 106.94 55.9057 103.174C56.5054 100.475 55.9531 96.9789 55.9531 94.2267C55.9531 86.7975 55.6676 79.3061 55.9531 71.8832C56.0562 69.2028 60.943 66.744 61.8703 69.9897C62.5629 72.414 62.7697 74.4253 62.7697 77.1851C62.7697 81.3979 64.103 87.1137 66.8408 90.1556C68.3062 91.7839 69.0802 93.8071 70.4384 95.5048C71.7639 97.1616 73.788 98.3696 74.6989 100.191" stroke="black" stroke-width="3" stroke-linecap="round"/>
</svg>
