<svg width="240" height="195" viewBox="0 0 240 195" fill="none" xmlns="http://www.w3.org/2000/svg">
<path d="M12.7819 56.398C13.3191 53.9805 18.857 52.3086 21.0523 51.563C27.2105 49.4715 32.1777 45.742 38.7383 44.8194C40.2475 44.6072 41.7778 44.2029 43.3188 44.3741C45.1182 44.574 39.8052 45.2507 38.0385 45.6465C27.9466 47.9071 19.0792 52.1804 10.269 57.5431C9.79981 57.8287 3.27694 61.3208 3.46176 62.0601C3.4873 62.1622 8.70752 60.4145 8.74211 60.406C17.0752 58.3513 25.6917 57.5431 34.2532 57.5431C35.2761 57.5431 40.0306 57.5431 39.4063 57.5431C38.0602 57.5431 38.4544 59.697 38.6747 60.6605C40.0297 66.5885 43.102 71.0897 46.7542 75.9289C50.4459 80.8204 56.1062 85.0504 58.9054 90.4976C59.9126 92.4576 59.5689 94.5152 59.9869 96.605C60.5654 99.4976 61.0424 102.312 61.3229 105.257C61.6535 108.728 61.2461 112.223 61.7046 115.691C62.0383 118.214 63.237 120.397 63.6768 122.816C64.0113 124.656 62.7971 126.824 65.1718 126.824C67.1281 126.824 68.9285 126.251 70.8657 126.251C73.2339 126.251 73.7009 125.247 73.1878 122.784C72.1611 117.856 75.0758 114.083 75.1918 109.329C75.3302 103.654 75.8056 97.4353 77.6093 92.0244C78.1894 90.2841 79.1223 86.7655 80.9174 85.7262C81.5285 85.3724 81.787 85.7111 82.1898 85.0264C83.2491 83.2255 84.7688 82.0402 85.3707 79.8733C85.7609 78.4688 85.747 76.8112 86.9294 75.8653C88.766 74.396 88.0058 70.2316 88.3926 68.1038C88.6508 66.6837 88.9334 65.5945 88.9334 64.1277C88.9334 61.4375 91.4783 61.352 93.6412 60.7241C101.59 58.4163 109.632 55.7709 117.689 53.9805C118.334 53.8373 123.227 52.6954 122.842 52.2628C121.586 50.8493 118.296 50.0087 116.639 49.2409C112.461 47.3046 108.497 45.7848 104.425 43.5789C101.127 41.7929 94.8956 42.1803 91.3509 42.7836C88.0101 43.3523 82.2776 45.0589 78.8816 43.5152C77.3237 42.8071 75.2971 42.8283 73.6331 42.6246C70.5129 42.2425 67.4799 41.1549 64.3448 40.9705C61.0404 40.7761 57.1007 40.4833 53.8795 41.2886C50.7668 42.0668 45.1345 45.8699 41.792 44.9148C41.3219 44.7805 44.546 44.0327 44.5912 44.0242C51.3675 42.7536 58.0763 42.6564 64.9492 42.6564C71.8353 42.6564 77.1471 43.0426 83.653 45.392C89.1948 47.3932 95.8852 45.6378 100.957 43.1017C106.128 40.5161 110.836 36.0476 116.862 35.7856C128.859 35.264 140.074 34.1278 151.566 30.0599C168.235 24.1595 184.598 17.6178 201.379 12.024C204.035 11.1387 207.399 8.94228 210.127 10.688C216.426 14.7198 219.118 21.8806 221.165 28.7875C222.668 33.8618 223.364 38.9972 223.741 44.2787C224.769 58.6707 225.174 73.1063 226.031 87.5075C226.931 102.627 229.212 117.435 229.212 132.613C229.212 136.372 231.134 141.711 226.572 141.711C223.178 141.711 219.595 141.851 216.33 142.856C215.951 142.972 214.539 143.747 214.357 143.11C213.4 139.76 212.421 136.112 211.845 132.677C210.264 123.256 211.61 112.743 212.481 103.285C212.998 97.673 209.818 91.9629 209.745 86.2351C209.724 84.5932 210.055 82.9487 208.155 82.2908C207.387 82.0249 202.613 80.9297 202.334 81.9091C201.754 83.936 204.926 86.2107 205.387 88.2073C205.93 90.5579 205.737 93.0672 205.737 95.4598C205.737 100.822 206.54 106.08 207.169 111.396C208.006 118.48 209.072 125.532 210.827 132.454C211.218 133.996 211.529 135.99 212.322 137.416C213.99 140.419 210.345 140.173 207.773 141.265C203.363 143.137 198.094 147.189 193.141 147.436C190.907 147.548 191.6 146.702 191.868 144.892C192.905 137.897 191.459 130.331 191.423 123.325C191.387 116.477 190.85 109.668 190.85 102.84C190.85 101.334 188.807 98.8316 187.161 98.8316C186.734 98.8316 186.844 101.311 186.397 101.758C183.567 104.588 178.892 106.679 175.582 108.82C161.729 117.78 144.79 125.627 128.6 128.987C124.907 129.753 119.598 131.309 116.162 129.019C114.633 127.999 113.55 126.534 112.122 125.424C110.638 124.269 110.963 124.94 110.659 122.816C110.401 121.008 109.181 120.765 109.832 122.848C111.878 129.394 112.397 136.784 112.981 143.556C113.513 149.716 113.733 155.898 114.126 162.069C114.53 168.397 114.419 175.402 116.544 181.472C116.956 182.651 120.492 188.335 118.325 188.788C114.722 189.543 99.2396 193.841 99.2396 186.307C99.2396 177.121 97.6154 167.727 96.6312 158.601C96.0067 152.81 95.7894 146.641 94.341 140.979C93.5922 138.052 92.6122 135.328 92.0825 132.327C91.8271 130.88 91.7995 121.788 90.3966 125.997C89.6696 128.178 88.9334 130.371 88.9334 132.677C88.9334 136.36 90.8435 140.043 91.3509 143.746C92.4671 151.895 95.5912 159.935 97.5219 167.921C98.2125 170.778 103.046 178.8 99.6849 180.772C95.2009 183.404 89.7916 185.656 84.6073 186.371C83.255 186.557 72.5022 188.838 72.3607 188.343C71.9228 186.81 74.2406 182.228 74.6192 180.741C76.2672 174.266 76.9095 167.549 76.9095 160.892C76.9095 158.358 76.6246 156.522 75.2554 154.371C73.6305 151.817 74.6423 147.12 74.6192 144.255C74.5725 138.47 73.6542 132.225 72.7742 126.506C72.6124 125.454 71.6375 123.358 72.9015 122.689C74.7135 121.729 77.0995 121.908 79.0725 121.225C80.7091 120.659 79.4038 117.405 79.1997 116.231C78.5607 112.557 77.0522 109.319 76.6232 105.543C75.783 98.1495 77.3063 91.2826 80.313 84.5174C81.3281 82.2335 82.0626 80.3494 82.0626 77.8693C82.0626 76.4027 82.0626 80.3876 82.0626 80.8912C82.0626 86.2033 82.0626 91.5155 82.0626 96.8276C82.0626 101.405 82.6351 105.925 82.6351 110.474C82.6351 113.841 83.6319 119.002 81.49 121.798C79.2347 124.742 74.9529 128.335 71.1838 128.987C68.5926 129.435 64.015 129.688 62.3408 127.269C60.4333 124.514 60.9933 121.359 59.7324 118.522C57.8528 114.292 57.1117 109.807 55.1519 105.607C54.1978 103.562 52.5725 100.46 52.3209 98.1954C52.0736 95.9703 52.2322 91.3434 50.4441 89.7342C47.552 87.1312 44.423 83.9079 41.5375 80.8912C39.6585 78.9267 34.6361 58.7519 38.2611 58.7519C38.8108 58.7519 38.5474 62.7988 38.5474 63.2688C38.5474 66.0714 38.9725 69.3292 41.4103 71.1575C44.8227 73.7168 47.8405 72.6236 51.5892 71.2848C53.9735 70.4332 56.4704 69.1712 59.0326 68.9945C60.1727 68.9159 57.516 69.1749 57.1559 69.2808C54.8473 69.9598 53.6584 71.0605 52.0028 72.7162C50.3955 74.3235 48.1724 74.1476 46.0544 74.1476C42.1082 74.1476 43.3031 76.2592 44.4003 78.7281C45.0403 80.168 44.4274 80.7396 43.8278 82.1636C42.8023 84.599 44.7107 87.4206 45.9908 89.2888C52.8136 99.2465 60.7778 108.95 66.5714 119.571C67.2516 120.818 70.063 122.816 71.4701 122.816C74.0394 122.816 73.911 121.801 75.2554 119.635C77.5569 115.927 79.7403 113.899 78.8816 109.361C77.4519 101.803 75.7643 94.4067 75.7643 86.6805C75.7643 81.2649 76.8242 78.7922 80.2176 74.7202C81.8676 72.7402 83.1294 73.4334 85.2117 72.9707C87.8605 72.382 84.359 70.8192 83.494 70.744C81.9716 70.6116 79.4668 70.8174 78.0546 71.412C77.0846 71.8204 73.9003 72.439 74.0466 72.4299C75.9113 72.3134 77.9849 71.6673 79.8995 71.412C80.8579 71.2842 83.4565 71.7868 84.2256 71.1575C84.5609 70.8832 84.2925 69.963 84.4801 69.5671C85.5814 67.2421 85.7498 64.7873 86.0387 62.1873C86.2034 60.7053 86.7522 60.406 88.2018 60.406C92.7632 60.406 97.4447 60.6345 101.562 58.3702C104.84 56.567 108.08 55.4375 111.613 54.3622C112.313 54.1492 117.88 53.6978 117.88 52.39C117.88 50.0885 112.119 47.5262 110.627 47.0461C107.005 45.8803 103.54 44.1623 99.8122 43.3562C97.2486 42.8019 93.3169 42.8213 90.9692 43.9288C88.3135 45.1814 85.2929 47.8208 82.3807 48.3503C80.5962 48.6747 79.9368 45.9195 78.5635 45.2329C75.0875 43.4949 70.9703 43.5698 67.2076 42.9427C64.2939 42.457 53.6606 40.7764 52.1618 43.229C49.6857 47.2807 47.9012 47.5477 43.128 48.2548C35.0967 49.4446 27.8248 46.6846 21.3704 52.4218C19.3628 54.2063 17.9529 56.9596 15.6447 58.3702C15.24 58.6175 11.4886 60.0664 12.4956 59.2608C16.3025 56.2153 19.0757 60.6162 22.3883 61.9964C26.3303 63.639 30.7378 63.387 35.112 63.2688C37.8909 63.1937 41.5368 61.3296 43.8914 59.9607C46.0907 58.682 45.1084 60.3607 43.9868 61.233C41.7344 62.9849 42.5186 65.77 43.0007 68.4219C44.233 75.1992 47.7041 81.7241 51.1439 87.6348C54.1662 92.8281 59.7963 95.4892 62.8497 100.486C66.5347 106.516 65.4581 113.426 65.4581 120.239C65.4581 124.256 75.1169 123.187 75.1918 124.534C75.5323 130.663 75.4075 136.612 76.2096 142.728C77.6261 153.529 78.6272 164.013 78.6272 174.919C78.6272 180.28 75.7643 185.184 75.7643 190.665C75.7643 193.078 76.6835 192.844 79.1679 192.637C82.2012 192.385 85.2532 191.13 88.2336 190.506C90.2017 190.094 91.4443 189.275 93.5139 189.234C94.2725 189.219 97.741 188.951 98.3489 188.343C99.2027 187.489 98.3213 185.876 98.0626 184.971C97.6277 183.449 98.0898 183.448 99.6849 182.363C102.421 180.502 103.915 179.633 107.383 179.5C110.446 179.382 112.409 177.747 112.409 174.633C112.409 171.465 111.572 168.677 111.295 165.631C110.102 152.504 111.264 138.874 111.264 125.679C111.264 121.522 111.212 126.824 113.681 126.824C119.44 126.824 124.993 122.782 130.508 121.353C144.785 117.651 159.021 114.167 172.274 107.357C177.066 104.894 180.887 101.057 185.57 98.4499C187.183 97.5521 192.337 94.3092 194.508 94.7918C195.753 95.0684 191.418 99.5057 191.169 99.9131C189.418 102.778 188.674 106.714 188.274 109.997C187.632 115.263 187.622 121.104 188.306 126.378C188.692 129.363 188.371 136.374 190.978 138.721C191.942 139.588 194.017 136.424 194.986 136.112C196.989 135.468 199.955 135.985 202.047 135.985C204.042 135.985 210.318 136.959 210.318 134.522C210.318 133.343 209.852 130.981 210.636 129.973C212.018 128.196 216.611 129.028 218.556 129.146C220.683 129.275 222.214 130.991 224.314 131.373C226.101 131.698 226.086 127.146 226.35 126.124C227.911 120.073 228.045 113.349 228.513 107.166C228.934 101.599 228.101 97.8586 226.095 92.7879C221.757 81.8211 218.334 70.5357 218.334 58.7201C218.334 49.6005 219.206 40.5631 220.592 31.5549C220.96 29.1632 221.196 27.0395 221.196 24.4933C221.196 22.5227 221.811 18.5288 220.656 16.7954C220.298 16.2595 220.997 18.0534 221.324 18.6085C222.231 20.1513 228.643 19.9261 230.103 19.6264C232.496 19.1355 234.779 17.6543 236.783 16.3183C237.993 15.5116 238.661 13.7981 237.101 15.0459C235.988 15.9364 234.539 16.5199 233.507 17.7815C231.864 19.7888 229.32 20.4502 226.986 21.4714C225.482 22.1295 222.029 23.7049 221.196 25.1613C219.837 27.5404 220.051 29.5387 220.051 32.3502C220.051 33.4886 219.985 34.6494 220.051 35.7856C220.109 36.7575 220.612 36.0033 220.751 35.5311C221.71 32.2715 222.183 29.1606 222.31 25.7338C222.5 20.5974 223.575 6.01206 216.043 6.01206C212.633 6.01206 211.256 2.08214 207.9 2.00409C202.906 1.88795 200.128 4.26075 196.067 7.09358C191.477 10.2961 186.511 12.7392 181.817 15.7457C179.23 17.4026 176.943 18.9299 173.991 19.8809C166.958 22.1473 159.825 25.0264 153.093 28.0559C146.925 30.8315 141.68 35.3057 135.375 37.7578C132.157 39.0092 128.09 38.254 124.687 38.9347C119.474 39.9774 114.471 42.0838 109.1 42.0838C101.898 42.0838 91.7835 38.9622 85.5616 43.8015C84.9904 44.2458 82.2366 47.0803 81.49 45.7737C80.6101 44.2339 78.514 42.9242 76.9095 42.2111C73.6239 40.7508 67.006 42.5033 63.7404 43.229C60.6652 43.9123 57.7753 45.5192 54.5793 45.5192C52.0792 45.5192 49.6298 46.488 47.1678 46.9188C44.4378 47.3966 41.0854 46.5402 38.5474 47.6823C27.8352 52.5028 16.6072 55.6913 6.19736 61.2966C4.88077 62.0056 3.61368 63.2653 2.25301 63.8096C0.943621 64.3333 5.07339 63.8414 6.48365 63.8414C12.8597 63.8414 18.2 67.3801 24.8058 65.6863C29.3442 64.5226 33.7655 62.8768 38.293 61.6784C39.2169 61.4338 36.0364 64.3746 35.7482 65.5273C35.0435 68.3461 38.3283 72.1265 39.4699 74.4975C40.0031 75.605 43.676 81.5418 43.128 80.4458" stroke="black" stroke-width="3" stroke-linecap="round"/>
</svg>
