<svg width="172" height="176" viewBox="0 0 172 176" fill="none" xmlns="http://www.w3.org/2000/svg">
<path d="M36.3323 48.6332C36.6349 48.2267 38.056 47.6185 39.3839 46.8025C40.5917 46.0604 41.8273 45.6809 43.1017 45.5266C44.6121 45.3437 46.6072 44.9658 49.561 44.7121C54.9542 44.249 58.0067 44.3545 60.4685 44.1009C63.2095 43.8184 64.443 44.758 65.667 45.2699C66.8899 45.7813 68.1104 46.39 69.3344 46.8484C70.7666 47.3848 72.8903 49.0305 76.7105 52.7942C78.4444 54.5024 79.1157 56.3684 79.5741 58.0936C80.7543 62.535 78.1041 65.1304 76.9336 66.9626C75.6633 68.951 72.0162 71.4323 68.1288 73.1804C66.511 73.9079 62.7468 75.0111 58.1137 76.0807C56.0257 76.5628 54.6785 76.5453 52.3956 76.6981C49.2116 76.9112 45.0149 76.2457 41.2482 75.3809C37.4167 74.5011 33.9974 73.2904 32.6695 72.7281C30.6389 71.8682 28.0867 70.2343 26.8627 69.1646C25.1528 67.6703 22.2861 64.0363 21.1553 58.9921C20.4276 55.746 21.5587 54.446 22.3717 52.9684C23.2628 51.3486 25.0183 50.7786 26.2423 50.1124C27.5856 49.3812 28.9914 48.9388 30.2154 48.6347C31.5352 48.3068 32.9644 48.1259 34.1884 47.9715C35.4531 47.8121 36.3292 47.3099 36.9389 47.1066C37.2461 47.0043 37.5487 46.9034 37.0994 46.8514C33.9113 46.4828 31.6625 47.1051 30.0198 47.2075C28.8841 47.2783 29.1014 44.9719 29.0479 39.182C29.0241 36.6068 29.5048 34.3792 30.116 32.7472C30.6578 31.3005 30.5256 29.5932 30.5256 29.0232C30.5256 23.8863 30.2199 36.6041 29.9663 39.399C29.4911 44.6348 29.6087 47.0929 29.355 48.6286C29.3043 48.936 29.3031 49.2383 29.2527 49.2429C28.1145 49.3464 28.7958 46.5 28.7423 37.0075C28.72 33.0446 29.1992 31.2191 29.3535 28.9805C29.4535 27.5295 29.8104 26.3292 30.5225 25.1052C31.2623 23.8337 32.5549 21.855 34.847 19.2007C36.3324 17.4806 38.2638 15.9382 39.688 14.9679C41.2815 13.8822 42.6402 12.7781 43.9682 11.7589C45.0206 10.9511 46.4116 10.8405 47.9397 10.4829C49.7313 10.0637 53.6241 10.1254 55.9377 10.7335C57.7448 11.2086 59.2475 12.3625 60.4715 12.8744C61.6618 13.3722 63.1166 13.6889 64.5454 14.0464C66.2344 14.4691 67.4992 14.6057 71.5135 14.7601C73.3257 14.8297 74.5284 15.217 75.7524 15.929C77.0056 16.6581 77.6885 18.0653 78.2004 19.2893C78.6873 20.4535 78.7092 21.7327 78.8636 29.6024C78.9274 32.8547 79.4244 35.2777 80.1854 40.2608C80.4825 42.2064 80.6469 43.4316 80.951 44.7564C81.3672 46.57 81.4598 48.2176 81.6141 50.4073C81.9036 54.5141 81.6676 60.2406 81.2596 61.4646C80.8404 62.7221 80.1395 63.908 79.5283 64.7285C78.6784 65.8695 79.9317 62.0865 80.4406 61.0642C80.9574 60.0259 82.7801 62.1782 84.8155 64.0592C86.3867 65.5114 87.4682 66.6585 88.7916 68.1362C89.935 69.413 90.83 70.9372 91.6965 72.1612C92.6362 73.4888 93.5806 74.6046 94.5998 76.0822C95.4803 77.3588 96.5329 79.6901 97.7064 81.6338C98.6874 83.2585 100.298 86.1019 101.172 88.1037C101.821 89.5893 102.645 91.4074 103.869 94.7173C104.94 97.6124 106.105 100.869 106.725 103.129C107.237 104.995 107.541 107.196 107.795 109.745C108.25 114.316 107.34 115.961 106.678 117.95C106.017 119.937 105.2 121.975 104.641 123.098C104.318 123.748 98.4246 123.51 90.4297 123.409C87.5767 123.373 87.1749 123.106 86.9166 122.851C85.9263 121.872 86.148 115.918 85.7935 112.512C85.758 112.171 85.4389 111.902 85.335 112.856C84.7109 118.583 85.5367 120.643 85.7904 122.988C86.0837 125.701 85.9432 127.987 86.096 131.524C86.2269 134.555 86.148 140.105 86.0975 143.164C86.0202 147.855 85.6406 150.697 85.4863 152.487C85.366 153.882 85.0294 155.489 84.8751 158.847C84.8275 159.882 84.519 160.486 84.2149 160.995C83.56 162.091 81.6737 162.219 80.2954 162.577C78.7589 162.975 77.2912 162.934 75.1595 163.188C69.3826 163.875 65.9039 162.934 61.6252 161.976C56.3743 160.8 59.8649 153.79 59.6112 150.975C59.2033 146.45 59.2536 144.811 59 143.228C58.6843 141.258 58.6424 139.01 58.3887 137.267C58.1967 135.947 57.8294 134.316 57.6247 132.735C57.5313 132.013 56.8117 131.559 56.202 131.203C54.4211 130.163 51.3137 131.046 50.0897 131.504C49.4292 131.752 48.8657 132.168 48.3064 132.472C47.1137 133.12 47.3345 135.215 47.0809 136.951C46.8439 138.573 46.7233 140.208 46.4696 143.555C46.0194 149.495 46.3168 153.763 46.164 154.927C45.6391 158.927 45.8064 160.783 45.5528 162.318C45.502 162.626 45.5008 162.928 45.047 163.084C42.5767 163.932 40.8249 163.545 37.9307 163.799C29.3389 164.552 28.0867 163.545 26.6091 162.937C25.2085 162.361 24.1137 161.107 23.2946 159.782C22.3763 158.296 22.8851 153.802 22.6315 150.768C22.5176 149.405 22.4786 148.167 22.3258 144.732C22.1911 141.702 22.2739 136.052 22.3243 132.89C22.3993 128.188 22.8851 126.37 23.1892 124.281C23.4356 122.589 23.6981 120.563 24.0556 118.526C24.4626 116.208 24.4132 114.555 24.3628 113.229C24.2742 110.9 23.9059 119.836 23.7515 121.06C23.673 121.683 23.3955 122.284 23.0914 122.793C22.4597 123.85 20.7519 123.711 19.3766 124.069C17.4454 124.571 15.7642 124.426 14.2316 124.173C12.5138 123.888 9.46239 123.815 7.20235 123.561C6.79362 123.516 6.29008 123.51 5.92945 123.358C4.40196 122.717 3.53341 120.765 2.66698 119.287C1.85617 117.905 1.49188 116.59 1.23822 113.849C0.57056 106.633 1.49188 102.556 1.74554 99.5262C2.17038 94.4512 4.64586 87.5567 5.20819 85.5702C5.83257 83.3645 6.27785 81.5482 6.48262 80.0155C6.72203 78.2236 7.19471 77.0618 8.11003 75.0768C8.83661 73.5011 9.84136 71.8663 11.3664 69.2761C13.8059 65.1329 14.0161 63.8163 14.9864 62.797C15.8984 61.8392 17.3779 61.573 18.6019 60.861C19.2353 60.4925 19.8259 60.045 20.3347 59.4368C22.2436 57.1553 20.9475 53.2236 21.4564 52.05C22.0764 50.62 24.1015 50.2652 25.5791 49.8572C26.8442 49.5079 28.0745 49.3483 29.2985 48.9403C30.6449 48.4915 32.0475 47.8203 33.2715 47.4123C34.4955 47.0043 35.7149 46.5978 36.8885 46.0889C37.1889 45.9587 37.3469 45.5831 37.4004 45.276C37.7843 43.0715 37.4509 39.7764 37.6052 38.502C37.7881 36.9916 38.3677 35.8034 39.0798 34.5794C39.4483 33.946 40.2992 33.3554 41.3673 32.8465C42.112 32.4917 43.1506 32.4355 44.3211 32.5867C46.1127 32.8183 46.5155 37.4048 46.8746 43.6211C46.9351 44.6694 47.3284 44.6602 47.6356 44.6097C48.9893 44.3875 50.3846 44.0489 51.6086 43.7448C52.2323 43.5899 53.7403 43.4377 55.6748 43.2864C56.4125 43.2287 56.6009 42.8326 56.7048 42.4246C57.1358 40.7322 57.316 39.4708 57.7744 38.1459C58.4125 36.3018 59.0458 34.8865 60.0131 33.308C60.6883 32.2062 61.6955 31.7234 62.3052 31.621C63.549 31.4121 64.7486 32.5333 65.719 33.6533C66.8693 34.9812 66.7902 37.417 66.8436 42.4506C66.8595 43.9465 66.4876 44.6571 66.2844 44.9643C66.2278 45.0497 66.0811 44.6663 65.8275 44.46C64.1816 43.1215 61.0934 43.8472 59.6158 42.9839C59.1792 42.7287 58.9541 42.1235 58.7983 41.7125C58.6424 41.3014 58.6424 40.9989 58.7937 40.7926C59.1177 40.3507 60.3661 40.3815 61.7902 40.5832C62.4333 40.6743 62.811 41.1883 63.0188 41.5979C63.2267 42.0074 63.2267 42.4108 62.8737 42.6186C62.5207 42.8265 61.8147 42.8265 61.3502 42.6752C60.8856 42.5239 60.6839 42.2213 60.58 41.8638C60.4761 41.5062 60.4761 41.1028 60.6778 40.7941C61.1108 40.1314 62.4045 40.0759 63.5246 40.2272C63.9615 40.2862 64.0396 40.681 64.0915 41.0386C64.1435 41.3962 64.1435 41.7996 63.8914 42.0074C63.6392 42.2152 63.135 42.2152 62.7743 42.0639C62.4137 41.9127 62.212 41.6101 62.0577 41.303C61.9033 40.9958 61.8025 40.6932 61.9018 40.4365C62.0011 40.1798 62.3037 39.9781 62.6613 39.8742C63.0188 39.7703 63.4222 39.7703 63.6805 40.0224C63.9387 40.2746 64.0396 40.7788 63.8394 41.089C63.6392 41.3992 63.135 41.5001 62.7239 41.552C62.3129 41.604 62.0103 41.604 61.6527 41.3014C61.2951 40.9989 60.8917 40.3937 60.8352 39.9812C60.7787 39.5686 61.0812 39.3669 61.6405 39.263C62.1998 39.159 63.0066 39.159 63.4727 39.3103C63.9387 39.4616 64.0396 39.7642 64.0915 40.2226C64.1435 40.681 64.1435 41.2861 63.9922 41.6483C63.8409 42.0105 63.5384 42.1113 63.1304 41.9111C62.0956 41.4034 61.396 39.5777 60.988 37.6951C60.8227 36.9325 60.9834 36.5185 61.3884 36.2603C62.3727 35.6325 63.7309 35.7973 64.5454 35.9485C65.1474 36.0604 65.0604 37.2184 64.9595 38.1337C64.8746 38.9041 63.844 39.5625 62.7254 40.2241C61.8779 40.7254 60.9895 40.5863 60.3279 40.2822C60.0293 40.145 59.9688 39.7764 60.1689 39.5197C60.6858 38.8569 61.8972 38.8534 62.7621 39.0047C63.1473 39.0721 63.3245 39.4586 63.3779 39.8666C63.4314 40.2746 63.3306 40.7788 63.1273 41.1395C62.9241 41.5001 62.6215 41.7018 62.2135 41.6544C61.8055 41.607 61.3013 41.3045 60.9406 40.8965C60.2309 40.0935 60.1705 39.0613 60.3218 38.3492C60.3932 38.0129 60.7756 37.8388 61.2845 37.7349C61.7933 37.631 62.4993 37.631 63.0142 37.7318C63.5292 37.8327 63.8318 38.0344 63.9876 38.5417C64.1435 39.049 64.1435 39.8559 63.8914 40.3723C63.6392 40.8888 63.135 41.0906 62.5726 41.0432C62.0103 40.9958 61.4052 40.6932 60.9422 40.2852C60.0486 39.4979 59.8649 38.0466 60.0666 36.7737C60.146 36.2721 60.6717 36.2068 61.2325 36.2557C62.519 36.3679 63.5292 36.9158 64.0381 37.3727C65.3953 38.5914 64.2474 41.5979 63.4345 42.721C62.9814 43.347 62.0072 43.1321 61.448 42.9808C60.0159 42.5934 60.4761 40.1829 60.7282 39.1667C60.8656 38.6128 61.4846 38.1505 62.2487 37.8907C63.0127 37.631 64.0213 37.631 64.6921 37.7822C65.3629 37.9335 65.6655 38.2361 65.8214 38.7449C65.9772 39.2538 65.9772 39.9598 65.8259 40.3739C65.5904 41.0186 64.9595 41.2953 64.605 41.9554C63.0407 44.8682 56.8148 43.3338 55.1859 43.7922C53.1196 44.3737 51.5215 45.0636 49.7352 45.3723C47.9045 45.6886 46.5277 46.0843 44.9461 46.2387C42.8577 46.4425 40.0058 46.2922 38.7818 45.8842C38.4747 45.7818 38.1721 45.6809 37.9154 45.4273C37.3455 44.8641 37.2491 43.5477 37.35 42.174C37.4174 41.2558 38.3647 40.5893 39.3304 39.9781C40.8609 39.0094 42.7442 39.4647 44.0186 39.9705C44.4549 40.1436 44.7796 40.7788 44.9874 41.3916C45.1952 42.0043 45.1952 42.7103 44.9935 43.2757C44.6097 44.3516 43.5693 44.761 42.8068 44.9138C42.451 44.9851 42.1451 44.9658 41.7876 44.8145C40.9716 44.4693 40.3084 43.4438 39.85 42.174C39.6181 41.5318 39.6941 40.8033 39.8454 40.2883C39.9967 39.7733 40.2992 39.4708 40.6064 39.2645C41.8381 38.4372 44.0644 39.0551 45.3954 39.6144C46.0641 39.8954 45.8064 41.5948 45.3526 42.9701C45.1484 43.5889 43.9911 43.4377 43.3218 43.0847C41.9885 42.3815 41.8334 39.7856 41.9847 37.3926C42.041 36.5013 42.4385 36.3107 42.7457 36.5093C43.5928 37.0572 43.6671 38.4408 43.6167 39.4066C43.5308 41.0521 41.54 43.0159 40.0547 43.7448C39.3002 44.1151 39.3885 42.1174 39.5398 41.4558C39.6065 41.164 39.9936 41.0967 40.4016 41.0447C40.8096 40.9928 41.3139 40.9928 41.7249 41.1945C42.136 41.3962 42.4385 41.7996 42.544 42.4108C42.6494 43.0221 42.5486 43.8289 42.194 44.1437C41.8395 44.4585 41.2344 44.2568 40.8722 43.8503C39.335 42.125 40.7087 38.3644 41.8288 36.6148C42.0039 36.3413 42.4385 36.6102 42.6953 36.8639C43.2652 37.427 43.3615 38.6426 43.2607 39.8635C43.2175 40.3865 42.9581 40.681 42.7029 40.8873C42.4477 41.0936 42.1451 41.1945 41.838 41.196C41.5309 41.1975 41.2283 41.0967 41.022 40.843C40.5644 40.2803 40.6109 39.4677 40.7118 38.858C40.7646 38.5391 41.0144 38.2483 41.5217 38.0924C42.029 37.9366 42.8358 37.9366 43.3523 38.0879C44.1677 38.3267 44.3792 39.156 44.532 39.7657C44.6808 40.3593 44.3823 40.9897 43.8749 41.6498C43.2411 42.4745 42.1451 42.9273 41.077 43.0297C40.6161 43.0739 40.3114 42.9304 40.0043 42.5254C39.2385 41.5158 39.0829 40.082 39.2341 38.9635C39.3059 38.433 39.688 38.0466 40.0456 37.7884C40.7277 37.2957 41.7264 37.3253 42.6418 37.4262C43.4122 37.5111 43.8688 38.2391 44.1744 38.8993C44.4971 39.5963 44.0767 40.4793 43.5189 41.2418C43.2203 41.65 42.6586 41.9035 42.2475 41.9081C41.8365 41.9127 41.5339 41.6101 41.378 41.1012C41.2222 40.5924 41.2222 39.8864 41.323 39.674C41.7527 38.7692 42.6464 41.5979 43.1048 42.8219C43.548 44.0054 44.9874 44.3484 46.3107 45.8261C47.3222 46.9556 47.3345 49.33 47.5882 52.6368C47.9935 57.9209 47.4384 61.7717 46.9815 62.331C46.1286 63.375 44.8926 63.0981 44.2325 63.2005C43.8792 63.2553 43.4715 63.1011 43.1629 62.3936C42.3302 60.4852 42.4447 58.2174 42.5455 56.8436C42.5877 56.2693 42.8481 55.9741 43.1033 55.7174C43.6122 55.2054 44.7796 55.0512 46.1029 55.2024C46.6376 55.2636 46.8211 55.6563 46.925 56.3669C47.1888 58.1706 46.8272 59.7332 46.3703 60.4957C45.5172 61.9194 44.2814 62.1812 43.6717 62.2332C43.3618 62.2596 43.062 61.9826 42.9061 61.2735C42.118 57.6883 43.2576 55.9741 44.3746 54.5469C44.6899 54.144 45.2869 54.0365 45.6979 53.983C46.109 53.9295 46.4116 54.0304 46.5674 54.3345C47.3203 55.8033 47.0289 60.8151 46.3199 63.9095C46.2231 64.3318 45.6108 64.5192 45.2517 64.5742C44.8926 64.6292 44.5901 64.4275 44.3334 63.9706C42.4797 60.6715 43.5632 56.1758 44.0201 55.4638C44.8247 54.2097 46.3107 54.1343 47.1252 53.9326C50.0195 53.2158 47.5393 46.6008 47.3865 45.6351C47.3139 45.1764 47.3345 44.7702 48.5448 44.5624C49.755 44.3546 52.1755 44.3545 53.4224 44.5563C54.6694 44.758 54.6694 45.1614 54.7198 45.5205C55.417 50.4858 55.3784 59.3237 55.9407 60.5981C56.2796 61.3662 56.8056 61.8756 57.4153 62.0788C57.7225 62.1812 58.025 62.2821 58.3322 62.1828C59.027 61.9581 59.4553 61.0657 59.7609 59.7485C60.7066 55.6729 58.9541 53.5353 57.9334 52.1004C57.4854 51.4708 56.4053 51.6894 55.7436 51.8911C54.3677 52.3105 54.975 56.6526 55.3295 59.2733C55.4301 60.0172 55.9927 60.5492 56.2968 61.1085C56.9453 62.3012 58.4346 62.0804 59.1971 61.9795C59.9184 61.8841 60.473 60.6623 60.9315 59.0364C61.3747 57.4644 60.6839 55.8733 59.9718 54.6523C59.0555 53.0812 57.6277 52.4045 56.7139 52.0989C56.22 51.9337 55.5984 51.995 55.2867 52.7514C53.7108 56.5752 55.2806 58.3029 55.736 59.6813C56.0514 60.6359 57.2121 61.0596 57.9746 61.4157C58.6172 61.7157 59.3514 61.7748 60.0635 61.6235C60.7316 61.4815 60.8826 60.5553 61.0354 59.4918C61.3158 57.5399 60.8856 55.9711 60.4287 55.3614C59.4107 54.0029 57.5299 53.4253 55.9988 52.3052C55.357 51.8357 55.1797 50.8795 55.0269 49.2078C54.9206 48.044 54.975 46.2249 56.8408 45.2897C61.9141 42.7468 66.5854 44.4554 67.1951 44.7091C68.4804 45.2438 70.0419 46.5856 71.5242 47.8141C73.1067 49.1258 74.0211 50.4608 75.0907 51.4816C76.2992 52.6348 77.5785 54.7333 78.8101 56.2691C79.7669 57.4621 80.5429 58.4099 80.899 58.7171C83.0579 60.5794 81.4598 50.7786 81.5637 44.023C81.5822 42.8235 81.5637 43.126 81.6646 43.4331C82.1197 44.8193 83.6908 47.5941 84.7192 49.6967C85.7014 51.7049 86.5514 53.1074 87.1642 54.4858C87.5353 55.3207 88.1834 55.965 88.5394 56.1208C90.2924 56.8882 88.6968 52.4106 88.2384 48.2435C87.8168 44.4112 86.6614 42.0196 86.1495 40.6413C85.4817 38.8431 84.4182 36.8241 83.7061 35.2426C83.0843 33.8615 82.2789 32.7472 81.8204 31.5232C81.3144 30.172 80.0417 28.8781 79.2227 26.6929C78.1054 23.7122 79.4213 21.2315 80.1823 20.9259C82.2695 20.0877 84.0025 18.9944 84.7192 17.72C85.5726 16.2024 86.2458 15.0214 86.504 12.5291C86.8865 8.83747 86.3558 2.79971 85.5429 1.42443C85.2266 0.889349 84.7299 0.956838 84.3708 1.10812C82.707 1.80905 82.1811 7.13643 81.5148 10.3729C81.3263 11.2885 80.6499 11.8552 79.8889 12.1608C77.9398 12.9436 73.147 12.5703 70.2604 13.1281C69.6115 13.2535 68.9356 13.6889 68.1227 13.9441C66.6421 14.4088 65.3721 13.2855 64.1481 12.827C62.505 12.2116 60.7878 11.3478 59.5134 10.7901C57.9169 10.0914 56.2036 10.1254 54.5761 9.87171C51.2496 9.3532 49.7856 10.1254 48.2575 10.379C46.5298 10.6658 44.2906 11.6473 42.2475 13.0746C40.8545 14.0477 39.1929 14.6057 37.5609 14.7601C34.2196 15.076 29.6118 14.9144 29.0525 14.6103C27.7364 13.8947 27.5733 11.9652 27.1653 10.7412C26.7573 9.51719 26.1491 8.09607 25.029 7.07225C24.4882 6.57786 23.0991 6.45796 21.4197 6.50838C20.435 6.53795 19.832 6.96528 19.3231 7.42218C18.8494 7.84758 18.9121 8.69508 18.9625 9.45759C19.0073 10.1349 19.8228 10.6327 20.946 11.6489C22.1956 12.7794 22.4756 15.0091 22.8836 16.334C23.4728 18.2472 24.0037 19.899 24.4621 21.123C24.9682 22.4742 26.2408 23.3647 27.4648 23.9775C28.1732 24.3321 28.6888 24.8959 28.9959 25.0991C29.8294 25.6506 26.8643 26.317 25.437 27.8451C23.9698 29.416 23.4964 31.5125 20.4524 37.0992C19.2702 39.269 19.5233 40.8827 19.2697 42.666C19.1903 43.2236 19.2177 43.9328 19.369 44.2461C19.5203 44.5593 19.8228 44.4585 20.0795 44.2552C21.2101 43.3602 22.2617 40.6016 24.2528 38.4026C26.3856 36.0472 27.4633 35.0882 28.6368 33.4608C28.9203 33.0677 29.0953 32.7472 29.3 32.8435C30.8716 33.5823 29.7126 36.0968 29.3046 37.3208C28.8966 38.5448 28.6919 41.7812 28.9959 44.0443C29.0815 44.6813 29.3031 45.9743 29.1518 47.6033C29.0928 48.2391 28.698 48.4254 28.3404 48.5797C26.9182 49.1936 25.4401 49.4461 23.3008 50.5632C20.6777 51.9328 21.7666 56.4692 21.7635 60.3338C21.762 62.2171 23.2885 63.2967 24.155 64.4703C25.0128 65.6323 26.0391 66.6585 27.1088 68.1362C28.0018 69.3699 29.4987 70.3259 30.9274 71.3971C32.8055 72.8051 33.8812 73.7916 35.1052 74.5572C36.7273 75.5717 41.8029 75.5276 45.5421 73.3974C47.2843 72.4049 49.156 71.1511 53.2284 71.0441C55.1515 70.9936 56.393 73.2782 57.721 74.0484C58.9252 74.7468 60.7695 74.9163 62.3052 74.5618C63.7111 74.2372 64.7486 73.1865 65.9726 72.4744C67.2442 71.7347 68.416 71.0472 69.64 70.3855C70.9056 69.7014 72.3891 69.2135 73.6131 68.451C75.1144 67.5157 76.1604 66.0595 77.3309 64.5314C78.0081 63.6474 78.6084 63.0003 78.7612 62.7436C79.7761 61.0385 75.867 67.4715 74.5391 68.4953C73.3909 69.3806 71.9979 70.6316 70.1611 71.8051C68.2435 73.0303 66.5946 72.9787 64.8128 73.3867C62.9505 73.8132 60.69 73.8956 59.2582 74.2531C58.956 74.3286 58.6485 74.3051 58.3918 74.4564C57.0788 75.2301 57.5238 77.8625 57.1158 79.6977C56.7867 81.1782 55.5923 82.7524 54.9261 84.1307C54.2015 85.6296 52.9457 87.4344 51.4665 88.7165C50.559 89.503 49.4769 89.6868 48.7664 89.8396C47.873 90.0317 47.032 89.6899 46.4727 89.233C45.3432 88.3103 44.9935 86.8415 44.5855 85.6175C44.1775 84.3935 43.771 82.9724 43.4135 81.6445C43.0927 80.4534 43.0559 77.7891 43.0559 75.8423C43.0559 70.9636 43.9666 82.5445 45.9516 86.6673C46.5988 88.0116 47.4323 88.5652 48.3966 88.8708C48.9402 89.0431 49.6633 88.9747 50.1783 88.773C51.1254 88.4021 51.3076 85.4326 51.3076 82.1702C51.3076 81.455 50.6963 84.69 50.1386 86.1676C49.8881 86.8311 49.5778 87.4436 49.3226 87.7003C48.4805 88.5474 49.9812 85.1117 50.0851 80.9905C50.1197 79.6175 49.0704 84.3782 48.2544 85.914C48.0812 86.24 47.848 86.5237 47.8953 86.6291C47.9427 86.7346 48.2453 86.6337 48.502 86.4305C51.2911 84.2224 51.6132 77.673 51.8668 76.3481C51.9442 75.9442 51.9188 75.4359 51.9188 75.8821C51.9188 79.8053 50.5007 82.2389 49.2737 84.5356C48.5801 85.8337 48.557 87.2358 48.7083 88.3054C48.7634 88.6954 49.1621 88.6691 49.4693 88.5683C51.0286 88.0563 53.3308 84.7205 54.8695 82.054C55.6466 80.7075 56.0935 79.2011 56.5015 77.9771C56.7048 77.3674 56.8087 76.7531 56.96 76.2442C57.2975 75.1089 59.2475 75.3258 60.7252 74.9178C62.0164 74.5613 63.2205 74.1034 64.4445 73.4417C65.6289 72.8015 66.888 72.2697 68.1624 71.7608C69.8855 71.0728 70.861 69.623 72.085 68.807C73.2913 68.0028 74.4245 66.469 75.702 65.3948C76.8074 64.4652 77.8902 63.5107 79.1142 62.9988C79.7071 62.7508 81.0442 62.6916 82.7235 62.8429C84.5752 63.0097 85.3289 64.8248 86.3482 66.0488C87.2548 67.1376 87.8778 68.4922 88.9444 69.5634C90.5251 71.1509 91.4413 72.667 92.7646 74.7559C94.7449 77.8818 98.061 83.1558 98.9809 84.9452C99.7933 86.5255 100.61 88.3574 101.273 89.6822C102.387 91.9078 103.36 94.0602 104.074 96.2989C105.242 99.9635 106.111 101.701 106.673 103.079C107.561 105.255 108.152 107.917 108.66 109.952C109.107 111.746 109.069 115.839 108.765 118.309C108.603 119.625 107.242 120.551 105.104 122.686C104.026 123.762 104.791 128.766 103.878 131.098C103.432 132.239 99.2162 130.844 95.7337 131.352C93.8011 131.633 90.9584 131.761 88.651 132.015C88.0927 132.076 87.2849 132.067 87.0709 132.067C86.1577 132.067 90.2066 132.372 92.1014 132.068C94.7577 131.642 96.8415 130.337 97.3 129.779C97.5468 129.479 97.4558 128.919 97.355 128.508C97.2541 128.097 97.0524 127.794 96.8477 127.79C95.5759 127.761 96.0317 130.533 96.1294 131.911C96.3442 134.937 103.36 131.251 104.022 131.252C104.299 131.253 104.381 130.85 104.383 130.493C104.39 128.884 103.672 127.287 103.518 125.452C103.483 125.039 103.366 124.738 103.062 124.481C100.381 122.217 94.7114 123.613 93.3865 123.459C91.6453 123.256 90.0293 123.002 88.2934 122.645C87.8891 122.561 87.4805 122.593 87.2727 123.198C86.074 126.688 86.2519 129.102 85.8439 131.295C85.4034 133.663 85.335 136.951 85.1807 138.479C85.0128 140.141 84.6199 141.535 84.3662 142.809C84.2173 143.557 84.2134 144.692 84.0606 148.232C83.7253 156.002 83.9078 161.605 83.755 162.571C83.5064 164.141 83.3974 165.978 83.1438 167.514C83.044 168.118 82.8901 168.738 82.4332 169.297C81.547 170.382 79.84 170.471 77.9544 170.879C77.086 171.067 75.4636 171.186 73.6299 170.934C72.6588 170.8 72.9056 169.355 72.7023 169.048C72.5033 168.747 72.3952 170.162 71.5883 170.926C68.2555 174.082 61.3379 170.88 58.4407 169.918C56.9412 169.419 58.8441 166.712 58.8976 155.949C58.9276 149.907 58.239 144.615 57.9807 140.739C57.8572 138.884 57.5238 137.268 57.3191 135.69C57.0639 133.723 56.3014 132.379 55.5893 131.155C55.2208 130.521 54.7733 129.931 54.3164 129.422C53.891 128.948 53.0435 129.111 52.281 129.315C50.7839 129.714 49.6817 131.449 47.8006 133.485C46.4716 134.923 46.5216 136.541 46.3673 144.718C46.335 146.428 46.216 146.73 46.1136 150.416C46.0112 154.102 45.9104 161.162 45.808 165.051C45.6922 169.447 45.5008 170.367 45.3495 171.18C45.1792 172.095 44.1806 172.711 43.3172 173.22C41.5486 174.262 38.5908 173.936 35.9931 173.432C34.2734 173.098 35.009 170.578 34.7553 170.321C33.8116 169.366 33.4839 172.91 32.3639 174.036C31.2141 175.192 28.4963 173.735 26.4074 173.327C25.63 173.175 25.0275 172.919 24.4178 172.463C24.042 172.183 23.8081 171.504 23.6522 166.25C23.4964 160.997 23.4964 151.113 23.4459 145.87C23.374 138.395 22.989 134.518 22.581 132.281C21.9754 128.96 22.0722 125.863 21.9178 124.431C21.8505 123.806 21.6626 123.207 21.6122 122.9C21.443 121.869 21.1553 125.741 21.001 128.034C20.8585 130.151 20.2385 131.553 19.7311 132.215C19.2475 132.846 16.6902 132.678 13.7365 132.476C12.4502 132.389 12.3933 131.052 12.1396 130.743C10.9652 129.314 10.9691 133.491 10.3594 133.797C9.17498 134.39 7.61035 133.393 5.87902 133.188C4.41729 133.016 3.83903 130.753 3.12388 128.257C2.2922 125.355 2.71435 123.418 2.71435 123.756C2.71435 128.833 3.01691 132.981 3.62662 133.489C4.64522 134.34 7.48199 134.206 9.43336 133.598C10.1329 133.38 10.6574 132.782 11.1158 132.224C11.3626 131.924 11.2716 131.364 11.3221 131.255C11.4258 131.032 11.779 132.064 12.2359 132.623C13.2639 133.881 17.0539 133.901 19.1627 133.496C20.5787 133.224 20.3363 130.649 20.7443 128.966C21.1993 127.09 21.5587 125.453 21.7131 122.603C21.8143 120.734 22.4756 118.931 22.8836 117.707C23.2916 116.483 23.4964 115.264 24.0541 113.128C24.744 110.485 26.1369 107.226 27.9202 104.774C30.2721 101.539 34.0768 99.5797 37.4875 97.6925C42.6057 94.8605 44.5779 95.191 46.41 94.5293C48.3999 93.8107 50.4824 93.3573 53.2757 93.0012C57.9924 92.4 62.1967 91.7253 64.3819 91.8766C68.7905 92.1818 71.4722 94.5736 73.6604 96.7084C74.9424 97.959 76.1543 99.763 77.5861 100.941C79.0069 102.11 80.0295 103.944 80.9494 105.168C81.8682 106.39 83.0857 107.611 83.9552 108.835C84.7673 109.979 84.6199 112.189 84.8736 113.776C84.9306 114.132 84.9255 114.537 84.6229 114.997C82.9364 117.56 79.84 118.614 77.7511 119.99C76.3959 120.884 74.8462 121.468 71.8466 122.538C70.8332 122.899 68.3427 123.708 63.8211 124.472C59.256 125.244 56.3044 124.833 53.7754 125.036C44.3097 125.797 41.8518 124.634 39.497 124.122C38.1074 123.82 35.9411 122.397 33.7422 120.867C31.0473 118.993 30.2261 117.299 28.7484 115.976C27.5312 114.886 26.0513 113.332 25.382 112.203C24.8499 111.305 27.0537 114.64 28.1784 115.915C29.5856 117.51 31.1307 118.412 32.3547 119.228C33.5342 120.014 36.21 120.551 38.2118 121.013C39.6609 121.347 41.3139 121.37 42.7457 121.674C43.3743 121.808 43.9697 121.981 44.4785 121.83C45.6589 121.479 45.5008 119.543 45.8553 118.015C46.224 116.426 46.6194 115.264 47.0274 114.04C47.5825 112.375 47.7379 110.068 48.4027 108.844C48.5515 108.57 48.3553 108.235 48.1521 107.978C47.7284 107.443 46.2251 107.312 44.4434 107.463C42.3559 107.64 41.2344 113.699 39.85 119.619C39.5893 120.733 39.6941 121.358 39.6941 121.165C39.6941 118.52 39.9997 117.098 40.6583 115.368C41.6903 112.658 42.6464 111.291 43.6121 110.067C44.0846 109.468 44.5809 109.045 45.3419 108.892C45.7942 108.801 46.4055 108.84 46.818 108.991C49.5422 109.99 47.4384 116.878 47.6371 120.542C47.7729 123.046 52.3161 121.474 53.9496 121.269C56.2338 120.983 57.4138 120.557 58.6882 119.845C59.4414 119.424 60.1674 118.827 60.6258 117.914C61.6339 115.904 59.6632 114.041 59.7105 110.281C59.7211 109.441 60.1644 109.152 60.4715 108.895C61.0568 108.406 62.0989 108.229 63.219 108.38C64.5794 108.564 64.1435 111.78 64.3972 113.974C64.872 118.082 64.7547 119.631 64.553 120.751C64.4122 121.533 62.1203 121.37 59.981 121.168C59.039 121.08 59.1528 119.845 59.0504 119.588C58.8799 119.161 59.5562 120.655 60.1659 121.011C60.7367 121.344 61.7933 121.37 63.0647 121.168C65.0655 120.851 66.1728 119.237 67.5007 118.621C67.7944 118.485 68.1104 118.418 68.115 118.467C68.2149 119.532 65.9833 119.433 64.8098 120.195C64.5062 120.392 64.3513 120.753 64.4491 121.11C64.6895 121.989 65.5677 122.59 66.075 123.048C67.2247 124.087 69.8341 123.711 71.7778 123.664C73.7847 123.615 75.0357 121.071 76.4645 120.151C78.1894 119.04 79.7239 118.216 80.9479 117.4C82.1719 116.584 83.1896 115.57 84.3097 114.902C84.5766 114.743 84.9194 115.252 85.0753 115.559C85.6412 116.674 85.7385 118.002 86.4001 119.226C86.7144 119.808 86.7592 120.45 86.9105 121.01C87.3323 122.569 90.6222 121.878 95.0888 122.489C99.4034 123.079 102.948 122.088 104.575 121.072C105.324 120.604 105.799 120.056 106.059 116.72C106.319 113.384 106.319 107.232 106.268 103.861C106.192 98.7579 105.811 95.9122 105.403 94.4804C105.004 93.0778 103.776 91.7314 102.706 90.2033C100.896 87.6164 98.171 84.3966 96.9516 82.9189C95.8976 81.6418 95.2187 80.1179 93.8969 78.3897C91.0387 74.6525 90.5305 72.4775 89.007 69.7315C88.0534 68.0126 86.7653 66.573 85.5413 64.837C84.33 63.1191 82.994 61.7809 81.9748 60.8105C81.0169 59.8986 80.5491 58.4191 79.1753 56.891C77.8849 55.4556 77.1873 53.9387 76.3713 52.3571C75.6768 51.0112 74.5406 49.8618 73.2662 48.4345C71.788 46.7791 69.6507 45.4792 68.4267 44.055C67.2267 42.6588 66.998 41.1028 66.6404 39.0169C65.9761 35.1418 66.182 33.8657 65.8779 33.2041C65.3542 32.0647 63.5384 32.2338 62.3144 31.8762C60.7334 31.4143 58.0434 31.0113 55.3891 30.8569C54.1528 30.7851 58.8319 30.1983 64.8327 30.0409C66.274 30.0031 67.1813 30.1922 67.0438 30.2442C63.1045 31.7324 58.5507 29.6849 57.5773 29.6849C54.3805 29.6849 64.0274 29.3793 66.9338 29.1256C69.6318 28.8902 70.7601 29.3793 71.0199 29.3793C74.1254 29.3793 65.2743 29.9905 63.083 30.2442C61.6218 30.4133 60.4791 30.4978 59.9199 31.2069C57.7127 34.005 58.239 38.5356 57.3221 40.4763C56.7575 41.6714 55.8949 42.5178 55.1843 43.0771C54.3821 43.7085 51.8363 43.7433 48.8321 43.592C47.735 43.5368 47.5424 43.1382 47.388 42.831C46.7717 41.6045 46.8272 39.8803 46.4192 36.8791C46.093 34.4795 46.0112 33.3554 45.7575 32.7457C45.4866 32.0945 41.867 31.8242 38.085 31.8242C33.1162 31.8242 45.5833 31.5186 48.3354 31.4178C48.9482 31.3953 43.9177 31.0082 39.2586 31.161C34.5406 31.3158 47.8541 31.213 46.4773 31.2634C45.7638 31.2895 49.6572 34.1469 51.0019 35.8462C51.326 36.2557 48.9757 34.3822 47.4461 32.7013C46.9686 32.1767 47.3284 32.1298 47.686 32.2811C48.502 32.6264 49.3669 33.551 49.9797 34.3654C50.1772 34.628 49.7856 34.7765 49.428 34.6772C47.6989 34.1968 46.5277 32.4416 44.9461 31.5217C43.6818 30.7862 41.4422 30.6018 37.9719 29.4847C37.5588 29.3517 37.8543 29.6788 37.8589 29.7842C37.9062 30.8731 35.4216 28.4655 34.8073 28.2592C32.8963 27.6175 38.1538 30.5956 41.2115 32.2261C42.7544 33.0489 44.6757 33.2484 46.2603 33.8077C47.9016 34.387 46.5216 37.7226 46.5185 40.27C46.5171 41.4302 47.2306 42.2122 47.6875 42.7715C48.6278 43.9224 52.4017 43.7433 54.6648 43.3888C55.3616 43.2796 55.8888 42.2213 56.3976 41.0019C58.0471 37.0491 56.9095 31.5217 56.8606 31.2145C56.5925 29.53 54.0642 33.6518 53.7006 34.5733C53.1658 35.928 59.2169 31.4391 62.7071 29.7903C66.2211 28.1303 68.1043 27.6495 69.1862 27.3423C70.8466 26.871 59.8343 30.9807 55.8903 32.8419C53.5245 33.9584 59.8587 31.6225 61.9904 31.1656C68.0017 29.8772 69.0273 28.768 69.8983 28.6152C71.4086 28.3503 67.4075 30.9013 66.946 32.4278C66.0903 35.2586 67.1997 39.4341 67.4533 42.4612C67.5845 44.026 67.6062 45.3692 68.1624 46.1821C69.7381 48.4851 71.9795 48.4254 73.3074 49.495C74.5856 50.5246 75.8548 51.6833 76.7212 52.8568C77.579 54.0188 78.6053 55.0451 79.1172 56.2691C79.6151 57.4594 79.9317 58.7125 80.3397 59.9365C81.3902 63.0879 86.0441 66.6585 87.0098 67.8825C87.9286 69.047 89.6015 70.8272 91.2869 72.7709C93.2269 75.008 94.8031 78.272 95.6191 79.496C96.4674 80.7685 98.3605 83.3514 100.049 85.8101C100.941 87.109 103.14 90.8818 105.041 94.2634C106.282 96.4708 107.028 99.8669 107.743 102.614C108.337 104.897 108.152 108.809 107.848 111.532C107.569 114.036 106.734 118.681 106.065 122.179C105.795 123.59 105.708 124.729 105.556 125.137C105.492 125.31 105.102 125.142 104.846 124.938C103.781 124.096 103.269 122.397 102.552 121.069C102.176 120.372 101.634 119.845 101.683 119.336C101.743 118.707 103.055 119.026 103.666 118.977C103.921 118.957 103.874 118.424 103.723 118.015C102.987 116.024 101.637 114.347 100.97 112.614C100.701 111.912 102.749 113.015 103.159 113.169C104.805 113.789 100.011 109.971 98.9396 108.493C98.7223 108.193 100.701 109.035 102.79 110.107C103.437 110.438 103.366 110.068 103.012 109.66C102.144 108.661 100.42 106.918 99.9008 105.435C99.0268 102.942 104.788 107.514 104.49 107.315C102.376 105.906 99.7082 103.556 98.1786 101.62C97.0782 100.227 103.562 104.152 104.227 104.306C104.778 104.434 100.338 100.417 96.0576 95.5776C94.6623 93.9999 95.0048 94.0663 96.3205 94.8747C99.9954 97.1326 102.749 98.9562 103.209 99.1105C104.776 99.6363 98.0915 95.0076 95.5259 92.1914C95.1505 91.7794 95.1148 91.4258 95.5167 91.5725C99.1757 92.9081 101.426 94.8823 101.733 94.9847C105.891 96.3708 92.0617 86.435 91.5498 85.4662C90.3748 83.2425 97.1441 88.5621 98.2122 89.427C99.6366 90.5804 91.1479 83.1772 89.7237 81.4993C89.085 80.7468 88.7029 80.124 89.8062 80.6191C93.7119 82.3718 96.9393 84.693 97.8577 85.101C98.6434 85.4501 92.6026 81.7683 87.3353 76.9196C85.4209 75.1574 84.7238 73.6969 84.6199 73.4402C82.9768 69.3808 93.8862 79.7023 94.1445 79.8062C97.3658 81.1024 86.7775 73.9169 84.3296 71.3161C83.4319 70.3624 87.4591 73.3821 88.8405 73.8956C90.201 74.4012 84.2348 70.1487 81.0243 67.1934C80.0198 66.2687 80.3351 66.4568 81.1465 66.7624C84.981 68.2067 86.4475 68.9018 90.2585 74.0789C91.7397 76.0911 92.6607 78.165 95.4953 82.569C97.6182 85.8672 101.154 91.3097 103.224 94.6195C105.891 98.8819 106.42 100.38 106.623 102.504C107.075 107.233 106.829 111.276 106.676 112.953C106.31 116.978 104.595 123.283 104.079 125.44C103.981 125.848 103.776 126.352 103.672 126.158C103.568 125.964 103.568 125.056 103.366 124.488C102.695 122.594 99.3018 122.697 97.7156 122.542C93.5254 122.135 86.5636 122.489 83.8665 122.542C82.685 122.566 79.8553 120.976 77.1475 120.25C73.9218 119.385 80.2373 126.358 80.2908 126.969C80.3505 127.651 77.9085 125.967 75.9235 123.931C74.7827 122.761 78.367 125.414 83.7703 129.898C85.6559 131.464 78.7123 123.513 78.7108 123.105C78.7001 120.251 85.6345 126.361 86.4979 126.615C86.9629 126.751 87.4621 126.969 87.0664 126.367C85.6162 124.161 83.0001 121.285 81.6233 118.89C81.193 118.142 81.5576 118.21 81.9152 118.413C82.7096 118.865 83.5961 119.735 84.1584 120.65C84.5734 121.326 81.2795 122.079 78.4739 123.447C76.2448 124.534 79.7269 128.491 79.8828 129.868C79.9677 130.618 77.8016 128.916 76.5806 127.745C74.2054 125.468 85.9432 136.954 85.9447 137.412C85.9454 137.597 85.5429 137.568 85.1853 137.467C84.3971 137.245 82.395 135.847 80.8073 135.024C78.4537 133.803 85.0202 139.9 85.6865 141.429C86.0278 142.213 81.9916 139.42 80.0952 138.132C76.5983 135.756 85.1272 145.303 85.2816 146.474C85.3426 146.937 84.9316 147.14 84.6245 147.193C82.7659 147.517 79.3419 143.09 77.2958 140.789C75.7843 139.089 81.8571 146.107 84.0942 149.715C85.1829 151.47 85.9279 153.222 86.0914 154.155C86.2793 155.228 81.6004 152.369 76.7044 148.593C73.7428 146.309 80.1365 155.187 80.138 156.052C80.1387 156.426 79.7361 156.614 79.2273 156.617C76.9016 156.631 75.5614 155.196 75.297 155.392C72.638 157.359 79.9317 159.67 79.8843 160.231C79.5496 164.194 71.081 155.401 69.7546 154.738C66.7304 153.225 77.7893 160.08 78.0995 159.73C81.2767 156.146 74.6384 152.858 74.5345 151.533C74.4882 150.942 77.065 151.926 79.157 152.439C82.9226 153.364 74.2381 143.702 73.2662 140.795C73.0236 140.07 75.5461 141.639 77.0696 142.452C77.8763 142.882 78.7948 143.265 78.2539 142.212C73.9503 133.836 70.971 130.85 70.9679 130.135C70.9515 126.287 79.1127 134.304 80.0341 134.665C81.7339 135.33 76.6799 130.854 75.6118 129.075C75.104 128.229 74.8462 127.397 75.6485 127.536C76.4507 127.675 78.367 128.784 79.7575 129.507C81.1481 130.23 81.9549 130.533 81.0594 129.277C80.164 128.02 77.5418 125.197 77.7542 124.75C77.9666 124.304 81.0931 126.321 82.2498 126.957C83.6152 127.707 80.0417 124.94 78.3135 124.125C74.4738 122.316 72.5113 121.981 69.0456 122.489C66.8138 122.815 60.7267 122.898 57.3741 123.456C56.5823 123.588 52.7684 123.815 47.2704 123.765C43.2131 123.728 41.43 121.682 38.9407 119.747C37.1708 118.372 33.5084 117.305 30.0289 116.23C29.0007 115.912 27.4999 115.27 26.5693 115.16C25.3105 115.011 24.2176 117.684 22.8439 121.04C21.751 123.71 21.4609 126.752 21.1553 134.09C20.9213 139.709 21.0514 149.194 21.2027 154.531C21.3801 160.791 21.9683 162.014 22.1195 162.574C22.4483 163.789 24.4071 163.643 26.389 164.56C30.01 166.235 31.638 165.886 35.4002 165.94C38.6308 165.986 41.2161 163.857 42.5409 163.241C43.3885 162.847 44.2753 162.833 44.5824 162.479C44.7486 162.287 44.2845 161.822 43.9773 161.614C42.1407 160.371 38.9851 159.982 38.5251 159.626C38.2448 159.409 39.688 159.469 40.915 159.32C44.3708 158.903 35.6263 153.674 34.9096 152.297C34.5872 151.678 37.946 153.753 39.1302 154.478C39.6834 154.816 36.1795 151.773 35.3345 150.832C33.9559 149.296 39.9936 152.745 40.4062 152.698C41.9307 152.523 38.166 150.713 38.3173 150.204C38.4734 149.678 40.6965 150.196 42.1833 149.698C45.7198 148.513 37.9643 143.989 37.8604 143.531C37.5906 142.34 40.7026 144.389 42.2384 145.664C42.7039 146.05 40.6171 144.197 39.9019 143.178C39.6939 142.881 41.0144 143.271 41.5752 143.425C41.9169 143.519 40.5193 141.15 39.8484 139.209C39.6948 138.765 41.9007 139.891 41.3215 138.746C40.7424 137.602 37.8176 134.273 36.7647 132.861C35.7119 131.449 36.6196 132.055 37.6923 132.921C40.0411 134.818 41.5247 136.242 41.378 135.791C41.1329 135.037 39.7185 133.625 39.8515 133.149C40.2949 131.559 43.3584 134.102 43.716 134.105C45.885 134.124 41.6348 129.634 41.3246 128.103C41.2501 127.735 42.4263 128.387 42.9948 128.85C43.5632 129.313 43.7649 129.616 43.3141 129.772C42.8633 129.928 41.754 129.927 40.9303 129.827C40.1067 129.726 39.6024 129.524 40.2503 130.429C44.3076 136.094 45.7025 136.342 46.1594 137.003C46.4094 137.364 46.7172 137.764 46.1671 137.719C45.617 137.675 44.205 137.171 43.8811 137.415C42.8092 138.224 45.9012 141.018 46.6179 143.055C46.8588 143.74 45.9226 143.882 45.2563 143.833C43.964 143.738 43.0589 143.173 42.4492 142.817C42.1524 142.644 41.8395 142.562 42.2384 143.064C45.8687 147.641 48.4531 151.519 48.5066 152.334C48.5291 152.677 47.8541 152.745 47.09 152.545C43.1679 151.517 41.1274 148.781 40.6125 148.518C38.445 147.412 43.2576 152.641 43.3615 153.353C43.4083 153.673 42.8603 153.863 42.3499 153.816C40.1428 153.611 39.3915 152.442 39.0844 152.39C37.847 152.181 42.4263 157.097 43.7175 159.873C43.872 160.206 42.4508 159.071 40.6705 157.642C40.0643 157.156 39.1012 156.73 38.7345 156.672C37.4093 156.462 40.4031 160.171 40.562 162.367C40.6323 163.338 37.1666 162.027 34.6163 161.004C34.0633 160.783 35.8189 162.626 36.7327 162.983C39.2335 163.962 41.9282 161.819 42.9978 160.903C45.233 158.991 41.7356 152.861 40.7668 147.117C40.0605 142.929 40.9166 137.812 41.9801 134.466C42.1397 133.964 43.0437 134.206 43.3554 134.055C43.8507 133.814 43.062 132.079 42.4966 130.543C42.389 130.251 42.4447 129.934 42.6968 129.778C44.1258 128.894 45.8003 130.233 45.8003 130.128C45.8003 126.347 51.3106 133.188 50.7009 132.935C49.2889 132.347 48.2544 131.559 47.9473 131.304C47.906 131.27 48.2453 131.352 48.149 131.252C46.8514 129.914 45.0974 129.726 44.587 129.773C41.8907 130.023 44.2845 134.915 43.1109 139.163C42.2472 142.29 42.6525 148.448 42.4981 151.767C42.2772 156.519 42.7442 160.563 43.3095 163.283C43.4443 163.931 43.3615 164.951 43.1598 165.37C42.3564 167.038 35.6599 164.261 31.4592 163.903C27.2337 163.543 24.0098 163.548 23.1968 162.838C22.2768 162.034 21.6657 159.692 21.2073 155.581C20.9411 153.195 21.0514 150.159 21.2531 147.239C21.6442 141.577 22.2739 138.286 22.3243 137.27C22.5058 133.612 22.3778 128.106 22.2235 124.287C22.1921 123.512 22.0722 123.21 21.8689 122.953C20.8874 121.713 18.7165 120.869 17.6896 118.93C17.1858 117.978 20.0276 120.044 20.6404 119.996C21.612 119.921 20.0337 116.902 20.0322 114.813C20.0317 114.129 20.4341 114.237 20.9429 114.592C21.4518 114.946 22.1577 115.551 22.471 115.712C23.3633 116.169 20.7519 112.52 20.1865 110.476C20.076 110.077 20.1346 109.763 20.2858 109.859C20.4371 109.955 20.7397 110.46 20.593 110.568C20.4463 110.677 19.8412 110.374 19.3782 109.966C18.9151 109.558 18.6126 109.054 19.3644 109.197C20.1162 109.341 21.9316 110.148 22.2617 109.908C23.7042 108.859 19.9329 106.502 19.9802 105.839C20.0483 104.885 22.2678 106.594 23.1342 107.055C23.3679 107.18 23.2946 106.407 23.5453 106.146C24.1479 105.517 25.4279 106.291 25.5348 105.891C26.1543 103.572 22.989 101.918 23.0364 101.456C23.1542 100.308 25.0214 102.929 25.2277 102.983C25.3988 103.027 24.6271 102.33 24.6699 102.171C24.7127 102.012 25.3178 102.214 25.6296 102.167C26.0929 102.096 25.6387 101.001 25.4829 100.438C25.4407 100.286 26.2347 100.784 26.496 100.588C28.6191 98.999 25.6357 96.007 25.9382 95.7503C26.1716 95.5523 26.8459 96.1995 26.9055 96.0544C26.9651 95.9092 26.4608 95.2032 26.7053 95.1421C26.9498 95.081 27.9584 95.6861 27.8728 95.191C27.7872 94.6959 26.577 93.0822 26.4578 92.5031C26.3386 91.9239 27.3471 92.4282 27.665 92.4359C27.9828 92.4435 27.5794 91.9392 27.6237 91.8812C27.668 91.8231 28.1723 92.2265 28.3312 92.283C28.4901 92.3396 28.2884 92.037 27.9828 91.7803C27.6772 91.5236 27.2738 91.3219 26.9651 91.4197C25.1289 92.0014 26.9559 96.499 26.7084 97.937C26.5969 98.5845 25.2323 97.5351 24.5202 97.3288C24.2096 97.2388 24.0098 97.9293 24.0067 98.3908C24.0009 99.2782 24.4132 100.075 24.2619 100.535C24.2115 100.688 23.8081 100.289 23.7026 100.335C21.7974 101.163 22.39 105.27 21.1553 108.262C18.7222 114.158 20.1407 117.085 19.3216 120.944C19.045 122.247 19.2177 123.785 18.9656 124.564C18.7134 125.343 18.2092 125.343 17.5964 125.242C15.1275 124.836 12.9159 124.53 9.95902 123.919C6.95194 123.297 5.06761 123.51 2.97566 122.851C2.55307 122.718 2.51264 122.293 2.46069 119.414C2.40873 116.535 2.40873 111.089 2.50959 107.527C2.65347 102.445 3.12082 100.591 3.27363 99.4773C3.56217 97.3738 3.729 93.6843 4.49152 89.7159C5.46604 84.644 6.78518 79.4211 7.39794 76.6064C8.0531 73.5969 9.43183 71.0594 10.4526 69.1172C12.001 66.171 13.6066 64.5314 14.9345 63.6115C16.2135 62.7255 17.8852 62.1843 19.2635 61.8267C19.6133 61.736 20.0245 61.7748 20.3332 61.926C21.596 62.5449 22.5734 63.908 23.5437 65.0815C24.6938 66.4725 26.9498 67.881 30.6616 70.575C34.8211 73.5941 37.4447 73.7916 39.6314 74.2531C40.5763 74.4525 42.1085 74.3051 42.9382 74.6581C45.9432 75.9364 44.1744 81.0226 44.885 83.4614C45.5563 85.7653 46.8242 87.138 47.1787 87.6973C47.6076 88.3739 49.4616 88.3635 51.5475 88.2626C52.9585 88.1944 54.2537 86.9454 55.7283 85.0674C58.6848 81.3021 58.129 77.9847 58.945 74.927C59.7082 72.067 67.5848 71.7685 70.045 70.3871C71.9793 69.301 73.911 67.6976 75.4972 65.7539C76.7579 64.2089 77.5846 63.0033 78.6573 62.033C79.6378 61.1461 79.8278 59.3359 80.3901 57.8583C81.0139 56.2192 81.5637 53.6392 81.8678 51.8483C82.0491 50.7808 82.1749 45.7237 82.1245 38.748C82.0965 34.8672 81.5637 33.664 81.2596 32.1864C80.9702 30.7799 80.4452 29.3854 80.0372 28.1614C79.6292 26.9374 79.2227 25.718 78.8147 24.2403C78.6305 23.5731 77.2973 22.3592 75.5644 21.337C74.0792 20.4607 76.3652 24.685 76.7732 26.1092C76.9456 26.7112 76.7777 27.1299 76.4232 26.9848C76.0687 26.8396 75.4636 26.1336 75.404 26.3751C75.0402 27.8491 76.4691 29.5779 76.2689 29.9386C76.107 30.2302 75.2619 28.9881 74.7973 28.4212C74.1031 27.5739 75.3352 31.375 77.2224 37.5393C77.8325 39.5322 77.1934 39.3669 76.5806 38.91C75.9679 38.4531 75.2619 37.7471 75.5537 38.5937C75.8456 39.4402 77.1567 41.8607 77.1261 42.3512C77.0162 44.1158 73.9263 39.3669 73.5183 38.9069C71.8326 37.0066 76.6677 47.7897 77.0818 49.8541C77.1014 49.9516 76.6799 49.5562 76.9779 49.8541C77.2759 50.1521 78.1836 51.0598 78.399 51.3257C78.6004 51.5742 77.2881 50.2683 77.0818 49.7059C76.8432 49.0555 79.0088 51.3746 79.727 52.1447C82.5259 55.1461 76.6738 46.7048 76.8251 45.7864C76.8675 45.5291 77.2789 45.8765 77.4348 46.2845C77.5907 46.6925 77.5907 47.1968 77.6915 47.6078C77.8762 48.3606 77.0925 45.5067 75.7646 41.2235C75.6025 40.7006 77.8871 43.9267 78.7077 45.6718C81.8701 52.397 75.1457 35.6995 75.297 35.1386C75.4161 34.6971 77.7771 37.1022 80.1731 39.8039C81.85 41.6946 76.8786 32.5424 77.1796 32.1818C78.2166 30.9396 80.0295 34.6695 80.3917 34.8819C80.8662 35.1602 79.0393 32.6738 79.4763 33.4547C84.144 41.7945 85.8332 44.6449 86.9059 46.5336C87.2101 47.0692 85.5398 44.4646 85.2831 43.6455C85.0101 42.7745 86.2488 46.7842 86.2504 48.9755C86.2508 49.6612 85.8485 49.4523 85.2892 48.6928C83.8182 46.6953 82.6884 44.3637 82.3797 43.3919C82.3451 43.2828 83.0796 44.1345 83.4417 44.7519C84.0089 45.7186 82.0924 41.7507 79.0882 34.6741C77.0052 29.7674 75.9648 27.1452 75.4544 26.2268C75.3389 26.019 75.5492 26.317 75.8043 26.5737C76.0595 26.8304 76.3621 27.0321 76.1145 26.2788C75.867 25.5254 75.0602 23.8109 74.5941 22.726C74.128 21.641 74.0272 21.2376 74.8325 21.4837C75.6378 21.7297 77.3523 22.6374 78.286 22.9537C79.2196 23.27 79.3205 22.9674 79.322 22.5594C79.3254 21.6418 79.0179 20.825 79.0668 20.2658C79.1918 18.8359 81.3559 19.7004 82.0176 19.6515C83.5382 19.5391 83.3944 17.3593 83.6511 17.257C84.8329 16.7856 81.5668 18.5788 81.6126 18.4305C81.7585 17.9588 82.9696 17.1729 83.0857 17.0079C83.557 16.3381 79.95 18.9791 77.9085 20.0014C75.2819 21.3167 83.0735 13.915 84.3647 12.2662C85.8185 10.4098 81.362 17.4541 81.2077 18.2701C80.8825 19.9895 84.1065 14.0067 84.872 12.5245C86.3009 9.75805 85.332 5.03683 85.4848 4.82749C86.3133 3.69243 84.8308 11.3081 83.6098 17.4189C83.1714 19.6132 82.7923 19.899 82.3843 20.0549C81.5198 20.3852 80.5491 20.4125 79.837 20.9198C77.2122 22.7898 79.7239 31.7875 80.6438 35.4305C81.7853 39.951 83.3913 44.6479 84.5649 47.6537C85.1265 49.0922 85.332 50.1582 85.5352 50.4149C85.8413 50.8016 85.8424 49.0458 85.6911 48.1809C85.6237 47.7957 85.2372 47.6185 85.0309 47.6659C83.967 47.9102 84.1126 50.0513 81.6248 53.0524C80.0028 55.0092 80.3412 56.9766 79.9363 58.5092C79.3732 60.6404 77.2912 62.1721 74.6995 65.1228C71.1328 69.1838 69.0456 71.1389 66.9032 72.9726C63.7078 75.7076 62.212 76.747 61.8529 77.155C59.835 79.4477 69.8341 73.2965 72.4869 71.7134C75.3892 69.9814 78.1775 63.963 80.1854 59.0349C80.4262 58.4439 80.3412 58.1135 80.19 58.1593C77.6466 58.93 76.3804 65.3199 73.9324 68.6909C71.5943 71.9106 67.6153 73.0765 66.1361 73.8436C63.9627 74.9707 62.4198 76.1327 61.0919 76.7989C60.4615 77.1152 59.8679 77.3613 59.5608 77.4621C59.4648 77.4936 59.8587 77.7647 60.2667 77.8686C60.6747 77.9725 61.179 77.9725 63.6071 76.3084C66.0353 74.6443 70.372 71.3161 73.0599 69.0469C76.8299 65.8642 78.4984 62.9117 79.9241 60.3154C81.1788 58.0305 80.8486 54.1527 81.0533 51.4449C81.2988 48.1988 81.7654 46.6039 81.9198 44.4646C82.0604 42.5153 81.9732 40.2898 81.8189 37.2856C81.721 35.3792 81.362 33.1628 81.1068 30.7133C80.7841 27.6161 79.5283 26.1275 79.0699 24.7996C78.5808 23.3829 77.4898 22.6587 77.2866 22.402C76.4966 21.4042 78.1958 28.5236 78.5075 32.0764C78.7788 35.1685 79.1188 27.0413 79.1188 26.7815C79.1188 24.1849 78.8132 31.2008 78.5595 34.205C78.3761 36.3769 78.4067 38.1352 78.153 39.6053C77.7442 41.9742 77.5907 47.1693 77.6411 53.1258C77.6765 57.3101 79.1127 60.1305 82.8718 65.9266C83.9245 67.5497 84.7055 69.079 86.3818 71.472C90.4065 77.2174 93.984 81.6277 95.3073 83.6631C96.5071 85.5084 97.1441 87.8378 98.2673 90.3928C99.5352 93.2772 100.818 97.2203 101.172 98.4443C101.547 99.7381 101.936 101.291 101.99 104.752C102.017 106.529 101.429 108.522 101.936 111.427C102.298 113.501 102.547 115.753 102.601 120.183C102.615 121.374 102.144 121.978 101.687 122.588C100.611 124.024 95.7566 123.815 91.1555 123.308C90.0344 123.184 88.7213 123.204 87.945 123.355C87.1687 123.506 86.967 123.809 86.8631 124.116C86.4385 125.371 86.8631 127.47 86.2519 129.564C86.0077 130.4 86.0471 131.147 86.0456 131.757C86.0405 133.774 88.7946 135.117 90.6681 137.654C95.8504 144.67 98.1588 145.71 99.8947 146.733C101.389 147.615 104.259 147.959 106.365 147.554C108.464 147.15 109.674 144.2 110.341 142.718C111.079 141.075 112.425 139.31 113.091 137.32C113.767 135.302 114.467 133.295 114.52 130.296C114.551 128.57 113.959 127.183 113.4 126.11C113.325 125.966 113.849 125.954 114.259 126.106C116.142 126.801 117.012 128.295 117.37 128.299C118.187 128.306 116.713 126.468 116.204 125.655C115.961 125.266 115.897 124.842 116.147 125.794C117.008 129.064 117.929 131.96 118.539 132.22C119.821 132.766 119.864 129.121 119.87 128.957C119.898 128.202 118.262 131.718 118.597 132.053C120.393 133.85 123.931 128.61 124.503 128.448C131.395 126.495 117.63 134.099 117.524 134.964C117.474 135.372 118.427 135.526 118.993 135.58C119.958 135.671 121.184 134.924 121.902 134.614C125.282 133.154 117.021 137.971 116.15 138.991C114.997 140.341 120.068 138.182 120.527 137.875C120.656 137.788 120.683 138.173 120.531 138.43C119.764 139.732 118.446 141.125 117.225 142.909C115.348 145.65 113.66 147.849 111.878 149.684C110.241 151.371 106.447 153.65 101.14 154.276C99.2075 154.504 97.8715 152.855 95.7321 151.631C93.6441 150.436 91.9608 148.375 90.7368 146.843C89.7892 145.658 88.599 144.603 87.375 144.038C87.0922 143.907 86.7653 143.986 86.6095 144.188C85.6764 145.395 87.1626 147.543 87.6745 148.871C87.9057 149.471 88.1834 150.095 88.6403 150.654C89.9526 152.261 93.4706 152.947 95.5136 153.662C97.0646 154.205 99.7846 154.071 101.728 153.717C103.37 153.417 106.093 151.84 108.198 150.966C108.557 150.817 108.959 150.612 108.915 150.558C107.322 148.636 101.655 153.35 97.8776 154.273C92.967 155.473 88.2017 150.416 85.1899 147.054C84.5777 146.371 84.3204 145.93 84.3158 145.772C84.2337 142.952 91.7408 150.496 92.8716 151.423C93.9148 152.279 90.4327 149.389 90.3731 149.333C86.0572 145.238 98.77 153.356 101.47 153.359C103.207 153.361 104.479 152.036 106.261 151.577C107.923 151.15 109.265 150.306 110.643 149.49C112.215 148.559 114.051 147.354 116.193 145.369C117.499 144.159 118.134 142.77 118.491 141.292C118.577 140.939 118.543 140.63 118.342 140.575C116.954 140.197 116.508 142.757 115.492 144.336C113.862 146.867 111.013 148.974 109.028 150.144C105.803 152.046 103.476 152.03 101.944 152.288C100.117 152.596 97.6759 152.745 95.3242 152.698C93.0604 152.652 91.9608 150.306 90.7368 149.541C89.5954 148.827 88.2934 147.562 87.6776 146.13C86.7872 144.06 86.7653 138.613 86.3527 131.891C85.9439 125.23 85.5367 123.62 85.4344 122.392C85.3923 121.888 90.283 121.981 96.7499 121.931C100.816 121.899 102.954 121.474 103.463 121.017C104.414 120.163 104.583 118.626 105.044 116.794C105.767 113.925 105.708 106.138 105.403 101.717C105.296 100.158 104.895 98.7606 104.134 96.7282C102.429 92.1761 100.622 90.2094 98.5362 86.7498C94.8252 80.5947 92.4682 77.2696 91.9562 74.2654C91.6477 72.4546 91.5452 71.255 93.0656 66.0809C94.5095 61.1674 97.245 57.6092 98.8189 54.8189C100.945 51.0495 101.936 48.0281 102.494 45.4471C102.918 43.4848 103.354 40.1431 103.664 34.6466C103.975 29.1501 104.076 21.586 104.027 26.968C103.978 32.3499 103.776 50.907 103.723 60.8701C103.669 70.8333 103.77 71.6401 103.721 71.501C103.672 71.362 103.47 70.2526 103.013 63.3273C102.557 56.402 101.851 43.6944 101.336 36.5934C100.821 29.4924 100.518 28.383 100.766 32.0473C101.013 35.7117 101.82 44.1834 102.437 49.4049C103.055 54.6264 103.458 56.3409 103.616 49.7609C103.773 43.181 103.672 28.2546 103.57 20.2123C103.458 11.4623 103.263 10.434 103.212 10.3286C103.124 10.145 103.061 11.2317 103.009 21.0252C102.957 30.8187 102.957 49.6784 103.058 50.8718C103.159 52.0653 103.36 35.021 103.464 26.7953C103.568 18.5696 103.568 19.679 102.862 24.3855C102.156 29.092 100.744 37.362 100.168 41.1181C99.5921 44.8741 99.8947 43.8656 103.379 39.3623C106.863 34.859 113.519 26.8916 113.57 25.964C113.62 25.0365 106.863 31.3902 103.23 34.8651C99.5982 38.34 99.2957 38.7434 99.2911 38.7495C99.2865 38.7556 99.589 38.3522 103.577 34.9675C107.566 31.5828 115.231 25.229 114.691 25.6874C114.152 26.1458 105.176 33.609 100.703 37.3528C96.2303 41.0967 96.5329 40.895 97.1426 41.0936C98.7752 41.6256 100.906 43.6302 105.162 47.9333C108.217 51.022 112.645 56.3714 113.621 57.8629C114.598 59.3543 111.875 56.9338 108.858 53.9219C105.842 50.91 102.615 47.3802 100.397 44.7549C98.1801 42.1297 97.0708 40.516 96.6505 39.7856C96.2303 39.0551 96.5329 39.2568 99.0588 41.6804C101.585 44.1039 106.325 48.7432 109.775 52.3434C113.226 55.9436 115.243 58.3641 116.988 60.2665C118.733 62.169 120.145 63.4801 120.721 64.1051C121.297 64.7301 120.995 64.6292 118.267 62.3081C115.539 59.9869 110.396 55.4485 106.586 51.7994C102.777 48.1503 100.457 45.5281 99.4133 44.2277C98.3696 42.9273 98.6722 43.0282 102.913 46.8621C107.153 50.6961 115.322 58.2602 119.531 61.8542C123.739 65.4483 123.739 64.8432 123.89 63.8759C124.042 62.9086 124.344 61.5975 125.912 56.6358C127.48 51.6741 130.304 43.1015 131.809 38.9879C133.314 34.8743 133.415 35.4794 132.559 39.0185C131.703 42.5575 129.888 49.0122 127.944 54.7073C126.001 60.4025 123.983 65.1427 123.096 66.929C122.208 68.7153 122.51 67.4042 124.633 61.5348C126.755 55.6655 130.689 45.2775 132.816 40.5313C134.943 35.785 135.145 36.9953 135.4 42.7623C135.655 48.5293 135.958 58.8164 136.214 64.7209C136.471 70.6254 136.673 71.8357 136.777 72.7617C136.881 73.6877 136.881 74.2929 136.881 69.5619C136.881 64.8309 136.881 54.7455 136.78 48.6424C136.604 38.0241 135.658 36.0051 135.608 35.5451C135.599 35.4698 135.456 35.7911 135.657 41.141C135.857 46.4908 136.361 56.8788 136.57 62.0284C136.78 67.1781 136.679 66.7747 136.526 65.8609C136.138 63.5405 135.863 58.0462 134.802 51.9339C134.411 49.6785 132.027 49.8557 131.899 50.3599C131.376 52.4145 135.45 53.3153 135.91 53.9265C137.523 56.0702 128.531 52.7101 128.878 52.7575C131.684 53.1408 134.023 54.5408 134.636 54.5927C134.952 54.6195 133.827 54.0335 133.571 53.8807C133.182 53.6493 135.444 54.0304 137.023 54.7899C137.741 55.1356 137.693 56.2553 137.695 59.4459C137.697 62.6366 137.596 68.0827 137.493 71.0396C137.38 74.3033 137.186 75.2158 137.186 75.4771C137.186 75.8209 137.186 73.8222 139.052 66.5409C140.918 59.2595 144.649 46.0477 146.622 39.5946C148.595 33.1414 148.696 33.8474 146.68 41.2709C144.665 48.6943 140.53 62.8139 138.551 70.2388C136.572 77.6638 136.874 77.9664 137.635 78.2231C143.019 80.0393 148.488 81.1265 149.562 82.3489C152.218 85.3716 137.412 79.6106 134.85 78.8909C134.442 78.7763 134.136 78.6876 134.737 78.787C136.859 79.138 141.838 80.8117 146.781 82.7982C150.231 84.1846 134.237 79.0941 133.725 78.5883C133.437 78.3036 134.222 77.4774 137.053 69.8522C139.885 62.2271 145.028 47.7041 147.728 39.7688C150.429 31.8334 150.529 30.9257 150.43 31.1137C150.331 31.3016 150.028 32.6127 148.561 36.8684C147.094 41.1242 144.472 48.2848 142.617 54.2932C140.762 60.3017 139.753 64.941 138.78 68.6924C137.807 72.4439 136.899 75.1669 138.095 77.5782C140.909 83.2496 146.352 84.2866 147.012 84.5922C147.35 84.7486 147.773 84.6961 148.081 84.4944C149.531 83.5474 150.114 79.525 152.048 74.1813C152.961 71.6601 154.875 67.5632 156.163 64.8783C157.452 62.1935 158.158 61.0841 155.395 68.2783C152.632 75.4725 146.379 91.004 144.923 93.3069C143.467 95.6097 146.996 84.2132 150.378 75.2158C153.76 66.2184 156.886 59.9655 158.648 56.5426C160.41 53.1197 160.713 52.7162 160.768 52.9623C160.823 53.2083 160.621 54.116 158.349 60.1305C156.076 66.1451 151.74 77.239 148.699 85.6267C145.658 94.0144 144.044 99.3596 143.213 101.861C142.382 104.363 142.382 103.858 145.559 95.6815C148.735 87.5047 155.089 71.6707 158.564 63.8667C162.039 56.0628 162.442 56.7687 164.213 58.5948C165.984 60.4209 169.111 63.3456 170.167 64.6002C171.223 65.8548 170.113 65.3505 168.785 64.6369C165.904 63.0885 163.378 61.2735 161.698 59.7485C160.971 59.0878 160.725 58.4252 161.073 58.3152C165.321 56.9736 169.27 62.6855 169.884 63.5015C172.9 67.5073 158.482 56.4815 158.828 56.5762C165.311 58.3468 166.819 62.9881 168.199 64.0608C170.317 65.7076 163.686 60.4606 161.397 59.5881C159.393 58.8241 157.073 65.815 153.712 71.1618C152.497 73.0965 152.168 73.3821 152.314 73.538C152.84 74.0971 156.413 74.8032 160.387 76.3329C161.619 76.807 161.336 76.4505 160.726 75.9921C159.245 74.8785 157.669 73.8008 156.953 73.0872C155.03 71.1682 163.567 76.4414 163.825 76.8493C164.281 77.5685 159.019 74.7329 154.281 71.828C152.787 70.912 153.072 71.2428 153.984 71.9029C156.369 73.6286 158.372 75.0141 158.781 75.5749C158.874 75.7021 158.384 75.6315 158.025 75.3778C157.263 74.8398 156.95 73.4983 156.798 71.5194C156.246 64.3789 160.716 58.3152 161.174 57.4518C161.402 57.0229 161.33 56.4876 163.044 57.3372C164.759 58.1868 168.188 60.4056 169.601 61.599C171.015 62.7925 170.309 62.8933 169.088 62.6427C163.572 61.5105 162.048 59.4368 160.982 59.3787C158.79 59.2594 157.073 66.2215 153.561 72.2758C152.114 74.7701 151.562 76.2121 150.04 79.0574C148.518 81.9027 146.098 86.1386 144.75 88.7241C142.324 93.3794 141.975 95.084 142.074 94.9373C143.085 93.4445 145.618 87.9968 148.981 81.7835C150.132 79.6588 149.723 79.4028 149.012 79.2989C143.23 78.4534 137.088 76.8539 136.477 76.3466C136.193 76.1106 136.269 75.6376 139.093 68.6221C141.917 61.6067 147.565 47.9914 150.474 40.7253C153.384 33.4593 153.384 32.955 153.233 32.8969C153.081 32.8389 152.779 33.2423 150.202 39.4005C147.626 45.5587 142.785 57.4594 140.089 64.397C137.394 71.3345 136.991 72.9481 136.732 73.9307C136.474 74.9133 136.373 75.2158 136.573 68.4128C136.774 61.6097 137.278 47.6919 137.386 40.5725C137.495 33.4532 137.192 33.554 136.986 33.7573C136.78 33.9605 136.679 34.2631 133.954 40.6214C131.23 46.9798 125.884 59.3848 123.181 65.1197C120.478 70.8547 120.579 69.5436 120.48 68.8177C120.355 67.907 119.06 67.4837 116.326 65.4101C114.233 63.8224 110.97 60.8151 107.995 57.7452C102.231 51.7972 99.7999 48.025 99.6975 47.3649C99.4476 45.753 101.016 44.2598 104.201 40.0637C106.861 36.5583 111.722 30.3206 114.065 27.3011C116.407 24.2816 116.105 24.685 115.243 25.5988C114.381 26.5126 112.969 27.9245 110.073 31.5262C107.178 35.128 102.841 40.8766 100.758 43.8381C98.6752 46.7995 98.9778 46.7995 99.5875 47.1525C101.189 48.0796 103.149 50.4516 107.654 55.7694C110.951 59.6605 116.698 65.6255 118.195 67.3813C119.693 69.1371 116.869 66.414 113.952 63.1959C111.034 59.9777 108.11 56.347 106.351 54.2245C104.139 51.5547 103.266 48.8594 102.757 40.4044C102.382 34.1762 102.45 23.9821 102.297 18.5833C102.135 12.8733 101.432 12.066 100.923 11.1003C100.687 10.6531 100.616 10.2354 100.614 20.4155C100.613 30.5956 100.714 51.3715 100.766 52.3419C100.818 53.3122 100.818 33.8474 100.918 33.0482C101.019 32.249 101.221 50.7053 101.375 60.4652C101.53 70.2251 101.631 70.7294 101.683 66.602C101.734 62.4746 101.734 53.7003 101.734 53.3657C101.734 53.031 101.734 61.4019 101.684 65.8654C101.634 70.329 101.533 70.6316 101.734 70.9433" stroke="black" stroke-width="2" stroke-linecap="round"/>
</svg>
