<svg width="100" height="68" viewBox="0 0 100 68" fill="none" xmlns="http://www.w3.org/2000/svg">
<path d="M2.78558 24.8053C2.58171 24.8053 2.17088 24.6014 1.6056 24.1397C1.04049 23.678 0.932211 22.2415 1.03415 20.5441C1.13682 18.8345 2.88442 18.0158 4.01652 16.8806C4.96343 15.9311 6.48613 15.9524 7.62132 15.1817C8.72726 14.4309 9.06231 12.7646 10.1944 11.8348C11.3434 10.8912 12.664 10.3923 14.4649 10.0834C15.5164 9.90305 15.8611 8.7459 16.0665 8.12966C16.4632 6.93947 15.8642 5.66005 15.1954 4.42293C14.8777 3.83525 14.8325 2.88 14.9854 1.90235C15.1821 0.644442 17.8071 1.02046 19.557 1.17336C20.2015 1.22967 20.2875 1.63207 20.34 2.19735C20.5742 4.71778 19.5709 5.95659 19.6188 7.86092C19.6541 9.26603 22.5486 8.84166 23.7348 9.46099C24.0281 9.61417 24.1981 9.97221 24.4561 10.0788C24.714 10.1854 25.0198 10.0834 25.2283 9.878C26.115 9.00444 26.3604 7.51342 27.4925 6.58364C28.5997 5.67428 29.9621 5.45 31.0973 4.98512C33.4458 4.02334 31.105 11.8256 30.2293 13.0117C29.7959 13.5988 29.1466 13.9909 28.8377 14.862C28.6456 15.4039 28.7327 16.2428 28.8856 16.7138C29.2968 17.9806 31.1977 17.9046 32.6912 18.317C34.0655 18.6965 35.5222 18.8313 36.7593 19.2437C37.3756 19.4491 42.1758 19.5541 49.1244 19.5031C53.5412 19.4707 56.8359 19.0414 58.124 18.629C59.7688 18.1024 61.4693 18.1147 62.7064 17.7023C63.9436 17.2899 65.3799 16.8791 66.9784 16.4667C68.359 16.1106 69.8095 15.9524 71.3539 16.1547C72.9419 16.3628 74.134 16.9779 75.3711 17.4413C76.9229 18.0225 77.9457 19.8568 78.4631 21.094C78.7138 21.6932 78.8755 22.3311 79.1829 22.8964C79.867 24.1546 81.5474 24.3914 82.7846 24.8038C84.0217 25.2161 85.2542 25.627 86.4913 26.0394C87.8897 26.5055 89.5787 26.5537 91.0722 26.7097C92.4798 26.8567 93.9032 27.1714 96.935 27.3274C97.9293 27.3786 98.5397 27.6873 98.8502 27.8927C99.6925 28.4501 93.2298 28.5121 90.2073 28.2047C88.9099 28.0728 87.7377 27.3815 86.5006 26.9691C85.1713 26.5261 83.3143 26.3498 81.8671 26.1444C81.5598 26.1007 81.2509 26.2448 81.1443 26.4502C80.6147 27.471 81.5536 30.4457 80.837 32.574C80.174 34.5429 78.162 35.0977 76.9248 35.8715C76.3585 36.2257 75.6877 36.4383 75.1734 36.9001C74.2116 37.7637 74.2452 39.3172 73.5255 40.5543C72.805 41.7928 72.3918 43.0239 72.3378 48.6195C72.3004 52.4907 72.7996 57.233 73.4683 58.4702C74.0968 59.6328 74.1402 60.9398 73.7834 61.8665C73.0278 63.8291 70.9524 63.7198 69.2087 64.5477C68.3703 64.9457 66.7576 64.6527 65.9699 64.4488C65.1822 64.2449 65.1822 63.8372 65.4371 63.3723C66.5237 61.39 68.265 61.156 69.4002 60.5367C69.6571 60.3965 69.7106 60.0254 69.7122 59.715C69.7186 58.412 68.6851 57.2454 68.2727 56.0083C67.849 54.7373 67.1406 53.5387 66.7792 51.3332C65.7864 45.2743 66.2139 43.9629 65.5452 42.7258C64.8981 41.5287 64.3606 40.2562 63.8463 39.0191C63.5389 38.2797 62.7142 37.8839 62.0979 37.524C61.521 37.1872 60.4531 37.1611 59.4229 37.314C58.355 37.4725 59.826 39.6261 60.2384 40.9142C60.7344 42.4636 60.7527 43.9506 61.1141 45.546C61.5144 47.3133 61.6794 48.584 62.0408 49.8721C62.4468 51.3192 62.8099 52.5996 63.3783 53.8368C64.2674 55.7721 64.5583 58.7775 65.2332 59.9127C65.7564 60.7927 63.0261 60.2231 61.84 60.9938C61.2281 61.3914 60.8608 62.1784 59.7349 62.6418C57.7457 63.4604 55.9185 62.5954 55.3022 62.1846C54.686 61.7738 54.269 61.2579 54.0636 60.6417C53.9601 60.3313 53.8582 60.0254 53.9585 59.766C54.4459 58.5062 56.2181 58.2709 57.6591 57.9095C58.1606 57.7838 58.887 57.857 59.2545 57.5512C59.6221 57.2454 59.6221 56.6338 59.5202 56.1658C59.1955 54.6754 58.2877 53.5387 57.7703 52.3015C57.2672 51.0985 56.9471 49.8319 56.7401 48.3384C56.5364 46.8684 56.0204 45.5074 55.608 44.2703C55.1844 42.9993 54.5779 42.1065 54.3725 41.4902C54.269 41.1798 54.1671 40.874 53.2481 40.7165C48.5729 39.915 47.2725 41.0717 46.0354 41.7404C44.8728 42.3689 43.5658 42.6162 42.2777 42.9266C41.5236 43.1083 40.3749 42.7212 39.2938 42.9251C37.8645 43.1946 38.1046 45.4951 37.6922 46.7322C37.2798 47.9693 37.0728 50.8328 37.5856 52.961C37.9358 54.4145 37.3817 55.8924 37.1254 57.3875C36.9434 58.4482 37.2767 59.3984 37.7385 59.9127C38.6021 60.8745 39.8498 60.8409 40.3641 61.3027C40.6109 61.5243 40.6746 61.8665 40.5232 62.024C39.6429 62.9402 38.5185 63.7198 37.3864 64.3932C36.1771 65.1125 34.9168 65.4743 33.3738 65.8357C32.7717 65.9768 31.8402 65.8883 31.2656 65.7354C30.6911 65.5825 30.4872 65.2766 30.3822 64.9152C29.9641 63.4764 31.5066 62.3916 32.129 61.2595C32.7334 60.1601 32.1305 51.2467 31.8232 46.1237C31.743 44.7863 30.2833 43.8579 29.0972 42.9822C27.8607 42.0694 27.0894 40.5651 26.2646 39.328C25.8538 38.7117 25.3379 38.1928 24.9765 38.0368C23.9697 37.6022 26.6693 39.935 27.7504 41.1721C29.5587 43.2413 28.2199 47.9662 27.5512 49.2033C26.9227 50.3659 26.6755 51.8768 26.6214 53.9881C26.5845 55.428 27.3921 56.6153 27.8045 57.8524C28.3973 59.6308 28.5226 62.1753 28.5798 63.6179C28.6503 65.398 25.6499 66.0921 24.056 66.4535C23.4033 66.6015 22.3695 66.5061 21.8444 65.8944C21.3192 65.2828 21.3192 64.0596 21.4212 63.2766C21.6542 61.4861 23.1695 61.051 23.5819 60.5892C24.3823 59.6928 22.9687 58.1721 22.3 56.935C21.6715 55.7724 21.6281 53.2421 21.3208 51.3749C21.0652 49.8219 20.8065 47.9786 20.7524 44.6904C20.7245 42.9948 21.3192 40.5775 21.4721 37.7464C21.5265 36.7401 21.9308 36.6483 22.2413 36.6978C23.5845 36.9116 24.507 38.0816 25.3843 38.7565C26.1906 39.3769 23.4877 37.3711 22.2506 36.8537C21.6513 36.6031 21.0134 36.4414 20.4482 36.134C19.1899 35.4499 18.9531 33.7694 18.2843 32.5323C17.6559 31.3697 17.4086 30.0627 17.0472 28.5182C16.6929 27.0039 16.6858 25.4324 16.5329 24.1443C16.4045 23.0626 14.2208 24.7003 12.9837 25.1127C11.7466 25.525 10.5141 25.9359 9.53337 26.9629C8.39803 28.1519 7.62904 29.4326 6.39501 30.2604C6.04162 30.4975 5.47296 30.3654 5.10846 30.2125C3.76251 29.6479 3.30452 27.9004 2.78712 26.6633C2.66086 26.3614 2.58171 26.0471 2.58016 26.0424C2.57862 26.0378 2.68055 26.3436 2.88597 26.4502C3.9068 26.9798 5.25055 25.6332 6.48767 24.8084C7.7248 23.9837 8.95728 23.162 9.8886 22.5921C10.9136 21.9648 7.53019 24.3852 6.18805 25.3691C5.64925 25.764 4.95093 25.9359 4.33468 26.1938C3.76451 26.4324 3.09756 25.939 2.58325 25.6316C1.51478 24.9931 1.85889 22.2477 2.21721 20.4854C2.50779 19.0563 4.01498 18.2197 5.50848 16.9331C6.61021 15.9841 8.0306 15.6435 9.26772 15.2311C10.5048 14.8188 11.4315 14.5099 11.9458 14.5083C12.4571 14.5068 12.4632 15.5354 12.4138 16.0497C12.3526 16.6863 10.7211 16.4652 9.84381 16.4652C8.86854 16.4652 11.8424 16.1563 12.2053 16.1563C13.5944 16.1563 8.36421 15.8474 6.49694 16.5131C4.95149 17.064 4.74397 18.9301 3.76786 19.9109C3.2531 20.4281 2.99254 21.0955 2.83809 21.7627C2.75573 22.1185 2.78558 22.5319 2.93848 22.7929C3.09138 23.0539 3.39719 23.1558 3.65666 23.0554C4.23133 22.8331 4.63585 22.1303 5.20113 21.9743C5.45547 21.9041 5.66447 22.328 5.61659 22.5875C5.39061 23.8121 3.40954 23.7736 2.27436 24.2879C1.72957 24.5347 1.85889 26.4394 2.0118 28.4981C2.0673 29.2455 2.4705 29.3337 2.78094 29.4372C3.09138 29.5407 3.39719 29.6426 3.9115 29.6951C4.4258 29.7476 5.13935 29.7476 6.49231 29.4387" stroke="black" stroke-width="2" stroke-linecap="round"/>
</svg>
