<svg width="176" height="98" viewBox="0 0 176 98" fill="none" xmlns="http://www.w3.org/2000/svg">
<path d="M110.85 45.5482C109.733 45.4368 103.695 43.4287 99.7769 42.1749C95.0246 40.6543 86.8946 42.2812 85.2628 42.8466C83.7909 43.3565 81.2787 43.854 78.6276 44.8142C77.1174 45.3611 75.7572 45.771 73.8453 45.9414C71.4805 46.1522 68.3323 46.0005 66.925 44.88C64.3341 42.8173 63.8301 40.4925 61.7545 38.4135C59.0233 35.6779 54.8527 34.3096 52.3569 33.1199C50.444 32.208 46.3073 31.3801 37.421 31.2029C32.66 31.108 29.6485 34.2826 27.1577 35.8131C25.1894 37.0226 23.2225 38.6768 21.6447 39.8631C19.8702 41.1973 18.7203 42.0585 15.968 43.9097C14.4368 44.9396 12.9829 45.4335 11.071 46.4443C9.40258 47.3263 6.79995 47.2357 5.21878 46.5641C4.47397 46.2477 3.97848 45.5516 3.80804 44.9897C3.31927 43.3781 8.57518 44.9812 10.8313 45.2664C13.7361 45.6336 17.6977 45.6596 18.0369 45.884C18.3691 46.1038 17.0295 46.3346 16.4675 46.3363C16.2147 46.337 16.1284 45.8925 16.238 45.609C16.3477 45.3255 16.6818 45.1027 17.021 45.0437C18.3806 44.8069 20.3876 45.9937 24.7058 46.5033C30.8548 47.229 35.3589 46.4493 36.368 46.1135C37.6514 45.6864 42.9661 43.206 51.0002 39.6116C58.8676 36.0919 59.5473 34.5256 60.4433 34.1881C60.9801 33.9859 61.7849 34.0733 62.1865 34.5188C62.5881 34.9643 62.5881 35.8553 62.4211 36.37C61.9314 37.8785 59.2199 37.5563 57.8682 38.9046C56.0864 40.682 56.2904 43.179 56.2314 50.6933C56.2067 53.8379 58.5314 56.4494 60.2189 58.0305C61.7491 59.4643 63.2564 60.1686 64.1609 61.7396C65.6789 64.3764 63.9381 66.3515 63.0421 69.0498C62.1888 71.6193 61.3529 74.3367 60.9023 76.198C60.504 77.8433 60.0029 79.8514 59.8325 81.6536C59.6485 83.5985 59.2132 90.9347 59.6603 95.0438C59.9906 98.0787 67.6438 95.7204 68.9955 96.2267C69.3503 96.3596 69.6688 96.6182 69.6739 96.6772C69.7023 97.0092 68.6664 96.1761 68.1045 95.5028C67.1657 94.3779 67.3131 92.8045 67.146 91.7363C67.0354 91.0289 63.5162 91.1102 59.4646 91.0546C58.1962 91.0371 58.5314 90.8875 59.2047 90.8301C62.2367 90.5718 64.7076 91.1102 67.3046 91.3904C69.3299 91.6088 70.4585 91.7852 70.9108 91.7295C72.2366 91.5663 68.8926 89.4295 67.8227 86.5658C67.0456 84.4859 67.3131 82.3488 67.033 79.4261C66.6922 75.8712 67.087 73.2263 67.3671 72.553C67.9684 71.1077 69.2233 70.5263 69.7279 70.0758C70.8274 69.0939 73.5973 71.6434 77.4802 72.5446C80.2789 73.1941 82.4937 73.7832 85.0215 74.4582C86.8346 74.9423 88.3425 74.9104 89.4123 75.0775C90.5788 75.2596 89.5878 80.0539 89.868 82.7791C90.0759 84.8022 90.4856 86.824 90.9361 88.628C91.5521 91.094 92.3958 92.4535 93.0168 93.8052C93.175 94.1494 93.4083 94.4785 93.6901 94.762C96.5347 97.6236 103.429 95.3863 102.755 95.1062C101.31 94.5049 100.617 92.8045 99.6047 91.2301C97.9163 88.6045 97.8025 86.1693 97.4076 82.8045C97.2246 81.2447 97.3503 78.7849 97.4616 77.7454C97.573 76.7059 97.7958 77.1514 97.9662 77.6036C98.5888 79.2557 98.923 80.8638 99.4292 82.3303C99.9309 83.7834 100.833 85.0286 101.79 86.2689C102.011 86.5558 102.406 86.608 102.745 86.6097C104.138 86.6167 105.443 85.825 106.461 85.3745C107.47 84.9277 104.107 83.8068 103.147 82.229C100.58 78.0104 102.973 69.4092 103.368 67.4922C103.46 67.0457 103.425 66.5945 103.704 66.3093C104.35 65.6477 106.004 65.9094 107.576 66.0781C108.699 66.1985 113.729 66.9151 120.87 68.0964C124.667 68.7243 130.263 68.8355 133.348 67.661C135.412 66.8751 133.8 61.8898 134.191 59.3906C134.46 57.6751 135.595 55.7946 136.441 54.3282C137.432 52.6088 139.969 48.2752 141.281 46.0021C141.397 45.7997 140.894 45.663 140.611 45.7726C138.901 46.4341 140.098 49.9289 140.548 51.3363C141.075 52.9815 142.231 54.3164 144.814 56.7885C146.693 58.5861 148.305 59.1561 149.824 59.6657C151.924 60.3702 153.368 58.4878 154.664 57.6458C156.014 56.7683 156.52 55.0049 158.206 51.9725C159.144 50.2847 159.558 47.9242 159.898 45.9481C160.164 44.4085 160.8 42.9697 161.08 41.4476C161.377 39.8329 160.462 38.3562 160.685 36.9522C160.883 35.7063 162.146 35.2006 162.82 34.8074C163.45 34.4393 163.837 32.2947 164.06 29.0885C164.196 27.1288 167.536 25.9869 169.735 24.0682C172.349 21.7871 173.395 20.5802 174.018 19.3399C174.123 19.131 173.631 19.0007 173.292 19.0547C171.678 19.3117 170.256 20.4587 168.233 20.9093C166.097 21.3849 164.519 21.8087 162.33 22.2036C158.032 22.979 156.419 20.128 154.063 18.7257C148.638 15.4965 145.633 13.7223 143.592 12.7571C142.023 12.0144 138.437 11.7986 136 12.6929C133.195 13.7225 132.794 16.402 131.162 18.8759C129.703 21.0877 129.527 22.5917 128.685 23.8877C128.467 24.2229 128.069 24.3939 127.841 24.3416C126.519 24.0379 124.039 19.588 117.958 16.1945C115.734 14.9538 113.786 14.3905 112.205 13.8252C111.869 13.7049 111.532 13.6008 111.527 13.5991C110.29 13.1867 114.218 16.0645 115.346 17.9781C116.914 20.6406 118.383 22.5917 119.284 23.9434C120.237 25.3731 121.751 28.7611 123.557 32.4314C124.56 34.4701 125.808 36.6518 127.381 37.7824C128.936 38.9008 130.641 39.804 132.163 40.5398C133.775 41.3188 135.366 41.9438 136.888 42.7892C138.415 43.6374 139.868 44.0835 141.22 44.534C141.893 44.7585 142.571 44.7618 142.744 44.5931C142.866 44.4728 141.913 44.5357 141.569 43.5334C139.735 38.1917 140.665 36.1051 140.995 33.2397C141.16 31.8164 143.584 32.9461 144.202 33.1165C144.479 33.1932 144.708 32.7301 144.823 32.3352C144.937 31.9404 144.937 31.4949 144.77 31.2097C144.603 30.9245 144.269 30.8131 143.874 30.7557C143.479 30.6984 143.034 30.6984 142.86 30.8654C142.686 31.0325 142.798 31.3666 143.022 31.5944C144.245 32.8358 147.178 32.2711 152.286 32.4415C153.372 32.4778 153.705 32.6086 153.71 32.7217C153.716 32.8347 153.381 32.9461 153.209 32.6137C153.037 32.2812 153.037 31.5016 153.204 30.9329C153.371 30.3642 153.705 30.0301 154.045 29.8023C154.384 29.5745 154.718 29.4631 154.667 29.5728C153.785 31.4838 150.121 31.2586 146.974 31.429C146.289 31.4661 145.957 31.5961 145.729 31.8205C143.632 33.8858 145.052 39.912 144.882 42.0534C144.746 43.7606 144.377 45.5415 143.758 46.8931C143.614 47.2061 143.81 47.5664 144.202 47.7386C146.125 48.5844 148.076 48.4709 151.004 48.4743C151.37 48.4747 151.019 48.1402 151.014 48.0811C150.985 47.7491 152.021 48.9164 152.583 50.2074C154.094 53.6781 152.814 58.7038 152.028 60.8959C151.43 62.5622 150.341 63.3208 149.779 63.4912C148.625 63.8411 148.764 60.8571 148.314 59.3906C147.792 57.692 147.3 52.5614 147.971 49.6032C148.062 49.2057 148.42 48.9299 148.201 48.7578C146.697 47.578 140.935 48.9232 134.895 48.6431C124.252 48.1494 121.333 48.0254 118.397 47.855C115.247 47.6722 111.194 47.3504 108.947 47.18C106.995 47.0321 105.457 46.338 104.105 45.6073C103.771 45.4268 103.432 45.3255 103.204 45.4352C102.023 46.0036 101.63 48.1267 100.673 49.5374C100.225 50.1973 99.49 50.6073 98.707 51.1135C96.4364 52.5816 94.4343 50.1652 92.9679 49.2084C91.5233 48.2658 90.2696 47.2424 89.0293 46.1709C87.8042 45.1125 88.2379 42.855 88.4049 41.7868C88.4719 41.3586 88.9061 41.2755 88.8555 41.4409C88.2515 43.414 85.8821 44.529 84.922 45.9363C83.9579 47.3494 84.1879 49.0278 84.355 50.2647C84.5453 51.6743 86.6584 51.9539 88.064 53.5857C89.101 54.7894 89.4731 56.3414 89.4208 57.8618C89.373 59.2503 86.8946 59.4936 85.6543 60.4504C84.4191 61.4033 83.6344 63.4288 82.168 64.6691C81.0493 65.6152 79.247 65.906 77.5578 66.4156C77.017 66.5788 76.2162 66.473 75.7032 66.3059C74.1114 65.7875 73.8403 63.7798 73.3897 62.3724C72.7984 60.5253 72.3755 58.1605 72.5426 56.1929C72.9109 51.8547 83.6243 54.664 83.8487 53.9907C84.0732 53.3174 84.1879 52.1935 84.0208 50.9566C83.6862 48.4792 77.3367 49.6049 74.8646 48.368C68.067 44.9669 64.5119 43.7527 61.8102 43.4675C60.8971 43.3712 60.1177 43.1857 59.4983 43.3528C58.3289 43.6682 60.6711 45.879 61.9081 47.1749C63.0521 48.3736 64.1609 48.9198 64.4984 49.6488C64.6711 50.022 64.6131 50.4892 64.446 50.8857C63.7654 52.5014 61.5824 52.5209 60.2307 53.0271C59.8759 53.16 59.5574 53.4186 59.441 53.7004C58.5005 55.9766 62.5814 59.6016 64.1001 61.4021C66.462 64.2022 67.3097 65.0083 67.8159 65.7913C69.2841 68.062 67.4278 69.5071 67.2574 70.1247C66.8763 71.5057 69.8915 71.7582 73.1416 72.4332C81.9711 74.2669 83.7289 72.2104 85.7522 71.9303C88.0747 71.6088 89.922 72.0957 90.5396 72.2104C91.2771 72.3475 91.2753 69.5273 91.0526 66.8291C90.8535 64.4174 88.8015 64.1139 88.7998 63.552C88.7958 62.2375 92.0516 63.3208 94.4731 64.1071C96.4371 64.7449 98.5788 66.1288 99.9895 67.2003C100.308 67.4421 100.496 67.8162 100.555 68.1554C100.614 68.4946 100.502 68.8287 100.278 69.0565C99.1063 70.2459 96.2365 69.848 94.6554 69.3451C94.2361 69.2118 93.9821 68.6195 93.8099 68.1115C93.6378 67.6036 93.6378 67.0467 93.8049 66.7042C94.1013 66.0964 95.4299 66.1355 96.7782 66.3026C98.6485 66.5343 98.923 68.8287 99.3179 70.3475C99.4461 70.8405 99.3752 71.5219 99.2082 71.9776C99.0411 72.4332 98.707 72.6559 98.3678 72.8264C97.7156 73.1541 96.0138 73.2229 94.1559 73.3343C93.6236 73.3662 93.9685 73.6684 94.3077 73.7275C95.8829 74.0018 98.1265 73.0002 99.8191 72.1581C101.889 71.1285 102.858 69.2945 103.704 67.828C104.068 67.1957 104.212 66.4764 104.603 65.9144C105.694 64.3492 108.926 65.6833 111.733 66.6907C116.197 68.2934 121.066 70.5162 125.163 71.6958C131.524 73.527 134.576 73.4457 139.072 73.1149C139.988 73.0475 139.875 71.7784 139.819 71.1524C139.667 69.4447 138.417 67.9445 137.571 66.4781C137.207 65.8457 137.063 65.1264 136.895 61.8915C136.149 47.5951 137.624 46.5641 137.96 46.0021C138.124 45.7276 138.518 45.663 138.746 45.7726C139.93 46.3429 139.423 48.5789 139.817 49.9863C140.261 51.5674 140.212 54.0801 140.94 55.9499C141.535 57.4794 144.141 57.0231 145.997 57.3032C149.288 57.7999 150.891 57.6981 152.408 57.5867C154.677 57.4201 155.285 53.6549 155.791 51.3515C156.058 50.1376 156.412 48.4844 156.356 46.6299C156.274 43.8848 153.267 40.9448 152.423 39.1442C150.634 35.3273 149.213 33.4017 149.267 32.7284C149.34 31.8222 154.124 31.7109 158.915 31.7109C162.091 31.7109 153.503 31.3734 151.915 30.9262C151.672 30.8576 151.91 30.3676 152.134 30.0841C153.106 28.8572 154.718 28.0051 155.509 26.5978C156.744 24.4031 158.66 22.6052 160.231 20.6933C161.482 19.171 162.372 17.2053 162.823 15.8536C163.273 14.5019 163.945 12.9325 164.288 11.8002C164.701 10.4343 162.602 14.1543 161.48 15.7861C160.327 17.4623 158.781 18.6565 157.15 19.5019C156.454 19.8622 155.741 20.0099 155.067 20.0672C153.587 20.1934 151.923 19.0007 149.002 18.6059C143.416 17.8507 139.787 18.211 137.237 17.8752C135.771 17.682 131.586 11.8526 128.518 6.41043C127.5 4.60439 126.827 3.0304 126.377 1.67873C126.264 1.33955 126.152 1.00542 126.039 1.00036C124.871 0.948066 126.591 6.58762 127.666 10.047C128.247 11.9187 129.406 15.0385 130.422 17.3605C131.373 19.5361 131.998 20.9042 132.951 22.3673C133.707 23.5274 134.809 24.0598 135.092 24.2842C136.163 25.1319 132.457 25.1837 131.105 25.6342C129.653 26.1183 127.624 26.3109 126.043 25.695C124.657 25.1553 123.344 24.1779 121.993 23.6126C120.277 22.8952 118.282 21.7007 116.819 19.9086C114.395 16.9396 114.451 15.5144 114.282 15.2309C113.618 14.114 115.123 18.0895 116.021 19.6116C117.135 21.5014 118.829 22.8144 122.76 26.802C123.862 27.919 124.347 28.5586 124.797 29.0632C126.477 30.9442 124.465 36.0848 124.517 41.4223C124.54 43.7322 127.043 44.0835 128.395 44.8698C129.094 45.2768 129.747 45.6596 130.141 45.9954C130.319 46.146 129.979 46.554 129.698 46.7818C128.299 47.9121 125.707 47.0129 123.295 46.6181C118.009 45.7524 116.594 46.0005 115.187 45.5499C113.368 44.9675 107.745 44.8732 104.443 44.2016C102.759 43.8592 100.07 41.9572 97.303 41.1068C94.5759 40.2687 92.2946 39.9255 90.6071 39.6994C88.7355 39.4486 87.0094 38.913 81.9014 38.9097C79.3711 38.908 77.7822 41.4915 76.4862 42.2829C75.1609 43.0923 74.4039 44.0835 74.2318 44.5323C74.1322 44.7921 75.062 44.9812 78.8031 45.096C82.5443 45.2107 89.3381 45.2107 93.1164 45.155C99.2562 45.0645 102.406 44.6505 103.424 44.367C104.771 43.9914 100.509 46.1085 97.7046 46.5033C93.8375 47.0478 90.9412 46.4493 90.3793 46.1135C90.1048 45.9495 90.0401 45.555 90.2055 45.2715C91.0317 43.8551 93.5129 44.1982 95.3692 44.6437C96.1203 44.824 96.0003 45.9802 95.8332 46.4949C95.6662 47.0096 95.332 47.1209 95.494 46.7328C96.9426 43.2623 99.8207 41.505 102.965 39.7028C104.005 39.1062 101.63 42.1665 101.064 43.5182C100.791 44.1729 100.614 44.8698 100.222 45.5432C98.4862 48.5291 90.6206 46.1152 88.1332 45.2141C85.7137 44.3376 83.3037 42.855 81.3259 41.7834C80.1599 41.1517 79.0175 40.7119 78.2868 40.7102C77.9812 40.7095 77.8902 41.154 77.8885 41.4932C77.8811 42.9943 78.6732 44.7517 79.1238 46.554C79.6075 48.4888 80.3607 50.4892 80.8112 52.0113C81.4225 54.0763 82.2709 56.3414 82.7805 58.5857C83.0044 59.5714 82.8379 61.1541 82.6152 61.9016C82.3924 62.6492 81.9469 62.5378 81.5504 62.3134C80.75 61.8604 80.3641 61.0764 80.1396 60.4031C79.9152 59.7298 79.8004 58.7173 79.9675 57.5378C80.0429 57.0052 80.4687 56.6923 81.3091 56.5202C82.1494 56.3481 83.4859 56.3481 84.2301 56.5152C84.9743 56.6822 85.0856 57.0163 85.143 57.4112C85.2004 57.8061 85.2004 58.2516 85.0333 58.5368C84.3591 59.6877 82.2844 59.8311 79.4174 59.9492C78.4016 59.991 77.7788 59.2742 77.1612 58.9384C76.8436 58.7657 76.655 58.3798 76.7073 58.152C76.8224 57.6509 77.7721 57.5867 78.334 57.6407C78.6142 57.6676 78.6732 58.2516 78.5078 58.8152C77.7168 61.5111 75.7539 62.3083 75.1362 62.423C74.838 62.4785 74.63 61.8695 74.5153 61.3616C74.2793 60.317 74.846 59.0548 75.688 57.931C76.0502 57.4476 76.4187 57.2526 76.7579 57.0822C77.0971 56.9117 77.4312 56.8003 77.5477 57.0214C77.9102 57.7097 76.8811 58.93 75.9817 59.9408C75.6036 60.3656 75.5277 60.7288 76.0829 60.5668C79.7803 59.4879 80.8062 57.5901 82.1595 56.743C83.6143 55.8324 80.9277 60.3913 80.7556 61.2418C80.3009 63.4883 82.3857 57.2593 82.2777 51.4207C82.2252 48.5851 80.2527 47.5799 79.6908 46.3396C79.1037 45.0438 76.7697 46.1085 66.7916 46.1675C61.6757 46.1978 58.0994 44.7652 56.5182 44.1999C55.85 43.961 55.0552 43.8607 54.3802 44.1392C52.7651 44.8054 54.711 47.6744 54.8814 50.6562C54.9173 51.2837 55.0485 51.6164 55.2729 51.7328C55.4973 51.8493 55.8314 51.7379 56.0593 51.235C58.1248 46.6756 56.2904 39.7095 55.5598 37.7925C55.2246 36.9133 54.9405 36.1017 54.3802 35.5398C52.0656 33.2182 46.395 35.3086 45.0434 36.0949C43.6392 36.9118 42.3451 37.8938 40.3792 39.2978C36.76 41.8825 34.2452 43.4085 32.4463 44.1949C31.245 44.72 27.4075 45.5415 20.9562 46.554C10.2961 48.227 7.48169 46.1152 4.88466 45.5499C2.82647 45.1019 1.84213 44.4243 1.28019 44.0885C1.00568 43.9245 0.941011 43.53 1.0507 43.3022C1.63935 42.0796 4.52522 42.5107 6.5502 42.7335C7.26949 42.8126 7.2387 43.4017 7.18301 43.7983C6.96462 45.3535 6.34096 46.8914 5.77902 48.1874C5.63518 48.5192 5.22047 48.6937 4.88128 48.7527C4.5421 48.8118 4.20798 48.7004 3.92448 48.3646C3.26248 47.5805 3.18874 46.23 3.3558 45.0504C3.65699 42.9238 6.89445 42.6255 10.0905 42.2306C15.7402 41.5326 18.2546 43.071 19.8341 43.9687C20.1889 44.1704 20.0636 44.7517 19.6181 45.0926C18.4661 45.974 15.2475 45.8857 12.0413 45.663C10.9313 45.5859 10.9512 44.9947 11.2853 44.5425C12.864 42.4056 14.7716 42.3994 15.5023 42.3977C15.8078 42.397 15.8989 42.8415 15.8449 43.1807C15.5605 44.9667 12.9829 45.9937 11.2954 46.5033C10.859 46.6351 10.3977 46.5607 10.1125 46.338C9.50009 45.8596 9.60117 44.2084 9.65686 42.8567C9.71255 42.5074 9.82392 42.8415 9.82561 43.1807C9.82729 43.5199 9.71592 43.854 9.26367 43.5232" stroke="black" stroke-width="2" stroke-linecap="round"/>
</svg>
