<svg width="152" height="132" viewBox="0 0 152 132" fill="none" xmlns="http://www.w3.org/2000/svg">
<path d="M113.096 43.4612C113.096 45.1382 112.817 48.5219 112.813 52.387C112.81 55.135 115.614 59.2008 117.386 61.9719C118.472 63.6702 120.691 64.2952 128.694 64.5127C131.743 64.5956 133.364 62.7576 135.056 61.6994C136.633 60.7126 138.433 59.5218 140.055 57.4794C141.382 55.8091 142.1 54.0303 143.715 50.2348C144.601 48.1542 144.778 44.7538 144.288 42.2003C143.925 40.3106 142.809 38.823 142.245 37.1312C141.694 35.4764 141.542 33.7539 141.257 32.0621C140.909 29.9977 144.904 28.8284 146.672 26.6445C149.319 23.3743 149.982 21.0811 150.339 19.3196C150.552 18.2686 150.692 16.9963 150.552 15.7311C150.296 13.401 147.321 12.0666 145.559 10.5184C143.631 8.82368 141.829 7.56353 140.137 6.36173C137.252 4.31224 131.269 6.42299 129.646 7.62056C129.244 7.91773 129.013 8.39149 128.66 8.60692C127.277 9.45198 125.355 7.69871 123.175 6.43566C119.019 4.02753 117.05 3.19566 115.145 2.4184C112.832 1.47491 110.012 0.93991 103.826 1.00539C100.876 1.0366 99.8655 4.16724 99.1579 5.85905C98.4699 7.50428 98.0322 9.23634 98.0977 14.014C98.13 16.3775 100.702 16.8442 100.636 17.6172C100.595 18.1099 99.3164 18.2509 93.7953 18.4642C88.2742 18.6775 78.2374 18.8169 72.7881 18.819C63.6589 18.8226 57.7666 16.8484 55.1645 16.1472C52.3572 15.3907 45.567 15.5812 41.1506 16.0015C38.0508 16.2965 35.0993 18.9521 33.2639 20.2236C31.5418 21.4166 30.8666 23.5988 30.6533 25.2906C30.1622 29.1855 27.6308 35.2831 25.8017 41.3955C24.7949 44.7601 23.5502 48.091 19.214 61.3699C15.6118 72.4011 8.4781 93.7213 4.81568 104.918C0.72302 117.429 0.730826 121.162 1.22084 123.716C1.58346 125.605 4.37213 128.208 6.63844 129.634C7.39035 130.107 8.33025 130.198 9.38209 130.409C10.0073 130.534 10.8521 130.481 11.8406 129.644C17.324 125.005 17.9066 119.227 19.0303 116.695C21.2389 111.717 20.8636 109.79 21.4972 107.26C22.8284 101.944 24.0994 97.9625 25.5082 94.167C26.2868 92.0693 27.0563 89.5224 28.9551 84.0372C30.7023 78.99 31.4242 77.2636 32.4085 75.5718C33.4309 73.8143 34.66 71.9157 36.7679 69.9388C37.3235 69.4177 38.3097 69.6515 38.9497 69.7909C39.5897 69.9303 40.0079 70.2092 40.293 70.6316C41.7859 72.8432 41.706 79.8827 40.4493 85.6087C37.9746 96.8843 33.9672 98.5032 32.419 101.042C30.6783 103.896 29.4642 106.25 28.1927 108.086C26.9245 109.916 25.5187 111.886 24.8112 113.647C23.9704 115.74 23.9642 123.376 24.8745 127.94C25.0979 129.06 26.4945 129.353 27.3373 129.634C28.18 129.915 29.1685 130.058 30.4315 129.78C34.0927 128.971 35.7836 125.141 43.5056 117.136C45.9509 114.601 47.1891 111.772 49.2928 106.656C54.7866 93.2964 54.9364 90.5024 55.644 87.9658C56.2783 85.6918 57.4709 83.1776 59.3 77.5593C60.3013 74.4839 61.974 72.3382 64.4367 70.1521C66.6207 68.2135 68.7328 66.9818 72.0362 65.9236C75.2516 64.8936 85.1313 65.0049 90.7707 65.4949C93.7502 65.7538 96.748 70.3359 98.0258 72.881C98.842 74.5065 99.2952 76.2625 99.5064 80.6642C100.005 91.0483 99.4389 98.651 99.2276 99.9859C98.8166 102.583 98.311 105.127 97.5401 107.309C95.8733 112.026 97.4619 118.649 98.3046 119.352C99.7572 120.564 101.543 120.765 102.599 120.486C103.479 120.254 103.097 118.657 103.308 114.538C103.855 103.882 103.519 96.2685 103.731 95.0076C104.361 91.246 104.504 89.514 105.978 87.8222C107.793 85.7394 110.409 85.0025 113.926 84.5082C115.874 84.2344 117.455 84.8546 118.579 85.6974C121.127 87.6087 123.082 91.8796 125.479 99.8254C126.622 103.612 126.47 106.816 127.663 108.578C129.692 111.572 133.643 112.173 135.478 112.737C135.906 112.868 136.321 113.018 136.815 113.09C141.968 113.838 138.163 97.1176 136.549 93.9558C134.402 89.75 133.237 88.2467 132.39 86.3458C131.133 83.5234 129.858 81.9103 127.543 79.1012C122.561 73.056 120.708 72.0509 119.717 70.5027C118.577 68.7211 117.886 67.1254 117.253 65.4336C116.578 63.6317 115.495 62.0563 114.788 60.3645C114.115 58.7553 114.084 56.9872 113.52 55.2954C112.926 53.5121 112.538 51.4957 112.112 44.1941C111.909 40.7292 111.964 37.9781 112.741 36.2863C113.596 34.4255 114.22 31.6502 115.554 27.0035C116.352 24.2275 117.455 22.0696 118.163 20.2342C118.804 18.5702 119.01 16.7175 118.801 15.239C118.724 14.6999 118.173 14.7363 117.749 14.8757C117.324 15.0151 116.906 15.2939 116.9 15.5072C116.884 16.0493 118.161 16.143 118.725 16.1451C118.925 16.1458 118.731 15.5896 118.45 15.2348C117.864 14.495 115.787 14.3139 113.254 14.523C112.237 14.607 111.837 15.1503 111.622 15.5748C111.406 15.9994 111.406 16.4176 112.312 16.633C113.218 16.8484 115.031 16.8484 115.894 16.6393C116.758 16.4302 116.619 16.012 116.477 15.5875C116.196 14.7448 115.635 13.8957 114.792 13.1923C114.399 12.8647 113.949 12.7678 113.734 12.9051C113.518 13.0424 113.518 13.4606 113.727 13.8154C114.18 14.5836 115.204 15.0151 116.046 15.5769C121.789 19.4055 134.078 16.0078 133.657 15.2348C133.207 14.4058 132.109 14.1745 131.476 14.1724C131.22 14.1715 131.26 14.7279 131.469 15.0827C131.678 15.4375 132.097 15.7163 132.66 15.86C133.224 16.0036 133.921 16.0036 134.211 15.7945C134.5 15.5854 134.361 15.1672 134.08 14.8123C133.799 14.4575 133.381 14.1787 133.096 14.2442C131.731 14.5575 132.95 20.608 132.53 24.0233C132.295 25.9251 131.404 27.823 130.84 29.5148C130.234 31.3326 129.714 33.3146 129.08 35.0761C128.34 37.1343 128.024 38.8061 127.53 40.7767C127.358 41.4624 127.458 42.4558 127.18 43.0282C126.069 45.3076 121.975 44.1624 119.301 44.097C118.694 44.0821 118.452 43.4697 118.518 43.4633C120.251 43.2955 121.536 45.7085 125.331 45.8564C127.669 45.9474 128.861 43.4696 130.409 42.1982C131.192 41.5553 132.101 41.0703 132.665 40.857C132.814 40.8004 132.671 41.3406 132.181 41.5561C131.691 41.7715 130.855 41.7715 130.424 41.5624C128.836 40.7919 128.869 37.6993 128.656 35.1627C128.501 33.3214 129.283 31.6418 129.991 29.9499C130.679 28.3047 131.117 26.5727 132.031 24.5302C132.894 22.6032 134.352 20.3799 135.48 18.4748C136.088 17.4486 136.747 16.2908 137.172 15.3066C138.192 12.942 130.846 14.0351 123.614 14.1006C122.096 14.1143 121.832 14.7279 121.618 15.1524C120.586 17.2072 119.576 19.797 118.731 21.4888C117.965 23.0234 117.886 25.1449 117.673 28.0321C117.525 30.0358 115.639 31.0673 114.718 32.4718C113.663 34.081 113.239 35.8491 112.676 37.5409C112.112 39.2327 111.829 40.9182 111.478 43.0979C110.816 47.2111 112.809 48.9443 113.166 54.8434C113.269 56.5576 113.658 57.397 114.078 58.1003C115.059 59.7427 118.157 58.3897 119.848 57.8258C121.54 57.2618 123.226 56.4212 124.917 55.6439C126.73 54.8113 128.295 53.4642 130.196 52.0575C133.204 49.8312 134.631 48.6739 136.393 48.1797C136.873 48.0448 137.444 48.1079 137.732 48.317C138.019 48.5261 138.019 48.9443 137.88 49.3688C137.29 51.1655 135.358 53.3037 133.729 55.2131C132.421 56.7468 130.145 57.8152 128.309 59.017C126.797 60.007 124.932 60.2146 123.24 60.7785C121.549 61.3424 119.166 61.6255 116.634 61.4861C115.635 61.3467 115.216 61.0679 114.363 60.3582" stroke="black" stroke-width="2" stroke-linecap="round"/>
</svg>
