<svg width="209" height="130" viewBox="0 0 209 130" fill="none" xmlns="http://www.w3.org/2000/svg">
<path d="M65.3898 23.816C68.2815 23.816 71.1731 23.816 74.0648 23.816C76.5657 23.816 78.8431 21.9184 81.5534 21.8141C87.3121 21.5926 92.0221 15.1411 97.7541 15.1411C101.091 15.1411 104.427 15.1411 107.764 15.1411C111.268 15.1411 114.132 17.6266 117.44 17.8103C125.99 18.2853 135.024 21.5589 143.761 19.4786C151.898 17.5411 160.77 16.4757 169.156 16.4757C174.131 16.4757 180.967 16.0765 183.651 21.1468C186.391 26.3229 182.168 32.45 182.168 37.4958C182.168 40.217 181.501 43.2544 181.501 46.1707C181.501 46.9834 182.168 50.1818 182.168 47.839C182.168 45.2192 182.168 42.5994 182.168 39.9796C182.168 35.5442 184.648 35.6777 188.693 35.8275C192.368 35.9636 190.843 43.919 190.843 46.5044C190.843 49.2424 192.976 53.9031 195.514 55.031C198.661 56.4296 202.292 53.8584 205.19 53.2145C208.447 52.4906 206.715 58.5107 203.855 59.1461C200.295 59.9372 198.33 58.1414 196.997 55.1793C195.32 51.4526 194.262 46.9108 191.51 43.8352C189.199 41.2515 185.504 42.0024 185.504 45.5034C185.504 48.2753 186.107 51.8915 185.171 54.512C184.643 55.9896 184.837 57.6312 184.837 59.1831C184.837 60.7337 183.288 60.9344 182.872 59.4797C182.435 57.9477 182.98 56.7259 182.835 59.1831C182.772 60.2504 181.501 61.0382 181.501 62.186C181.501 65.2329 178.794 69.3319 178.016 72.5292C175.681 82.1281 177.782 93.6409 178.98 103.225C179.554 107.818 180.255 111.815 181.834 116.201C182.513 118.085 183.56 123.29 185.171 124.579C185.662 124.972 186.642 127.149 186.023 127.767C185.088 128.702 182.24 127.248 181.204 127.248C177.725 127.248 173.889 126.581 170.157 126.581C166.364 126.581 166.153 127.786 166.153 123.244C166.153 117.461 166.153 111.678 166.153 105.894C166.153 99.9651 167.487 94.3106 167.487 88.3962C167.487 83.6633 167.487 78.9304 167.487 74.1975C167.487 72.7516 167.487 71.3058 167.487 69.86C167.487 69.2535 167.487 72.1931 167.487 72.8629C167.487 73.6916 167.935 76.4563 167.339 77.052C166.895 77.4964 166.82 73.1583 166.82 72.5292C166.82 72.0119 166.964 74.8698 166.449 75.5321C165.511 76.7382 165.168 78.2649 164.299 79.3505C162.908 81.0897 163.152 85.0848 162.816 87.0987C162.247 90.5143 160.616 93.8037 160.184 97.2565C158.994 106.773 156.81 116.755 156.81 126.247C156.81 128.047 144.11 126.581 142.5 126.581C141.168 126.581 139.819 127.248 138.793 127.248C136.989 127.248 139.802 123.164 139.98 122.577C141.777 116.645 143.386 110.652 145.318 104.708C146.688 100.493 148.803 95.6874 148.803 91.2137C148.803 88.586 149.586 85.6842 150.471 83.2061C150.89 82.0323 153.393 73.0305 151.769 72.5663C149.319 71.8663 147.346 77.1619 145.985 78.3867C144.533 79.6933 140.142 79.8696 138.126 79.8696C137.001 79.8696 135.253 80.4666 134.122 80.8705C131.413 81.8382 127.796 81.2042 124.928 81.2042C119.803 81.2042 114.704 80.9446 110.099 78.3867C108.422 77.4547 108.1 75.4647 106.466 74.5311C104.751 73.551 104.663 74.3723 104.724 74.1604C105.149 72.6731 105.522 71.4611 105.428 69.86C105.334 68.2657 102.622 70.5273 101.795 70.5273C99.2417 70.5273 96.585 70.5706 94.8995 72.6775C93.5985 74.3037 94.7512 81.1812 94.7512 83.2061C94.7512 89.2466 94.7917 95.3228 95.4556 101.297C96.3033 108.927 96.7531 116.147 96.7531 123.912C96.7531 127.098 94.1175 125.728 91.4518 125.951C89.2797 126.132 87.5607 127.248 85.409 127.248C84.1694 127.248 82.0724 127.826 82.0724 126.173C82.0724 121.872 80.1644 117.583 80.7749 113.309C81.0837 111.147 82.0084 109.599 82.0724 107.229C82.1596 104.005 82.2056 99.6761 83.0734 96.5521C84.4702 91.5236 83.407 85.0988 83.407 79.8696C83.407 78.4237 83.407 76.9779 83.407 75.5321C83.407 73.9966 81.3275 75.6012 80.8861 76.533C79.4877 79.4851 79.3708 83.3312 78.7359 86.5055C77.9371 90.4997 74.9655 94.3542 73.7311 98.3316C71.9659 104.019 70.0677 109.943 68.7264 115.756C68.1014 118.464 67.4132 125.362 65.0562 127.248C64.0057 128.089 62.3492 128.384 61.386 127.1C59.5725 124.682 56.8082 125.246 54.0457 125.246C51.4213 125.246 46.038 130.171 46.038 125.913C46.038 123.198 47.8962 119.578 48.7072 116.942C49.9232 112.99 51.3752 109.161 52.7111 105.227C54.8411 98.9554 58.8154 93.3564 61.386 87.3582C62.4519 84.8711 66.0571 81.5502 66.0571 78.8686C66.0571 77.7851 67.2622 76.5514 67.9108 75.7174C68.0408 75.5502 66.0306 77.8676 64.7596 77.8676C62.8352 77.8676 67.5146 74.2299 68.5781 73.0482C69.5006 72.0232 69.3202 70.6189 70.0239 69.5634C70.6364 68.6446 67.8287 69.86 66.7244 69.86C63.1978 69.86 62.0533 68.6191 62.0533 65.1889C62.0533 61.9303 60.38 61.185 57.3822 61.185C54.012 61.185 49.7582 62.2295 52.3774 57.5149C53.9155 54.7463 55.043 52.33 57.0485 49.4331C58.985 46.636 60.7187 41.2412 60.7187 37.8294C60.7187 34.6619 61.6718 32.9685 63.0172 30.1554C63.7701 28.5812 64.469 27.9993 65.6493 26.8189C65.9737 26.4945 65.084 25.3824 65.5381 25.4472C65.9768 25.5099 67.8432 29.0024 68.0591 29.4881C68.8958 31.3708 70.5881 31.91 71.7663 33.1954C74.5597 36.2428 79.1415 37.4135 82.7397 39.164C84.0886 39.8202 85.2951 40.2745 86.7436 40.6469C86.9728 40.7059 89.3386 41.5029 89.3386 41.4254C89.3386 40.4183 86.6338 37.705 85.928 37.1621C82.6747 34.6596 80.5899 31.0618 78.7359 27.4862C76.1947 22.5854 74.6988 16.7835 71.7663 12.1753C70.0472 9.47394 67.4104 9.13537 64.0552 9.13537C61.212 9.13537 56.333 10.0881 54.194 7.94905C51.4427 5.19774 48.9293 4.61232 45.3707 2.83306C42.1772 1.2363 36.3852 2.07364 33.6929 4.16766C30.8809 6.35479 29.6768 6.46615 26.0189 6.46615C23.7761 6.46615 24.5142 7.25283 23.0531 8.50514C21.5035 9.83336 19.6746 11.7725 18.1596 13.2875C15.8889 15.5582 13.7123 17.9312 11.6719 20.4425C10.0336 22.4588 6.90184 23.6218 5.48081 25.818C4.63999 27.1174 -0.332744 28.4872 3.33061 28.4872C6.43137 28.4872 10.5599 26.547 13.6738 25.855C16.6588 25.1917 18.9767 24.6731 21.6444 23.1487C24.5405 21.4938 21.2216 27.6033 20.8288 28.4872C19.5032 31.4698 22.8302 32.5007 22.6824 35.1602C22.5227 38.0343 19.7077 41.2845 22.0151 44.1688C23.2058 45.6572 24.5537 44.9165 21.8668 44.3542C19.4211 43.8423 18.4223 43.8096 20.9771 44.5395C22.8543 45.0759 23.3497 51.7809 23.3497 53.474C23.3497 57.1341 23.2778 60.0112 22.0151 63.4835C21.4554 65.0227 20.2395 71.0701 22.0151 72.0102C26.459 74.3628 35.7873 76.5014 40.403 73.8638C42.4174 72.7127 46.0122 69.7837 46.6683 67.4874C47.4322 64.8134 47.3466 60.7194 50.0419 59.0348C50.4981 58.7497 51.6937 56.7559 52.0438 56.1432C53.1873 54.142 54.4663 52.1825 56.0476 50.5082C57.9874 48.4543 58.5701 44.4738 58.7168 41.8332C58.8662 39.1432 59.4593 35.6583 60.5704 33.1583C61.6013 30.8389 62.0326 28.0523 59.0134 27.1896C55.2678 26.1195 44.7034 23.5721 44.7034 30.4891C44.7034 31.5386 52.8117 32.1455 51.2282 29.1545C50.4013 27.5926 44.0092 28.4872 42.3679 28.4872C38.6775 28.4872 35.4186 27.8199 31.7281 27.8199C27.5619 27.8199 25.5126 31.8237 30.7271 31.8237C31.5081 31.8237 36.9792 30.2252 35.2129 28.6355C33.9628 27.5104 30.62 29.0414 29.0218 28.1535C27.4763 27.2949 22.1668 27.243 22.0151 29.8218C21.8463 32.6907 22.0151 35.6221 22.0151 38.4967C22.0151 40.1656 18.3248 43.5521 20.3468 45.1698C21.6161 46.1852 22.0151 50.6814 22.0151 52.1764C22.0151 54.4146 23.8696 57.866 22.1634 59.9987C20.8996 61.5785 20.9628 66.05 21.8668 67.8581C22.6688 69.4621 23.5832 70.3752 25.018 71.4912C25.312 71.7198 29.4485 72.2325 28.2803 72.4921C25.4843 73.1135 26.2699 71.4784 24.017 73.8638C22.8309 75.1198 22.6824 76.5714 22.6824 78.2013C22.6824 79.2378 22.0442 83.0525 23.3497 83.2061C24.7067 83.3657 26.7654 84.131 28.0208 84.689C30.7161 85.8869 35.8223 86.7487 38.0304 84.5407C39.5025 83.0685 39.7029 81.7262 40.366 79.8696C40.7999 78.6544 41.5986 74.7397 41.3298 73.5302C41.0864 72.4348 41.4253 73.3527 43.3688 72.3809C44.9612 71.5847 46.038 71.4187 46.038 69.5263C46.038 66.556 48.0399 63.9059 48.0399 61.185" stroke="black" stroke-width="3" stroke-linecap="round"/>
</svg>
