<svg width="150" height="106" viewBox="0 0 150 106" fill="none" xmlns="http://www.w3.org/2000/svg">
  <path
    d="M9.8307 20.6912C8.85857 18.6468 5.91269 13.7331 4.14075 10.441C3.3249 8.92531 2.46897 8.12411 2.22151 7.87813C0.381735 6.0493 8.25172 12.0421 10.5097 13.8597C12.0627 15.1098 12.3818 16.2694 13.0653 16.3225C14.6844 16.4481 15.4249 14.3104 16.0612 13.9672C17.8556 12.9995 20.6244 13.4267 21.8071 12.6917C22.9811 11.9622 22.3978 9.01966 23.7691 3.28257C24.0448 2.12932 24.1653 1.84351 24.3612 1.59606C26.3762 -0.949141 25.3437 13.026 25.8342 14.1573C26.3734 15.4008 27.6002 16.2665 28.3868 17.4949C29.4362 19.1339 30.8407 20.6853 31.2855 21.8651C31.7389 23.0677 30.3575 24.5149 29.6196 25.9393C29.4463 26.2738 29.3736 26.5771 29.1777 26.7273C28.9818 26.8775 28.6902 26.8775 28.4913 26.7317C27.3839 25.9196 26.3335 24.4266 24.8119 23.9817C24.3837 23.8565 23.8825 23.9317 23.4863 24.0289C23.0901 24.1261 22.7984 24.3205 22.6968 24.5665C22.5952 24.8125 22.6924 25.1041 22.8883 25.3516C23.2967 25.8675 24.3568 25.9938 25.4851 25.848C25.9521 25.7876 26.1273 25.4105 26.2274 25.1144C26.3276 24.8184 26.3276 24.5267 26.1818 24.3279C24.9186 22.6054 20.7363 24.1261 19.5565 24.5194C18.3444 24.9234 17.2013 25.599 16.3632 26.5785C16.1478 26.8303 16.1172 27.1662 16.2129 27.4137C16.3087 27.6611 16.6003 27.8556 16.9936 27.9557C17.3869 28.0559 17.8729 28.0559 18.2206 27.9101C18.5682 27.7642 18.7626 27.4726 18.8141 27.1765C18.8657 26.8805 18.7685 26.5888 18.5726 26.3414C17.687 25.2227 15.7283 25.8936 14.5485 26.2869C13.9608 26.4828 12.591 26.583 10.9708 26.7288C10.4032 26.7799 10.4199 27.1662 10.4685 27.4623C10.6725 28.705 11.3036 29.8175 11.5968 30.9973C11.8966 32.2043 12.1874 34.3247 12.4805 36.2498C12.6889 37.6182 13.46 38.9497 14.198 40.1295C14.8861 41.2298 15.7166 42.6792 16.4074 43.9106C17.0476 45.0518 18.6624 45.0418 20.0382 44.9961C21.3929 44.9512 21.9058 43.4746 22.3963 43.0342C23.9168 41.6689 23.0842 38.4666 23.6719 38.1234C24.2221 37.8021 24.8517 37.7773 25.3908 37.9231C25.991 38.0854 26.033 39.4387 25.9358 40.7629C25.8952 41.3165 25.6442 41.601 25.3982 41.7999C24.9209 42.1857 23.7824 42.1961 22.5068 42.0503C21.9914 41.9913 21.8145 41.6128 21.6657 41.3167C21.517 41.0207 21.4198 40.729 21.4183 40.433C21.4168 40.1369 21.514 39.8453 21.7099 39.6464C22.5171 38.8272 24.7427 38.2781 26.5677 36.9951C28.2418 35.8183 31.038 36.6961 31.5771 36.9892C31.8544 37.14 32.019 37.4768 32.1192 37.9187C32.2193 38.3606 32.2193 38.9438 32.0735 39.2929C31.8326 39.8696 30.7523 39.8394 29.7227 39.7422C28.9327 39.6676 28.4899 38.9586 28.1953 38.2736C28.0349 37.9008 28.0951 37.3943 28.3382 37.0467C28.8587 36.3021 29.8597 36.3043 30.4474 36.3529C31.6719 36.4542 33.1915 36.8935 35.0606 37.2838C35.8859 37.4562 36.1462 38.3635 36.2935 38.9998C36.6152 40.3896 36.049 43.3509 35.3655 45.4807C35.0592 46.4354 33.9898 46.8093 33.3535 47.2011C29.7858 49.3979 22.5038 47.4044 20.7363 47.3985C20.3784 47.3973 20.4358 47.9818 20.5331 48.3279C20.6303 48.6741 20.8247 48.9657 21.0707 49.1645C22.0294 49.9396 23.3758 50.0498 24.6043 50.443C26.0819 50.9161 27.6945 50.9335 29.708 50.9851C31.0812 51.0202 32.2134 50.0557 33.4419 49.5136C34.9209 48.861 36.1432 48.3883 37.0771 47.453C37.2807 47.249 37.2273 46.9154 37.3245 46.9109C39.1446 46.8282 38.0109 52.2003 38.0625 60.8199C38.0821 64.096 37.6221 66.0518 37.2774 67.2316C36.944 68.3729 36.9327 70.4617 36.7383 72.6711C36.604 74.1972 34.2873 74.3002 33.8396 75.48C33.6141 76.0741 34.5731 76.4654 35.0636 76.8557C36.4651 77.9711 34.9708 80.3864 34.9192 84.4045C34.891 86.6024 35.8487 88.5347 36.1462 90.0606C36.6014 92.3952 38.2054 94.0375 39.1878 96.9289C39.4054 97.5695 39.4839 97.8672 39.3881 98.1146C38.9453 99.2592 37.2332 99.6347 36.0534 100.521C35.4888 100.946 34.8736 101.211 34.3345 101.504C34.0572 101.655 33.8926 101.991 33.9869 102.239C34.5771 103.788 37.1213 103.959 38.4013 104.011C39.629 104.06 40.7565 103.081 41.9363 102.392C42.9691 101.789 44.0971 101.997 44.7835 101.706C45.7073 101.313 45.4758 99.4521 45.3299 98.1765C45.1677 96.7575 43.3194 96.2116 42.7773 94.6385C42.2534 93.1179 41.5519 91.9872 41.3029 90.8074C40.656 87.7411 41.2514 82.5604 41.6447 81.1361C41.9883 79.8914 42.4297 78.7308 42.823 77.5024C43.2827 76.0663 43.7082 74.7067 43.9528 72.6976C44.2881 69.9425 43.9056 67.8281 43.7583 67.2404C43.6853 66.9492 43.7082 66.6527 44.4373 66.6969C48.4976 66.943 50.3718 67.9194 53.1748 68.1684C54.9073 68.3222 56.6642 68.2199 57.844 68.0711C58.1417 68.0336 58.4317 67.9253 58.6306 68.0211C59.5533 68.4653 58.7322 73.0924 58.9767 75.8718C59.1238 77.5436 59.3214 81.8299 59.859 86.3238C60.0483 87.9058 60.6941 89.0296 61.136 90.2094C61.8156 92.024 61.8725 94.8211 62.2658 96.1011C62.4477 96.6933 62.5618 97.281 62.416 97.82C62.0289 99.2512 59.4274 99.6347 58.0001 101.059C57.6984 101.36 57.654 101.697 58.09 101.944C60.9178 103.549 63.6341 102.781 68.3372 102.93C69.3351 102.961 69.626 103.075 69.8249 102.98C70.0237 102.884 70.1209 102.592 69.9766 102.296C69.2612 100.829 68.0647 99.9411 67.3268 98.7613C66.6099 97.6152 66.4916 96.1114 66.0011 94.5914C65.0604 91.6759 64.2351 89.931 63.7416 88.1576C63.5251 87.3794 63.4456 86.4873 63.5914 85.6536C63.8312 84.2824 65.602 83.7388 66.2913 82.4131C66.5003 82.0111 66.3915 81.388 66.2456 80.9903C65.7547 79.6513 63.6518 78.6365 63.1996 75.7407C62.7068 72.585 63.5428 68.6147 63.8359 67.9283C64.6099 66.1157 68.7364 66.258 70.7057 65.7159C72.0851 65.3362 73.1611 64.6849 74.3409 64.0471C75.4496 63.4477 76.8906 63.2119 78.1705 62.5742C79.4482 61.9375 81.2092 60.9554 83.0769 59.8271C85.4314 58.4048 86.7121 58.0095 88.9186 56.5381C90.3884 55.5578 91.9145 55.0637 93.1945 54.5216C94.4301 53.9983 95.5497 53.4906 96.7295 53.0487C97.9862 52.578 99.0848 51.8232 100.07 51.5242C101.007 51.2398 100.852 53.6791 101.69 54.8589C102.402 55.8613 102.814 59.7417 103.557 63.4447C104.127 66.2876 104.882 68.2081 105.276 69.5883C105.361 69.8884 105.471 70.176 105.716 70.3262C107.385 71.352 110.179 71.5546 111.459 71.7034C112.846 71.8646 114.403 72.1438 116.075 72.7787C120.618 74.5038 111.958 81.659 111.465 83.1393C111.08 84.2933 110.974 85.4945 110.826 89.657C110.778 90.9986 110.58 92.0726 110.434 93.1523C110.142 95.3147 105.28 93.9433 104.741 94.3837C104.471 94.6044 104.299 94.9213 104.199 95.266C103.992 95.9769 104.487 96.8862 105.222 97.7199C105.776 98.3477 108.688 98.4622 112.615 98.2678C114.026 98.198 114.209 97.6845 114.309 96.7065C114.781 92.0992 115.582 88.9589 116.42 86.9778C116.976 85.6631 117.844 84.328 118.189 83.1481C118.553 81.9001 120.578 78.554 121.821 76.3726C122.485 75.2068 122.658 74.0174 123.195 72.5445C123.477 71.7729 123.639 71.0686 123.737 70.4809C124.007 68.8735 120.507 67.7309 118.442 65.9177C116.474 64.1895 117.844 59.6828 118.237 58.1583C118.568 56.8762 119.317 55.753 120.541 54.0355C122.233 51.6618 123.046 47.8993 124.567 41.5833C125.415 38.0582 125.898 35.5266 126.143 34.0021C126.387 32.4805 126.782 30.7131 127.026 28.9014C127.612 24.5629 126.587 23.3484 125.95 22.1686C125.333 21.0269 122.681 19.2301 120.21 18.2388C118.124 17.4024 116.577 16.7673 114.421 15.9336C109.762 14.1325 108.134 13.2323 105.532 12.4457C104.012 11.9864 102.926 11.3646 101.257 11.2158C100.86 11.1804 100.569 11.07 100.759 10.6797C102.008 8.11426 103.798 7.14608 104.978 6.21077C106.387 5.09405 108.217 4.39464 109.641 3.94981C111.311 3.42822 113.52 2.82154 117.193 2.76999C119.135 2.74273 120.295 3.2104 122.012 4.1899C124.433 5.57065 127.071 7.52904 128.984 8.5601C130.631 9.44784 132.568 10.4749 135.167 12.2881C137.151 13.6714 138.365 14.7936 139.152 16.8027C140.352 19.8678 140.333 21.7635 140.577 23.967C141.223 29.7849 140.333 32.5513 140.088 35.3116C140.011 36.1904 140.038 37.5534 140.087 38.0115C140.197 39.0499 140.527 35.0376 141.211 30.4759C141.719 27.085 145.63 32.569 146.468 33.6486C146.858 34.1519 146.911 34.8284 146.767 34.9787C144.937 36.8833 142.796 31.697 141.857 30.417C141.481 29.9032 141.317 29.2372 141.168 28.7467C140.669 27.1017 145.824 29.3285 147.104 29.8219C147.395 29.9342 147.692 30.0178 147.939 30.2137C148.187 30.4096 148.381 30.7013 148.287 30.8029C147.111 30.5127 144.575 28.1737 142.694 26.5859C142.398 26.3885 142.106 26.1941 141.806 25.6992"
    stroke="#000000" stroke-width="2" stroke-linecap="round" />
</svg>
