<svg width="98" height="132" viewBox="0 0 98 132" fill="none" xmlns="http://www.w3.org/2000/svg">
<path d="M6.38551 15.0631C5.84019 14.2471 5.29487 12.6111 4.74749 10.969C4.47483 10.151 4.33542 7.70324 4.33542 4.89872C4.33542 4.12033 3.24478 7.26452 2.76506 8.90664C2.2948 10.5164 1.60471 12.1847 1.12499 14.0975C0.38781 17.0367 3.09717 18.745 4.39898 20.3871C5.70078 22.0293 6.24611 23.6652 6.45317 26.3283C6.6509 28.8715 7.33675 31.8656 8.49915 33.5077C9.70988 35.2181 9.80506 36.7858 9.86861 39.3812C9.91497 41.2745 13.2082 41.1648 16.0742 41.6445C21.7442 42.5935 25.3611 40.4924 28.1082 39.5309C29.3207 39.1065 30.1624 38.2988 30.8451 37.8908C31.1786 37.6915 31.2572 37.2122 31.1239 36.8001C30.5289 34.9601 28.1247 34.8833 26.2119 34.4036C25.5463 34.2366 24.5821 34.3339 24.0942 32.7779C21.6097 24.8545 22.9256 22.8616 22.9892 21.2195C23.0641 19.284 24.5575 17.9414 24.904 15.6186C25.1761 13.7944 26.7388 11.9305 27.772 10.0813C28.9947 7.89313 28.7971 5.23083 29.2768 3.3181C29.4437 2.65249 29.3465 1.68828 29.1435 1.26801C28.9406 0.847743 28.5347 0.983049 28.1903 1.25571C26.7111 2.42671 25.5251 3.98438 24.7707 5.6265C23.9626 7.38553 22.655 8.90459 21.6279 10.5467C20.6701 12.0781 20.0555 13.8248 18.6922 14.9913C17.2929 16.1886 15.0041 16.0143 13.362 16.3608C10.6751 16.9276 7.20965 16.4325 6.79758 15.9548C6.66227 15.798 7.19735 15.6125 7.3388 15.3398C8.05538 13.9586 6.1149 12.2011 5.49988 10.559C5.168 9.67291 4.74544 8.37567 4.54248 7.07591C4.47971 6.67393 3.93361 6.99391 3.7245 7.33627C2.88546 8.71 2.83476 10.5447 2.28739 12.1868C1.74001 13.8289 1.4653 16.2767 2.28124 18.337C3.10648 20.4209 5.28667 22.0252 5.90579 23.7349C6.58506 25.6108 6.38551 27.3554 6.72583 29.0652C7.11888 31.0399 8.15679 32.6856 9.18388 34.3277C10.1604 35.889 9.80096 37.6099 10.2089 38.3603C11.0789 39.9604 12.9417 39.7994 13.6244 39.8015C15.1815 39.8061 15.8118 37.8887 16.6298 37.7514C17.0362 37.6831 17.4478 37.8846 17.6569 38.4956C17.866 39.1065 17.866 40.1889 17.5277 40.7466C17.1895 41.3042 16.513 41.3042 15.9615 41.1689C15.41 41.0336 15.0041 40.763 14.7273 40.4206C14.4506 40.0782 14.3153 39.6723 14.6515 39.4632C14.9877 39.2541 15.7995 39.2541 16.2177 39.5247C16.636 39.7953 16.636 40.3365 16.9066 40.6154C18.1471 41.8935 20.3179 40.4842 21.7571 39.8056C22.7561 39.3345 22.2368 37.6181 22.8498 37.0031C23.133 36.719 23.5981 36.794 23.8748 36.997C24.4677 37.4317 24.4263 38.5653 24.2233 39.5206C24.1275 39.9717 23.6145 40.2053 23.2024 40.3447C22.7903 40.4842 22.3844 40.4842 22.1753 40.2812C21.9662 40.0782 21.9662 39.6723 22.3044 39.4632C22.6427 39.2541 23.3192 39.2541 23.6001 39.4571C23.881 39.66 23.7457 40.0659 23.473 40.3427C22.3135 41.5197 19.5225 41.3042 16.9886 41.6445C16.1081 41.7628 14.7499 41.7142 14.0528 41.9172C13.3558 42.1201 13.3558 42.526 13.4235 42.9381C13.6952 44.5934 14.0364 46.2162 14.2435 48.1986C14.4281 49.9662 14.9959 54.2525 14.2476 57.2887C13.6492 59.7169 14.3071 63.0269 15.0615 64.669C15.8412 66.3662 16.4965 67.9471 16.5006 69.5893C16.5054 71.489 14.9959 73.138 14.6556 74.9195C14.3199 76.6769 14.1758 80.5019 13.4952 84.1408C13.1265 86.112 12.6752 88.3086 12.6711 97.2367C12.6702 99.1175 13.077 99.5185 13.4194 99.7953C13.7617 100.072 14.1676 100.207 14.4444 100.074C15.0558 99.7797 14.9959 98.7108 14.9282 97.8928C14.8938 97.4766 14.7253 97.0748 14.4526 96.9333C13.8502 96.6208 12.9499 97.2019 12.5378 97.4746C12.1343 97.7416 13.7617 98.0219 14.3768 98.4299C14.6631 98.6198 14.5859 99.1085 14.5859 99.047C14.5859 97.4749 14.9959 90.4325 15.4039 86.0023C15.5744 84.1503 16.4965 82.3142 17.0439 80.672C17.6063 78.9849 18.8172 77.3939 19.1637 75.7518C19.3377 74.9272 19.912 73.9744 20.73 73.0191C21.9683 71.5728 24.0081 71.7849 28.5757 71.7132C31.8373 71.6619 33.7091 72.7361 35.9642 73.2159C39.915 74.0563 41.6388 72.6049 44.0928 72.1252C49.7368 71.0219 52.5617 72.4655 54.7614 72.0576C56.4634 71.7419 58.0395 70.6943 60.2926 70.0751C63.2644 69.2585 66.9041 70.4154 69.1818 71.3687C69.5235 71.5118 69.93 71.3749 70.2068 71.5081C71.4911 72.1265 70.3483 81.0021 70.6886 87.6833C71.131 96.3689 71.1683 98.5591 71.5086 100.341C71.8443 102.098 71.9883 103.893 72.1913 105.054C72.2817 105.571 72.8002 105.808 73.2122 105.88C74.864 106.168 76.0844 105.132 76.7671 104.724C77.1006 104.524 77.1792 104.045 77.0459 103.701C76.9127 103.356 76.5067 103.086 75.8917 102.946C75.2767 102.807 74.4648 102.807 73.979 103.01C73.4931 103.213 73.3578 103.619 73.4911 103.895C73.6243 104.172 74.0302 104.308 74.4423 104.377C74.8544 104.447 75.2603 104.447 75.6047 104.176C77.4583 102.72 76.2279 99.2643 75.6805 97.4151C75.0962 95.4412 74.5879 93.7947 74.1081 91.7466C73.265 88.1471 74.7191 86.4143 75.0614 71.5676C75.1588 67.3462 77.1792 65.9134 77.4539 63.5907C77.6842 61.6431 78.5486 58.8201 79.3646 55.0521C79.5353 54.2636 79.9099 53.7523 80.2522 53.6765C83.439 52.9704 80.8775 63.2893 80.2584 66.2353C79.4549 70.0585 79.7787 72.3179 79.4384 74.3701C78.9224 77.4811 78.9586 84.8399 80.7279 91.312C81.3132 93.4532 82.0994 95.2789 82.3064 97.8087C82.484 99.9784 83.3294 101.839 83.4012 107.704C83.4449 111.282 83.3294 115.099 83.6718 117.287C83.7434 117.744 84.2807 117.838 84.1515 117.975C82.5411 119.688 79.1062 119.199 75.8917 120.639C74.218 121.388 79.3605 120.028 80.6582 119.757C81.2026 119.643 81.2793 118.945 81.4167 118.937C82.0143 118.901 81.8288 120.704 81.9641 121.526C82.0424 122.002 82.9194 120.442 83.3971 120.233C87.5498 118.415 88.3849 129.589 89.0676 130.139C89.2833 130.312 89.4797 129.606 89.4141 129.056C89.1548 126.885 88.1184 125.095 87.8417 123.787C87.6743 122.996 89.205 125.354 89.5494 125.63C91.6915 127.352 85.2565 121.405 83.6082 120.302C83.113 119.971 85.1048 120.983 85.8551 120.985C86.2244 120.986 86.4702 120.446 86.4743 120.034C86.4828 119.173 85.523 118.662 85.1786 118.525C84.6052 118.296 86.7449 119.068 87.0216 119.14C87.2512 119.199 86.216 118.265 86.2057 117.781C86.1955 117.297 86.872 117.026 87.4235 116.954C89.3536 116.703 90.8451 117.567 91.0542 117.567C91.251 117.567 90.0455 117.567 89.7626 117.77C89.4797 117.973 89.7503 118.379 89.6191 118.588C89.4879 118.798 88.9467 118.798 88.4649 118.662C87.9831 118.527 87.5772 118.256 87.7064 117.982C88.5909 116.1 91.251 117.428 93.4405 117.432C93.6407 117.433 93.0468 117.026 92.971 116.819C92.8951 116.612 93.3011 116.477 93.3072 116.137C93.3134 115.796 92.9074 115.255 92.2248 114.976C91.5421 114.697 90.5949 114.697 89.9041 114.9C89.2132 115.103 88.8073 115.509 88.5982 116.057C88.3891 116.604 88.389 117.28 88.389 117.358C88.389 117.822 87.8478 116.067 88.0426 115.657C88.364 114.98 90.8082 115.517 91.8537 115.72C93.9526 116.128 95.0805 118.248 95.9006 118.861C96.2542 119.125 96.1794 119.609 95.9764 119.954C95.7735 120.298 95.3675 120.569 95.1584 120.302C94.9493 120.036 94.9493 119.224 94.9493 119.009C94.9493 118.793 94.9493 119.199 94.6111 119.544C93.7796 120.39 92.0874 120.438 91.2633 120.438C91.251 120.438 92.0628 120.438 92.2104 120.37C93.6771 119.698 89.3485 118.802 89.0061 117.984C88.3463 116.407 90.1644 115.111 90.1665 114.564C90.1672 114.37 89.6273 114.558 89.4182 114.831C89.2091 115.103 89.2091 115.509 89.412 115.786C90.5474 117.334 93.3052 116.473 93.6496 116.61C94.2229 116.839 91.1362 116.337 89.0184 116.067C87.8162 115.913 87.8437 114.156 87.774 113.133C87.741 112.648 88.1102 112.245 88.0467 112.104C87.8543 111.676 86.7531 112.508 86.0704 112.715C84.1126 113.309 86.0601 107.735 86.6793 105.89C87.5308 103.352 85.9289 98.067 85.113 94.6126C84.6342 92.5857 84.5595 90.5145 85.1069 88.8724C85.3795 88.0544 85.6542 87.2303 85.8592 86.4123C86.2614 84.8075 84.5677 83.1342 83.9486 81.2891C83.097 78.7514 84.9695 76.9839 85.4492 74.9338C85.9483 72.801 84.8383 70.8337 84.8342 66.1287C84.8321 63.7157 86.1996 62.2233 86.2713 55.4764C86.3116 51.691 85.1171 47.8727 83.8829 46.1629C82.5831 44.3621 81.0169 43.4937 79.3748 43.0816C77.646 42.6478 74.063 40.7712 71.2442 39.6662C66.9877 37.9976 59.0154 39.7953 56.5573 40.6851C51.6055 42.4775 49.8556 42.3948 46.1039 42.4666C43.0063 42.5258 40.0152 41.8536 38.373 40.558C36.8516 39.3575 33.7419 39.2541 31.4027 39.7297C29.5105 40.1145 28.1205 40.7548 27.3026 41.0295C26.9119 41.1607 26.4846 40.763 26.8843 40.6236C30.1178 39.496 32.479 39.8035 36.2369 39.7318C37.1945 39.7135 33.5943 41.1648 29.2952 42.8684C25.6716 44.3044 23.7457 46.6303 23.3356 47.5836C22.8489 48.7152 23.6022 50.0458 24.4201 51.0011C26.2066 53.0876 30.1583 53.0553 32.2105 53.3977C32.5523 53.4547 32.356 54.0065 32.0834 54.3509C29.8364 57.1892 19.8259 58.1067 16.3674 58.322C16.0249 58.3433 15.9553 57.7131 15.9533 57.2334C15.9489 56.2038 16.6319 54.9783 17.5851 53.615C20.9267 48.8362 32.0362 45.962 35.6259 45.472C39.2802 44.9732 42.873 48.1351 43.6233 48.7481C43.9994 49.0553 44.2383 49.4963 43.7012 49.8408C42.0279 50.9137 40.0111 50.8699 39.2607 51.3455C38.3529 51.921 38.3669 54.1377 38.8405 56.5261C39.2731 58.7082 42.5901 59.3409 44.9108 59.7529C45.8635 59.9221 46.4196 59.3532 46.6985 58.9411C47.7212 57.4296 46.8461 54.1705 45.6837 52.1738C44.8072 50.6682 42.3359 51.5546 41.2452 51.7576C40.6694 51.8647 40.1546 52.3665 39.8758 52.7785C39.5969 53.1906 39.5969 53.5965 40.0705 54.1439C42.5785 57.0427 45.1896 58.5167 46.9711 60.3618C48.1135 61.545 48.2073 63.3016 48.0044 64.3943C47.2136 68.6514 36.7309 64.6793 36.0482 63.726C35.2963 62.6761 35.4968 60.5873 35.6997 58.6746C35.9829 56.0056 42.1801 56.3436 44.7816 55.6569C45.7441 55.4028 46.6984 55.1095 47.7891 55.1074C50.5551 55.1022 52.2993 58.2461 54.2817 58.3896C55.2553 58.4601 55.9935 57.299 56.8115 56.4133C57.6991 55.4523 58.183 54.0229 58.2527 52.2517C58.3341 50.1839 56.8259 47.8768 55.5958 45.8287C55.1172 45.0318 55.1776 44.5925 56.3277 44.3834C62.7286 43.2196 65.2805 43.7643 66.9205 44.3055C70.1886 45.384 65.7151 51.2594 64.3395 53.7339C62.8349 56.4402 60.2454 57.2867 58.5992 58.5885C58.2539 58.8616 58.1871 59.3368 58.5234 59.7488C60.3097 61.9382 62.685 62.0757 64.3231 62.418C67.5764 63.098 68.9788 54.9824 69.6615 52.9282C69.9655 52.0134 71.4348 51.9646 72.6628 52.0323C73.2176 52.0629 73.6202 52.2353 73.897 52.5756C75.0904 54.043 73.9031 55.6507 73.9011 56.1981C73.9003 56.3924 74.4402 56.2042 74.7847 55.9316C75.5027 55.3631 75.8138 54.4289 75.8835 53.5432C76.05 51.4282 73.5054 49.3815 70.2232 47.1879C69.5535 46.7404 69.1264 46.5032 68.7143 46.3638C68.3023 46.2244 67.8964 46.2244 67.6873 46.9686C67.0807 49.1273 67.6135 51.1405 68.0891 52.0261C69.325 54.3275 71.8407 55.5072 72.8043 61.1039C73.2914 63.9334 76.3591 57.7131 77.9274 54.9824C78.5854 53.8368 78.5486 52.3829 78.3457 50.9499C77.9521 48.1709 72.4148 47.192 70.3544 46.2264C69.5737 45.8605 68.4417 45.1379 67.4166 43.7745C66.9538 43.159 67.0681 42.4112 67.2711 41.8598C67.88 40.9024 68.8394 40.2135 70.2683 39.8035C71.156 39.6641 72.3738 39.6641 74.4484 40.4841" stroke="black" stroke-width="2" stroke-linecap="round"/>
</svg>
