<svg width="123" height="95" viewBox="0 0 123 95" fill="none" xmlns="http://www.w3.org/2000/svg">
<path d="M27.2504 49.1618C27.2504 54.5449 26.9673 65.7358 26.7507 68.3823C26.4066 72.587 26.1095 78.6038 26.0344 86.5197C26.0144 88.6257 26.3926 89.9018 26.6049 91.3302C26.6956 91.9402 27.2418 92.1923 27.6729 92.409C28.104 92.6256 28.5286 92.7671 28.8889 92.6277C30.5555 91.9829 30.536 89.4901 31.0379 85.8613C32.5983 74.5785 31.5397 72.4786 31.8958 70.5441C32.0895 69.4913 32.2518 68.4681 32.893 67.6831C33.2144 67.2897 33.6758 67.0397 34.1069 66.9647C34.538 66.8896 34.9626 67.0312 35.3229 67.3164C36.8168 68.4991 36.6869 73.7139 36.3309 77.1068C36.1131 79.1825 35.8291 84.5745 35.4731 88.3298C35.4186 88.9045 35.4001 89.6102 35.6125 90.1163C36.3607 91.9001 38.3984 91.7677 39.1833 91.7699C41.0589 91.775 40.9763 88.3491 41.3323 86.2023C41.8489 83.0871 41.8341 72.2813 43.4705 67.2478C44.0453 65.4796 46.9727 68.318 49.0466 68.5346C50.8958 68.7277 52.832 69.3217 56.6066 69.6777C63.1663 70.2964 67.9947 69.609 68.8505 69.3238C73.854 67.6559 83.0031 68.3265 84.6502 67.5351C85.3798 67.1846 85.5853 72.7102 85.656 79.3565C85.721 85.4597 86.1558 91.6219 86.5118 92.4776C86.6967 92.9221 87.0093 93.3333 87.5798 93.5521C88.1503 93.7708 88.9996 93.7708 89.6494 93.6293C90.2992 93.4877 90.7239 93.2046 91.0134 92.8465C92.1419 91.4505 92.0193 83.5451 91.6632 78.6938C91.5105 76.6124 90.8783 74.9064 90.6617 71.0524C90.5881 69.7439 90.3035 68.4724 90.2328 67.3979C90.2172 67.1624 90.0204 67.5973 90.0891 67.6038C90.1577 67.6102 90.4408 67.1856 90.9405 66.9668C91.4402 66.7481 92.1479 66.7481 92.5125 67.5266C94.3759 71.5055 93.5892 73.6024 94.091 75.3911C94.6548 77.4005 94.8759 79.1785 95.0926 81.6084C95.2639 83.5304 96.1628 85.1836 96.3794 87.2575C96.5725 89.1066 97.308 90.3351 97.7348 91.0492C98.1608 91.7622 100.015 91.6262 101.943 91.5554C102.741 91.5261 103.163 91.3431 103.382 90.2793C104.492 84.88 102.888 83.0561 102.316 81.3382C101.743 79.6203 100.89 77.9089 100.171 76.191C99.4204 74.3961 99.3111 68.6525 98.8843 65.0388C98.6719 63.2405 97.7412 61.6094 97.5246 58.4675C97.3822 56.4017 96.7375 53.8972 96.3815 51.6711C96.3014 51.1703 96.3086 50.603 96.5209 50.2406C97.3778 48.7779 99.7315 48.8787 103.585 48.8037C105.798 48.7606 107.452 49.8738 109.17 50.5172C109.621 50.6861 110.026 51.0148 110.315 51.373C110.877 52.0679 110.892 53.5841 110.751 55.2977C110.566 57.5344 108.61 59.0187 107.892 60.7366C107.544 61.5687 107.319 62.4544 107.176 63.3809C107.011 64.4453 107.602 65.457 108.029 66.1711C108.948 67.7093 111.313 67.889 113.031 68.4616C113.462 68.6053 113.886 68.7469 114.176 69.0321C114.465 69.3174 114.607 69.742 114.538 70.1731C114.231 72.1006 113.037 74.027 113.249 76.0988C113.377 77.3469 114.748 77.7545 115.604 78.2542C116.405 78.722 117.464 78.7582 118.675 78.4043C120.326 77.9221 121.041 76.1889 121.541 75.3332C122.008 74.5321 122.045 72.9075 121.903 70.9795C121.738 68.7341 119.051 67.8976 117.333 66.8231C115.731 65.8211 113.903 65.1782 112.683 63.752C112.08 63.0471 112.179 61.8925 112.25 60.8224C112.379 58.8722 114.461 57.3201 115.25 55.6022C116.118 53.7127 116.468 50.3285 115.544 47.9522C114.698 45.7774 111.759 44.7352 110.041 43.946C108.151 43.0779 105.616 42.7278 103.607 42.301C101.469 41.847 98.8908 41.5869 97.1729 40.9435C95.2764 40.2332 93.7436 39.0133 91.6697 38.4406C89.8574 37.9402 87.8844 37.2975 86.0206 36.7249C83.9316 36.083 81.3045 36.0107 79.5866 35.4381C77.7759 34.8345 75.7284 34.7239 73.6566 34.2221C70.2402 33.3945 62.2084 33.7202 56.5744 33.3642C51.2812 33.0297 49.2804 32.8624 47.5647 33.1455C45.5426 33.4791 45.5573 36.7142 44.412 38.4321C43.2214 40.218 41.6969 41.8614 40.1956 43.2232C38.6942 44.5852 37.1244 45.5845 35.4066 46.1571C33.4647 46.8044 31.1194 46.8713 29.26 47.3732C26.9011 48.0098 25.3974 45.7389 23.5423 44.9454C21.9732 44.2743 20.3918 44.7309 19.5361 44.3749C17.8009 43.653 17.2477 41.4496 16.1732 39.7317C15.2001 38.1758 14.9572 36.3024 14.5283 22.4071C14.4445 19.6935 13.679 19.8486 13.2458 20.1338C11.5548 21.2471 10.1017 22.7052 7.60529 23.7089C6.47489 24.1634 4.41404 23.8548 3.25163 23.6425C2.08922 23.4301 1.80612 23.0055 1.58951 22.5744C0.352454 20.1126 1.36861 16.1426 1.87046 14.0708C2.05606 13.3047 1.94338 12.1535 2.36803 11.5702C3.94159 9.40849 6.65306 9.99168 8.37094 9.20244C10.1464 8.38677 11.5172 7.13499 13.0892 5.48789C14.5432 3.96444 16.5185 3.12876 18.2364 2.41029C19.907 1.71161 21.9488 1.26719 31.0036 1.05058C35.8239 0.935264 40.1098 0.975513 41.8277 1.61891C43.6574 2.3042 45.257 3.12018 46.8333 4.19036C47.5727 4.69232 47.4103 7.10925 47.6226 9.75362C47.7854 11.7811 50.8331 11.9819 52.551 13.1272C53.4067 13.6977 54.2689 14.2724 54.9831 14.9137C55.648 15.5107 55.56 16.9833 55.4184 18.4824C55.3098 19.6326 54.1359 20.5606 53.0657 21.56C52.2086 22.3605 49.8595 22.568 47.0006 22.3557C44.9223 22.2013 44.6994 19.1451 43.2689 17.8519C43.0541 17.6577 42.8378 18.2701 42.8357 18.7012C42.8269 20.4712 43.5499 23.8291 43.9059 26.8466C44.3596 30.6927 44.4077 32.708 44.7637 33.6516C46.1009 37.1959 44.1246 28.1527 43.0544 26.5764C42.0462 25.0913 37.9995 25.5705 34.8404 25.2145C30.1408 24.6849 28.1169 26.2825 26.399 26.8552C24.6974 27.4224 23.9648 29.4223 22.6094 30.7842C21.8946 31.5024 21.6743 34.1277 21.8866 37.4155C22.0344 39.7037 25.0972 40.0084 26.815 40.581C30.0819 41.67 35.9578 39.5966 37.9673 38.3699C38.8122 37.8541 39.6852 37.156 40.3286 36.2295C41.5304 34.4988 40.9763 32.7251 40.7639 31.7257C40.5647 30.7881 39.2648 30.5762 38.2676 30.3617C37.7032 30.2403 36.9872 30.2888 36.6226 30.5719C35.1021 31.7525 35.6875 33.7159 35.6854 34.5009C35.6843 34.8872 36.2494 35.1443 36.822 35.2901C38.0708 35.6082 39.2562 35.1529 40.0412 34.5116C40.8259 33.8706 41.2594 32.8667 41.6175 32.4356C41.8881 32.1099 41.2636 33.7159 40.8369 34.5009C39.9267 36.1748 37.5534 36.4311 35.8355 37.5056C34.2335 38.5076 30.9907 38.8674 27.9067 39.2234C26.8432 39.3462 25.1401 39.2964 24.1943 39.084C23.2485 38.8717 23.1069 38.4471 23.034 37.9452C22.7353 35.8896 23.6731 34.1578 24.3873 32.5106C24.7684 31.6317 25.9593 31.434 26.815 31.2903C27.2402 31.2189 27.6708 31.4297 28.0311 31.715C28.7822 32.3097 28.9661 34.1363 28.7538 36.1373C28.5541 38.0198 25.8264 37.5806 24.7562 37.6514C24.2483 37.685 23.8275 37.8637 23.6088 37.0166C22.3565 32.1673 24.102 30.2974 24.3894 28.2235C24.7649 25.5138 24.8227 22.1476 24.25 20.4298C23.5589 18.3565 23.5359 16.1383 22.8946 15.3533C22.2535 14.5686 20.5419 14.4183 18.6846 14.6306C17.9342 14.7164 17.6766 15.2676 17.5308 15.8402C17.385 16.4128 17.385 17.1205 17.5973 17.5559C18.3558 19.1112 20.8078 19.2738 23.0962 19.3531C23.5803 19.3699 23.6731 18.7162 23.746 18.1435C23.819 17.5709 23.819 16.8632 23.6066 16.4278C23.2299 15.6554 21.3998 15.7051 19.6133 15.9174C18.9304 15.9985 18.8176 16.5544 18.8862 16.9854C19.1856 18.8658 21.2411 19.4196 22.0968 19.7778C22.5004 19.9467 22.9525 19.7113 23.1713 18.7891C23.39 17.8669 23.39 16.1683 22.8946 15.2933C22.3992 14.4183 21.4084 14.4183 20.7564 14.6306C19.6806 14.9809 19.3881 16.1297 19.2444 16.9854C19.173 17.4106 19.3838 17.8411 19.669 18.2015C20.2637 18.9526 21.3826 19.4196 22.5236 19.8486C23.0786 20.0572 23.6645 19.9944 24.1685 19.7821C26.222 18.917 26.2467 16.5672 26.5341 15.7115C26.6713 15.3028 26.2553 14.8558 25.8971 14.5662C25.2022 14.0044 23.1198 13.9893 20.7607 14.3432C19.8937 14.4733 19.9586 15.4048 20.0293 15.9817C20.1001 16.5586 20.2417 16.9833 20.81 17.202C21.3783 17.4208 22.3692 17.4208 22.9504 17.2085C23.5316 16.9962 23.6731 16.5715 23.746 15.9281C23.819 15.2847 23.819 14.4354 23.5359 13.7148C23.2528 12.9942 22.6866 12.428 21.9703 12.1363C21.2539 11.8447 20.4046 11.8447 19.8964 12.057C19.0567 12.4077 19.1007 14.4054 19.313 16.4771C19.3972 17.2984 19.95 17.5581 20.5934 17.7039C21.2368 17.8497 22.0861 17.8497 22.6651 17.6374C23.6715 17.2684 24.102 16.1383 24.531 15.0702C24.7768 14.458 24.6768 13.5776 24.4645 13.0693C24.2522 12.561 23.8275 12.4194 23.1841 12.3465C22.5407 12.2736 21.6914 12.2736 21.2539 12.5567C20.8164 12.8398 20.8164 13.406 21.3118 13.6977C21.8073 13.9893 22.7981 13.9893 23.3793 13.777C24.2842 13.4464 24.6725 12.561 25.5282 12.4173C29.3267 11.7795 35.3916 12.4194 37.1094 11.8468C37.5405 11.7031 37.9652 11.5616 37.7593 11.4887C36.7623 11.1355 35.4044 11.6988 34.6903 12.3401C34.0253 12.9371 34.1133 14.2681 34.2549 15.5528C34.3199 16.1432 34.6795 16.5544 35.0377 16.8439C35.7327 17.4057 37.3904 17.4208 39.2477 17.2085C39.9981 17.1227 40.2557 16.5715 40.4015 16.0697C40.7023 15.0345 40.4058 13.9936 39.979 13.2087C39.5213 12.367 37.5577 12.2736 35.4859 12.4859C34.6646 12.5701 34.405 13.1229 34.2592 13.6247C34.1133 14.1266 34.1133 14.6928 34.3257 15.126C34.7475 15.9867 35.8248 16.2755 36.7513 16.4192C37.2472 16.4962 37.8193 16.2798 38.1818 15.9946C38.5442 15.7094 38.6858 15.2847 38.6879 14.7829C38.6901 14.281 38.5485 13.7148 38.2633 13.2816C37.978 12.8484 37.5534 12.5653 36.9808 12.4194C35.732 12.1014 34.5466 12.5567 33.8324 13.198C33.1674 13.795 33.2555 16.2584 33.5386 18.9757C33.6341 19.8924 34.3879 19.7113 34.8211 19.4261C36.6792 18.2026 38.9603 15.5764 40.1163 13.4961C40.3698 13.0398 40.4015 12.428 40.2621 11.9948C40.1227 11.5616 39.698 11.2785 39.1962 11.1326C38.1611 10.8318 37.1202 11.1284 36.2644 11.4844C35.8199 11.6693 35.4087 11.9819 35.2607 12.3401C35.1128 12.6982 35.2543 13.1229 35.5395 13.4124C36.1224 14.0041 37.1116 14.1309 37.8965 14.133C38.2829 14.1341 38.5399 13.569 38.4734 13.2087C38.407 12.8484 37.9823 12.5653 37.5512 12.3487C37.1202 12.1321 36.6955 11.9905 36.3352 12.1299C35.9749 12.2693 35.6918 12.694 35.7583 13.0543C35.8248 13.4146 36.2494 13.6977 36.822 13.8435C37.3947 13.9893 38.1024 13.9893 38.5378 13.777C38.9731 13.5647 39.1147 13.14 38.9753 12.8505C36.5628 7.83996 24.1063 12.6982 23.9626 13.554C23.6467 15.4354 24.6768 17.9784 25.0328 20.908C25.1961 22.2512 25.1058 24.5239 25.3181 25.5491C25.5164 26.5067 27.2418 25.7164 34.2999 25.6413C37.1836 25.6106 38.823 27.1404 40.4701 27.8546C41.3491 28.2357 41.4052 30.1344 41.476 31.567C41.5548 33.1627 42.2588 28.1484 42.9729 27.7173C44.7452 26.6476 44.116 32.8538 45.1198 34.8548C46.5378 37.6819 43.6957 39.7167 42.411 41.4346C41.2605 42.9731 40.4101 44.8639 39.194 46.4402C38.0603 47.91 35.8376 48.4412 34.1905 49.6572C32.6089 50.8249 32.5434 53.0136 32.8952 54.7315C33.0937 55.7013 34.109 56.3078 35.3186 56.7368C38.6255 57.9094 40.1141 56.3121 40.8283 56.31C42.6323 56.3046 41.6883 60.3055 42.7585 61.9526C44.65 64.8639 51.2621 62.3215 53.0507 61.1762C55.0475 59.8977 56.8382 58.89 57.7025 57.318C58.6221 55.6454 58.4167 53.4597 58.0649 51.7418C57.688 49.9007 55.1396 49.7366 53.0657 49.4492C52.0543 49.309 51.4165 48.3082 50.9876 47.3817C50.768 46.9075 50.8417 46.3137 51.054 45.8805C51.9226 44.1082 53.8357 43.0195 54.9144 41.4475C55.162 41.0867 54.8479 40.5917 54.5627 40.3022C53.9798 39.7106 52.9907 39.5838 52.418 39.157C52.1604 38.9649 52.4116 38.4471 52.6968 38.2991C54.1418 37.5495 55.6972 40.1457 57.2693 41.01C58.8561 41.8824 60.6986 42.1531 62.4165 42.7965C62.8674 42.9653 63.2722 43.294 63.4909 43.7937C64.4415 45.965 62.4229 48.4326 62.0669 50.8668C61.5049 54.7091 60.5699 56.4451 59.4954 58.163C59.0035 58.9495 58.9914 60.1639 59.133 61.4486C59.3646 63.5506 61.5565 64.7407 63.2743 65.4591C64.9449 66.1578 68.9684 66.3191 71.853 65.8216C73.7784 65.4895 75.2823 64.0372 76.7879 62.3236C77.1924 61.8631 77.0066 61.0433 76.7943 60.5371C76.0103 58.6681 73.8668 58.4568 73.009 57.9592C72.6108 57.7283 72.7173 57.037 72.9296 56.6038C74.765 52.8588 83.2948 55.1712 83.7237 54.0323C84.3269 52.4309 83.5864 50.8818 82.9452 50.0261C80.395 46.623 72.7216 48.4498 72.0074 47.8085C71.3425 47.2115 71.2889 46.1636 71.216 45.3079C71.0642 43.5257 73.9955 43.0195 75.8549 42.3718C76.4001 42.1819 77.1353 42.2989 77.3583 42.0866C77.5814 41.8742 77.2983 41.4496 76.9401 41.1601C74.7341 39.3768 70.1523 40.8663 68.4344 41.8657C66.5791 42.945 65.2882 44.8639 64.1429 46.5818C63.0393 48.2372 62.2856 50.0111 61.5672 51.729C60.8685 53.3996 60.4241 55.1583 59.8514 56.8762C59.7078 57.3073 59.5662 57.7319 59.7056 58.163C60.3656 60.204 62.6974 61.8754 64.5611 63.2415C66.0412 64.3265 68.2735 64.1745 70.7742 64.5305C75.5388 65.2088 78.1304 63.3166 80.4316 62.8898C82.2121 62.5596 83.861 61.7467 85.6496 61.1741C87.7405 60.5047 90.0033 58.4697 91.6568 56.4601C92.3937 55.5646 93.1602 54.7422 93.8015 53.9573C94.4425 53.1726 96.2957 53.0222 97.872 53.0222C99.4376 53.0222 94.6014 54.0173 92.8836 55.1626C91.0977 56.3532 89.7373 58.1608 89.1604 59.8787C89.0232 60.2874 89.2998 60.7344 89.5851 61.024C90.7981 62.2552 92.8685 62.3129 94.5864 62.8855C95.4421 63.1708 96.3043 63.5997 97.0185 64.2409C99.2323 66.2288 97.3123 71.4577 96.8104 73.3172C96.4763 74.5553 97.0206 75.7514 97.5911 76.6071C98.1616 77.4628 98.8779 78.0419 99.7336 78.3271C100.165 78.4708 100.589 78.6123 102.314 78.7582" stroke="black" stroke-width="2" stroke-linecap="round"/>
</svg>
