<svg width="299" height="243" viewBox="0 0 299 243" fill="none" xmlns="http://www.w3.org/2000/svg">
<path d="M77.3784 17.1202C74.5249 17.4056 55.3626 30.4283 54.7793 28.3867C53.6901 24.5748 51.9723 23.3954 49.4111 20.1025C45.3942 14.9379 39.8916 13.5415 33.2405 13.5415C29.6168 13.5415 19.497 22.3309 23.167 26.0008C26.8734 29.7073 33.177 30.8698 37.4157 33.2246C38.4621 33.806 44.4718 34.3607 43.7116 36.2069C42.4823 39.1925 39.2051 38.5349 39.2051 42.1715C39.2051 47.7978 39.8873 55.1236 44.5732 58.8723C55.2541 67.4171 52.7696 80.6996 58.5568 92.274C60.59 96.3403 61.7935 100.627 63.6599 104.733C64.8761 107.409 67.5421 109.291 69.028 111.891C71.6935 116.555 82.414 114.012 86.9218 113.747C89.2439 113.61 90.9998 110.168 93.4828 110.168C96.697 110.168 99.0787 109.909 101.833 108.378C105.439 106.375 114.124 104.727 115.486 99.9617C117.11 94.2769 119.131 90.5306 119.131 83.9236C119.131 79.1078 119.131 74.2919 119.131 69.4761C119.131 66.4654 121.142 53.8587 118.468 51.1847C114.991 47.7074 108.979 42.6662 108.394 37.3998C107.785 31.9131 97.8429 25.4707 107.201 25.4707C114.006 25.4707 117.938 22.4124 117.938 15.3309C117.938 10.8303 116.869 1.6123 110.78 1.6123C102.855 1.6123 99.4827 3.10073 94.6095 9.36627C91.2736 13.6552 87.6924 17.1202 81.5536 17.1202C66.7988 17.1202 71.7338 35.8695 67.2386 43.9609C65.746 46.6477 65.6192 51.9354 61.8705 51.7148C57.2889 51.4453 58.2033 51.2338 53.5201 53.8356C47.3883 57.2421 53.3929 68.5567 58.5568 63.9091C60.8572 61.8388 64.4733 60.4146 67.1724 58.8723C68.1849 58.2937 68.0568 55.7713 67.7688 54.7634C67.5068 53.8463 64.0316 54.1007 64.9853 54.1007C71.1574 54.1007 77.5154 52.9078 83.343 52.9078C85.1443 52.9078 88.8389 49.3395 89.3076 49.9255C90.7491 51.7274 92.0391 55.2936 94.6757 55.2936C97.8978 55.2936 101.581 53.4483 102.363 49.9255C103.389 45.3109 103.068 45.7503 98.2545 45.7503C92.3169 45.7503 83.4599 48.1361 94.3444 48.1361C98.5142 48.1361 100.469 47.4746 102.695 50.2568C106.666 55.2207 100.503 50.8117 106.008 50.5219C108.767 50.3767 115.044 49.3983 117.341 51.1847C119.864 53.1469 117.938 57.5752 117.938 60.6617C117.938 67.0294 117.938 73.5294 117.938 79.7484C117.938 88.5049 119.736 106.589 106.605 106.589C104.592 106.589 102.875 109.06 101.502 110.433C99.3389 112.596 95.7999 112.382 92.8863 112.554C90.8599 112.673 86.2431 115.989 85.7288 111.361C85.4534 108.881 83.6896 101.501 81.885 99.6966C80.3806 98.1922 76.4183 99.8564 74.3961 98.2386C71.5696 95.9774 70.8334 94.7146 72.6068 91.6113C75.8471 85.9408 82.0351 85.9717 88.1147 86.3094C91.0398 86.4719 93.1911 89.8882 95.8686 89.8882C99.2233 89.8882 102.022 85.9362 105.412 85.1828C108.45 84.5077 106.134 99.5319 108.991 101.817C111.527 103.847 112.583 101.738 114.624 99.6966C115.713 98.6077 114.922 97.0125 115.817 96.1179C116.537 95.398 117.957 95.3035 118.865 94.3948C123.229 90.0316 130.805 86.9411 137.024 86.3757C147.444 85.4284 157.494 84.2697 167.643 82.4656C174.538 81.2397 182.518 80.3449 189.513 80.3449C197.214 80.3449 204.579 76.7661 212.178 76.7661C216.857 76.7661 222.437 75.828 226.957 76.8324C228.737 77.2278 230.071 81.0188 231.928 82.2005C235.198 84.2815 242.416 84.5839 244.387 88.0325C245.813 90.5278 248.439 92.071 250.882 93.4669C256.804 96.851 262.084 100.695 268.245 103.938C271.987 105.907 273.522 111.283 275.403 114.939C278.182 120.344 280.675 126.471 282.295 132.303C284.441 140.029 283.597 147.184 285.012 154.968C286.337 162.255 289.843 169.077 293.562 175.513C295 178.003 298.287 181.794 295.947 184.394C293.29 187.346 293.296 198.856 293.296 202.619C293.296 213.722 284.946 203.832 284.946 199.04C284.946 185.056 279.809 172.528 273.68 160.27C269.864 152.64 267.566 144.273 262.943 137.34C261.474 135.136 246.202 119.866 245.58 130.447C245.208 136.759 245.58 143.21 245.58 149.534C245.58 157.414 244.303 167.414 247.701 174.585C254.64 189.235 262.281 202.423 262.281 219.32C262.281 226.8 259.348 233.497 251.544 233.038C249.044 232.891 248.256 228.415 245.58 228.267C243.723 228.163 236.518 229.411 235.109 228.002C232.871 225.764 236.069 221.69 234.777 228.797C234.133 232.339 230.465 232.642 227.686 233.635C223.306 235.199 220.623 234.307 217.546 231.845C215.847 230.486 216.86 226.047 215.16 224.688C208.715 219.532 223.838 216.485 226.493 216.337C233.41 215.953 240.302 212.759 247.369 212.759C250.706 212.759 253.408 210.985 256.316 209.445C261.456 206.724 246.78 213.359 244.652 213.952C239.945 215.263 234.808 213.987 231.265 217.53C228.174 220.622 224.769 219.621 220.794 220.844C218.047 221.689 214.442 221.109 211.582 221.109C207.048 221.109 207.476 219.972 208.666 215.807C210.993 207.662 209.267 199.918 206.479 191.551C205.056 187.282 203.232 183.982 201.442 179.953C199.479 175.538 198.856 169.651 194.947 166.301C192.494 164.198 190.769 164.46 187.723 163.783C186.744 163.565 184.538 161.574 185.404 162.192C186.878 163.245 187.743 165.408 188.85 166.831C191.958 170.827 189.513 178.776 189.513 184.129C189.513 195.78 191.899 207.379 191.899 218.79C191.899 220.398 193.109 230.352 190.706 230.652C187.648 231.035 183.376 231.521 179.969 232.11C175.664 232.856 167.666 239.769 168.04 233.038C168.135 231.329 169.233 225.579 169.233 225.881C169.233 228.918 169.99 233.071 169.167 235.954C168.796 237.253 161.659 236.991 160.883 236.021C158.952 233.608 159.69 230.177 159.69 227.074C159.69 222.898 162.494 222.302 166.582 222.302C173.548 222.302 181.08 219.343 187.657 217.464C192.991 215.94 176.444 215.755 171.022 216.934C166.648 217.885 163.022 221.363 159.093 222.236C155.414 223.053 158.167 218.074 159.69 215.41C161.876 211.584 162.076 206.373 162.076 202.022C162.076 195.601 158.497 190.889 158.497 184.725C158.497 181.903 157.446 178.849 157.039 176.043C156.868 174.867 155.44 165.082 155.183 165.307C153.292 166.962 153.123 169.419 150.146 170.741C147.154 172.071 147.111 172.199 144.182 172.199C115.245 172.199 86.3026 168.392 57.3639 167.428C49.6219 167.17 37.4202 165.377 28.0049 164.446C21.7201 163.824 15.4309 162.991 9.11704 162.722C7.01607 162.633 3.85197 163.148 1.89326 162.06C0.765657 161.433 4.74861 161.463 5.20692 161.463C8.46335 161.463 9.26961 163.537 11.768 163.849C12.8508 163.984 12.9609 166.898 12.9609 166.898C12.9609 166.898 14.0415 164.462 13.3585 163.584C11.9307 161.748 18.6805 162.656 20.7148 162.656C24.4072 162.656 27.9273 161.463 31.4511 161.463C34.6322 161.463 37.8133 161.463 40.9944 161.463C44.2976 161.463 46.6448 163.849 49.3449 163.849C52.3272 163.849 55.3095 163.849 58.2917 163.849C59.6414 163.849 67.249 164.866 64.2563 165.042C61.8883 165.181 57.5163 165.635 55.9722 163.319C53.9883 160.343 57.0988 170.412 57.0988 173.989C57.0988 176.971 57.0988 179.953 57.0988 182.936C57.0988 187.21 58.2346 180.328 58.2917 179.357C58.4797 176.162 56.9416 174.801 55.6408 172.199C55.6111 172.14 59.8627 170.722 56.8337 167.693C55.7234 166.583 59.4847 173.118 59.4847 168.024C59.4847 163.993 59.7932 165.536 60.6113 169.217C61.3945 172.742 59.4847 175.545 59.4847 178.761C59.4847 182.737 59.4847 186.713 59.4847 190.69C59.4847 198.236 59.1063 205.835 58.2917 212.759C57.564 218.944 55.9059 224.347 55.9059 230.652C55.9059 240.546 60.5358 229.244 63.7261 228.333C67.4156 227.279 66.6422 226.339 66.6422 222.302C66.6422 215.896 66.6422 223.576 66.6422 225.881C66.6422 230.498 66.9409 230.65 70.8836 232.442C75.7995 234.676 79.7643 235.821 79.7643 230.056C79.7643 221.026 81.6245 214.179 70.1546 218.193C68.9197 218.625 60.6085 221.021 60.6776 219.916C60.9303 215.872 71.4659 217.53 74.4624 217.53C76.5511 217.53 81.2874 216.598 82.0838 219.386C82.5828 221.132 82.1501 211.113 82.1501 208.65C82.1501 200.689 77.2992 195.232 81.2223 186.515C83.7025 181.003 85.5088 175.255 88.1147 169.814C89.3004 167.338 95.4995 155.082 90.7656 162.656C87.4645 167.938 84.2153 169.814 77.9749 169.814C72.6238 169.814 61.7372 172.809 56.8337 168.886C52.3276 165.281 43.9767 170.495 43.9767 175.182C43.9767 175.758 45.6758 183.27 43.9767 181.146C42.4776 179.272 42.5267 174.618 40.9944 173.392C39.5042 172.2 30.6687 164.303 28.7339 167.958C26.8332 171.548 27.2759 176.58 27.2759 180.55C27.2759 188.958 25.8653 197.868 23.6971 205.999C21.8639 212.873 21.9117 220.236 19.5882 226.875C18.5642 229.8 17.7326 234.223 17.7326 237.214C17.7326 242.462 25.5549 240.196 29.5955 240.196C33.7156 240.196 34.4792 239.737 35.56 235.954C35.8468 234.951 36.1252 227.604 34.6985 227.604C33.0538 227.604 35.5107 238.02 35.6263 239.003C36.0883 242.93 41.1563 237.678 41.5246 236.021C42.2547 232.735 41.5909 228.639 41.5909 225.284C41.5909 221.997 38.7331 221.186 35.6263 222.567C31.3001 224.49 27.0676 220.063 23.6971 221.374C16.6774 224.104 39.173 224.041 39.2051 223.495C39.6448 216.02 40.0116 206.933 38.0784 200.167C37.0287 196.493 38.2559 190.848 39.2051 187.442C40.0733 184.327 40.7673 178.553 43.0489 176.043C44.1685 174.812 46.1881 175.202 47.2904 174.32C50.171 172.016 52.8886 166.379 54.713 163.186C57.8884 157.629 62.5837 154.698 68.3653 153.047C69.9925 152.582 65.453 148.868 64.2563 150.064C62.6027 151.718 63.0634 156.838 63.0634 159.077C63.0634 161.873 63.6034 165.296 62.9971 168.024C61.4843 174.832 60.5077 156.734 60.7439 154.372C61.2285 149.526 61.8705 145.202 61.8705 140.256C61.8705 138.765 59.4847 145.388 59.4847 147.148C59.4847 151.096 59.9249 162.279 53.5201 162.656C48.5295 162.95 39.7216 169.389 36.289 167.428C30.3213 164.018 33.2405 150.627 33.2405 144.829C33.2405 143.242 33.8854 135.308 34.6985 134.291C37.3188 131.016 41.3626 131.264 45.1697 129.254C50.9983 126.178 52.0977 124.515 54.9781 119.446C57.9068 114.291 58.7848 108.132 64.2563 105.396" stroke="black" stroke-width="3" stroke-linecap="round"/>
</svg>
