<svg width="197" height="144" viewBox="0 0 197 144" fill="none" xmlns="http://www.w3.org/2000/svg">
<path d="M18.7586 16.2943C6.83833 17.7844 11.4575 39.6325 13.9172 46.2736C16.0247 51.9638 17.0827 59.4071 17.0827 65.7321C17.0827 70.3041 25.9477 72.5344 29.6517 70.5735C34.2024 68.1643 32.3061 60.3881 34.0275 56.5149C36.1503 51.7386 40.3938 48.0337 42.0344 43.2943C43.3746 39.4225 44.0079 36.2272 44.9206 32.0288C45.581 28.991 47.2482 19.889 47.2482 22.9978C47.2482 27.7417 45.0588 33.5599 46.4568 38.4529C47.7798 43.0836 54.5565 32.2162 54.8361 30.9581C55.6374 27.3523 58.8421 17.5254 55.2085 14.6185C53.2636 13.0626 52.0978 10.6082 49.7154 9.21848C47.1206 7.70485 44.8526 7.91504 41.8016 7.91504C39.4008 7.91504 37.6548 9.59089 35.0982 9.59089C32.9074 9.59089 31.1096 8.5388 29.2327 7.49607C17.2197 0.822183 2 6.55033 2 21.7409C2 24.3868 5.48579 24.6736 7.44654 24.6736C9.57293 24.6736 9.64893 21.1116 11.6827 20.5305C13.4459 20.0267 12.3847 37.6545 13.9172 39.5701C15.4384 41.4716 16.0102 46.678 16.8965 49.1598C17.3638 50.4681 18.0887 57.1485 18.7586 57.8184C19.4311 58.4909 20.3308 56.6029 21.2724 56.4684C23.0346 56.2166 24.4612 55.677 26.2999 55.677C28.1868 55.677 31.598 56.0151 32.8172 57.539C35.6329 61.0588 29.8675 60.1967 28.9999 60.8908C26.0254 63.2704 29.0066 61.4553 30.4896 61.5425C31.8294 61.6213 32.4119 73.9855 25.6482 67.2218C24.5123 66.0859 19.6946 67.4 19.5965 65.7321C19.5004 64.099 21.1793 64.2866 21.1793 63.6373C21.1793 63.6004 18.9062 62.2101 18.5724 61.5425C16.1436 56.685 19.0035 52.157 16.431 47.2977C14.1306 42.9526 13.8488 36.6574 12.2414 31.6564C11.0714 28.0166 12.0551 25.9995 12.0551 22.9978C12.0551 21.7782 7.31497 22.3096 6.18964 20.9029C3.04969 16.978 4.26639 11.4126 8.28447 8.28745C11.638 5.67914 13.3491 6.25879 17.1293 4.93573C19.7285 4.02602 22.1607 3.40261 24.6241 2.23574C26.4107 1.38947 25.8646 3.04198 26.7189 3.72539C27.7877 4.58042 27.9743 6.14599 29.6517 6.23918C30.6008 6.29191 32.3458 5.83617 33.0034 6.65814C34.6769 8.75009 33.4811 11.0022 32.9568 13.3616C31.8526 18.3304 25.3083 18.9996 22.2965 22.346C20.7338 24.0824 18.8901 27.3332 18.7586 29.7012C18.4583 35.1068 17.9906 30.2422 18.9448 29.0495C19.9345 27.8124 22.5709 28.6011 23.5999 29.8874C24.6742 31.2303 21.3541 26.2421 20.6206 25.3253C18.0292 22.0861 29.2696 15.7177 31.9792 18.1564C34.1285 20.0907 31.7205 23.5298 33.1896 25.3253C33.9034 26.1977 36.5354 31.0096 35.0516 30.5857C33.5 30.1423 32.9658 30.9867 32.3516 32.215C31.7897 33.3388 32.9787 30.7257 33.4689 30.5857C34.5568 30.2748 36.0635 30.5391 37.193 30.5391C38.6318 30.5391 38.7951 32.1219 39.2413 32.1219C39.5421 32.1219 36.646 27.7007 36.5413 27.5598C35.558 26.2361 34.6943 24.0153 33.4223 22.9978C32.2575 22.0659 33.0034 17.3394 33.0034 15.8754C33.0034 9.8799 39.0197 10.535 43.4775 9.54434C46.2599 8.92603 47.4216 7.91504 50.6464 7.91504C53.1121 7.91504 58.9792 10.3514 58.9792 13.3616C58.9792 21.6859 55.8312 32.2816 59.3981 40.1287C60.9759 43.5998 65.0791 44.4507 68.6619 44.7374C72.4728 45.0422 76.5527 44.1599 80.2998 44.9701C86.308 46.2692 92.4938 47.7892 98.6411 48.0891C108.097 48.5503 117.665 48.1356 127.131 48.1356C131.697 48.1356 135.054 50.2997 139.048 51.4408C143.794 52.7969 144.139 62.5081 146.077 66.3839C148.283 70.7964 151.663 75.2506 153.479 79.7907C155.744 85.4546 165.058 86.9497 169.772 90.0321C174.275 92.9763 180.309 93.7185 185.506 94.8734C189.359 95.7295 187.311 93.5734 190.534 93.3838C192.941 93.2422 195.899 89.8749 191.558 92.5459C188.966 94.1407 187.069 94.0697 190.068 96.7355C190.261 96.9067 197.023 100.724 193.886 99.0631C192.064 98.0989 188.858 92.8672 188.858 97.5734C188.858 99.599 187.261 107.741 187.182 105.767C187.104 103.798 188.217 98.4473 186.996 96.9217C184.861 94.2528 185.084 100.409 184.482 101.763C182.472 106.285 182.877 101.403 184.017 99.2493C185.155 97.1 183.566 95.3242 181.317 95.0596C176.199 94.4576 170.737 92.7441 165.582 92.5459C159.661 92.3181 155.087 87.1814 150.732 83.7942C149.044 82.481 147.959 80.2719 146.543 79.139C146.181 78.8498 145.106 77.2821 144.634 77.6493C143.934 78.1937 143.1 79.2334 144.029 79.9769C146.93 82.2978 142.204 90.5908 141.888 91.3821C141.236 93.0114 140.454 92.6374 139.607 93.57C137.798 95.5599 137.423 100.761 136.534 103.299C134.467 109.204 134.635 115.99 133.555 122.199C132.882 126.066 131.041 130.133 131.041 134.023C131.041 136.262 131.608 139.371 130.994 141.518C130.025 144.913 119.574 136.241 118.519 139.935C117.629 143.05 122.535 141.984 124.384 141.984C125.92 141.984 128.993 141.984 128.993 141.984C128.993 141.984 126.715 142.244 125.641 141.937C124.026 141.476 120.24 140.306 118.938 139.004C117.299 137.366 123.81 137.794 124.757 137.794C126.006 137.794 127.28 137.721 128.527 137.794C130.13 137.888 128.149 139.024 126.851 138.213C124.384 136.671 122.242 137.746 119.962 135.466C117.189 132.694 120.499 124.717 118.658 121.035C117.399 118.516 117.87 116.013 116.61 113.494C115.42 111.115 115.941 106.564 114.469 104.929C112.57 102.819 112.493 98.4114 109.255 98.4114C106.741 98.4114 104.227 98.4114 101.714 98.4114C92.6205 98.4114 83.5274 98.4114 74.4343 98.4114C66.9403 98.4114 58.9486 96.7355 51.8568 96.7355C50.7606 96.7355 47.3413 95.3785 47.3413 93.8027C47.3413 93.2699 50.5194 89.6742 51.0188 88.7752C52.6233 85.8871 49.4729 84.0035 48.9706 88.7752C48.5708 92.5733 49.7619 96.2675 49.7619 99.7614C49.7619 107.222 48.1119 114.426 47.2947 121.78C46.9489 124.892 45.8087 127.832 45.5723 130.904C45.4495 132.501 44.9712 137.311 43.7102 138.446C43.6604 138.491 38.4749 136.956 37.193 136.956C30.3181 136.956 48.4354 135.599 43.0585 138.446C40.5512 139.773 38.5319 136.246 36.3551 136.118C33.2879 135.938 31.1863 135.185 32.8172 137.794C34.574 140.605 47.0052 136.794 35.5172 136.118C29.1579 135.744 32.1654 100.717 32.1654 95.8976C32.1654 90.5981 29.0968 87.5867 28.8137 82.4907C28.679 80.0657 27.2894 77.3745 27.1379 74.9493C26.9592 72.0909 27.8286 80.7859 29.2327 83.2821C36.894 96.9022 34.6792 113.653 34.6792 128.996C34.6792 131.954 33.8059 133.829 36.774 134.489C37.7465 134.705 43.3669 136.505 43.8499 134.815C44.4151 132.836 46.4102 130.151 46.4102 128.158C46.4102 124.806 46.4102 121.454 46.4102 118.103C46.4102 115.405 48.3129 113.102 48.8775 110.561C49.4814 107.844 49.7619 103.675 49.7619 100.972C49.7619 95.6423 56.41 95.4628 61.0274 96.7821C61.9952 97.0586 60.9119 132.59 60.655 136.956C60.637 137.262 49.7619 138.451 49.7619 133.604C49.7619 127.46 49.7619 121.315 49.7619 115.17C49.7619 109.41 48.924 104.07 48.924 98.4114C48.924 94.5707 50.0829 94.9123 53.7654 95.0596C56.4962 95.1689 59.5037 96.7355 62.7033 96.7355C71.2378 96.7355 79.7722 96.7355 88.3067 96.7355C95.1022 96.7355 99.6383 95.3182 102.365 102.135C103.416 104.763 102.193 108.181 102.97 110.98C103.645 113.41 103.389 116.019 103.389 118.522C103.389 123.549 103.389 128.577 103.389 133.604C103.389 135.646 103.651 140.308 105.903 140.308C107.429 140.308 113.616 141.174 114.236 139.004C115.147 135.817 114.944 132.195 116.377 129.042C119.147 122.948 118.381 125.126 116.424 130.16C115.21 133.281 115.423 137.794 111.35 137.794C110.099 137.794 104.584 136.956 106.322 136.956C110.149 136.956 107.579 135.533 107.579 132.347C107.579 130.244 105.903 127.958 105.903 125.691C105.903 122.882 105.903 120.073 105.903 117.265C105.903 115.723 104.288 115.778 104.227 114.146C104.157 112.258 104.227 110.356 104.227 108.466C104.227 103.468 103.389 98.9385 103.389 94.2217C103.389 87.8168 100.947 86.2464 95.848 83.9804C93.5788 82.9718 90.5759 82.9718 88.3067 83.9804C86.7848 84.6567 83.3317 81.9411 81.7895 81.4666C74.9093 79.3496 70.6333 83.0908 67.3585 88.8217C66.5881 90.1698 64.2491 92.1774 62.7964 92.5924C60.4957 93.2497 60.0649 96.3716 57.7223 95.851C55.5407 95.3662 53.2022 94.7857 51.0654 94.1752C49.8765 93.8355 51.3761 91.8029 49.7619 91.7079C48.3131 91.6227 47.2979 91.8258 46.0378 92.5459C44.3934 93.4855 41.3827 93.7228 41.3827 96.3165C41.3827 99.2648 41.3827 102.213 41.3827 105.161C41.3827 106.93 40.7835 109.852 41.9413 111.353C43.1354 112.901 48.4757 115.067 48.8775 116.473C49.7695 119.595 47.9579 124.565 46.4102 127.273C44.634 130.382 41.2531 134.442 37.612 134.442C34.4097 134.442 34.6792 123.072 34.6792 120.663C34.6792 112.106 33.8413 103.348 33.8413 95.0131C33.8413 90.8795 31.3275 86.8917 31.3275 82.9562C31.3275 81.7657 29.8122 80.6241 31.3275 79.7907C33.5093 78.5907 37.3027 76.0701 39.7068 75.7873C45.2282 75.1377 43.1868 59.7931 43.0585 56.3287C42.8765 51.413 38.3246 48.397 42.0344 43.7598C42.8054 42.796 46.4102 36.7315 46.4102 37.2425C46.4102 39.5089 48.0229 43.8289 51.2516 41.246C52.8364 39.9781 53.0063 36.6607 53.1137 34.7288C53.1725 33.6702 56.4654 28.3883 56.4654 31.377C56.4654 37.9011 62.6598 41.8264 60.0033 48.1356C58.661 51.3237 59.6055 55.4675 57.4895 58.377C55.6225 60.9441 56.404 63.6498 58.9792 65.0804C61.5684 66.5189 64.2348 69.2479 67.3585 67.5942C69.4546 66.4845 77.2881 61.2874 77.4136 59.0287C77.5708 56.1998 78.1954 53.2151 79.2757 50.6494C80.2614 48.3083 82.8531 41.4076 84.1636 45.9942C85.4472 50.4868 96.2442 46.536 99.1998 50.2304C100.62 52.0053 101.975 52.8721 102.505 55.258C103.051 57.7168 105.644 63.3913 108.138 64.0563C114.041 65.6305 118.725 66.5701 124.803 66.5701C128.825 66.5701 131.814 64.8637 135.65 64.0563C138.17 63.5257 141.329 62.5068 143.982 63.2649C144.825 63.5055 145.96 68.5572 146.17 69.5028C146.769 72.1957 149.784 71.8447 151.57 73.2735C153.238 74.6074 155.534 76.3499 157.482 77.4631C163.191 80.7251 166.003 89.1941 174.194 89.1941C176.314 89.1941 178.958 90.211 180.898 91.289C184.233 93.142 176.654 91.0322 175.498 90.9165C172.079 90.5747 168.739 89.7183 165.396 89.2407C161.964 88.7504 155.392 89.8133 152.827 87.5183C148.79 83.9064 146.002 75.9965 142.12 83.3286C140.395 86.5885 135.965 87.5872 132.717 88.5424C129.198 89.5772 126.36 93.3417 125.362 96.7355C123.467 103.179 124.307 110.254 127.503 116.008C128.674 118.115 130.728 119.702 131.693 121.873C132.761 124.276 131.503 127.547 130.994 129.834C130.662 131.331 129.634 136.118 128.108 136.118C125.61 136.118 122.662 137.123 122.662 134.023C122.662 131.658 119.112 120.722 116.377 125.644C115.268 127.642 115.024 129.908 113.026 131.463C111.459 132.681 106.741 130.639 106.741 133.185C106.741 136.116 110.395 135.74 111.769 134.023C112.376 133.264 113.894 133.604 111.769 133.604C110.28 133.604 109.627 133.372 108.417 132.766" stroke="black" stroke-width="3" stroke-linecap="round"/>
</svg>
