<svg width="123" height="61" viewBox="0 0 123 61" fill="none" xmlns="http://www.w3.org/2000/svg">
<path d="M27.6902 8.33288C28.7845 8.93115 30.9912 9.73385 32.4448 9.73686C32.8117 9.73761 33.0956 9.43923 33.2986 9.18819C34.0895 8.20979 34.0036 6.43887 33.8547 4.83648C33.7967 4.211 33.4083 4.02777 33.1062 3.87595C31.8996 3.26968 30.4019 3.32428 27.9502 3.27167C26.4496 3.23947 25.2911 4.02176 24.0871 4.47271C22.6295 5.0186 21.3828 6.32463 20.4283 7.37686C19.4233 8.48476 17.8774 9.52942 16.5712 10.4343C15.3816 11.2584 14.1676 12.2351 12.9635 13.1401C11.6965 14.0923 10.2593 15.0431 8.75611 16.1449C7.24953 17.2492 5.85196 18.4463 4.34727 19.7015C2.08331 21.59 1.93767 23.0581 1.28679 24.2621C0.977605 24.8341 0.933546 25.863 1.08236 27.0144C1.184 27.8009 2.13309 28.0727 2.73285 28.4229C3.29432 28.7508 4.53216 28.7762 6.03384 28.677C7.69542 28.5672 8.74408 26.9784 9.94813 26.0734C11.1049 25.204 12.3517 24.6695 13.5558 23.969C14.8066 23.2413 15.9594 22.565 17.1634 22.1637C18.3675 21.7623 22.4441 21.5609 27.7548 21.7097C29.5985 21.7614 29.6924 22.1561 29.7435 23.2024C29.8817 26.0314 29.5962 28.1719 29.246 28.7717C28.2812 30.4238 26.193 32.1794 25.0386 33.2812C23.8818 34.3852 22.7838 35.6848 21.7316 36.6393C20.669 37.6032 20.0781 38.9918 19.2754 40.1958C18.4727 41.3999 17.673 43.1947 16.3712 45.953C15.6597 47.4608 14.9673 48.6122 14.3645 50.0642C13.2755 52.6876 12.7606 54.5227 12.4088 55.8785C12.0433 57.2878 12.8568 58.2355 13.3062 58.7857C13.7556 59.3357 15.6497 59.4411 18.0533 59.3419C20.0791 59.2583 21.0702 57.042 21.7752 55.6891C22.9576 53.4201 23.9743 50.1394 24.7319 48.0229C25.2851 46.4775 25.9826 45.3172 27.3835 42.8159C28.4659 40.8834 29.5902 39.9057 31.391 37.9531C32.6311 36.6085 34.0937 34.6987 35.6014 33.9381C35.9627 33.7559 36.4988 33.887 36.804 34.0358C38.0155 34.6267 37.1121 37.2842 36.4613 39.2413C35.8205 41.1681 35.5067 45.1849 35.2572 47.8095C35.0671 49.8093 36.3004 51.8109 37.506 53.4238C38.9818 55.3984 41.9103 55.13 43.7171 55.4817C44.7954 55.6916 45.7254 55.3344 46.3251 54.7361C47.8509 53.2142 47.5322 47.8606 47.2827 44.268C47.0425 40.8097 46.9309 37.6209 47.3293 35.4443C47.5601 34.1832 49.8291 34.5905 54.3792 34.5379C56.2801 34.5159 57.4472 35.0895 58.6512 35.3887C59.883 35.6947 61.0548 36.3883 61.9101 37.4901C62.6989 38.5062 62.7624 39.8937 63.1142 41.2466C63.7098 43.5376 63.965 46.0026 64.5151 48.2078C65.3028 51.3647 67.3682 52.5204 68.8218 53.1758C70.2338 53.8125 71.5771 54.5287 73.2291 55.13C73.7563 55.3218 74.4752 55.2322 74.8826 55.0834C76.0727 54.6486 75.9904 52.4363 76.1423 43.5419C76.1788 41.404 76.3933 39.7133 76.5421 37.7081C76.589 37.0758 76.9886 37.2902 77.2411 37.69C78.7883 40.1399 79.4959 43.2007 81.4425 44.5055C84.9885 46.8822 87.3064 44.4093 88.7149 45.0075C89.3783 45.2893 89.9189 45.8102 90.4691 46.2597C91.6322 47.2099 91.5213 49.2134 92.3736 50.3679C93.2257 51.5221 94.7261 52.0214 97.4273 52.077C99.5192 52.1201 99.7407 48.4258 99.8925 46.8204C100.101 44.6153 99.9452 42.0102 99.6941 40.4093C99.168 37.0542 98.7426 35.6968 98.0421 34.4432C97.2538 33.0323 96.9388 31.7885 96.787 29.3368C96.6942 27.8387 96.2353 26.7769 96.3345 26.1742C96.5294 24.9899 98.6344 28.3673 100.088 29.8735C101.301 31.1305 102.843 31.9809 104.247 32.731C105.596 33.4515 107.245 35.8772 108.509 37.4901C109.302 38.5025 109.361 39.8937 109.513 41.3969C109.666 42.9161 109.962 44.4994 110.015 49.1518C110.036 51.0369 109.566 52.4182 108.966 53.8237C108.495 54.9265 107.461 55.5298 107.309 55.9808C107.258 56.1326 107.653 56.1341 107.906 55.9853C109.066 55.3016 109.86 54.0356 110.364 52.8316C110.487 52.5378 110.564 52.2318 110.764 52.1281C110.963 52.0244 111.261 52.1236 111.414 52.3235C112.176 53.3166 112.566 54.9255 113.418 56.08C113.84 56.6513 114.571 56.8346 115.022 56.8361C116.246 56.8401 115.476 53.0435 115.127 51.3284C114.989 50.6485 114.475 50.1244 114.473 49.971C114.454 47.956 116.673 53.1217 118.126 53.7275C118.465 53.8688 118.777 53.9274 119.079 53.8793C119.381 53.8312 119.679 53.6328 119.832 52.9353C120.239 51.0853 119.787 49.4239 119.338 48.7234C118.546 47.4898 117.382 47.118 117.28 46.8655C116.676 45.3739 120.178 48.0169 121.43 47.8185C121.924 47.7403 121.988 47.2232 121.94 46.87C121.719 45.2499 120.19 43.814 119.039 42.8099C117.667 41.614 117.484 40.0079 116.981 38.6025C116.357 36.8614 116.378 35.1978 116.079 33.8915C115.788 32.6204 114.58 31.4879 113.626 30.3335C112.748 29.2715 111.273 29.179 110.069 28.4785C108.836 27.7613 107.966 26.5755 106.762 25.7728C105.602 24.9993 104.358 24.471 103.404 23.4188C102.44 22.3562 100.655 22.1622 99.2462 21.8134C97.9169 21.4843 96.8426 20.7612 95.9377 19.7616C94.9805 18.7042 94.0346 17.6586 93.5807 16.1073C92.6602 12.9618 92.0324 11.0446 91.0779 9.89018C90.1637 8.78451 88.7254 8.23668 87.5214 7.38438C86.218 6.46177 85.4184 5.23032 83.9648 4.42762C82.6288 3.68984 81.0111 3.12586 79.6552 2.62229C78.0934 2.04226 76.5015 1.21983 73.9476 1.068C71.6844 0.933463 68.685 1.01539 66.5805 1.16721C64.859 1.29141 63.4719 1.61667 62.1687 1.76849C61.2651 1.87374 60.3634 2.11873 56.9346 2.26905C53.9052 2.40186 48.2477 2.32015 45.1857 2.36976C40.4222 2.44693 37.6172 2.81921 36.1155 3.42048C33.5925 4.43069 30.2215 3.82334 27.9953 4.07287C26.7734 4.20983 25.5917 4.92367 24.0886 5.32502C22.5826 5.72712 21.3828 6.12621 20.1788 6.57717C18.7981 7.09427 17.7752 8.42909 16.7215 9.63013C15.0613 11.5223 12.7726 13.6301 11.1597 14.6944C9.97498 15.4761 8.75611 16.0472 7.55206 16.7477C6.31928 17.4649 5.44911 18.6507 3.99553 20.0021C3.32138 20.6288 2.83958 21.2572 2.58855 21.857C2.47014 22.1399 2.63515 22.4568 2.83507 22.7093C3.664 23.7564 5.23565 23.6653 6.33749 23.5165C6.76728 23.4585 6.84406 23.0701 6.89517 22.5695C6.94628 22.069 6.94628 21.3745 6.45022 21.0167C5.95417 20.659 4.96207 20.659 4.5006 20.8078C4.03912 20.9566 4.13833 21.2542 4.33825 21.4572C4.53818 21.6601 4.83581 21.7593 5.03874 21.6616C5.24167 21.5639 5.34088 21.2663 5.24317 21.1129C5.14546 20.9596 4.84783 20.9596 4.69451 21.1084C4.54118 21.2572 4.54118 21.5549 4.69 21.7578C4.83881 21.9607 5.13644 22.0599 5.14095 22.0118C5.14546 21.9637 4.84783 21.7653 4.79372 21.5143C4.53307 20.3052 5.83993 19.1618 6.59303 17.9578C7.29534 16.8349 8.34123 15.3558 9.14844 14.1487C9.8466 13.1047 11.4498 12.9446 12.9034 12.7432C14.3272 12.5459 15.3581 11.243 16.5621 10.49C16.8488 10.3106 17.1619 10.2389 17.464 10.287C17.7662 10.3351 18.0638 10.5335 18.2667 10.7846C18.6605 11.2717 18.6711 12.632 18.8695 14.1352C18.9413 14.6787 19.4648 14.6462 19.7188 14.4974C19.9729 14.3486 20.0721 14.051 20.1232 13.6992C20.1743 13.3475 20.1743 12.9507 20.0255 12.5974C19.8766 12.2442 19.579 11.9465 19.2769 11.8428C18.9747 11.7391 18.6771 11.8383 18.5238 12.0878C18.3705 12.3374 18.3705 12.7342 18.5193 12.9882C18.6681 13.2423 18.9657 13.3415 19.3175 13.3926C19.6692 13.4437 20.0661 13.4437 20.2705 13.1957C20.4749 12.9477 20.4749 12.4516 20.3261 12.2953C20.1773 12.1389 19.8797 12.3374 19.6767 12.5884C19.4738 12.8394 19.3746 13.1371 19.4723 13.34C19.57 13.5429 19.8676 13.6421 20.1202 13.5444C20.3727 13.4467 20.5711 13.1491 20.6237 12.8469C20.6763 12.5448 20.5771 12.2472 20.3772 12.0938C20.1773 11.9405 19.8797 11.9405 19.7263 12.1389C19.573 12.3374 19.573 12.7342 19.7218 12.9386C19.8706 13.1431 20.1683 13.1431 20.3712 12.9943C20.8059 12.6755 20.7756 11.4475 20.6267 10.2449C20.5733 9.81312 20.1803 9.83607 20.027 10.0841C19.8736 10.3321 19.8736 10.8282 20.0225 11.1829C20.1713 11.5377 20.4689 11.7361 20.7756 11.9405" stroke="black" stroke-width="2" stroke-linecap="round"/>
</svg>
